<?xml version="1.0" encoding="utf-8"?>
<!-- Generator: Adobe Illustrator 18.0.0, SVG Export Plug-In . SVG Version: 6.00 Build 0)  -->
<!DOCTYPE svg PUBLIC "-//W3C//DTD SVG 1.1//EN" "http://www.w3.org/Graphics/SVG/1.1/DTD/svg11.dtd">
<svg version="1.1" id="Layer_1" xmlns="http://www.w3.org/2000/svg" xmlns:xlink="http://www.w3.org/1999/xlink" x="0px" y="0px"
	 viewBox="0 0 365 90" enable-background="new 0 0 365 90" xml:space="preserve">
<g>
	<path fill="#2E8B57" d="M50.8,63.8c-7.3,0-12.9-3.8-13-10.4h7.5c0.2,2.8,2,4.7,5.3,4.7c3.3,0,5.3-1.8,5.3-4.3c0-7.6-18-3-18-15.7
		C37.9,31.8,43,28,50.2,28c7.2,0,12.1,3.7,12.5,10H55c-0.1-2.3-2-4.1-5-4.1c-2.8-0.1-4.8,1.3-4.8,4.1c0,7,17.9,3.1,17.9,15.4
		C63.1,58.8,58.7,63.8,50.8,63.8z"/>
	<path fill="#2E8B57" d="M107.9,48.1c0-4.4-2.5-6.7-6.2-6.7c-3.8,0-6.2,2.3-6.2,6.7v15.3h-7V48.1c0-4.4-2.5-6.7-6.2-6.7
		c-3.8,0-6.3,2.3-6.3,6.7v15.3h-7V35.7h7v3.4c1.8-2.3,4.7-3.8,8.2-3.8c4.3,0,7.9,1.8,9.8,5.3c1.8-3.2,5.5-5.3,9.5-5.3
		c6.7,0,11.4,4.2,11.4,11.9v16.3h-7V48.1z"/>
	<path fill="#2E8B57" d="M132.4,35.3c4.5,0,7.5,2.1,9.2,4.4v-4h7.1v27.7h-7.1v-4.1c-1.7,2.4-4.8,4.5-9.2,4.5
		c-7,0-12.6-5.8-12.6-14.4S125.4,35.3,132.4,35.3z M134.2,41.4c-3.8,0-7.3,2.8-7.3,8.1s3.6,8.3,7.3,8.3c3.9,0,7.4-2.9,7.4-8.2
		C141.6,44.3,138.1,41.4,134.2,41.4z"/>
	<path fill="#2E8B57" d="M162.5,63.4h-7V35.7h7V40c1.8-2.9,4.7-4.7,8.5-4.7v7.3h-1.9c-4.2,0-6.7,1.6-6.7,7V63.4z"/>
	<path fill="#2E8B57" d="M176.8,41.5h-3.3v-5.8h3.3v-6.9h7.1v6.9h6.2v5.8h-6.2v13.4c0,1.9,0.8,2.7,3,2.7h3.3v5.9h-4.4
		c-5.3,0-8.9-2.3-8.9-8.6V41.5z"/>
	<path fill="#2E8B57" d="M195.2,42.6h21.2v5.9h-21.2V42.6z"/>
	<path fill="#2E8B57" d="M236.3,63.8c-7.3,0-12.9-3.8-13-10.4h7.5c0.2,2.8,2,4.7,5.3,4.7c3.3,0,5.3-1.8,5.3-4.3c0-7.6-18-3-18-15.7
		c0-6.3,5.1-10.1,12.3-10.1c7.2,0,12.1,3.7,12.5,10h-7.7c-0.2-2.3-2-4.1-5-4.1c-2.8-0.1-4.8,1.3-4.8,4.1c0,7,17.9,3.1,17.9,15.4
		C248.6,58.8,244.2,63.8,236.3,63.8z"/>
	<path fill="#2E8B57" d="M254.6,28.5h7v34.9h-7V28.5z"/>
	<path fill="#2E8B57" d="M266.7,28.5h25.6v5.7H283v29.3h-7V34.2h-9.3V28.5z"/>
	<path fill="#2E8B57" d="M318.8,56.8h-13.9l-2.3,6.7h-7.4l12.6-35h8.2l12.6,35h-7.4L318.8,56.8z M311.8,36.6l-5.1,14.6h10.1
		L311.8,36.6z"/>
</g>
</svg>
