<svg width="21200" height="6738" viewBox="0 0 21200 6738" fill="none" xmlns="http://www.w3.org/2000/svg">
<rect width="21200" height="6738" fill="white"/>
<path d="M2240.5 3887C2240.5 3026 987.5 3299 987.5 2809C987.5 2609.5 1131 2515 1323.5 2522C1533.5 2525.5 1663 2651.5 1673.5 2812.5H2212.5C2181 2371.5 1838 2116 1337.5 2116C833.5 2116 476.5 2382 476.5 2823C473 3708.5 1733 3390 1733 3918.5C1733 4093.5 1596.5 4216 1365.5 4216C1138 4216 1008.5 4086.5 994.5 3890.5H469.5C476.5 4352.5 868.5 4618.5 1376 4618.5C1932.5 4618.5 2240.5 4272 2240.5 3887ZM5377.81 4594H5867.81V3456.5C5867.81 2921 5538.81 2627 5073.31 2627C4789.81 2627 4534.31 2777.5 4408.31 2998C4275.31 2756.5 4026.81 2627 3725.81 2627C3484.31 2627 3277.81 2728.5 3155.31 2889.5V2655H2665.31V4594H3155.31V3523C3155.31 3215 3326.81 3054 3592.81 3054C3851.81 3054 4023.31 3215 4023.31 3523V4594H4513.31V3523C4513.31 3215 4684.81 3054 4947.31 3054C5206.31 3054 5377.81 3215 5377.81 3523V4594ZM6206.79 3617.5C6206.79 4223 6598.79 4625.5 7088.79 4625.5C7396.79 4625.5 7617.29 4478.5 7732.79 4310.5V4594H8226.29V2655H7732.79V2931.5C7617.29 2770.5 7403.79 2623.5 7092.29 2623.5C6598.79 2623.5 6206.79 3012 6206.79 3617.5ZM7732.79 3624.5C7732.79 3992 7487.79 4195 7218.29 4195C6955.79 4195 6707.29 3985 6707.29 3617.5C6707.29 3250 6955.79 3054 7218.29 3054C7487.79 3054 7732.79 3257 7732.79 3624.5ZM9194.86 3628C9194.86 3253.5 9369.86 3141.5 9660.36 3141.5H9789.86V2627C9520.36 2627 9317.36 2756.5 9194.86 2956V2655H8704.86V4594H9194.86V3628ZM10196.9 3992C10196.9 4436.5 10445.4 4594 10816.4 4594H11124.4V4181H10896.9C10742.9 4181 10690.4 4125 10690.4 3995.5V3057.5H11124.4V2655H10690.4V2175.5H10196.9V2655H9965.9V3057.5H10196.9V3992ZM11483.8 3551H12967.8V3138H11483.8V3551ZM15225.4 3887C15225.4 3026 13972.4 3299 13972.4 2809C13972.4 2609.5 14115.9 2515 14308.4 2522C14518.4 2525.5 14647.9 2651.5 14658.4 2812.5H15197.4C15165.9 2371.5 14822.9 2116 14322.4 2116C13818.4 2116 13461.4 2382 13461.4 2823C13457.9 3708.5 14717.9 3390 14717.9 3918.5C14717.9 4093.5 14581.4 4216 14350.4 4216C14122.9 4216 13993.4 4086.5 13979.4 3890.5H13454.4C13461.4 4352.5 13853.4 4618.5 14360.9 4618.5C14917.4 4618.5 15225.4 4272 15225.4 3887ZM15650.2 4594H16140.2V2151H15650.2V4594ZM16494.8 2546.5H17145.8V4594H17635.8V2546.5H18286.8V2151H16494.8V2546.5ZM20303.3 4594H20821.3L19942.8 2147.5H19372.3L18493.8 4594H19008.3L19169.3 4128.5H20142.3L20303.3 4594ZM20009.3 3736.5H19302.3L19655.8 2714.5L20009.3 3736.5Z" fill="#1E3163"/>
</svg>
