<?xml version="1.0" encoding="utf-8"?>
<!-- Generator: Adobe Illustrator 18.0.0, SVG Export Plug-In . SVG Version: 6.00 Build 0)  -->
<!DOCTYPE svg PUBLIC "-//W3C//DTD SVG 1.1//EN" "http://www.w3.org/Graphics/SVG/1.1/DTD/svg11.dtd">
<svg version="1.1" id="Layer_1" xmlns="http://www.w3.org/2000/svg" xmlns:xlink="http://www.w3.org/1999/xlink" x="0px" y="0px"
	 viewBox="0 0 1457.1 1500" style="enable-background:new 0 0 1457.1 1500;" xml:space="preserve">
<style type="text/css">
	.st0{opacity:0.37;fill:#CCE9FF;enable-background:new    ;}
	.st1{fill:#FFBE55;}
	.st2{fill:#2A94F4;}
	.st3{fill:#FFFFFF;}
	.st4{fill:#0E538C;}
	.st5{fill:#F7F7F7;}
	.st6{fill:#0B4870;stroke:#FFFFFF;stroke-width:1.1416;stroke-miterlimit:10;}
	.st7{fill:#F2F2F2;}
	.st8{fill:#D3D3D3;}
	.st9{fill:#FFB750;}
	.st10{fill:#FFE3CA;}
	.st11{fill:#EB4747;}
	.st12{fill:#FCD2B1;}
	.st13{fill:#F2F0F0;}
	.st14{fill:#FCBAA2;}
	.st15{fill:#CCE9FF;}
	.st16{fill:#FF957E;}
	.st17{fill:#0B4870;}
	.st18{fill:#E9D6B8;}
</style>
<g>
	<path class="st0" d="M124.5,1208.7c3.1,7.7,6.6,15.5,10.4,22.9c56.2,110.3,170.3,179.9,292,192.4c97.3,9.9,192-21.9,273.4-73.7
		c81.2-51.6,146.3-124.3,236.6-162.1c127.3-53.1,269.2-95,369-207.5c113.5-127.8,157.2-321.5,103.8-484.9
		c-52-159.5-224.4-211.1-358.4-281.3C810.3,87.9,476.7,3.9,225.9,152.4C-74.5,330.1-19.9,733.6,75.3,1013.7
		C97,1077.5,99.6,1146.2,124.5,1208.7z"/>
	<path class="st1" d="M277.7,452.6l-0.5-3.1h-3.1c-60.8,0-80.6-19.6-80.7-19.7l-2.6-3l-2.6,3c-0.2,0.2-19.7,19.7-80.7,19.7h-3.1
		l-0.5,3.1c-0.2,1-13,99,85.3,149.3l1.6,0.8l1.6-0.8C291,551.6,277.7,453.6,277.7,452.6z M262.9,513.3
		c-12.2,35.2-36.5,62.5-72.3,81.2c-35.8-18.7-60.2-46-72.3-81.2c-8.9-25.8-8.4-48.3-7.7-56.4c50.6-0.7,73.2-14.1,80.1-19.7
		c6.9,5.4,29.4,19.1,80.1,19.7C271.3,465.1,271.8,487.5,262.9,513.3z"/>
	<g>
		<path class="st1" d="M374.2,326.7l-3.5-9c-3.1-0.3-6.1-1.2-9-2.1l-7.1,6.6l-20.4-14.6l3.9-8.9c-2-2.5-3.6-5.1-4.9-7.9l-9.7-0.3
			l-4.1-24.8l9-3.5c0.3-3.1,1.2-6.1,2.1-9l-6.6-7.1l14.6-20.6l8.9,3.9c2.5-2,5.1-3.6,7.9-4.9l0.3-9.7l24.8-4.1l3.5,9
			c3.1,0.3,6.1,1.2,9,2.1l7.1-6.6l20.4,14.6l-3.9,8.9c2,2.5,3.6,5.1,4.9,7.9l9.7,0.3l4.1,24.8l-9,3.5c-0.5,3.1-1.2,6.1-2.1,9
			l6.6,7.1l-14.6,20.6l-8.9-3.9c-2.5,2-5.1,3.6-7.9,4.9l-0.3,9.7L374.2,326.7z M360.1,307.6l2,0.8c3.6,1.5,7.6,2.3,11.5,2.6l2.1,0.2
			l3,7.7l13.6-2.3l0.3-8.2l2-0.8c3.6-1.6,6.9-3.8,10-6.2l1.6-1.3l7.6,3.5l8.1-11.2l-5.8-6.1l0.8-2c1.5-3.6,2.3-7.6,2.6-11.5l0.2-2.1
			l7.7-3l-2.3-13.6l-8.2-0.3l-0.8-2c-1.6-3.6-3.8-6.9-6.2-10l-1.3-1.6l3.5-7.6l-11.2-8.1l-6.1,5.6l-2-0.8c-3.6-1.5-7.6-2.3-11.5-2.6
			l-2.1-0.2l-3-7.7l-13.6,2.3l-0.3,8.2l-2,0.8c-3.6,1.6-6.9,3.8-10,6.2l-1.6,1.3l-7.6-3.5l-8.1,11.2l5.8,6.1l-0.8,2
			c-1.5,3.6-2.3,7.6-2.6,11.5l-0.2,2.1l-7.7,3l2.3,13.6l8.2,0.3l0.8,2c1.6,3.6,3.8,6.9,6.2,10l1.3,1.6l-3.5,7.6l11.2,8.1
			L360.1,307.6z M377.2,296.1c-5.6,0-11.2-1.8-15.8-5.1c-12.3-8.7-15.1-25.8-6.4-38.1s25.8-15.1,38.1-6.4
			c5.9,4.3,9.9,10.5,11.2,17.8c1.2,7.2-0.5,14.5-4.6,20.4c-4.3,5.9-10.5,9.9-17.8,11.2C380.2,295.9,378.7,296.1,377.2,296.1z
			 M377.2,248.3c-6.4,0-12.7,3-16.6,8.6c-3.1,4.4-4.4,9.9-3.5,15.3c1,5.4,3.8,10,8.2,13.2l0,0c4.4,3.1,9.9,4.4,15.3,3.5
			c5.4-1,10-3.8,13.2-8.2s4.4-9.9,3.5-15.3s-3.8-10-8.2-13.2C385.4,249.6,381.3,248.3,377.2,248.3z"/>
	</g>
	<g>
		<path class="st1" d="M1162.5,594.7l-7.7-20.2c-8.2-1-16.4-2.8-24.2-5.6l-15.8,14.8l-42.8-30.4l8.9-19.7c-5.1-6.4-9.5-13.5-13.2-21
			l-21.5-0.7l-8.7-51.8l20.2-7.7c1-8.2,2.8-16.4,5.6-24.2l-14.8-15.8l30.4-42.8l19.7,8.9c6.4-5.1,13.5-9.5,21-13.2l0.7-21.5
			l51.8-8.7l7.7,20.2c8.2,1,16.4,2.8,24.2,5.6l15.8-14.8l42.8,30.4l-8.9,19.7c5.1,6.4,9.5,13.5,13.2,21l21.5,0.7l8.7,51.8l-20.2,7.7
			c-1,8.2-2.8,16.4-5.6,24.2l14.8,15.8l-30.4,42.8l-19.7-8.9c-6.4,5.1-13.5,9.5-21,13.2l-0.7,21.5L1162.5,594.7z M1128.3,558.4
			l2.6,1c8.7,3.3,17.9,5.4,27.3,6.2l3,0.3l7.1,18.4l36.8-6.2l0.7-19.7l2.6-1.2c8.6-3.8,16.6-8.9,23.8-15l2.1-1.8l18.1,8.1l21.7-30.4
			l-13.5-14.5l1-2.6c3.3-8.7,5.4-17.9,6.2-27.3l0.2-3l18.4-7.1l-6.2-36.8l-19.7-0.7l-1.2-2.6c-3.8-8.6-8.9-16.6-15-23.8l-1.8-2.1
			l8.1-18.1l-30.4-21.7l-14.5,13.5l-2.6-1c-8.7-3.3-17.9-5.4-27.3-6.2l-3-0.2l-7.1-18.4l-36.8,6.2l-0.7,19.7l-2.6,1.2
			c-8.6,3.8-16.6,8.9-23.8,15l-2.1,1.8l-18.1-8.1l-21.4,30.4l13.5,14.5l-1,2.6c-3.3,8.7-5.4,17.9-6.2,27.3l-0.2,3l-18.4,7.1
			l6.2,36.8l19.7,0.7l1.2,2.6c3.8,8.6,8.9,16.6,15,23.8l1.8,2.1l-8.1,18.1l30.4,21.7L1128.3,558.4z M1167.1,524.5
			c-12,0-24-3.6-34.5-11c-26.8-19.1-33-56.4-14-83.2c19.1-26.8,56.4-33,83.2-14c26.8,19.1,33,56.4,14,83.2
			C1204.1,515.8,1185.7,524.5,1167.1,524.5z M1167.3,414.5c-15.8,0-31.4,7.4-41.1,21.2c-7.9,11-10.9,24.3-8.7,37.7
			c2.3,13.3,9.5,24.8,20.6,32.7c22.7,16.1,54.3,10.9,70.4-11.8c7.7-11,10.9-24.3,8.7-37.7c-2.3-13.3-9.5-24.8-20.6-32.7
			C1187.5,417.5,1177.3,414.5,1167.3,414.5z"/>
	</g>
	<path class="st1" d="M361.9,964.7c-7.9-22.2-16.9-47.2-6.9-72.8c13.5-34.5-15.1-52.3-40.3-68.2c-21.7-13.5-42.1-26.3-35.2-47.5
		c7.6-23,7.1-40.8-1.5-52.5c-7.2-9.9-20.1-15.1-37.2-15c-13.6,0.2-25.8-16.6-38.8-34.2c-15.3-20.7-30.9-42.1-50.6-37.3
		c-3.5,0.8-6.2,2.8-7.9,5.9c-6.9,13,3.9,43.9,15.6,76.8c12.5,35.5,26.8,75.6,17.4,92.7c-10.2,18.7,8.2,35.8,27.8,54.1
		c20.7,19.2,44.2,41.1,38,68.6c-5.9,25.7-7.2,35.2-3.6,40.8c2.8,4.4,8.6,5.4,17.3,7.1c5.9,1.2,13.5,2.5,22.7,5.4
		c39.6,12.3,51.1,38,51.3,38.3l0.5,1.2l1.2-0.2c19.1-3,30.3-8.4,35.5-17.1c0.3-0.5,0.5-1,0.8-1.5
		C373.6,997.6,368.1,982.3,361.9,964.7z"/>
	<path class="st2" d="M260.6,915.7c6.6,10.2,11.3,19.1,10.9,31.6c-0.3,11.7-2.1,23.2-3.1,34.7c-0.2,2.5-0.3,4.8-0.5,7.1
		c-3.3-2.8-6.4-5.6-9.7-8.4c-1.5-0.2-3-0.2-4.6-0.2c4.6,3.8,9.4,7.9,14,12c-0.5,8.1-0.7,16.1-0.7,24.2c0,4.8-0.2,9.9,0.2,14.6
		c-4.3-2.6-8.7-5.3-12.8-7.9c-12.8-7.9-24.8-15.3-34-19.2c-7.1-3-15-5.6-22.5-8.1c-19.7-6.4-40-13-46.7-27c-3.5-7.2-3.1-15.9,1-26.5
		c10.4-27.1,0.7-31.7-15.6-39.6c-11.8-5.8-28-13.5-44.1-33c-7.1-8.6-13.3-15.9-18.9-22.4c-16.6-19.6-25.8-30.3-24.7-36.5
		c0.3-1.5,1.2-2.8,2.8-4.1c0.8-0.7,1.8-1.3,3.1-2c6.2-3.5,12.5-0.8,19.6,2.1c9.5,3.9,21.2,9,37.5,0.7c12.8-6.6,27.1-12.7,35.7-7.7
		c5.9,3.3,9.4,11.8,10.5,25.8c0.3,4.4,1.8,7.6,4.3,9.4c3.6,2.6,9.2,2.3,15.6,1l0,0c4.4,6.1,10.2,9,17.1,11.5
		c9.7,3.5,16.9,6.6,24,14.5C234,879.3,248.6,896.8,260.6,915.7z"/>
	<path class="st3" d="M208.2,942.8c-9.9-6.6-18.4-22.5-26.6-38c-11.2-21-22.9-42.8-38.8-42.3c-25.7,0.7-48.5-29.6-48.8-29.8
		l-2.1,1.6c1,1.3,24,31.6,51,30.9c14.3-0.3,25.7,20.6,36.3,40.9c8.4,15.6,17.1,31.9,27.5,39c6.2,4.1,17.8,12.5,31.4,23.2
		c0-1.2,0-2.3,0-3.5C225.9,955,215.2,947.4,208.2,942.8z"/>
	<path class="st1" d="M1074.7,1146.5c0,0,14.8-36.8-12.2-89.1c-27.1-52.3-49-44.2,16.3-84.5c65.3-40.3,0.3-166.9,55.9-183
		s103.8-221.2,146-195c42.3,26.1-14.1,126.6,16.1,156.9c30.1,30.3,34.2,68.6-28.1,99.6c-62.3,31.1,44.2,149.8-40.3,186
		S1168.2,1215.4,1074.7,1146.5z"/>
	<g>
		<path class="st3" d="M1100.5,1185.5c-0.2-0.5-9.2-47.5,19.6-108.4c29.3-62,43.2-129.7,37.5-181.4c-3.1-28,14.8-38.8,32.1-49.3
			c17.1-10.4,34.7-21.2,33.7-48.7c-0.8-24.8,9.7-83,10-85.5l3.8,0.7c-0.2,0.7-10.9,60.3-10,84.7c1,29.8-17.6,41.1-35.5,52
			c-17.1,10.4-33,20.2-30.3,45.7c5.9,52.1-8.2,120.7-37.8,183.3c-28.1,59.7-19.4,105.6-19.2,106.1L1100.5,1185.5z"/>
	</g>
	<path class="st4" d="M1324.9,880c23.5-11.2,48.5-6.1,35.5,17.4c-13,23.5-32.4,25.3-28.8,43.9c3.6,18.6,13.2,38.8-17.4,50.6
		c-30.6,11.7-44.9,9.7-63.5,44.1c-18.7,34.4-25.2,59.9-57.2,51.6c-32.1-8.4-5.4-50.6,11.2-68.4c0,0,22.5-19.1,22.2-53.4
		s-14.5-57.4,29.9-55.1C1301.3,912.7,1309,887.6,1324.9,880z"/>
	<g>
		<path class="st3" d="M1188.5,1111.7c1.3-4.4,32.2-110.8,57.5-122.3c25.8-11.8,39.8-42.8,45.9-60c7.9-22.5,41.6-27,42.9-27.1
			l0.5,3.8c-0.3,0-32.7,4.3-39.8,24.5c-7.6,21.9-22,50.5-47.8,62.3c-23.7,10.9-55.1,118.9-55.4,120L1188.5,1111.7z"/>
	</g>
	<path class="st3" d="M374.1,1026c-50.6-12.7-51.3-40-52-66.3c-0.5-21.5-1-41.9-28.4-54.4c-36.3-16.6-37.2-47.4-38-74.5
		c-0.7-20.2-1.2-39.3-16.3-49.7c-36.3-24.8-67.1-85-67.4-85.7l2.8-1.5c0.3,0.7,30.6,60,66.4,84.5c16.4,11.2,17.1,31.1,17.6,52.1
		c0.8,27.5,1.6,56.1,36.2,71.7c29.1,13.3,29.8,35.7,30.3,57.2c0.7,26.3,1.3,51.3,49.7,63.3L374.1,1026z"/>
	<g>
		<g>
			<path class="st5" d="M305.8,1001.7h831.8V401.2c0-8.6-6.9-15.6-15.6-15.6H321.5c-8.6,0-15.6,6.9-15.6,15.6V1001.7z"/>
		</g>
		<g>
			<rect x="335.2" y="415.7" class="st6" width="771.5" height="474"/>
		</g>
		<polygon class="st7" points="1137.7,912.7 721.8,912.7 306.2,912.7 215.1,1252.9 724.6,1252.9 1228.6,1252.9 		"/>
		<path class="st6" d="M337.6,972.4h51.1c2.1,0,3.8,1.6,3.3,3.5l-4.9,22.2c-0.3,1.3-1.6,2.3-3.3,2.3h-52c-2.1,0-3.8-1.6-3.3-3.6
			l5.8-22.2C334.6,973.4,335.9,972.4,337.6,972.4z"/>
		<polygon class="st6" points="412.1,972.4 450.7,972.4 445.6,1000.5 406.1,1000.5 		"/>
		<polygon class="st6" points="469.9,972.4 508.6,972.4 504.6,1000.5 465.2,1000.5 		"/>
		<polygon class="st6" points="528,972.4 566.6,972.4 563.7,1000.5 524.2,1000.5 		"/>
		<polygon class="st6" points="585.8,972.4 624.5,972.4 622.7,1000.5 583.2,1000.5 		"/>
		<polygon class="st6" points="643.7,972.4 682.4,972.4 681.7,1000.5 642.2,1000.5 		"/>
		<polygon class="st6" points="1107.4,972.4 1049.4,972.4 1055.6,1000.5 1114.6,1000.5 		"/>
		<polygon class="st6" points="1030.1,972.4 991.5,972.4 996.6,1000.5 1036,1000.5 		"/>
		<polygon class="st6" points="972.2,972.4 933.6,972.4 937.6,1000.5 977,1000.5 		"/>
		<polygon class="st6" points="914.2,972.4 875.6,972.4 878.5,1000.5 918,1000.5 		"/>
		<polygon class="st6" points="856.3,972.4 817.7,972.4 819.5,1000.5 859,1000.5 		"/>
		<polygon class="st6" points="798.5,972.4 759.8,972.4 760.5,1000.5 799.9,1000.5 		"/>
		<polygon class="st6" points="701.8,972.4 740.4,972.4 740.9,1000.5 701.8,1000.5 		"/>
		<polygon class="st6" points="320.6,1021.4 401.2,1021.4 396.6,1050.3 314.4,1050.3 		"/>
		<polygon class="st6" points="1119.9,1021.4 1020.3,1021.4 1025.9,1050.3 1127.6,1050.3 		"/>
		<polygon class="st6" points="1000.2,1021.4 960.4,1021.4 964.9,1050.3 1005.6,1050.3 		"/>
		<polygon class="st6" points="940.4,1021.4 900.6,1021.4 903.8,1050.3 944.6,1050.3 		"/>
		<polygon class="st6" points="880.5,1021.4 840.7,1021.4 843,1050.3 883.6,1050.3 		"/>
		<polygon class="st6" points="820.6,1021.4 780.9,1021.4 782,1050.3 822.6,1050.3 		"/>
		<polygon class="st6" points="308.5,1072.9 391,1072.9 384.9,1101.6 300.9,1101.6 		"/>
		<polygon class="st6" points="411.6,1072.9 452.8,1072.9 448.1,1101.6 406,1101.6 		"/>
		<polygon class="st6" points="473.5,1072.9 514.8,1072.9 782.8,1072.9 784,1101.6 468.9,1101.6 		"/>
		<polygon class="st6" points="803.5,1072.9 844.8,1072.9 847.1,1101.6 805,1101.6 		"/>
		<polygon class="st6" points="865.4,1072.9 906.6,1072.9 910.1,1101.6 868,1101.6 		"/>
		<polygon class="st6" points="927.4,1072.9 968.6,1072.9 973.1,1101.6 931.1,1101.6 		"/>
		<polygon class="st6" points="989.2,1072.9 1030.5,1072.9 1036,1101.6 994.1,1101.6 		"/>
		<polygon class="st6" points="1051,1072.9 1133.6,1072.9 1141.1,1101.6 1057.1,1101.6 		"/>
		<polygon class="st6" points="761,1021.4 721.3,1021.4 721.3,1050.3 761.6,1050.3 		"/>
		<polygon class="st6" points="701.1,1021.4 661.2,1021.4 660,1050.3 700.8,1050.3 		"/>
		<polygon class="st6" points="641.3,1021.4 601.3,1021.4 599,1050.3 639.8,1050.3 		"/>
		<polygon class="st6" points="581.4,1021.4 541.5,1021.4 538,1050.3 578.8,1050.3 		"/>
		<polygon class="st6" points="521.6,1021.4 481.6,1021.4 477,1050.3 517.8,1050.3 		"/>
		<polygon class="st6" points="461.7,1021.4 421.8,1021.4 416.2,1050.3 456.8,1050.3 		"/>
		<polygon class="st6" points="339.4,954.8 346,929.8 364.7,929.8 358.6,954.8 		"/>
		<polygon class="st6" points="383.4,929.8 420.9,929.8 415.8,954.8 377.5,954.8 		"/>
		<polygon class="st6" points="439.8,929.8 477.3,929.8 473.1,954.8 434.9,954.8 		"/>
		<polygon class="st6" points="496.1,929.8 533.6,929.8 530.3,954.8 492.1,954.8 		"/>
		<polygon class="st6" points="552.3,929.8 589.8,929.8 587.5,954.8 549.3,954.8 		"/>
		<polygon class="st6" points="608.5,929.8 646,929.8 644.7,954.8 606.6,954.8 		"/>
		<polygon class="st6" points="664.8,929.8 702.3,929.8 701.9,954.8 663.8,954.8 		"/>
		<polygon class="st6" points="721,929.8 758.5,929.8 759.2,954.8 721,954.8 		"/>
		<polygon class="st6" points="777.2,929.8 814.7,929.8 816.4,954.8 778.2,954.8 		"/>
		<polygon class="st6" points="833.5,929.8 871.1,929.8 873.6,954.8 835.4,954.8 		"/>
		<polygon class="st6" points="889.9,929.8 927.4,929.8 931,954.8 892.8,954.8 		"/>
		<polygon class="st6" points="946.1,929.8 983.6,929.8 988.2,954.8 950.1,954.8 		"/>
		<polygon class="st6" points="1002.3,929.8 1039.8,929.8 1045.4,954.8 1007.3,954.8 		"/>
		<polygon class="st6" points="1058.6,929.8 1096.1,929.8 1102.6,954.8 1064.5,954.8 		"/>
		<path class="st8" d="M1202.1,1279.4H241.5c-14.6,0-26.5-11.8-26.5-26.5l0,0h1013.5l0,0C1228.6,1267.5,1216.8,1279.4,1202.1,1279.4
			z"/>
		<path class="st8" d="M839.7,1142.9c-1-5.9-6.2-10.4-12.2-10.4H722H616.3c-6.1,0-11.2,4.4-12.2,10.4l-13.2,79.7
			c-1.3,7.6,4.6,14.5,12.2,14.5h118.7h118.7c7.7,0,13.5-6.9,12.2-14.5L839.7,1142.9z"/>
		<g>
			<g>
				<rect x="387.2" y="455.9" class="st5" width="86" height="8.9"/>
			</g>
			<g>
				<rect x="497.4" y="522.2" class="st5" width="62" height="8.9"/>
			</g>
			<g>
				<rect x="569.1" y="522.2" class="st5" width="41.1" height="8.9"/>
			</g>
			<g>
				<rect x="388.2" y="688.9" class="st5" width="41.1" height="8.9"/>
			</g>
			<g>
				<rect x="618.4" y="522.2" class="st5" width="99.5" height="8.9"/>
			</g>
			<g>
				<rect x="388.2" y="655.5" class="st5" width="64" height="8.9"/>
			</g>
			<g>
				<rect x="477.3" y="722" class="st5" width="39" height="8.9"/>
			</g>
			<g>
				<rect x="388.2" y="722" class="st5" width="77.3" height="8.9"/>
			</g>
			<g>
				<rect x="388.2" y="755.2" class="st5" width="42.6" height="8.9"/>
			</g>
			<g>
				<rect x="490" y="455.9" class="st5" width="61" height="8.9"/>
			</g>
			<g>
				<rect x="490" y="555.4" class="st5" width="61" height="8.9"/>
			</g>
			<g>
				<rect x="459.4" y="588.5" class="st5" width="26.1" height="8.9"/>
			</g>
			<g>
				<rect x="433.4" y="622.2" class="st5" width="58.5" height="8.9"/>
			</g>
			<g>
				<rect x="500.8" y="622.2" class="st5" width="80.9" height="8.9"/>
			</g>
			<g>
				<rect x="388.2" y="588.8" class="st5" width="61" height="8.9"/>
			</g>
			<g>
				<rect x="388.2" y="622.2" class="st5" width="36.2" height="8.9"/>
			</g>
			<g>
				<rect x="497.9" y="588.8" class="st5" width="34.2" height="8.9"/>
			</g>
			<g>
				<rect x="389.4" y="788.2" class="st5" width="34.2" height="8.9"/>
			</g>
			<g>
				<rect x="388" y="522.2" class="st5" width="61" height="8.9"/>
			</g>
			<g>
				<rect x="442" y="688.9" class="st5" width="61" height="8.9"/>
			</g>
			<g>
				<rect x="442.8" y="755.2" class="st5" width="61" height="8.9"/>
			</g>
			<g>
				<rect x="551.2" y="755.2" class="st5" width="61" height="8.9"/>
			</g>
			<g>
				<rect x="388" y="555.4" class="st5" width="87" height="8.9"/>
			</g>
			<g>
				<rect x="795.7" y="455.9" class="st5" width="61" height="8.9"/>
			</g>
			<g>
				<rect x="578.3" y="788.2" class="st5" width="61" height="8.9"/>
			</g>
			<g>
				<rect x="875.6" y="455.9" class="st5" width="40.8" height="8.9"/>
			</g>
			<g>
				<rect x="1013.8" y="489.1" class="st5" width="40.8" height="8.9"/>
			</g>
			<g>
				<rect x="567.4" y="455.9" class="st5" width="77.8" height="8.9"/>
			</g>
			<g>
				<rect x="870.3" y="489.1" class="st5" width="77.8" height="8.9"/>
			</g>
			<g>
				<rect x="774.9" y="522.2" class="st5" width="77.8" height="8.9"/>
			</g>
			<g>
				<rect x="673.8" y="555.4" class="st5" width="77.8" height="8.9"/>
			</g>
			<g>
				<rect x="862.4" y="522.2" class="st5" width="55.2" height="8.9"/>
			</g>
			<g>
				<rect x="702.6" y="455.9" class="st5" width="77.8" height="8.9"/>
			</g>
			<g>
				<rect x="614" y="555.4" class="st5" width="45.5" height="8.9"/>
			</g>
			<g>
				<rect x="578.3" y="689.4" class="st5" width="45.5" height="8.9"/>
			</g>
			<g>
				<rect x="659.5" y="455.9" class="st5" width="28.4" height="8.9"/>
			</g>
			<g>
				<rect x="567.4" y="555.4" class="st5" width="28.4" height="8.9"/>
			</g>
			<g>
				<rect x="966.8" y="489.1" class="st5" width="28.4" height="8.9"/>
			</g>
			<g>
				<rect x="387.2" y="489.1" class="st5" width="44.6" height="8.9"/>
			</g>
			<g>
				<rect x="506.1" y="655.7" class="st5" width="35.2" height="8.9"/>
			</g>
			<g>
				<rect x="442.8" y="489.1" class="st5" width="14.3" height="8.9"/>
			</g>
			<g>
				<rect x="737.8" y="489.1" class="st5" width="118.9" height="8.9"/>
			</g>
			<g>
				<rect x="623.8" y="755.2" class="st5" width="118.9" height="8.9"/>
			</g>
			<g>
				<rect x="467.6" y="489.1" class="st5" width="14.6" height="8.9"/>
			</g>
			<g>
				<rect x="688" y="489.1" class="st5" width="38.8" height="8.9"/>
			</g>
			<g>
				<rect x="726.9" y="522.2" class="st5" width="38.8" height="8.9"/>
			</g>
			<g>
				<rect x="527" y="788.2" class="st5" width="38.8" height="8.9"/>
			</g>
			<g>
				<rect x="595.1" y="489.1" class="st5" width="82.7" height="8.9"/>
			</g>
			<g>
				<rect x="517.9" y="689.4" class="st5" width="48.3" height="8.9"/>
			</g>
			<g>
				<rect x="515" y="755.2" class="st5" width="24.2" height="8.9"/>
			</g>
			<g>
				<rect x="554.8" y="489.1" class="st5" width="28.4" height="8.9"/>
			</g>
			<g>
				<rect x="459.1" y="522.2" class="st5" width="28.4" height="8.9"/>
			</g>
			<g>
				<rect x="464.7" y="655.7" class="st5" width="28.4" height="8.9"/>
			</g>
			<g>
				<rect x="494.4" y="489.1" class="st5" width="49.7" height="8.9"/>
			</g>
		</g>
	</g>
	<g>
		<g>
			<g>
				<path class="st9" d="M910.8,555.7c0,0,14.5,24.5,20.6,28.4c8.2,5.4,3.1,10.9-0.8,11c-3.9,0-24,1.5-28.4-3.6
					c-4.4-5.1-6.6-20.1-10.7-24c-4.1-3.9-8.4-19.6,2-23.3C902.4,540.8,910.8,555.7,910.8,555.7z"/>
			</g>
		</g>
	</g>
	<g>
		<g>
			<g>
				<path class="st10" d="M904.3,545.1c0,0,16.6,28.8,19.4,32.9c2.8,4.3-5.4,4.3-10.5,2.3c-5.1-2-17.9-22.5-19.7-26.3
					c-2.1-4.4-0.3-9.5-0.3-9.5L904.3,545.1z"/>
			</g>
		</g>
	</g>
	<g>
		<g>
			<g>
				<polygon class="st9" points="887.6,560.3 891.5,589.8 893.5,589.9 892.8,568.7 				"/>
			</g>
		</g>
	</g>
	<g>
		<g>
			<g>
				<path class="st9" d="M767.2,555.7c0,0,14.5,24.5,20.6,28.4c8.2,5.4,3.1,10.9-0.8,11c-3.9,0-24,1.5-28.4-3.6
					c-4.4-5.1-6.6-20.1-10.7-24c-4.1-3.9-8.6-20.1,2-23.3C759,541.3,767.2,555.7,767.2,555.7z"/>
			</g>
		</g>
	</g>
	<g>
		<g>
			<g>
				<path class="st10" d="M761.8,545.1c0,0,15.6,28.6,18.6,32.9c2.8,4.3-5.4,4.3-10.5,2.3c-5.1-2-17.9-22.5-19.7-26.3
					c-2.1-4.4-0.3-9.5-0.3-9.5L761.8,545.1z"/>
			</g>
		</g>
	</g>
	<g>
		<g>
			<g>
				<polygon class="st9" points="744.2,560.3 748,589.8 750.1,589.9 749.5,568.7 				"/>
			</g>
		</g>
	</g>
	<g>
		<g>
			<g>
				<path class="st10" d="M703.1,332.6L834,392.3c0,0,14.6,4.8,16.3,21c5.1,50.6,42.9,130.9,42.9,130.9c12.2,5.9,11.2,0.8,11.2,0.8
					c-7.7-24.7-16.9-126-20.4-166.6c-0.7-8.6-1.2-14.5-1.3-16.4c0-1.3-1.5-3-3.9-4.9c-17.9-14.6-91.9-44.7-91.9-44.7
					C731.7,310.9,703.1,332.6,703.1,332.6z"/>
			</g>
		</g>
	</g>
	<g>
		<g>
			<g>
				<path class="st10" d="M678.4,358.3c4.1,35.4,54.6,31.4,54.6,31.4h61.2c0,0-16.1,35.8-22.4,65.9c-6.6,32.1-22.2,88.6-22.2,88.6
					s1,2,12.2,0.8c0,0,48-95.7,66.4-119.9c3.9-5.1,15.3-33.4,17.3-50.1c0.7-5.6,0.3-10-1.8-11.8c-2.1-1.8-7.1-5.1-13.5-9.2
					c-19.2-12.2-52.5-30.7-71-34.9C734.3,313.5,695,303,695,303S674.3,322.9,678.4,358.3z"/>
			</g>
		</g>
	</g>
	<g>
		<path class="st4" d="M720,85.6c0,0-9.2-17.4-4.8-35.8c4.4-18.6,21.7-37,46.9-28.4c25.2,8.6,45.5,28,30.4,50.6
			c-15.1,22.5,13.6,32.9,6.2,43.6s-4.6,22-1.5,24.5c3.1,2.5,13.2,11.3,12,22c-1.2,10.5-48.8-30.7-48.8-30.7S734.7,78.9,720,85.6z"/>
	</g>
	<g>
		<path class="st11" d="M796.8,307.9c0,0-3.8,18.4-101.6-4.8C695.2,303.2,727.9,292.3,796.8,307.9z"/>
	</g>
	<g>
		<g>
			<path class="st3" d="M694,308.3c-1.5,3-3,5.8-4.6,8.7c35.7,1,71.5,2.1,107.2,3.1c-5.6-18.9-3.8-44.6-2.8-64
				c1.2-23.8,14.3-40.3,13-64.3c7.1,1.2,8.2,1.3,15.3,2.5c-10.9-30.9-14.5-46.2-48.2-58c-11-3.9-18.1-4.6-29.9-3.6
				c-39,3.3-50.6,3.6-69.9,39c29.9,4.8,25,15.5,34,45.4c4.4,14.5,9,30.7,6.7,46C712.6,278,694,294.6,694,308.3z"/>
		</g>
	</g>
	<g>
		<g>
			<path class="st10" d="M756.2,143.7c-15.9-3-12.5-11.8-12.5-11.8s0.7-4.9,1-11.3c0-1.6,0.2-3.3,0.2-5.1c0-2.6-0.2-5.3-0.5-7.9
				c-1.3-10.7,28.9-4.3,28.9-4.3s-1.8,21.7,2.5,28.1C779.9,137.9,772.1,146.8,756.2,143.7z"/>
		</g>
	</g>
	<g>
		<g>
			<path class="st10" d="M725.8,131.8c0,0,32.2,37.2,44.1,45.7c0,0,13.6-12.3,5.3-44.9C775.1,132.7,759.6,124.8,725.8,131.8z"/>
		</g>
	</g>
	<g>
		<path class="st10" d="M726.8,42.4c0,0-16.8,32.2-0.2,62.6c16.6,30.4,49.2-13.3,51.1-18.4c2.1-5.1,13.3-34.2-8.9-42.9
			C746.7,34.8,731.5,33.7,726.8,42.4z"/>
	</g>
	<g>
		<path class="st12" d="M759,108.3c0,0-3,6.4-14.3,12.2c0-1.6,0.2-3.3,0.2-5.1C744.8,115.4,752.6,114.6,759,108.3z"/>
	</g>
	<g>
		<path class="st10" d="M590.1,279.3c0,0-7.9,3.5-11.7,2c-3.8-1.6-9.5-2-11.3-2c-2.5,0-10.2-2.8-10,0.3c0.2,3,12.5,5.1,15,6.1
			c2.5,1-7.6,6.4-8.6,8.9c-1,2.5,10.5,18.6,16.9,14c6.4-4.6,9.9-13.8,11.2-14.5c1.3-0.7,4.8-3.1,4.8-3.1L590.1,279.3z"/>
	</g>
	<g>
		<path class="st10" d="M564.8,293.2c0,0-18.6,15.5-18.9,17.6s0.7,3.1,2.5,1.6c1.8-1.3,18.4-14.5,18.4-14.5s-18.6,22-19.2,23.7
			c-0.3,1,1.5,3,2.5,2.3c1-0.7,20.9-21.4,20.9-21.4s-17.4,20.6-17.4,22.2c-0.2,1.3,2,2.8,3.5,1.3s18.7-19.6,18.7-19.6
			s-11.7,15.8-10.9,17.3c0.5,0.8,2,2.6,4.8-1.5c2.8-4.1,10.7-13.3,10.7-13.3L564.8,293.2z"/>
	</g>
	<g>
		<g>
			<path class="st4" d="M787.8,389.5H733c0,0-50.5,4.1-54.6-31.4C674.3,322.7,695,303,695,303s26.6,7.1,50,12.7
				c11.7-2.5,25.7-4.1,42.1-3.6c0,0,98.7,32.6,95.7,49.8C882.8,362,841.5,340,787.8,389.5z"/>
		</g>
	</g>
	<g>
		<polygon class="st7" points="752.1,328.3 856.7,326.7 803.9,353.5 		"/>
	</g>
	<g>
		<path class="st3" d="M784.6,314.9c0,0-23.5,9-52.3,0.8L731,305l59.4,3.3L784.6,314.9z"/>
	</g>
	<g>
		<polygon class="st8" points="803.9,353.5 752.1,333.4 752.1,328.3 808,348.4 		"/>
	</g>
	<g>
		<g>
			<path class="st1" d="M784.1,320c-0.3,3.8,3.6,6.6,7.2,5.1l6.1-2.6c1.8-0.8,3-2.6,2.6-4.6c-2.5-15.8-7.9-77.3,0-88
				c3-3.9,4.8-7.4,5.8-10.4c5.3,13.5,11.7,30.9,14.3,40.3l49.3,65.8l16.6,4.3c-20.7-49.8-37.3-76.1-37.3-76.1
				c-3.3-8.7-12.5-35-20.7-58.4c-5.3-14.8-9.9-28.4-12.5-35.7c-1.3-3.8-3.8-6.9-7.2-8.9c-7.7-4.6-20.4-11.8-31.9-17.4h-0.2
				c-0.3-0.2-0.7-0.3-1.2-0.5l0,0l0,0C797.1,165.9,788.6,259.8,784.1,320C784.1,319.8,784.1,319.8,784.1,320z"/>
		</g>
		<g>
			<path class="st1" d="M702.6,135.5c-7.1,1.2-24.5,18.1-33.7,35.2c-10.5,19.6-21.4,41.8-29.4,49c-14.8,13.5-56.4,61-58.4,59.9
				c-0.8-0.5,11.3,14.1,13,14.8c0.8,0.3,68.2-58.2,74.8-67.1c6.1-8.4,22.5-43.9,27.5-43.1l0,0l0,0c0.3,0.8,6.4,13.8,12,32.7
				c0.2,0.3,0.2,0.7,0.3,1c3.9,13.2,3.6,27.6,1.5,43.7c-1.6,12.2-10.7,32.1-16.1,41.8c-0.7,1.2-0.5,3.5,0.2,5.1l0,0
				c0.5,1,1,1.8,1.8,2.1l19.9,7.4l4.6,1.6c3.3,1.3,6.9,0.7,9.5-1.3c2.1-1.5,3.8-3.9,4.1-6.9c4.4-33.9,10-68.6,14.5-81.6
				c19.6-57.2-7.6-100.3-7.6-100.3S708.8,133.2,702.6,135.5z"/>
		</g>
	</g>
	<g>
		<polygon class="st1" points="803.9,353.5 835,268.7 935.1,270.3 905.5,348.6 		"/>
	</g>
	<g>
		<path class="st13" d="M867,306.1c-3.1,6.1-2.1,12.8,2.1,14.8c4.3,2.1,10-1.2,13.2-7.2c3.1-6.1,2.1-12.8-2.1-14.8
			C875.9,296.8,870,300.1,867,306.1z"/>
	</g>
	<path class="st4" d="M806.2,145.8c-7.4-11.2-12.7-20.1-13.3-36c-0.5-10.5-2.8-24.8-10-31.9c7.6-19.7-1.3-25.7-4.9-32.1
		c-4.4-8.1-37.3-27.5-50.3-7.1c-13,20.2-8.4,41.4-8.4,41.4C720.5,69,732,53.9,732,53.9c1.8,11.7,26,30.7,36.5,38.5
		c-0.2,0.2-0.3,0.5-0.3,0.7c-5.9,8.6,1.5,17.1,2.8,26.1s-24.8,33.4,4.3,45.5C804.4,177.1,813.6,156.8,806.2,145.8z"/>
	<g>
		<g>
			<path class="st4" d="M276.9,1103.6c0,0-0.7,6.9-32.9,6.9s-79.1-8.4-79.1-8.4l74.8-7.2C239.7,1094.9,268.5,1093.4,276.9,1103.6z"
				/>
			<path class="st4" d="M194.8,1106.1c-18.3,0-26,9.4-33.2,12.3c-7.2,3-14.5,7.4-14.5,7.2c4.1-8.1,9.9-8.2,12.8-10.9
				s2.1-1.3-4.3-1.8c-3.6-0.3-10.2,6.4-14.8,10.2c-4.1,3.1-6.6,3.5-6.6,3.5s4.8-6.7,10.7-12.2c7.2-6.6,16.3-12,18.4-13
				c3.9-1.6,16.1-2,24.7-0.8C198,1102,208,1106.1,194.8,1106.1z"/>
			<path class="st4" d="M164.6,1101.8c0,0-14,3.6-16.4,5.6c-1.6,1.3-8.9,9-8.9,9s5.3-0.8,8.2-3.8
				C150.6,1109.5,164.6,1101.8,164.6,1101.8z"/>
		</g>
		<path class="st4" d="M250.4,1089.5c0,0,35.2,2.3,32.7,24c-1.3,12.3-9.4,16.6-20.1,15.6c-19.7-1.6-42.1-4.6-42.1-4.6l-10-33.7
			L250.4,1089.5z"/>
		<path class="st4" d="M257.8,1092.4l34.5-111.3c0,0,5.1-16.3,13.5-13.3c12,4.4,6.1,17.8,5.1,25.7c-2.1,16.1-0.7,23.2-11.8,62
			c-6.9,24-12.8,51.6-18.7,67.4c-4.1,10.9-11.2-4.8-21.9-9C238.4,1105.7,257.8,1092.4,257.8,1092.4z"/>
	</g>
	<path class="st4" d="M260.5,920.6c6.7,19.4,27.6,29.4,46.9,22.4c19.1-7.1,29.3-28.6,22.5-48c-6.7-19.4-27.6-29.4-46.9-22.4
		C263.9,879.7,253.7,901.2,260.5,920.6z"/>
	<path class="st4" d="M222.6,922.4c10.5,15.8,31.6,19.7,46.9,8.9l-2.1-18.6c15.3-11,19.1-32.7,8.6-48.5l-7.2-10.7
		c-10.5-15.8-31.6-19.7-46.9-8.9l-6.9,4.9c-15.3,11-19.1,32.7-8.6,48.5L222.6,922.4z"/>
	<path class="st10" d="M208.8,870.6c1.8,2.6,3.8,5.1,6.1,7.6c15.1,16.4,35.4,22.7,48.2,15.9c5.9,8.1,12.7,14.5,18.7,19.4
		c7.1,5.8,25.2,8.1,25.2,8.1c10.5,11.5-28.9,78.8-31.7,78.4c-5.8-0.5-13.2-37.7-7.7-51.1c2.5-6.1,6.4-13.3,5.3-16.6
		c-4.1-11.3-9.9-9.4-9.9-9.4s-7.6,8.9-13.5,8.6c-6.1-0.5-16.6-10-17.1-10.2c-1.8-1.5-3.5-3.3-4.9-5.4l-15.8-23.7
		C207.5,885.6,206.5,877.7,208.8,870.6z"/>
	<path class="st13" d="M329.5,1153.9c0,0-12.8,15.5-16.8,17.1c-5.3,2.3-21.4-2.6-21.4-2.6s-4.3-70.9-9.2-98.5
		c-4.9-27.6-12.2-34.9-12.5-43.6c-0.5-14-12.2-19.6-10.2-30.4c2-10.9,5.4-49.7,6.6-44.6c10,44.1,22.4,7.4,25.2,1.6
		C292.7,949.9,329.5,1153.9,329.5,1153.9z"/>
	<path class="st4" d="M271.1,938.2c0,0-15.6,17.1-14.5,23.8c1,6.7-6.7,27.8,1,57.1c8.7,33.4,13.3,56.1,15,77.9
		c1.6,21.9-5.8,41.9-2.8,68.7c2.3,21,7.1,22.2,7.1,22.2s9.4,2.3,15.9-5.9c6.6-8.1-3.3-79.7-6.6-97.5c-3.3-17.9-13.8-59.7-16.6-72
		c-3.5-15.1-2.8-30.6-2.6-35c0.8-15.6,2.8-25.3,4.4-31.2C271.6,945.4,272.5,936.2,271.1,938.2z"/>
	<path class="st4" d="M298.4,958.3c8.6,24.7,35.2,37.3,59.5,28.3c24.3-9,37.2-36.3,28.6-61s-35.2-37.3-59.5-28.3
		C302.7,906.1,289.9,933.6,298.4,958.3z"/>
	<polygon class="st14" points="214.7,1382.1 223.5,1451.7 185.6,1469.6 164.8,1474.2 201.9,1445.4 189.7,1382.6 	"/>
	<path class="st4" d="M225.9,1462.2l-8.2,2.1l-5.6-5.1l-30.3,15.1l-26.8,6.4c0,0-0.3-2.1,0.5-3.3c3.3-4.4,22.2-14.1,22.2-14.1
		s0.3,6.4,3,6.6c2.6,0.2,25.8-12,31.2-15.3c9.2-5.8,11-9.5,11.7-9C225.6,1446.6,225.9,1462.2,225.9,1462.2z"/>
	<polygon class="st14" points="123.5,1285.5 93.4,1344.7 52,1342.7 31.2,1336.6 77.1,1328.9 102.1,1278.2 	"/>
	<path class="st4" d="M90.9,1355.2l-8.2-2l-2.6-7.2l-37.3-0.5l-22.2-5.3c0,0,2.6-3,4.3-3.8c4.9-2.1,22.5-3.1,22.5-3.1
		s-1.8,5.1,0.5,6.4c2.3,1.5,28,2.3,34.2,1.8c10.9-0.8,14-3.1,14.3-2.5C97.5,1341.4,90.9,1355.2,90.9,1355.2z"/>
	<path class="st9" d="M343,1108.4l-22.4,10l0.2,30.7L166.7,1124c0,0-14.6-4.8-24,19.4c-13.3,34.2-47.2,140.6-47.2,140.6l21.4,23.2
		l67.3-120.2c0,0,137.8,66.9,183.2,52.5c17.4-5.6,30.7-37.5,28.3-69.7c-2-25.3-6.9-48.5-6.9-48.5L343,1108.4z"/>
	<path class="st9" d="M323.4,1238.8l-110.3-8.2l9.5,176.3l-32.6,1.2l-24-206.5c0,0,6.4-30.7,27.5-26.1
		C214.7,1180.1,265.7,1220.5,323.4,1238.8z"/>
	<path class="st2" d="M397.7,1283c0,0-57.9-64.9-72.8-101.6c-17.9-43.9-16.4-99-19.7-117.2c-6.1-33.5-13.5-98.7-14.8-106.7
		c-1.5-8.1,3.6-17.1,3.6-17.1s-3.8-24.3,7.1-21.7c15.6,3.8,31.1,12.3,36.5,15c10.2,4.6,31.1,127.3,32.2,133.2
		c4.3,21.4,19.9,40.8,31.1,60.7c26.3,47.2,33,102.9,33,102.9S430.6,1271.2,397.7,1283z"/>
	<g>
		<path class="st10" d="M338.1,1113.1c0,0-0.5,7.9-37.3,6.1c-36.8-2-90.8-14.3-90.8-14.3l85.3-3.9
			C295.3,1101,328,1101.1,338.1,1113.1z"/>
		<path class="st10" d="M238.9,1109.2c-17.6-0.3-25.2,8.7-32.1,11.5c-6.9,2.8-14,6.9-14,6.9c3.9-7.7,9.5-7.9,12.5-10.4
			c2.8-2.5,2.1-1.2-4.1-1.8c-3.6-0.3-9.9,6.1-14.3,9.7c-3.9,3.1-6.4,3.3-6.4,3.3s4.6-6.6,10.4-11.8c7.1-6.2,15.6-11.5,17.8-12.3
			c3.8-1.5,15.5-1.6,23.8-0.3C241.9,1105.3,251.6,1109.5,238.9,1109.2z"/>
		<path class="st10" d="M209.5,1104.4c0,0-13.5,3.3-15.8,5.1c-1.6,1.3-8.6,8.7-8.6,8.7s4.9-0.8,7.9-3.6
			C196,1112,209.5,1104.4,209.5,1104.4z"/>
	</g>
	<path class="st4" d="M308.6,1104.4l54.6-28.8c0,0,0.2,34.9,0.5,48.2c0.3,13.3,5.9,32.1-4.6,34.9s-15.9,1.3-5.1,7.7
		c10.9,6.2,8.4,12.8,4.3,18.3c-4.1,5.4,13.8,60.7,9.5,63.8c-16.9-21.4-35.2-47.8-43.1-67.1C314.7,1156.4,310.8,1127.8,308.6,1104.4z
		"/>
	<path class="st2" d="M326.2,1090.5l-2.1-111.2c0,0,0.2-34.7,0.8-44.9c0.7-10.5,18.6,1.8,18.6,1.8s25.2,34,25.7,116.1
		c0.3,54.9-2.6,83.5-28,81.2c-23.5-2.1-50.3-5.8-50.3-5.8l-11.7-30.4L326.2,1090.5z"/>
	<g>
		<polygon class="st8" points="320.6,1149.2 132.7,1125.6 133.2,1121.7 321.1,1145.2 		"/>
		<path class="st8" d="M238.3,1134.7c-0.3,3.1-2.8,5.4-5.4,5.1l-96.4-12c-2.6-0.3-5.9-2.8-8.2-11l-37.2-96.2
			c0.5-3.9,3.6-5.9,6.2-4.9l98.5,15.5c2.6,1,4.4,3.3,5.4,7.6L238.3,1134.7z"/>
		<path class="st8" d="M226.1,1137.3l1,0.2l94.1,11.8c-3.6,1.5-9.4,2-15.8,1.2l-78.8-9.9l-1-0.2l-78.8-9.9
			c-6.4-0.8-11.8-2.8-15.1-4.9L226.1,1137.3z"/>
	</g>
	<path class="st4" d="M326.2,1090.5l-2.1-111.2c0,0,1.6-9.4,4.9-17.8c0.8,12.2,6.4,99.8,7.1,111.3c0.8,12.5,11,13.8,13.2,17.9
		c2.3,3.9,0.3,4.8-7.2,3.3c-7.4-1.6-4.8-0.3-3.1,3.6c1.6,4.1-2.5,3-16.9-2.3c-10.5-3.8-30.7,0-40.9,2.3L326.2,1090.5z"/>
	<path class="st15" d="M976,817.7c-18.1,4.8-51.5,21.5-58.5,50.3c-10.5,43.2,10.5,106.5-22.7,168.7
		c-10.7,19.7,183.7,46.4,183.7,46.4l37.5-218.4c0,0-46.9-47.4-56.4-50.6C1039.7,807.5,1012.2,808.1,976,817.7z"/>
	<path class="st2" d="M1116.1,864.9c6.7,17.4,23.8,121.2,4.8,145.7c-2.1,2.8,9.9,7.2,7.7,20.1c-0.3,2.1-3.9,12.5-3.9,12.5l-15.5,4.1
		l-33.7-39c0,0,13.6-21.2,31.6-101.6C1112.3,882.9,1114.6,860.9,1116.1,864.9z"/>
	<path class="st12" d="M988.5,988.8c0,0,16.3,42.9,55.6,54.4c6.7,2,11,9.5,7.7,12c-4.3,3.1-9.9,3.8-19.7,3.8
		c-20.6,0-48.5-6.6-67.7-26c-28.6-28.6-37.7-41.8-34.7-56.1C932.3,962.4,988.5,988.8,988.5,988.8z"/>
	<path class="st2" d="M923.1,853.5c-8.4,14.1-13.2,36.8-13,69.4c0,25.2,21,66.4,24.2,79.1c0.5,2.1,1.8,11.2,1.8,11.2l23.2,23.7
		l46.5-32.7l-14.1-22.5l-4.3,0.5c0,0-2.6-12.5-2-17.3c0.7-4.8-12.8-69.7-19.6-111.3C962.1,829.3,931.3,839.5,923.1,853.5z"/>
	<path class="st4" d="M964.9,981.1l13.6-4.3l5.6-1.5c0.3,3.9,3.6,6.6,3.6,6.6l-10.7,1.3l-12.3,3.9l-14.5,10.4L964.9,981.1z"/>
	<path class="st12" d="M1041.1,1043.1l23.7-6.7c0,0,6.7,9.4,5.4,11.7c-1.3,2.3,0,16.1,0,16.1l-11.5,10.2l-9.4-3.3
		c0,0-0.7-4.3,2.5-4.6c3.3-0.5-2.1-2.8-3.8-3.8C1046.4,1061.5,1032.8,1054.3,1041.1,1043.1z"/>
	<path class="st16" d="M1004.6,815.5c-2.6,7.7,1.3,16.4,8.9,19.1l13.5,4.9c7.6,2.8,15.8-1.5,18.4-9.2l12-35.5
		c2.6-7.7-1.3-16.4-8.9-19.2l-13.5-4.9c-7.6-2.8-15.8,1.5-18.4,9.2L1004.6,815.5z"/>
	<path class="st12" d="M1063.5,846.8c-1.3,5.1-6.6,8.2-11.5,6.7l-40.6-11.7c-4.9-1.5-7.9-6.7-6.6-12l16.6-62.3
		c1.3-5.1,6.6-8.2,11.5-6.7l40.6,11.5c4.9,1.5,7.9,6.7,6.6,12L1063.5,846.8z"/>
	<path class="st1" d="M1084.6,778L1084.6,778c0.3-0.3-3.8-4.9-1.6-14c2.8-12.2-6.2-17.1-13-17.3c-3.9-0.2-17.3,6.2-24.3,8.4
		c-7.1,2.1-6.4-0.7-19.2-3c-8.6-1.6-10.5,3.1-13.5,9.7c-3,6.7-3.3,32.4-3.3,32.4c1.2,1.6,3,3,4.1,1.6c1.2-1.3,5.8-21.9,9.5-28
		c3.6-6.1,18.4,3.6,26.5,8.4c7.9,4.8,15,5.6,27.6,3c1.5,1.6,2.8,3.5,2.8,4.3c0,1.6-3.6,13.3-3.6,13.3s7.1-4.4,9-7.9
		C1086.5,787.9,1086.9,782.3,1084.6,778z"/>
	<path class="st12" d="M1017.6,816.8c-0.5,1.6-2.1,2.8-3.8,2.3l-8.7-2.5c-1.6-0.5-2.6-2.3-2.1-3.9l4.4-16.6c0.5-1.6,2.1-2.8,3.8-2.3
		l8.7,2.5c1.6,0.5,2.6,2.3,2.1,3.9L1017.6,816.8z"/>
	<path class="st1" d="M1012.2,801.1c0,0-6.6,24.5-8.7,32.7c-2,7.4-3.5,24.5,36.8,36c23.8,6.7,27.8-11.7,29.4-17.6
		c1.2-4.6-0.2-19.6-2-22.9c0-0.2-2.6,10.2-2.6,10.2s-2.3-11.3-13.6-14.5c-18.3-5.3-25.5,4.8-33.4,2.1
		C1011.9,825.1,1010.1,813.2,1012.2,801.1z"/>
	<path class="st12" d="M1039.7,838.7l12.5,3.6c1.6,0.5,3.5-0.5,3.8-2.3l0.5-1.8l-18.6-5.3l-0.5,1.8
		C1037,836.6,1038,838.2,1039.7,838.7z"/>
	<path class="st17" d="M1237.8,1087.8c-5.8,16.6-107,77.6-141.1,74l-102.4,5.1c-87-11-128.3-151.1-128.3-151.1
		c3.5-35.2,89.3,15.8,119.9,31.6c48.3,25,79.1,26.3,79.1,26.3c32.4,3.5,69.9-22.5,110.8-23.3
		C1220.7,1049.2,1247,1061.7,1237.8,1087.8z"/>
	<g>
		<path class="st8" d="M1015.2,1071.1C1015.2,1070.9,1015.2,1070.9,1015.2,1071.1v-4.6l176.1-3.3v4.4v0.2l-0.5,0.8
			c-2.1,3.9-6.2,4.6-10.9,4.8l-153.2,3c-4.6,0.2-8.7-0.5-11-4.3L1015.2,1071.1z"/>
		<path class="st8" d="M1057.6,1070.9C1057.6,1070.9,1057.6,1071.1,1057.6,1070.9l-0.5,0.8c-0.7,1-1.5,1.8-2.5,2.3l-26.8,0.5
			c-4.4,0.2-8.4-0.3-10.7-3.5l-0.5-0.7c0,0,0,0-0.2-0.2v-2.1l40.8-0.8L1057.6,1070.9z"/>
		<g>
			<polygon class="st8" points="1081.4,1069.2 1169.4,1067.6 1169.4,1064.5 1081.3,1066.3 			"/>
		</g>
		<g>
			<path class="st8" d="M1058.6,1065.5l21.2-90.1c0.5-2.3,2.8-4.3,5.1-4.4l123.6-2.3c2.3,0,3.6,1.8,3.1,4.3l-21.2,90.1
				L1058.6,1065.5z"/>
		</g>
	</g>
	<path class="st12" d="M978.8,1190.1c12.2,2.1,21.5-12.5,21.5-12.5l31.6-25.7l-6.7-17.4l-61.5,28.6
		C963.7,1163.1,966.5,1188,978.8,1190.1z"/>
	<path class="st9" d="M1000.2,1176.6c0,0,0,1.5-2.3,8.2c-2.3,6.7-5.3,9-8.2,10c-11.8,3.6-20.2,1.8-48.5,7.4
		c-28.3,5.6-36.8,1.3-45.1-12.2c-8.2-13.5,0.3-24.2,14.1-25.2c19.9-1.5,31.1,0.8,41.4-0.8c10.9-1.6,11.5-4.3,17.9-8.4
		c5.9-3.8,11.5,18.9,5.9,24.2C970.4,1184.5,996.1,1185.2,1000.2,1176.6z"/>
	<path class="st3" d="M994.3,1189.6c-11.7,3.6-20.2,1.8-48.5,7.4c-28.3,5.6-36.8,1.3-45.1-12.2c-3.8-6.2-3.9-11.8-1.8-16.1
		c-6.2,4.4-8.4,12.2-2.8,21.4c8.2,13.5,16.8,17.8,45.1,12.2c28.3-5.6,36.8-3.8,48.5-7.4c2.3-0.7,4.6-2.3,6.6-6.1
		C995.6,1189.1,994.9,1189.4,994.3,1189.6z"/>
	<path class="st18" d="M1000.2,1177.1c0-0.3,0-0.3,0-0.3c0,0.2-0.2,0.3-0.3,0.5C1000,1177.1,1000.2,1177.1,1000.2,1177.1z"/>
	<g>
		<path class="st3" d="M939.2,1187.1c-0.8,0.3-1.6-1.5-2-3.9c-0.5-5.1-1.6-10-3.3-15.1c-0.8-2.5-0.8-4.6,0.2-4.9s2.6,1.5,3.3,3.9
			c1.6,4.9,2.6,10,3.1,15C940.8,1184.5,940,1186.8,939.2,1187.1z"/>
		<path class="st3" d="M947.9,1185.5c-1,0.2-1.8-1.5-2.1-3.8c-0.5-4.8-1.6-9.5-3.3-14.1c-0.8-2.3-0.8-4.3,0.3-4.4
			c1-0.2,2.6,1.6,3.5,3.9c1.5,4.6,2.6,9.4,3.1,14C949.6,1183.4,948.9,1185.3,947.9,1185.5z"/>
		<path class="st3" d="M957.1,1185.2c-1,0.2-2-1.6-2.3-4.1c-0.8-4.9-2-9.7-3.8-14.6c-0.8-2.5-0.8-4.4,0.2-4.4c1.2,0,2.8,1.8,3.6,4.3
			c1.8,4.8,3,9.7,3.6,14.5C958.8,1183,958.1,1185,957.1,1185.2z"/>
	</g>
	<path class="st4" d="M981,1148.2c0,0,216.5-92.2,228.9-92.4c41.8-0.3,32.2,43.4,11,64.1c-25,24.3-215.1,68.9-215.1,68.9L981,1148.2
		z"/>
	<polygon class="st12" points="1066.8,1164.3 1007.6,1106.1 1032.9,1080.3 1097.4,1150.6 	"/>
	<path class="st4" d="M1079,1118.6c0,0-150.4-142.9-160.5-147.2c-34.4-14.5-55.6,24.8-54.4,38.5c1.6,17.6,154.4,160.6,154.4,160.6
		L1079,1118.6z"/>
	<g>
		<path class="st9" d="M1168.1,1168.7c3.5,3.3,4.1,13.3,4.1,13.3s-50.1,19.7-67.7,20.1c-4.6,0.2-12.8-1.8-20.7-4.1
			c-1.3-0.3-4.4-3.9-5.8-4.3c-2.5-0.7-3,1.6-4.9,1c-5.3-1.8-9.2-3.3-9.4-3.6c-10.7-23.3-7.1-34.9-7.1-34.9s23,6.9,19.1,1.5
			c-8.4-11.5,15.8-23.2,21-17.1C1118.4,1165.1,1157.9,1159,1168.1,1168.7z"/>
		<path class="st3" d="M1170.9,1173.7c-15.5,6.4-47.8,19.4-54.3,19.9c-26.5,2-44.9-7.7-57.2-13.5c1.2,3.3,2.5,7.1,4.3,11
			c0.2,0.3,3.9,1.8,9.4,3.6c2.1,0.7,2.6-1.8,4.9-1c1.3,0.3,4.3,3.9,5.8,4.3c7.9,2.3,16.1,4.1,20.7,4.1c17.6-0.3,67.7-20.1,67.7-20.1
			S1172.2,1177.4,1170.9,1173.7z"/>
		<g>
			<path class="st3" d="M1135.5,1158.5c0.5,1-1.5,2-4.3,2.6c-5.8,1.2-11.3,3-16.9,5.3c-2.8,1.2-5.3,1.5-5.6,0.5s1.5-2.8,4.3-3.9
				c5.4-2.3,11.2-3.9,16.8-5.1C1132.4,1157,1135,1157.5,1135.5,1158.5z"/>
			<path class="st3" d="M1124.2,1154.4c0.5,1-1.5,2.3-4.3,3.1c-5.6,1.6-11,3.9-16.4,6.7c-2.6,1.3-5.1,1.8-5.4,0.8
				c-0.3-1,1.5-3.1,4.1-4.4c5.3-2.6,10.7-4.9,16.3-6.4C1121.2,1153.1,1123.9,1153.4,1124.2,1154.4z"/>
			<path class="st3" d="M1113.3,1150.8c0.3,1-1.5,2.5-4.1,3.5c-5.4,2.1-10.7,4.8-15.8,7.9c-2.5,1.6-4.8,2.1-5.1,1
				c-0.3-1,1.3-3.3,3.9-4.9c5.1-3.1,10.4-5.8,15.6-7.7C1110.5,1149.6,1113,1149.8,1113.3,1150.8z"/>
		</g>
	</g>
</g>
</svg>
