<svg width="200" height="200" viewBox="0 0 200 200" fill="none" xmlns="http://www.w3.org/2000/svg">
<g clip-path="url(#clip0_307_1259)">
<rect width="200" height="200" fill="white"/>
<path d="M76.76 163.294H109.714V172.221L76.7687 172.359L76.76 163.294Z" fill="#ACB0B5"/>
<path d="M97.4745 160.631H125.261C125.988 160.631 126.594 161.22 126.594 161.966C126.594 162.711 126.006 163.3 125.261 163.3H97.4745" fill="#80848B"/>
<path d="M39.0882 163.351H37.7257V217.939H39.0882V163.351Z" fill="#ACB0B5"/>
<path d="M53.4938 164.621H39.088V217.892H53.4938V164.621Z" fill="#61656D"/>
<path d="M53.4938 163.351H39.088V217.939H53.4938V163.351Z" fill="#80848B"/>
<path d="M97.4745 160.631H125.261C125.988 160.631 126.594 161.22 126.594 161.966C126.594 162.711 126.006 163.3 125.261 163.3H97.4745" fill="#61656D"/>
<path d="M35.9753 160.638H112.656C113.388 160.638 113.982 161.233 113.982 161.966C113.982 162.699 113.388 163.294 112.656 163.294H35.9753C35.243 163.294 34.6492 162.699 34.6492 161.966C34.6492 161.233 35.243 160.638 35.9753 160.638Z" fill="#ACB0B5"/>
<path opacity="0.5" d="M125.474 163.294H76.76V163.746H125.474V163.294Z" fill="black"/>
<path opacity="0.5" d="M53.4939 164.621H37.7257V165.074H53.4939V164.621Z" fill="black"/>
<path opacity="0.5" d="M44.3426 183.527H37.7257V184.855H44.5365L44.3426 183.527Z" fill="black"/>
<path opacity="0.5" d="M53.4938 183.527H50.2632L50.0797 184.855H53.4938V183.527Z" fill="black"/>
<path d="M46.5307 127.719L46.0044 135.252C45.9577 135.858 45.5179 136.364 44.9241 136.507L44.0568 136.715L45.9733 137.997C47.8863 139.302 50.2892 139.608 52.4395 138.881C52.8325 138.75 53.2151 138.581 53.5855 138.38L55.7738 137.193L54.8234 136.881C54.285 136.711 53.9076 136.214 53.8677 135.666L53.2601 126.66L46.5307 127.719Z" fill="#F59696"/>
<path opacity="0.15" d="M52.2006 134.207C52.2006 134.207 53.2514 133.971 53.7379 133.676L53.8176 134.921L52.2006 134.207Z" fill="black"/>
<path d="M51.92 134.134L51.5634 134.155C48.9873 134.259 46.8302 132.267 46.7263 129.71L46.4545 123.189C46.4129 122.33 47.0829 121.617 47.9416 121.576L54.0356 121.304C55.1454 121.262 56.0872 122.122 56.1304 123.233L56.3815 129.293C56.4646 131.849 54.4754 134.03 51.92 134.134Z" fill="#F59696"/>
<path d="M56.2931 127.675C56.2931 127.675 56.8627 128.498 57.0757 129.053C57.2886 129.608 56.2897 129.625 56.2897 129.625L56.2931 127.675Z" fill="#F59696"/>
<path d="M55.6214 125.991C55.8984 125.991 56.1235 126.216 56.1235 126.493C56.1235 126.771 55.8984 126.996 55.6214 126.996C55.3444 126.996 55.1194 126.771 55.1194 126.493C55.1194 126.216 55.3427 125.991 55.6214 125.991Z" fill="#21252B"/>
<path d="M55.8301 126.283C55.8867 126.283 55.9331 126.33 55.9331 126.386C55.9331 126.443 55.8867 126.489 55.8301 126.489C55.7734 126.489 55.7271 126.443 55.7271 126.386C55.7271 126.33 55.7717 126.283 55.8301 126.283Z" fill="white"/>
<g opacity="0.15">
<g opacity="0.15">
<path opacity="0.15" d="M46.5237 129.982H47.2353L46.4822 131.492L46.5237 129.982Z" fill="black"/>
</g>
</g>
<path d="M56.8991 125.906C56.5442 125.297 55.8101 124.878 55.0137 124.942C53.904 125.025 53.0661 126.011 53.1509 127.122C53.234 128.233 54.2191 129.072 55.3288 128.987C56.4385 128.904 57.2765 127.918 57.1916 126.807C57.1709 126.576 57.1172 126.363 57.0237 126.157C56.996 126.093 56.9354 125.966 56.8991 125.906ZM55.3496 128.715C54.387 128.798 53.5491 128.065 53.4643 127.102C53.3812 126.138 54.1135 125.299 55.0761 125.214C56.0386 125.131 56.8765 125.864 56.9614 126.828C57.0254 127.793 56.2914 128.653 55.3496 128.715Z" fill="white"/>
<g opacity="0.15">
<g opacity="0.15">
<path opacity="0.15" d="M54.78 130.029C54.78 130.029 55.2319 130.752 56.2135 130.974" stroke="black" stroke-width="6" stroke-miterlimit="10"/>
</g>
</g>
<path d="M39.1054 164.62H37.7429V217.892H39.1054V164.62Z" fill="#ACB0B5"/>
<path d="M53.5111 164.62H39.1053V217.89H53.5111V164.62Z" fill="#61656D"/>
<path d="M53.5111 164.62H39.1053V217.89H53.5111V164.62Z" fill="#80848B"/>
<g opacity="0.5">
<g opacity="0.5">
<path opacity="0.5" d="M53.5111 164.62H37.7429V165.072H53.5111V164.62Z" fill="black"/>
</g>
</g>
<path d="M56.0284 148.392L59.8787 152.8L65.5104 148.789L60.2076 140.088C58.7862 138.004 57.3822 136.576 54.8632 136.538L45.8954 136.403H42.2113C39.0794 136.403 36.5397 138.946 36.5397 142.081V168.345H58.5179L58.4867 159.851C58.485 159.52 58.6097 159.201 58.8399 158.962C59.8492 157.908 61.3589 156.683 60.4413 153.438" fill="#F037A5"/>
<path d="M51.6276 126.249C51.6276 126.249 50.1509 131.067 52.6214 133.796C54.041 135.364 55.1109 134.08 57.3858 137.226C57.3858 137.226 55.149 137.448 54.0566 138.422C52.0881 140.178 48.7659 149.649 42.4554 149.883C36.145 150.117 33.3941 148.538 33.2815 146.139C32.9699 139.469 39.2907 138.51 39.6751 134.052C39.9105 131.303 38.342 120.042 45.8712 117.391C52.9797 114.889 57.1261 118.873 57.0534 120.317C56.9806 121.758 57.23 123.786 51.6276 126.249Z" fill="black"/>
<path d="M86.5712 217.544L84.0038 215.77V205.062L83.9934 205.041C83.9414 189.035 83.6783 179.199 82.9789 173.201C82.3158 167.521 76.4572 172.217 74.8177 171.446C73.8344 170.983 73.1817 169.14 71.215 169.043C67.7525 168.873 66.6133 166.348 66.6133 166.348L64.986 177.401L73.9417 177.8C73.6959 187.07 77.4821 193.963 79.2203 203.703C78.2664 204.311 77.56 205.452 77.56 207.166C81.7774 208.57 81.3186 216.289 81.3186 216.289L86.5712 217.544Z" fill="#F59696"/>
<g opacity="0.2">
<g opacity="0.2">
<path opacity="0.2" d="M77.8196 171.446C78.5433 171.785 80.0893 171.061 81.6457 170.634C80.4719 169.991 78.7545 170.575 77.2864 171.057C77.4595 171.222 77.6326 171.359 77.8196 171.446Z" fill="black"/>
<path opacity="0.2" d="M73.9417 177.801C73.6959 187.071 77.4804 193.965 79.2186 203.704C78.2647 204.313 77.5583 205.453 77.5583 207.168C81.7756 208.572 81.3168 216.29 81.3168 216.29L86.5695 217.545L84.002 215.772V209.104H84.0037C83.1589 207.937 82.0249 204.852 81.8206 203.704C80.0825 193.965 76.2841 187.101 76.5282 177.833L67.8373 177.564L69.5201 168.514C67.5742 167.268 66.3588 166.349 66.3588 166.349L64.986 177.403" fill="black"/>
</g>
</g>
<path d="M75.6468 217.544L73.0794 215.77V205.062L73.069 205.041C73.017 189.035 72.7539 179.199 72.0544 173.201C71.3914 167.521 65.5328 172.217 63.8933 171.446C62.91 170.983 62.2573 169.14 60.2906 169.043C56.8281 168.873 51.508 166.507 51.508 166.507L49.4738 178.481L63.0173 178.793C62.7715 188.063 66.5577 193.963 68.2959 203.703C67.342 204.311 66.6356 205.452 66.6356 207.166C70.853 208.57 70.3942 216.289 70.3942 216.289L75.6468 217.544Z" fill="#F59696"/>
<g opacity="0.2">
<g opacity="0.2">
<path opacity="0.2" d="M66.8936 171.446C67.6172 171.785 69.1632 171.061 70.7196 170.634C69.5458 169.991 67.8285 170.575 66.3604 171.057C66.5335 171.222 66.7083 171.359 66.8936 171.446Z" fill="black"/>
<path opacity="0.2" d="M73.0794 209.102C72.2345 207.936 71.1005 204.85 70.8962 203.703C69.1581 193.963 65.7735 188.061 66.0176 178.793L52.474 178.481L54.1672 168.513C52.2213 167.266 51.508 166.509 51.508 166.509L49.4738 178.483L63.0173 178.795C62.7715 188.065 66.5577 193.965 68.2959 203.704C67.342 204.313 66.6356 205.453 66.6356 207.168C70.853 208.572 70.3942 216.29 70.3942 216.29L75.6468 217.545L73.0794 215.772V209.102Z" fill="black"/>
</g>
</g>
<path d="M67.8874 201.668C65.8687 192.923 62.5309 186.487 62.9169 177.51L44.4254 177.36C41.7108 177.337 39.5139 175.146 39.4792 172.43L39.384 165.004C39.384 165.004 55.0293 164.835 58.4919 165.004C60.4586 165.102 62.9083 170.159 63.8916 170.622C65.5311 171.394 71.3897 166.698 72.0527 172.378C72.7141 178.05 72.9842 187.155 73.0569 201.666L67.8874 201.668Z" fill="#3F4249"/>
<g opacity="0.4">
<path opacity="0.2" d="M70.2176 201.661C68.3963 192.63 65.1121 187.67 65.3459 178.791L51.8023 178.479L53.6876 167.383C52.3979 166.903 51.5063 166.507 51.5063 166.507L49.472 178.481L63.0156 178.793C62.7802 187.671 66.0678 192.636 67.8891 201.668L70.2176 201.661Z" fill="black"/>
</g>
<path d="M83.6452 181.806L83.4496 170.477C83.3959 167.397 80.8891 164.925 77.8109 164.921L45.8815 164.89L46.065 172.657C46.129 175.346 48.307 177.502 50.9938 177.533L73.9416 177.802C73.7442 186.607 76.6285 191.817 78.7614 201.37H83.9845C83.943 193.284 83.8408 186.876 83.6452 181.806Z" fill="#3F4249"/>
<path opacity="0.2" d="M81.5781 201.399C79.7672 192.414 76.3307 186.636 76.528 177.831L47.6525 177.507C44.0619 177.441 41.1845 174.508 41.1845 170.913V164.921L39.4793 164.919L39.2594 170.653C39.2594 174.248 40.7275 177.507 45.0643 177.507L73.9398 177.831C73.7424 186.636 76.9487 192.384 78.7613 201.37L83.9828 201.399H81.5781Z" fill="black"/>
<path d="M58.4971 164.902C58.4971 164.902 55.3427 165.424 50.6683 167.277C45.4486 169.346 39.7996 167.332 39.7996 167.332V161.818L58.4971 164.902Z" fill="#F037A5"/>
<path d="M36.1777 142.131C36.1777 142.131 39.2317 146.154 47.5677 145.693L45.1716 140.656L36.1777 142.131Z" fill="black"/>
<path d="M20.4615 217.939L27.1649 182.766C27.2947 181.889 26.881 181.331 27.7656 181.331H42.3999C43.2846 181.331 44.1433 182.071 44.2731 182.948L49.389 217.89H51.2691L46.4424 182.759C46.2208 181.269 44.2697 180.055 42.7635 180.055H27.4021C25.8959 180.055 24.4919 181.269 24.2685 182.759L17.3522 217.939H20.4615Z" fill="#ACB0B5"/>
<g opacity="0.5">
<g opacity="0.5">
<path opacity="0.5" d="M25.3472 180.856H28.7301V181.329H27.7675C26.9123 181.329 27.2689 181.851 27.1772 182.676H24.2877C24.4158 181.969 24.8071 181.327 25.3472 180.856Z" fill="black"/>
</g>
</g>
<path d="M20.4997 217.687H19.3536L26.1748 182.379C26.4102 181.157 27.6152 180.162 28.8582 180.162H44.5832C45.8383 180.162 47.0069 181.173 47.1904 182.417L52.4084 217.892H51.271L46.1413 182.572C46.0339 181.842 45.3207 181.225 44.5832 181.225H28.8582C28.1103 181.225 27.3572 181.847 27.2152 182.582L20.4997 217.687Z" fill="#ACB0B5"/>
<g opacity="0.5">
<g opacity="0.5">
<path opacity="0.5" d="M20.4616 217.939H19.3016L26.173 182.379C26.4084 181.157 27.6134 180.162 28.8564 180.162H44.5813C45.8365 180.162 47.0051 181.173 47.1886 182.417L52.4066 217.892H51.2691L46.1395 182.572C46.0321 181.842 45.3188 181.225 44.5813 181.225H28.8564C28.1085 181.225 27.3554 181.847 27.2134 182.582L20.4616 217.939Z" fill="black"/>
</g>
</g>
<path d="M22.4473 181.176C19.5544 180.984 21.8015 174.479 21.367 171.874L21.2804 171.35L22.3261 171.175L22.4126 171.699C23.0567 175.564 21.1332 180.116 22.4473 180.116C23.0619 180.116 23.9552 180.086 25.193 180.048C28.4374 179.944 33.8683 179.769 43.6447 179.769H44.1744V180.83H43.6447C33.8839 180.83 28.4651 181.003 25.2259 181.107C23.9794 181.147 23.0792 181.176 22.4473 181.176Z" fill="#ACB0B5"/>
<path d="M44.796 180.828H23.4636C21.7704 180.828 21.7964 179.407 22.2465 176.897C22.7312 174.195 22.4923 172.343 22.3833 171.69L23.4289 171.515C24.0574 175.299 22.1305 179.767 23.4636 179.767H44.796V180.828Z" fill="#80848B"/>
<path d="M70.7353 181.979C70.7353 181.979 68.3721 183.527 65.0983 183.527H36.9171C30.6447 183.527 23.9171 183.071 22.9164 180.523C21.9158 177.975 65.9865 178.897 65.9865 178.897C65.9865 178.897 69.4611 179.521 69.8247 179.795C70.19 180.067 70.7353 181.979 70.7353 181.979Z" fill="#80848B"/>
<path d="M22.92 171.056L19.1788 143.707C19.1078 143.23 16.7568 143.035 16.8502 142.612C17.1878 141.095 18.6317 138.687 22.4197 138.687H41.5102C43.7106 138.687 45.7743 140.471 46.0963 142.648C46.0963 142.648 50.163 169.553 50.0106 170.146C49.86 170.737 49.3129 171.966 48.314 171.966C47.3133 171.966 23.0862 172.148 23.0862 172.148L22.92 171.056Z" fill="#ACB0B5"/>
<path d="M46.7351 181.067H24.2497C23.1953 181.067 22.3401 180.211 22.3401 179.157C22.3401 178.101 23.1953 177.245 24.2497 177.245H46.7351C47.7895 177.245 48.6447 178.101 48.6447 179.157C48.6447 180.213 47.7895 181.067 46.7351 181.067Z" fill="#ACB0B5"/>
<path d="M72.1913 183.955C71.3949 183.955 70.7284 183.367 70.6159 182.568C70.583 182.417 70.138 180.748 66.4626 180.748H46.986C46.1395 180.748 45.3985 180.109 45.3448 179.261C45.2842 178.334 46.0183 177.562 46.9324 177.562H66.4643C72.3298 177.562 73.7494 181.083 73.7841 182.315C73.8083 183.177 73.1435 183.901 72.2848 183.951C72.2519 183.955 72.2207 183.955 72.1913 183.955ZM70.6003 182.357C70.6003 182.436 70.6055 182.507 70.6159 182.565C70.6124 182.535 70.6089 182.507 70.6072 182.478C70.602 182.436 70.6003 182.397 70.6003 182.357ZM73.7754 182.204V182.206V182.204Z" fill="#AFB3B8"/>
<g opacity="0.15">
<g opacity="0.15">
<path opacity="0.15" d="M72.1912 183.955C71.3948 183.955 70.7283 183.367 70.6158 182.568C70.5829 182.417 70.1379 180.748 66.4625 180.748H48.4558C47.6092 180.748 46.8682 180.109 46.8145 179.261C46.7539 178.334 47.488 177.562 48.4021 177.562H66.4642C72.3297 177.562 73.7493 181.083 73.784 182.315C73.8082 183.177 73.1434 183.901 72.2847 183.951C72.2518 183.955 72.2206 183.955 72.1912 183.955ZM70.6002 182.357C70.6002 182.436 70.6054 182.507 70.6158 182.565C70.6123 182.535 70.6088 182.507 70.6071 182.478C70.6019 182.436 70.6002 182.397 70.6002 182.357ZM73.7753 182.204V182.206V182.204Z" fill="#80848B"/>
</g>
</g>
<path d="M69.0839 180.828H47.9159C47.2147 180.828 46.6971 180.235 46.7075 179.533C46.7369 177.244 47.5558 176.044 46.8113 171.574L46.5118 171.349L47.7497 171.174L47.8362 171.697C48.5772 176.143 46.7456 179.767 47.9107 179.767H69.0839V180.828Z" fill="#ACB0B5"/>
<path d="M69.7051 181.001H48.6722C46.058 181.001 48.4766 176.405 47.5676 171.711L48.6376 171.515C49.2816 175.385 47.7113 179.941 49.0236 179.941H69.7051V181.001Z" fill="#80848B"/>
<path d="M74.5337 217.939L69.4109 181.355C69.307 180.625 68.5972 180.01 67.8614 180.01H52.1364C51.4007 180.01 50.6908 180.627 50.587 181.355L45.4936 217.687H44.3562L49.5361 181.206C49.7127 179.961 50.8778 178.947 52.1347 178.947H67.8597C69.1148 178.947 70.2817 179.96 70.4583 181.206L75.6763 217.944L74.5337 217.939Z" fill="#ACB0B5"/>
<path d="M45.4662 217.89L50.4435 181.551C50.5733 180.674 50.1596 179.793 51.0442 179.793L65.6785 180.116C66.5632 180.116 67.4219 180.856 67.5517 181.733L72.6641 217.939H74.5338L69.7192 181.546C69.4976 180.055 67.4929 178.897 65.9867 178.897L50.6807 178.842C49.1745 178.842 47.7705 180.055 47.5471 181.546L42.3932 217.89H45.4662Z" fill="#ACB0B5"/>
<g opacity="0.5">
<g opacity="0.5">
<path opacity="0.5" d="M74.5337 217.939L69.4109 181.355C69.307 180.625 68.5972 180.01 67.8614 180.01H52.1365C51.4007 180.01 50.6909 180.627 50.587 181.355L45.466 217.89H44.3251L49.5361 181.206C49.7127 179.961 50.8779 178.947 52.1347 178.947H67.8597C69.1149 178.947 70.2817 179.96 70.4583 181.206L75.6763 217.944L74.5337 217.939Z" fill="black"/>
</g>
</g>
<path d="M21.6942 171.055L17.9512 143.707C17.8803 143.23 16.2563 143.034 16.3498 142.611C16.6874 141.095 19.6444 139.745 21.3635 139.745H40.454C42.6544 139.745 44.7181 141.526 45.0401 143.707L48.7225 171.893L47.6318 172.149H21.8604L21.6942 171.055Z" fill="#80848B"/>
<path d="M21.3654 139.745H40.4559C41.9326 139.745 43.3453 140.547 44.2144 141.734C44.1417 141.715 44.0638 141.667 43.972 141.565C43.4267 140.958 42.942 142.232 42.942 142.717C42.942 143.1 25.7679 144.735 18.1989 145.373L17.9531 143.707C17.8821 143.23 16.2582 143.034 16.3517 142.611C16.6875 141.095 19.6462 139.745 21.3654 139.745Z" fill="#80848B"/>
<path d="M19.6322 172.149L15.8892 144.799C15.5672 142.62 17.1028 140.838 19.3033 140.838H39.3027C41.5031 140.838 43.5667 142.62 43.8887 144.799L47.6317 172.149C47.6317 172.149 41.6918 173.666 32.2374 173.666C22.7848 173.666 19.6322 172.149 19.6322 172.149Z" fill="#ACB0B5"/>
<g opacity="0.5">
<g opacity="0.5">
<path opacity="0.5" d="M47.6839 181.001H23.1902L23.5659 181.396H47.5749L47.6839 181.001Z" fill="black"/>
</g>
</g>
<g opacity="0.5">
<g opacity="0.5">
<path opacity="0.5" d="M44.3597 183.525H37.7429V184.853H44.5536L44.3597 183.525Z" fill="black"/>
</g>
</g>
<g opacity="0.5">
<g opacity="0.5">
<path opacity="0.5" d="M53.5112 183.525H50.2807L50.0972 184.853H53.5112V183.525Z" fill="black"/>
</g>
</g>
<path d="M52.0588 128.965C52.0588 128.965 50.0574 129.046 49.7077 127.067C49.3597 125.068 51.8198 124.796 52.0917 126.803L52.225 128.984L52.0588 128.965Z" fill="#F59696"/>
<path opacity="0.15" d="M55.7427 148.018L60.4396 153.436C60.4396 153.436 60.7166 154.315 60.72 155.279L55.7427 148.018Z" fill="black"/>
<path d="M51.141 128.192C51.167 127.975 51.3644 127.821 51.5808 127.847C51.7972 127.873 51.9512 128.07 51.9253 128.287C51.8993 128.504 51.7019 128.658 51.4855 128.632C51.2691 128.606 51.1151 128.408 51.141 128.192Z" fill="#F037A5"/>
<g opacity="0.15">
<g opacity="0.15">
<path opacity="0.15" d="M50.3619 126.046C50.587 125.902 50.7809 125.869 50.9661 125.909C51.1514 125.951 51.3055 126.082 51.4301 126.306C51.5547 126.53 51.6361 126.805 51.6205 127.088L51.6153 127.296C51.6153 127.448 51.3453 127.492 51.3487 127.301L51.3383 127.072C51.347 126.998 51.3158 126.632 51.1877 126.427C51.0942 126.264 50.9904 126.176 50.8813 126.143C50.7722 126.11 50.6337 126.152 50.471 126.245C50.4104 126.276 50.336 126.268 50.2858 126.204C50.2736 126.148 50.3013 126.075 50.3619 126.046Z" fill="black"/>
</g>
</g>
<g opacity="0.15">
<g opacity="0.15">
<path opacity="0.15" d="M51.6673 128.596C51.4214 128.585 51.2362 128.391 51.2466 128.147C51.2552 128.072 51.2847 127.98 51.3297 127.928C51.2275 127.992 51.1548 128.116 51.1392 128.247C51.1306 128.474 51.3003 128.646 51.527 128.655C51.6015 128.663 51.7002 128.637 51.7625 128.589C51.7261 128.584 51.6881 128.578 51.6673 128.596Z" fill="black"/>
</g>
</g>
<path d="M72.4544 159.844H86.5208C86.6351 159.844 86.7355 159.945 86.7355 160.059V160.416C86.7355 160.531 86.6351 160.631 86.5208 160.631H72.4544C72.3402 160.631 72.2397 160.531 72.2397 160.416V160.059C72.2397 159.943 72.3263 159.844 72.4544 159.844Z" fill="#21252B"/>
<g opacity="0.6">
<g opacity="0.6">
<path opacity="0.6" d="M72.4544 159.844H86.5208C86.6351 159.844 86.7355 159.945 86.7355 160.059V160.416C86.7355 160.531 86.6351 160.631 86.5208 160.631H72.4544C72.3402 160.631 72.2397 160.531 72.2397 160.416V160.059C72.2397 159.943 72.3263 159.844 72.4544 159.844Z" fill="black"/>
</g>
</g>
<path d="M82.3261 159.844H106.849C106.964 159.844 107.064 159.945 107.064 160.059V160.416C107.064 160.531 106.964 160.631 106.849 160.631H82.3261C82.2119 160.631 82.1115 160.531 82.1115 160.416V160.059C82.127 159.943 82.2119 159.844 82.3261 159.844Z" fill="#21252B"/>
<g opacity="0.6">
<g opacity="0.6">
<path opacity="0.6" d="M106.868 159.987H81.9036C81.8603 159.987 81.8326 159.959 81.8326 159.915C81.8326 159.872 81.8603 159.844 81.9036 159.844H106.868C106.912 159.844 106.939 159.872 106.939 159.915C106.939 159.959 106.898 159.987 106.868 159.987Z" fill="black"/>
</g>
</g>
<path d="M82.4108 159.844H106.134C106.42 159.844 106.662 159.645 106.719 159.359L109.815 143.062C109.886 142.691 109.6 142.362 109.23 142.362H85.5218C85.2362 142.362 84.9938 142.561 84.9367 142.847L81.8412 159.144C81.7702 159.515 82.0403 159.844 82.4108 159.844Z" fill="#21252B"/>
<path d="M82.9527 159.43H105.772C106.044 159.43 106.274 159.239 106.33 158.967L109.28 143.44C109.347 143.087 109.076 142.773 108.722 142.773H85.9166C85.6448 142.773 85.4145 142.964 85.3591 143.236L82.4091 158.763C82.3416 159.118 82.5995 159.43 82.9527 159.43Z" fill="#F037A5"/>
<path d="M83.1295 155.544C83.6835 155.31 84.9282 154.457 84.762 153.932C84.762 153.932 85.3195 153.492 85.1481 153.244L84.3639 153.575C84.3639 153.575 85.4753 152.854 85.2797 152.207C85.2797 152.207 85.3957 151.987 85.2762 151.852C85.1568 151.717 84.5837 152.126 84.1561 152.384L83.3303 152.717C82.9702 152.862 82.572 152.881 82.1981 152.772C82.018 152.719 81.6666 152.568 81.7081 152.384C81.7981 151.985 82.3037 151.302 82.0422 150.401C82.0422 150.401 81.7531 150.231 81.5281 150.637C81.2424 151.15 80.6676 151.722 80.4599 152.095C80.3404 152.308 80.1517 152.623 80.0167 152.876C79.847 153.197 79.1632 153.596 79.1632 153.596L71.5838 157.893L65.5105 148.787L59.8788 152.798L69.1375 163.307C69.9027 164.176 71.215 164.283 72.1101 163.552L81.1507 155.858C81.1507 155.859 82.4006 155.852 83.1295 155.544Z" fill="#FB9C9C"/>
<g opacity="0.15">
<path opacity="0.15" d="M83.8132 153.218C83.7855 153.218 83.7612 153.201 83.7526 153.175C83.7405 153.14 83.7595 153.103 83.7924 153.091C84.5628 152.83 85.2259 152.166 85.2328 152.159C85.2588 152.133 85.2986 152.133 85.3246 152.159C85.3505 152.185 85.3505 152.224 85.3246 152.25C85.2969 152.278 84.6338 152.944 83.8339 153.214C83.827 153.218 83.8201 153.218 83.8132 153.218Z" fill="black"/>
</g>
<g opacity="0.15">
<path opacity="0.15" d="M84.0295 154.31C84.0001 154.31 83.9724 154.289 83.9654 154.259C83.9585 154.225 83.9793 154.19 84.0139 154.181C84.3047 154.117 84.7237 153.878 84.7289 153.875C84.7601 153.856 84.7999 153.868 84.8172 153.899C84.8345 153.93 84.8241 153.97 84.7929 153.987C84.7756 153.998 84.3515 154.239 84.0416 154.308C84.0381 154.31 84.033 154.31 84.0295 154.31Z" fill="black"/>
</g>
<path d="M84.6631 106.317H75.7472V124.795H84.6631V106.317Z" fill="white"/>
<path d="M96.0029 125.124H85.0441V141.781H96.0029V125.124Z" fill="white"/>
<path d="M84.6631 85.5347V70.2293L75.7472 69.5533V85.5347H84.6631Z" fill="white"/>
<path d="M84.6631 85.864H75.7472V104.983H84.6631V85.864Z" fill="white"/>
<path d="M84.6631 125.124H75.7472V141.781H84.6631V125.124Z" fill="white"/>
<path d="M151.23 85.5346V75.204L140.825 74.424V85.5346H151.23Z" fill="white"/>
<path d="M128.533 85.5347H139.492V74.3374L128.533 73.5227V85.5347Z" fill="white"/>
<path d="M128.152 85.5347V73.488L119.236 72.8293V85.552H128.152V85.5347Z" fill="white"/>
<path d="M151.611 85.5349H161.254V75.9669L151.611 75.2389V85.5349Z" fill="white"/>
<path d="M85.0441 85.5347H96.0029V71.0787L85.0441 70.264V85.5347Z" fill="white"/>
<path d="M108.122 85.5347H117.765V72.708L108.122 71.98V85.5347Z" fill="white"/>
<path d="M107.758 85.5346V71.9626L97.3533 71.1826V85.5346H107.758Z" fill="white"/>
<path d="M117.765 125.124H108.122V141.781H117.765V125.124Z" fill="white"/>
<path d="M139.492 85.864H128.533V104.983H139.492V85.864Z" fill="white"/>
<path d="M151.23 125.124H140.825V141.781H151.23V125.124Z" fill="white"/>
<path d="M139.492 106.317H128.533V124.795H139.492V106.317Z" fill="white"/>
<path d="M151.23 106.317H140.825V124.795H151.23V106.317Z" fill="white"/>
<path d="M161.254 106.317H151.611V124.795H161.254V106.317Z" fill="white"/>
<path d="M151.23 85.864H140.825V104.983H151.23V85.864Z" fill="white"/>
<path d="M161.254 85.864H151.611V104.983H161.254V85.864Z" fill="white"/>
<path d="M139.492 125.124H128.533V141.781H139.492V125.124Z" fill="white"/>
<path d="M161.254 125.124H151.611V141.781H161.254V125.124Z" fill="white"/>
<path d="M128.152 106.317H119.236V124.795H128.152V106.317Z" fill="white"/>
<path d="M107.758 106.317H97.3533V124.795H107.758V106.317Z" fill="white"/>
<path d="M107.758 85.864H97.3533V104.983H107.758V85.864Z" fill="white"/>
<path d="M107.758 125.124H97.3533V141.781H107.758V125.124Z" fill="white"/>
<path d="M96.0029 85.864H85.0441V104.983H96.0029V85.864Z" fill="white"/>
<path d="M128.152 125.124H119.236V141.781H128.152V125.124Z" fill="white"/>
<path d="M96.0029 106.317H85.0441V124.795H96.0029V106.317Z" fill="white"/>
<path d="M117.765 106.317H108.122V124.795H117.765V106.317Z" fill="white"/>
<path d="M128.152 85.864H119.236V104.983H128.152V85.864Z" fill="white"/>
<path d="M117.765 85.864H108.122V104.983H117.765V85.864Z" fill="white"/>
<path d="M173.321 170.052L173.684 178.736H175.017L174.619 170.052H173.321Z" fill="#ACB0B5"/>
<path d="M172.334 170.052L172.697 178.736H174.03L173.615 170.052H172.334Z" fill="#80848B"/>
<path d="M148.944 170.052L149.308 178.736H150.641L150.243 170.052H148.944Z" fill="#ACB0B5"/>
<path d="M147.94 170.052L148.304 178.736H149.637L149.239 170.052H147.94Z" fill="#80848B"/>
<path d="M175.779 170.139C177.181 169.844 178.203 168.648 178.324 167.227L180.436 141.383C180.661 138.714 178.549 136.426 175.883 136.426H156.666C154.346 136.426 152.165 138.298 151.836 140.603L148.633 169.446C148.633 169.446 154.9 171.04 164.872 171.04C170.291 171.04 173.753 170.572 175.779 170.139Z" fill="#ACB0B5"/>
<path d="M155.194 217.927L148.529 183C148.39 182.116 148.806 181.561 147.923 181.561H137.882C136.999 181.561 136.133 182.307 136.012 183.173L130.905 217.944H129.018L133.831 183C134.056 181.509 135.995 180.296 137.501 180.296H148.269C149.775 180.296 151.178 181.509 151.403 183L158.259 217.927H155.194Z" fill="#ACB0B5"/>
<path opacity="0.5" d="M150.347 181.093H146.971V181.561H147.94C148.789 181.561 148.442 182.081 148.529 182.913H151.42C151.282 182.203 150.883 181.561 150.347 181.093Z" fill="black"/>
<path d="M155.194 217.927H156.337L149.516 182.619C149.274 181.405 148.079 180.4 146.832 180.4H135.7C134.454 180.4 133.277 181.405 133.086 182.653L127.875 217.961H129.018L134.142 182.809C134.246 182.081 134.956 181.457 135.7 181.457H146.832C147.577 181.457 148.339 182.081 148.477 182.809L155.194 217.927Z" fill="#ACB0B5"/>
<g opacity="0.5">
<path opacity="0.5" d="M155.194 217.927H156.337L149.516 182.619C149.274 181.405 148.079 180.4 146.832 180.4H135.7C134.454 180.4 133.277 181.405 133.086 182.653L127.875 217.961H129.018L134.142 182.809C134.246 182.081 134.956 181.457 135.7 181.457H146.832C147.577 181.457 148.339 182.081 148.477 182.809L155.194 217.927Z" fill="black"/>
</g>
<path d="M149.048 217.927L154.156 181.596C154.259 180.868 154.969 180.244 155.714 180.244H171.433C172.161 180.244 172.87 180.868 172.974 181.596L178.064 217.927H179.207L174.03 181.44C173.857 180.192 172.68 179.187 171.433 179.187H155.714C154.467 179.187 153.29 180.192 153.117 181.44L147.94 217.927H149.048Z" fill="#ACB0B5"/>
<path d="M178.099 218.135L173.13 181.787C172.992 180.903 173.407 180.036 172.524 180.036L157.895 180.365C157.012 180.365 156.146 181.111 156.025 181.977L150.935 217.927H149.066L153.861 181.787C154.086 180.296 156.095 179.135 157.601 179.135L172.905 179.083C174.411 179.083 175.813 180.296 176.039 181.787L181.198 218.135H178.099Z" fill="#ACB0B5"/>
<g opacity="0.5">
<path opacity="0.5" d="M149.048 217.927L154.156 181.596C154.259 180.868 154.969 180.244 155.714 180.244H171.433C172.161 180.244 172.87 180.868 172.974 181.596L178.099 218.135H179.241L174.03 181.44C173.857 180.192 172.68 179.187 171.433 179.187H155.714C154.467 179.187 153.29 180.192 153.117 181.44L147.94 217.927H149.048Z" fill="black"/>
</g>
<path d="M132.636 182.567C132.636 182.567 134.817 184.369 138.09 184.369C141.362 184.369 155.419 184.369 161.686 184.369H173.978C175.242 184.369 176.264 183.347 176.264 182.081L176.246 180.175C177.25 177.627 137.189 179.741 137.189 179.741C137.189 179.741 133.709 180.365 133.346 180.643C133 180.903 132.636 182.567 132.636 182.567Z" fill="#80848B"/>
<path d="M155.437 181.631H174.809C175.26 181.631 175.71 181.405 175.952 181.024C176.783 179.724 175.865 178.372 174.636 178.372H155.489C154.623 178.372 153.861 179.031 153.809 179.897C153.757 180.833 154.502 181.631 155.437 181.631Z" fill="#ACB0B5"/>
<path d="M164.266 178.372H136.722C134.419 178.372 132.792 178.909 131.667 179.655C130.766 180.244 130.749 181.579 131.649 182.185C131.684 182.22 131.736 182.237 131.771 182.272C132.273 182.619 132.948 182.619 133.467 182.289C134.073 181.908 135.06 181.561 136.722 181.561H164.214C165.062 181.561 165.807 180.92 165.859 180.071C165.911 179.135 165.184 178.372 164.266 178.372Z" fill="#AFB3B8"/>
<path d="M174.584 171.647C175.917 171.369 176.887 170.243 176.991 168.891L179.501 141.764C179.726 139.303 177.804 137.188 175.329 137.188H155.714C153.515 137.188 151.455 138.973 151.126 141.14L148.823 170.988C148.823 170.988 154.762 172.513 164.214 172.513C169.373 172.513 172.663 172.063 174.584 171.647Z" fill="#80848B"/>
<path d="M164.041 178.407H136.722C134.402 178.407 132.792 178.961 131.667 179.689C130.766 180.279 130.749 181.613 131.649 182.22C131.684 182.255 131.736 182.272 131.771 182.307C132.273 182.653 132.948 182.653 133.467 182.324C134.073 181.943 135.06 181.596 136.722 181.596H163.972C164.82 181.596 165.565 180.955 165.616 180.105C165.686 179.169 164.959 178.407 164.041 178.407Z" fill="#ACB0B5"/>
<path d="M173.719 171.647C175.121 171.352 176.142 170.156 176.264 168.735L178.393 142.111C178.739 139.805 177.112 137.933 174.792 137.933H153.705C151.386 137.933 149.204 139.805 148.875 142.111L146.555 170.953C146.555 170.953 152.823 172.548 162.795 172.548C168.231 172.565 171.693 172.08 173.719 171.647Z" fill="#ACB0B5"/>
<path opacity="0.5" d="M176.264 181.579L176.246 180.175L176.16 180.556C176.021 181.18 175.467 181.631 174.827 181.631L135.839 181.579C135.25 181.579 134.662 181.717 134.142 181.977H176.246L176.264 181.579Z" fill="black"/>
<path d="M111.359 206.331L118.301 209.052L134.714 178.355H157.22V166.603H130.368C128.291 166.603 126.438 167.851 125.642 169.775L111.359 206.331Z" fill="#F037A5"/>
<path opacity="0.2" d="M111.359 206.331L118.301 209.052L134.714 178.355H157.22V166.603H130.368C128.291 166.603 126.438 167.851 125.642 169.775L111.359 206.331Z" fill="white"/>
<path opacity="0.2" d="M114.094 212.536H116.449L134.818 178.355H158.899V166.603H137.813C135.735 166.603 133.883 167.851 133.086 169.775L114.094 212.536Z" fill="black"/>
<path d="M129.087 205.845L136.047 208.532L152.234 178.355H166.24C168.56 178.355 170.429 176.465 170.429 174.16V166.36L147.888 166.62C145.811 166.62 143.958 167.868 143.162 169.792L129.087 205.845Z" fill="#F037A5"/>
<path opacity="0.2" d="M129.087 205.845L136.047 208.532L152.234 178.355H166.24C168.56 178.355 170.429 176.465 170.429 174.16V166.36L147.888 166.62C145.811 166.62 143.958 167.868 143.162 169.792L129.087 205.845Z" fill="white"/>
<path opacity="0.2" d="M147.75 175.859C148.927 173.571 150.226 172.895 152.805 172.895L167.59 173.12L167.503 166.377H170.464V174.073C170.464 176.431 168.56 178.355 166.188 178.355H163.643H152.286L133.19 213.905L130.143 212.917L147.75 175.859Z" fill="black"/>
<path d="M143.837 166.585L146.434 144.676C146.763 142.44 147.075 140.516 149.256 139.996L155.437 138.471L163.902 138.557L171.71 140.429C174.48 141.088 176.298 143.775 175.865 146.6L174.948 152.597L173.407 155.925C173.338 156.116 173.286 156.307 173.234 156.497L171.814 164.297C171.572 165.684 170.36 166.672 168.958 166.672" fill="#21252B"/>
<path d="M123.859 138.973C124.551 139.043 124.88 140.117 125.209 140.88L128.291 138.349L128.446 137.448C127.01 135.143 123.426 134.363 123.08 134.328C122.179 134.241 121.764 134.155 121.677 134.276C121.608 134.397 121.383 135.195 122.699 135.368C124.343 135.576 123.253 136.893 119.911 135.628C119.08 135.316 117.505 135.715 118.076 136.339C118.717 137.015 119.998 138.644 123.859 138.973Z" fill="#F69797"/>
<path d="M155.437 138.488L152.009 139.268C148.962 139.961 146.071 141.192 143.456 142.925L136.047 147.831L128.447 137.431L125.209 140.88L133.311 154.227C134.16 155.717 136.099 156.22 137.553 155.301L146.954 149.425L155.437 138.488Z" fill="#21252B"/>
<path opacity="0.2" d="M148.477 164.28L148.425 164.297L148.477 164.28Z" fill="black"/>
<path d="M145.846 166.585H141.795C141.171 166.585 140.669 166.083 140.669 165.459V158.803H146.988V165.459C146.971 166.083 146.469 166.585 145.846 166.585Z" fill="#21252B"/>
<path opacity="0.6" d="M145.846 166.585H141.795C141.171 166.585 140.669 166.083 140.669 165.459V158.803H146.988V165.459C146.971 166.083 146.469 166.585 145.846 166.585Z" fill="black"/>
<g opacity="0.6">
<path opacity="0.6" d="M147.958 164.314H146.971V163.829H147.958C148.2 163.829 148.408 163.621 148.408 163.378V160.657C148.408 160.397 148.2 160.207 147.958 160.207H146.971V159.721H147.958C148.477 159.721 148.875 160.155 148.875 160.64V163.361C148.893 163.881 148.477 164.314 147.958 164.314Z" fill="black"/>
</g>
<path opacity="0.6" d="M147.958 164.314H146.971V163.829H147.958C148.2 163.829 148.408 163.621 148.408 163.378V160.657C148.408 160.397 148.2 160.207 147.958 160.207H146.971V159.721H147.958C148.477 159.721 148.875 160.155 148.875 160.64V163.361C148.893 163.881 148.477 164.314 147.958 164.314Z" fill="black"/>
<path opacity="0.2" d="M147.421 160.189V159.704H146.988V158.768H145.603V165.32C145.603 165.892 145.153 166.342 144.582 166.342H141.085C141.275 166.498 141.517 166.602 141.794 166.602H145.846C146.469 166.602 146.971 166.1 146.971 165.476V164.332H147.404V163.846H146.971V160.224L147.421 160.189Z" fill="black"/>
<path d="M142.816 158.56C142.764 158.56 142.729 158.525 142.729 158.473C142.729 157.884 142.245 157.381 141.639 157.381H141.102C140.635 157.381 140.254 157 140.254 156.532C140.254 156.064 140.635 155.683 141.102 155.683H144.114C144.495 155.683 144.807 155.371 144.807 154.989C144.807 154.608 144.495 154.296 144.114 154.296H143.387C142.902 154.296 142.522 153.897 142.522 153.429C142.522 153.377 142.556 153.343 142.591 153.343C142.625 153.343 142.677 153.377 142.677 153.429C142.677 153.828 142.989 154.14 143.387 154.14H144.114C144.582 154.14 144.963 154.521 144.963 154.989C144.963 155.457 144.582 155.839 144.114 155.839H141.102C140.721 155.839 140.409 156.151 140.409 156.532C140.409 156.913 140.721 157.225 141.102 157.225H141.639C142.331 157.225 142.885 157.797 142.885 158.473C142.885 158.525 142.851 158.56 142.816 158.56Z" fill="white"/>
<path d="M144.461 158.664C144.409 158.664 144.391 158.629 144.391 158.577V158.386C144.391 158.248 144.288 158.144 144.132 158.144C143.889 158.144 143.716 157.953 143.716 157.728V157.398C143.716 157.156 143.907 156.982 144.132 156.982H144.634C145.309 156.982 145.88 156.428 145.88 155.734V155.128C145.88 155.076 145.915 155.041 145.949 155.041C145.984 155.041 146.036 155.076 146.036 155.128V155.717C146.036 156.48 145.413 157.121 144.634 157.121H144.132C143.993 157.121 143.889 157.225 143.889 157.364V157.693C143.889 157.832 143.993 157.953 144.132 157.953C144.374 157.953 144.547 158.144 144.547 158.369V158.56C144.53 158.629 144.495 158.664 144.461 158.664Z" fill="white"/>
<path opacity="0.2" d="M146.434 151.765L146.296 158.803H144.755L145.811 150.119C146.088 148.94 146.434 151.592 146.434 151.765Z" fill="black"/>
<path d="M155.454 138.436C155.575 137.188 157.48 136.338 159.713 136.546C161.946 136.754 164.11 137.777 164.006 139.042C163.885 140.29 161.548 141.296 159.297 141.088C157.047 140.88 155.333 139.701 155.454 138.436Z" fill="#F19292"/>
<path d="M163.92 138.575C163.92 138.575 164.076 139.216 163.574 139.528C163.002 139.857 160.821 141.314 157.757 140.395C157.757 140.395 156.787 140.135 155.852 139.459C155.644 139.303 155.489 139.077 155.454 138.817C155.454 138.783 155.454 138.765 155.454 138.731V138.505C155.454 138.505 155.454 138.505 154.588 138.713C154.588 138.973 154.675 139.476 155.108 139.927C155.367 140.169 159.072 143.047 163.816 140.395C163.816 140.395 164.855 139.979 164.733 138.783C163.92 138.575 163.92 138.575 163.92 138.575Z" fill="#21252B"/>
<path opacity="0.2" d="M163.92 138.575C163.92 138.575 164.076 139.216 163.574 139.528C163.002 139.857 160.821 141.314 157.757 140.395C157.757 140.395 156.787 140.135 155.852 139.459C155.644 139.303 155.489 139.077 155.454 138.817C155.454 138.783 155.454 138.765 155.454 138.731V138.505C155.454 138.505 155.454 138.505 154.588 138.713C154.588 138.973 154.675 139.476 155.108 139.927C155.367 140.169 159.072 143.047 163.816 140.395C163.816 140.395 164.855 139.979 164.733 138.783C163.92 138.575 163.92 138.575 163.92 138.575Z" fill="black"/>
<path opacity="0.15" d="M165.859 159.618L166.638 159.548C166.88 159.531 167.001 159.288 166.898 159.08L166.067 157.399L165.859 159.618Z" fill="black"/>
<path d="M150.537 161.593L165.859 159.635L166.742 151.089L175.156 151.523L173.442 162.443C173.113 164.505 171.347 166.013 169.287 166.013H152.078L150.537 161.593Z" fill="#21252B"/>
<path d="M145.828 163.552L146.434 163.119L145.828 163.552Z" fill="#9473E9"/>
<path opacity="0.6" d="M152.061 161.403L150.537 161.593L152.043 165.979H153.93L152.061 161.403Z" fill="black"/>
<path opacity="0.15" d="M151.801 165.182L152.061 165.944H169.269C171.347 165.944 173.113 164.436 173.424 162.374L175.883 146.583C176.316 143.758 174.498 141.071 171.728 140.412L170.273 140.066C172.507 141.054 173.857 143.428 173.476 145.907L171.208 160.45C170.879 162.512 169.114 164.02 167.053 164.02L151.801 165.182Z" fill="black"/>
<path d="M145.759 161.021C145.17 161.264 144.339 162.096 144.599 162.772C144.859 163.448 145.69 163.517 145.949 163.951C146.192 164.332 146.659 164.835 147.127 165.199C147.265 165.303 148.269 166.065 148.546 166.273C148.823 166.481 152.372 166.1 152.372 166.1L150.78 161.593C150.78 161.593 146.348 160.779 145.759 161.021Z" fill="#F69797"/>
<path d="M164.682 122.229C166.88 122.437 167.4 124.968 167.123 127.949C166.846 130.931 166.032 132.612 163.833 132.421C161.635 132.213 160.007 130.307 160.284 127.325C160.561 124.344 162.483 122.039 164.682 122.229Z" fill="#3F4249"/>
<path d="M156.787 128.209C156.787 128.209 164.335 124.379 164.128 129.891L164.11 131.312L163.954 138.54C163.937 138.748 155.402 138.748 155.454 138.488L156.718 133.6C156.666 133.219 156.649 132.803 156.683 132.317C156.804 130.168 156.787 128.209 156.787 128.209Z" fill="#F19292"/>
<path d="M156.337 128.487C157.67 128.487 158.761 127.395 158.761 126.06C158.761 124.725 157.67 123.633 156.337 123.633C155.004 123.633 153.913 124.725 153.913 126.06C153.913 127.395 155.004 128.487 156.337 128.487Z" fill="#3F4249"/>
<path d="M156.337 124.257C156.337 124.257 152.823 134.692 158.224 135.905C162.898 136.963 164.093 129.631 164.093 129.631L164.301 124.829L156.337 124.257Z" fill="#F19292"/>
<path d="M163.383 128.296C163.21 130.879 162.05 132.248 162.05 132.248C156.268 130.913 155.264 131.919 155.264 131.919C155.264 131.919 155.35 134.865 157.705 135.732C160.059 136.581 163.833 135.42 164.127 132.127C164.197 131.312 163.262 126.771 163.262 126.771L163.383 128.296Z" fill="#3F4249"/>
<g opacity="0.3">
<path opacity="0.3" d="M157.999 133.86C157.999 133.878 158.016 133.878 157.999 133.86C158.449 133.93 158.657 133.964 158.657 133.964C158.743 133.964 158.795 133.93 158.83 133.843C158.847 133.756 158.795 133.687 158.709 133.67C158.709 133.67 158.501 133.635 158.068 133.566C157.982 133.566 157.912 133.6 157.895 133.67C157.878 133.791 157.93 133.86 157.999 133.86Z" fill="black"/>
</g>
<path d="M157.826 133.219C159.003 133.496 159.609 132.907 159.817 132.612C159.851 132.543 159.851 132.283 159.782 132.231C159.713 132.196 157.185 132.595 157.151 132.664C157.133 132.733 157.151 132.993 157.22 133.028C157.445 133.115 157.653 133.184 157.826 133.219Z" fill="white"/>
<path d="M163.089 123.235C163.245 121.536 161.635 119.993 159.488 119.803C157.341 119.612 155.489 120.825 155.333 122.524C155.177 124.223 156.787 125.765 158.934 125.956C161.081 126.164 162.933 124.933 163.089 123.235Z" fill="#3F4249"/>
<path d="M164.335 122.247C165.686 122.368 166.638 123.841 166.482 125.54C166.326 127.239 165.08 128.868 163.747 128.747C162.396 128.625 161.479 126.788 161.635 125.089C161.79 123.391 163.002 122.125 164.335 122.247Z" fill="#3F4249"/>
<path opacity="0.15" d="M164.058 131.659C164.058 131.659 163.608 131.659 163.366 131.433L164.024 132.699L164.058 131.659Z" fill="black"/>
<path d="M163.66 128.729C163.66 128.729 164.508 127.828 165.513 128.383C166.655 129.024 166.17 131.693 164.128 131.676C163.071 131.676 163.331 131.069 163.591 130.272C163.695 129.267 163.66 128.729 163.66 128.729Z" fill="#F19292"/>
<path opacity="0.3" d="M165.495 129.093C165.305 128.937 165.114 128.868 164.924 128.885C164.751 128.903 164.578 129.007 164.439 129.215C164.301 129.423 164.214 129.648 164.18 129.943L164.145 130.168C164.145 130.237 164.18 130.289 164.249 130.307C164.318 130.307 164.37 130.272 164.387 130.203L164.422 129.977C164.422 129.908 164.491 129.561 164.63 129.371C164.734 129.232 164.837 129.163 164.959 129.128C165.062 129.128 165.201 129.163 165.339 129.267C165.391 129.301 165.478 129.301 165.513 129.249C165.565 129.215 165.547 129.145 165.495 129.093Z" fill="black"/>
<path d="M156.216 125.107C156.406 125.28 156.856 125.54 156.856 125.54C156.908 125.558 156.977 125.558 157.012 125.506C157.047 125.436 157.029 125.384 156.977 125.35C156.977 125.35 156.372 124.916 156.32 124.864C156.216 124.76 156.043 124.604 155.869 124.362C155.835 124.31 155.766 124.292 155.714 124.327C155.662 124.362 155.644 124.431 155.679 124.483C155.835 124.76 156.146 125.055 156.216 125.107Z" fill="#F19292"/>
<path opacity="0.15" d="M155.956 136.512L156.458 134.865C156.995 135.472 157.912 136.009 159.436 135.992C159.436 135.992 160.457 136.009 161.6 135.524C161.686 135.489 161.738 135.489 161.773 135.524C161.808 135.576 161.79 135.628 161.738 135.663C161.513 135.819 160.665 136.165 159.367 136.235C157.48 137.205 155.956 136.512 155.956 136.512Z" fill="black"/>
<path d="M159.799 130.029C160.042 130.029 160.232 129.839 160.232 129.596C160.232 129.353 160.042 129.163 159.799 129.163C159.557 129.163 159.367 129.353 159.367 129.596C159.367 129.839 159.557 130.029 159.799 130.029Z" fill="#21252B"/>
<path d="M159.626 129.525C159.677 129.525 159.712 129.491 159.712 129.439C159.712 129.388 159.677 129.353 159.626 129.353C159.574 129.353 159.54 129.388 159.54 129.439C159.54 129.473 159.574 129.525 159.626 129.525Z" fill="white"/>
<path d="M156.337 129.734C156.579 129.734 156.77 129.544 156.77 129.301C156.77 129.058 156.579 128.868 156.337 128.868C156.095 128.868 155.904 129.058 155.904 129.301C155.887 129.544 156.095 129.734 156.337 129.734Z" fill="#21252B"/>
<path d="M156.146 129.23C156.197 129.23 156.232 129.196 156.232 129.145C156.232 129.093 156.197 129.059 156.146 129.059C156.094 129.059 156.06 129.093 156.06 129.145C156.06 129.196 156.111 129.23 156.146 129.23Z" fill="white"/>
<path d="M154.502 128.608L154.45 129.093C154.363 130.046 155.073 130.878 156.008 130.965C156.943 131.052 157.791 130.358 157.878 129.405L157.93 128.92C157.947 128.781 157.912 128.642 157.843 128.521L158.501 128.59C158.397 128.694 158.345 128.816 158.328 128.954L158.276 129.44C158.189 130.393 158.899 131.225 159.834 131.312C160.769 131.398 161.617 130.688 161.704 129.752L161.756 129.266C161.79 128.92 161.531 128.608 161.184 128.573L159.055 128.4H159.038L157.376 128.244L157.116 128.226L155.212 128.053C154.848 128.001 154.536 128.261 154.502 128.608ZM158.986 128.66L161.15 128.85C161.358 128.868 161.513 129.058 161.496 129.266L161.444 129.752C161.375 130.566 160.648 131.156 159.834 131.069C159.02 131 158.432 130.272 158.518 129.457L158.57 128.972C158.605 128.781 158.795 128.642 158.986 128.66ZM154.727 128.66C154.744 128.452 154.935 128.296 155.142 128.313L157.047 128.486L157.306 128.504C157.514 128.521 157.67 128.712 157.653 128.92L157.601 129.405C157.532 130.202 156.804 130.792 155.991 130.722C155.177 130.653 154.588 129.925 154.675 129.11L154.727 128.66Z" fill="#21252B"/>
<path d="M109.714 163.301V217.892H111.082V163.301H109.714Z" fill="#ACB0B5"/>
<path d="M125.469 164.627H111.065V217.892H125.469V164.627Z" fill="#61656D"/>
<path d="M125.469 163.744H111.065V217.892H125.469V163.744Z" fill="#80848B"/>
<g opacity="0.5">
<path opacity="0.5" d="M94.8084 167.384C94.9642 168.112 94.3409 168.771 93.5965 168.615C93.2156 168.528 92.9213 168.234 92.8347 167.87C92.6616 167.124 93.3195 166.466 94.0639 166.639C94.4275 166.708 94.7218 167.02 94.8084 167.384Z" fill="black"/>
</g>
<path opacity="0.5" d="M125.469 163.294H76.7687V163.745H125.469V163.294Z" fill="black"/>
<path d="M171.762 194.145C171.728 194.145 171.71 194.145 171.676 194.128C171.451 194.076 171.295 193.851 171.33 193.625L171.901 190.765C171.935 190.575 172.109 190.436 172.299 190.419L176.402 190.176C176.541 190.176 176.679 190.228 176.766 190.332L179.051 193.14C179.207 193.331 179.172 193.591 178.999 193.747C178.809 193.903 178.549 193.868 178.393 193.695L176.246 191.06L172.697 191.268L172.195 193.799C172.143 194.007 171.953 194.145 171.762 194.145Z" fill="#3F4249"/>
<path d="M164.266 197.543C164.266 197.543 159.54 200.784 158.691 208.359C157.826 215.933 163.885 217.961 163.885 217.961L164.785 215.361C164.785 215.361 159.678 215.465 160.128 208.792C160.579 202.119 165.495 199.796 165.495 199.796L164.266 197.543Z" fill="#3F4249"/>
<path d="M174.1 218.013L184.262 217.944C185.578 217.944 186.565 216.731 186.322 215.448L185.318 210.126C183.033 196.468 166.499 194.145 164.837 193.712C162.431 193.088 163.885 217.944 163.885 217.944L174.1 218.013Z" fill="#3F4249"/>
<path d="M164.82 193.712C164.768 193.694 164.716 193.712 164.682 193.712V193.694C164.682 193.694 177.216 192.689 183.258 193.4C183.258 193.4 187.361 198.513 187.24 207.44C187.222 208.93 185.993 210.126 184.504 210.126L172.784 210.057C171.433 210.057 170.291 209.052 170.1 207.717C169.408 202.569 166.863 194.249 164.82 193.712Z" fill="#61656D"/>
<path d="M183.258 193.417L184.02 191.441L183.05 190.869L183.258 193.417Z" fill="#3F4249"/>
<path d="M175.623 202.396C175.623 202.76 177.181 204.875 177.649 204.875C178.099 204.875 179.57 202.725 179.501 202.396C179.432 202.067 178.012 199.952 177.354 199.952C176.731 199.952 175.623 202.032 175.623 202.396Z" fill="#3F4249"/>
<path d="M58.1577 82.3451C58.1577 77.6651 54.626 73.7998 50.0728 73.2971V73.2278H49.0687C44.048 73.2278 39.9796 77.3011 39.9796 82.3278C39.9796 87.3545 44.048 91.4278 49.0687 91.4278H50.0728V91.3758C54.626 90.8731 58.1577 87.0251 58.1577 82.3451Z" fill="#B0B4B9"/>
<path d="M50.0555 91.4455C55.0761 91.4455 59.1446 87.3722 59.1446 82.3455C59.1446 77.3188 55.0761 73.2455 50.0555 73.2455C45.0349 73.2455 40.9664 77.3188 40.9664 82.3455C40.9664 87.3722 45.0349 91.4455 50.0555 91.4455Z" fill="#84888F"/>
<path d="M50.0555 90.4399C54.5221 90.4399 58.1404 86.8173 58.1404 82.3453C58.1404 77.8733 54.5221 74.2506 50.0555 74.2506C45.5889 74.2506 41.9706 77.8733 41.9706 82.3453C41.9706 86.8173 45.5889 90.4399 50.0555 90.4399Z" fill="white"/>
<path d="M50.0555 90.4399C54.5221 90.4399 58.1404 86.8173 58.1404 82.3453C58.1404 77.8733 54.5221 74.2506 50.0555 74.2506C45.5889 74.2506 41.9706 77.8733 41.9706 82.3453C41.9706 86.8173 45.5889 90.4399 50.0555 90.4399Z" fill="#84888F"/>
<path opacity="0.9" d="M50.0555 90.4399C54.5221 90.4399 58.1404 86.8173 58.1404 82.3453C58.1404 77.8733 54.5221 74.2506 50.0555 74.2506C45.5889 74.2506 41.9706 77.8733 41.9706 82.3453C41.9706 86.8173 45.5889 90.4399 50.0555 90.4399Z" fill="white"/>
<path d="M50.0555 74.2506C49.917 74.2506 49.7785 74.2506 49.6227 74.2679C53.8816 74.4933 57.2748 78.0293 57.2748 82.3453C57.2748 86.6613 53.8816 90.1973 49.6227 90.4226C49.7612 90.4226 49.8997 90.4399 50.0555 90.4399C54.5221 90.4399 58.1404 86.8173 58.1404 82.3453C58.1577 77.8559 54.5394 74.2506 50.0555 74.2506Z" fill="#B0B4B9"/>
<path d="M50.1421 82.9695L47.4586 77.6135C47.3547 77.4055 47.4413 77.1455 47.6317 77.0589C47.8222 76.9722 48.0992 77.0415 48.1858 77.2322L50.4883 81.8255L53.5526 80.3175C53.7604 80.2135 54.0201 80.3002 54.1066 80.5255C54.2105 80.7335 54.124 80.9935 53.8989 81.0802L50.1421 82.9695Z" fill="#F037A5"/>
<path opacity="0.5" d="M56.9805 86.5053C57.7249 85.2746 58.1404 83.8533 58.1404 82.328C58.1404 77.8386 54.5221 74.2333 50.0555 74.2333C49.8304 74.2333 49.6226 74.2506 49.3976 74.2506L56.9805 86.5053Z" fill="white"/>
<path opacity="0.5" d="M48.1684 74.4589C47.7702 74.5629 47.3893 74.6842 47.0258 74.8229L55.405 88.4122C55.7166 88.1349 56.0283 87.8055 56.3053 87.4589L48.1684 74.4589Z" fill="white"/>
<path d="M174.446 144.139C174.411 144.139 174.377 144.121 174.342 144.104L173.442 143.255C173.39 143.203 173.372 143.099 173.442 143.047C173.494 142.995 173.597 142.977 173.649 143.047L174.55 143.896C174.602 143.948 174.619 144.052 174.55 144.104C174.532 144.121 174.498 144.139 174.446 144.139Z" fill="white"/>
<path d="M173.58 144.174C173.546 144.174 173.511 144.156 173.476 144.139C173.424 144.087 173.407 143.983 173.476 143.931L174.325 143.029C174.377 142.977 174.48 142.96 174.532 143.029C174.584 143.099 174.602 143.185 174.532 143.237L173.684 144.139C173.667 144.156 173.615 144.174 173.58 144.174Z" fill="white"/>
<path d="M163.937 148.056C163.902 148.056 163.868 148.039 163.833 148.021L162.933 147.172C162.881 147.12 162.864 147.016 162.933 146.964C162.985 146.912 163.089 146.895 163.141 146.964L164.041 147.813C164.093 147.865 164.11 147.969 164.041 148.021C164.024 148.039 163.972 148.056 163.937 148.056Z" fill="white"/>
<path d="M163.072 148.074C163.037 148.074 163.002 148.056 162.968 148.039C162.916 147.987 162.898 147.883 162.968 147.831L163.816 146.93C163.868 146.878 163.972 146.86 164.024 146.93C164.076 146.999 164.093 147.085 164.024 147.137L163.175 148.039C163.141 148.056 163.106 148.074 163.072 148.074Z" fill="white"/>
<path d="M133.086 147.172C133.052 147.172 133.017 147.155 132.982 147.137L132.082 146.288C132.03 146.236 132.013 146.132 132.082 146.08C132.134 146.028 132.238 146.011 132.29 146.08L133.19 146.929C133.242 146.981 133.259 147.085 133.19 147.137C133.173 147.155 133.121 147.172 133.086 147.172Z" fill="white"/>
<path d="M132.221 147.189C132.186 147.189 132.151 147.172 132.117 147.154C132.065 147.102 132.047 146.998 132.117 146.946L132.965 146.045C133.017 145.993 133.121 145.976 133.173 146.045C133.225 146.097 133.242 146.201 133.173 146.253L132.324 147.154C132.29 147.172 132.255 147.189 132.221 147.189Z" fill="white"/>
<path d="M154.969 144.156C154.381 144.156 153.896 143.671 153.896 143.081C153.896 142.492 154.381 142.007 154.969 142.007C155.575 142.007 156.043 142.492 156.043 143.081C156.043 143.671 155.575 144.156 154.969 144.156ZM154.969 142.284C154.536 142.284 154.173 142.631 154.173 143.081C154.173 143.532 154.519 143.879 154.969 143.879C155.402 143.879 155.766 143.532 155.766 143.081C155.766 142.631 155.419 142.284 154.969 142.284Z" fill="white"/>
<path d="M157.843 159.167C157.757 159.167 157.705 159.097 157.705 159.011C157.705 158.577 157.358 158.213 156.908 158.213C156.475 158.213 156.112 158.56 156.112 159.011C156.112 159.097 156.043 159.167 155.973 159.167C155.904 159.167 155.835 159.097 155.835 159.011C155.835 158.421 156.32 157.936 156.908 157.936C157.497 157.936 157.982 158.421 157.982 159.011C157.982 159.097 157.912 159.167 157.843 159.167Z" fill="white"/>
<path d="M144.564 145.3C144.478 145.3 144.409 145.231 144.409 145.161C144.409 144.728 144.062 144.364 143.63 144.364C143.197 144.364 142.85 144.711 142.85 145.161C142.85 145.248 142.781 145.3 142.712 145.3C142.625 145.3 142.556 145.231 142.556 145.161C142.556 144.555 143.041 144.087 143.63 144.087C144.218 144.087 144.703 144.572 144.703 145.161C144.72 145.248 144.651 145.3 144.564 145.3Z" fill="white"/>
<path d="M152.182 151.592C152.095 151.592 152.043 151.522 152.043 151.453C152.043 151.089 152.32 150.95 152.511 150.829C152.684 150.742 152.771 150.69 152.771 150.586C152.771 150.5 152.84 150.448 152.909 150.448C152.978 150.448 153.048 150.517 153.048 150.586C153.048 150.864 152.823 150.985 152.649 151.089C152.442 151.193 152.338 151.262 152.338 151.453C152.338 151.54 152.269 151.592 152.182 151.592Z" fill="white"/>
<path d="M152.182 149.893C152.095 149.893 152.043 149.824 152.043 149.755C152.043 149.391 152.32 149.252 152.511 149.131C152.684 149.044 152.771 148.992 152.771 148.888C152.771 148.801 152.84 148.749 152.909 148.749C152.978 148.749 153.048 148.819 153.048 148.888C153.048 149.165 152.823 149.287 152.649 149.391C152.442 149.495 152.338 149.564 152.338 149.755C152.338 149.824 152.269 149.893 152.182 149.893Z" fill="white"/>
<path d="M152.909 150.743C152.823 150.743 152.771 150.674 152.771 150.604C152.771 150.518 152.701 150.466 152.528 150.362C152.32 150.258 152.061 150.102 152.061 149.738C152.061 149.651 152.13 149.599 152.217 149.599C152.303 149.599 152.355 149.668 152.355 149.738C152.355 149.911 152.476 149.998 152.667 150.102C152.84 150.206 153.065 150.327 153.065 150.604C153.048 150.674 152.978 150.743 152.909 150.743Z" fill="white"/>
<path d="M152.909 149.027C152.823 149.027 152.771 148.957 152.771 148.888C152.771 148.801 152.701 148.749 152.528 148.645C152.32 148.541 152.061 148.385 152.061 148.021C152.061 147.935 152.13 147.883 152.217 147.883C152.303 147.883 152.355 147.952 152.355 148.021C152.355 148.195 152.476 148.281 152.667 148.385C152.84 148.489 153.065 148.611 153.065 148.888C153.048 148.975 152.978 149.027 152.909 149.027Z" fill="white"/>
<path d="M171.053 156.601H168.94C168.854 156.601 168.802 156.532 168.802 156.463C168.802 156.376 168.871 156.324 168.94 156.324H171.053C171.139 156.324 171.191 156.393 171.191 156.463C171.208 156.532 171.139 156.601 171.053 156.601Z" fill="white"/>
<path d="M164.405 141.989H162.292C162.206 141.989 162.154 141.92 162.154 141.85C162.154 141.764 162.223 141.694 162.292 141.694H164.405C164.491 141.694 164.56 141.764 164.56 141.85C164.56 141.92 164.491 141.989 164.405 141.989Z" fill="white"/>
<path d="M172.143 149.599C172.109 149.599 172.074 149.581 172.039 149.564C171.988 149.512 171.988 149.408 172.039 149.356L173.528 147.865C173.58 147.813 173.684 147.813 173.736 147.865C173.788 147.917 173.788 148.021 173.736 148.073L172.247 149.564C172.213 149.581 172.178 149.599 172.143 149.599Z" fill="white"/>
<path d="M156.32 144.815C155.783 144.815 155.35 144.381 155.35 143.844C155.35 143.307 155.783 142.873 156.32 142.873C156.856 142.873 157.289 143.307 157.289 143.844C157.289 144.381 156.856 144.815 156.32 144.815ZM156.32 142.943C155.818 142.943 155.419 143.359 155.419 143.844C155.419 144.329 155.835 144.745 156.32 144.745C156.822 144.745 157.22 144.347 157.22 143.844C157.22 143.341 156.822 142.943 156.32 142.943Z" fill="white"/>
<path d="M158.951 158.369H158.899C158.899 157.867 158.484 157.468 157.999 157.468C157.497 157.468 157.099 157.867 157.099 158.369H157.047C157.047 157.832 157.48 157.399 158.016 157.399C158.518 157.399 158.951 157.832 158.951 158.369Z" fill="white"/>
<path d="M145.932 145.941H145.88C145.88 145.439 145.482 145.04 144.98 145.04C144.478 145.04 144.08 145.439 144.08 145.941H144.028C144.028 145.404 144.461 144.971 144.997 144.971C145.499 144.988 145.932 145.421 145.932 145.941Z" fill="white"/>
<path d="M167.434 161.68C167.348 161.68 167.296 161.611 167.296 161.541C167.296 161.108 166.95 160.744 166.517 160.744C166.084 160.744 165.738 161.091 165.738 161.541C165.738 161.628 165.668 161.68 165.599 161.68C165.53 161.68 165.461 161.611 165.461 161.541C165.461 160.935 165.945 160.467 166.534 160.467C167.123 160.467 167.607 160.952 167.607 161.541C167.59 161.611 167.521 161.68 167.434 161.68Z" fill="white"/>
<path d="M168.802 162.321H168.75C168.75 161.819 168.352 161.42 167.85 161.42C167.348 161.42 166.95 161.819 166.95 162.321H166.898C166.898 161.784 167.33 161.351 167.867 161.351C168.369 161.351 168.802 161.784 168.802 162.321Z" fill="white"/>
<path d="M153.55 152.233H153.498C153.498 151.939 153.705 151.817 153.913 151.713C154.086 151.627 154.225 151.54 154.225 151.367H154.277C154.277 151.575 154.104 151.679 153.93 151.765C153.74 151.887 153.55 151.973 153.55 152.233Z" fill="white"/>
<path d="M153.55 150.535H153.498C153.498 150.24 153.705 150.119 153.913 150.015C154.086 149.928 154.225 149.841 154.225 149.668H154.277C154.277 149.876 154.104 149.98 153.93 150.067C153.74 150.171 153.55 150.275 153.55 150.535Z" fill="white"/>
<path d="M154.277 151.384H154.225C154.225 151.211 154.086 151.141 153.913 151.037C153.723 150.933 153.498 150.812 153.498 150.517H153.55C153.55 150.777 153.74 150.881 153.93 150.985C154.104 151.072 154.277 151.176 154.277 151.384Z" fill="white"/>
<path d="M154.277 149.668H154.225C154.225 149.494 154.086 149.425 153.913 149.321C153.723 149.217 153.498 149.096 153.498 148.801H153.55C153.55 149.061 153.74 149.165 153.93 149.269C154.104 149.373 154.277 149.46 154.277 149.668Z" fill="white"/>
<path d="M128.031 143.532C127.944 143.532 127.875 143.463 127.875 143.393C127.875 143.029 128.152 142.891 128.343 142.769C128.516 142.683 128.602 142.631 128.602 142.527C128.602 142.44 128.672 142.371 128.741 142.371C128.827 142.371 128.897 142.44 128.897 142.527C128.897 142.804 128.672 142.925 128.498 143.029C128.291 143.133 128.187 143.203 128.187 143.393C128.187 143.463 128.118 143.532 128.031 143.532Z" fill="white"/>
<path d="M128.031 141.816C127.944 141.816 127.875 141.747 127.875 141.677C127.875 141.313 128.152 141.175 128.343 141.053C128.516 140.967 128.602 140.915 128.602 140.811C128.602 140.724 128.672 140.672 128.741 140.672C128.827 140.672 128.897 140.741 128.897 140.811C128.897 141.088 128.672 141.209 128.498 141.313C128.291 141.417 128.187 141.487 128.187 141.677C128.187 141.747 128.118 141.816 128.031 141.816Z" fill="white"/>
<path d="M128.758 142.682C128.672 142.682 128.62 142.613 128.62 142.544C128.62 142.457 128.55 142.405 128.36 142.301C128.152 142.197 127.892 142.041 127.892 141.677C127.892 141.59 127.962 141.521 128.048 141.521C128.135 141.521 128.187 141.59 128.187 141.677C128.187 141.85 128.308 141.937 128.498 142.041C128.672 142.145 128.897 142.266 128.897 142.544C128.897 142.613 128.845 142.682 128.758 142.682Z" fill="white"/>
<path d="M128.758 140.967C128.672 140.967 128.62 140.898 128.62 140.828C128.62 140.742 128.55 140.69 128.36 140.586C128.152 140.482 127.892 140.326 127.892 139.962C127.892 139.875 127.962 139.806 128.048 139.806C128.135 139.806 128.187 139.875 128.187 139.962C128.187 140.135 128.308 140.222 128.498 140.326C128.672 140.43 128.897 140.551 128.897 140.828C128.897 140.898 128.845 140.967 128.758 140.967Z" fill="white"/>
<path d="M129.399 144.173H129.347C129.347 143.879 129.555 143.757 129.762 143.653C129.935 143.567 130.074 143.48 130.074 143.307H130.126C130.126 143.515 129.953 143.619 129.78 143.705C129.589 143.809 129.399 143.913 129.399 144.173Z" fill="white"/>
<path d="M129.399 142.457H129.347C129.347 142.163 129.555 142.041 129.762 141.937C129.935 141.851 130.074 141.764 130.074 141.591H130.126C130.126 141.799 129.953 141.903 129.78 141.989C129.589 142.093 129.399 142.197 129.399 142.457Z" fill="white"/>
<path d="M130.126 143.307H130.074C130.074 143.133 129.935 143.047 129.762 142.96C129.572 142.856 129.347 142.735 129.347 142.44H129.399C129.399 142.7 129.589 142.804 129.78 142.908C129.953 143.012 130.126 143.099 130.126 143.307Z" fill="white"/>
<path d="M130.126 141.608H130.074C130.074 141.435 129.935 141.348 129.762 141.261C129.572 141.157 129.347 141.036 129.347 140.741H129.399C129.399 141.001 129.589 141.105 129.78 141.209C129.953 141.296 130.126 141.4 130.126 141.608Z" fill="white"/>
<path d="M172.247 157.607H170.135V157.659H172.247V157.607Z" fill="white"/>
<path d="M165.755 142.596H163.643V142.648H165.755V142.596Z" fill="white"/>
<path d="M140.202 149.304H138.09C138.003 149.304 137.951 149.235 137.951 149.148C137.951 149.061 138.02 149.009 138.09 149.009H140.202C140.288 149.009 140.34 149.079 140.34 149.148C140.357 149.235 140.288 149.304 140.202 149.304Z" fill="white"/>
<path d="M141.552 149.911H139.44V149.963H141.552V149.911Z" fill="white"/>
<path d="M174.948 148.732L173.459 150.223L173.494 150.258L174.982 148.767L174.948 148.732Z" fill="white"/>
<path d="M160.371 153.828C160.336 153.828 160.301 153.828 160.25 153.81C160.111 153.776 160.007 153.706 159.921 153.585C159.851 153.464 159.817 153.325 159.851 153.204C159.886 153.065 159.955 152.961 160.076 152.874C160.198 152.805 160.336 152.77 160.457 152.805C160.596 152.84 160.7 152.909 160.786 153.03C160.855 153.152 160.89 153.29 160.855 153.412C160.821 153.55 160.752 153.654 160.63 153.741C160.561 153.793 160.457 153.828 160.371 153.828ZM160.371 153.082C160.336 153.082 160.284 153.1 160.25 153.117C160.198 153.152 160.163 153.204 160.146 153.256C160.128 153.308 160.146 153.377 160.18 153.429C160.215 153.481 160.267 153.516 160.319 153.533C160.371 153.55 160.44 153.533 160.492 153.498C160.544 153.464 160.578 153.412 160.596 153.36C160.613 153.308 160.596 153.238 160.561 153.186C160.526 153.134 160.475 153.1 160.423 153.082C160.405 153.082 160.388 153.082 160.371 153.082Z" fill="white"/>
<path d="M157.843 162.772C157.809 162.772 157.774 162.772 157.722 162.755C157.583 162.72 157.48 162.651 157.393 162.53C157.324 162.408 157.289 162.27 157.324 162.148C157.358 162.01 157.428 161.906 157.549 161.819C157.67 161.75 157.809 161.715 157.93 161.75C158.051 161.784 158.172 161.854 158.259 161.975C158.328 162.096 158.363 162.235 158.328 162.356C158.293 162.495 158.224 162.599 158.103 162.686C158.034 162.755 157.947 162.772 157.843 162.772ZM157.843 162.044C157.809 162.044 157.757 162.062 157.722 162.079C157.67 162.114 157.635 162.166 157.618 162.218C157.601 162.27 157.618 162.339 157.653 162.391C157.687 162.443 157.739 162.478 157.791 162.495C157.843 162.512 157.912 162.495 157.964 162.46C158.016 162.426 158.051 162.374 158.068 162.322C158.086 162.27 158.068 162.2 158.034 162.148C157.999 162.096 157.947 162.062 157.895 162.044C157.878 162.044 157.86 162.044 157.843 162.044Z" fill="white"/>
<path d="M152.043 155.926C152.009 155.926 151.974 155.926 151.922 155.908C151.784 155.874 151.68 155.804 151.593 155.683C151.438 155.44 151.507 155.128 151.749 154.972C151.87 154.903 152.009 154.868 152.13 154.903C152.251 154.938 152.372 155.007 152.459 155.128C152.528 155.25 152.563 155.388 152.528 155.51C152.494 155.648 152.424 155.752 152.303 155.839C152.234 155.908 152.13 155.926 152.043 155.926ZM152.043 155.198C152.009 155.198 151.957 155.215 151.922 155.232C151.818 155.302 151.784 155.44 151.853 155.544C151.888 155.596 151.94 155.631 151.992 155.648C152.043 155.666 152.113 155.648 152.165 155.614C152.217 155.579 152.251 155.527 152.269 155.475C152.286 155.423 152.269 155.354 152.234 155.302C152.199 155.25 152.147 155.215 152.095 155.198C152.078 155.198 152.061 155.198 152.043 155.198Z" fill="white"/>
<path d="M150.018 144.139C149.983 144.139 149.931 144.139 149.897 144.121C149.758 144.087 149.654 144.017 149.568 143.896C149.498 143.775 149.464 143.636 149.498 143.515C149.533 143.376 149.602 143.272 149.724 143.185C149.845 143.116 149.983 143.081 150.104 143.116C150.243 143.151 150.347 143.22 150.433 143.341C150.503 143.463 150.537 143.601 150.503 143.723C150.468 143.861 150.399 143.965 150.278 144.052C150.208 144.121 150.104 144.139 150.018 144.139ZM150.018 143.393C149.983 143.393 149.931 143.411 149.897 143.428C149.845 143.463 149.81 143.515 149.793 143.567C149.775 143.619 149.793 143.688 149.827 143.74C149.862 143.792 149.914 143.827 149.966 143.844C150.018 143.861 150.087 143.844 150.139 143.809C150.191 143.775 150.226 143.723 150.243 143.671C150.26 143.619 150.243 143.549 150.208 143.497C150.174 143.445 150.122 143.411 150.07 143.393C150.052 143.411 150.035 143.393 150.018 143.393Z" fill="white"/>
<path d="M135.112 152.753C135.077 152.753 135.043 152.753 134.991 152.736C134.852 152.701 134.748 152.632 134.662 152.511C134.592 152.389 134.558 152.251 134.592 152.129C134.627 151.991 134.696 151.887 134.818 151.8C134.939 151.731 135.077 151.696 135.198 151.731C135.337 151.765 135.441 151.835 135.527 151.956C135.597 152.077 135.631 152.216 135.597 152.337C135.562 152.476 135.493 152.58 135.372 152.667C135.302 152.736 135.216 152.753 135.112 152.753ZM135.112 152.025C135.077 152.025 135.025 152.043 134.991 152.06C134.939 152.095 134.904 152.147 134.887 152.199C134.869 152.251 134.887 152.32 134.921 152.372C134.956 152.424 135.008 152.459 135.06 152.476C135.112 152.493 135.181 152.476 135.233 152.441C135.285 152.407 135.32 152.355 135.337 152.303C135.354 152.251 135.337 152.181 135.302 152.129C135.268 152.077 135.216 152.043 135.164 152.025C135.146 152.025 135.129 152.025 135.112 152.025Z" fill="white"/>
<path d="M168.283 144.139C168.11 144.139 167.936 144.052 167.85 143.896C167.781 143.775 167.746 143.636 167.781 143.515C167.815 143.376 167.884 143.272 168.006 143.185C168.127 143.116 168.265 143.081 168.387 143.116C168.525 143.151 168.629 143.22 168.715 143.341C168.785 143.463 168.819 143.601 168.785 143.723C168.75 143.861 168.681 143.965 168.56 144.052C168.473 144.121 168.369 144.139 168.283 144.139ZM168.283 143.393C168.248 143.393 168.196 143.411 168.161 143.428C168.109 143.463 168.075 143.515 168.058 143.567C168.04 143.619 168.058 143.688 168.092 143.74C168.161 143.844 168.3 143.879 168.404 143.809C168.456 143.775 168.49 143.723 168.508 143.671C168.525 143.619 168.508 143.549 168.473 143.497C168.438 143.445 168.387 143.411 168.335 143.393C168.317 143.411 168.3 143.393 168.283 143.393Z" fill="white"/>
<path opacity="0.2" d="M167.036 147.328C167.053 147.172 166.828 147.12 166.794 147.276L163.071 159.531L152.026 161.143C151.957 161.16 151.922 161.229 151.94 161.281C151.957 161.333 152.009 161.368 152.043 161.368H152.061L163.002 159.773L165.841 159.358L165.859 159.115L167.036 147.328Z" fill="black"/>
<path d="M161.964 84.3906H126.075C124.274 84.3906 122.803 85.864 122.803 87.6666V113.216C122.803 115.019 124.274 116.492 126.075 116.492H158.276C158.397 116.492 158.501 116.492 158.622 116.509C160.527 116.613 162.275 117.584 163.452 119.075L164.456 120.34H165.253V87.6666C165.236 85.8466 163.781 84.3906 161.964 84.3906Z" fill="#F037A5"/>
<path opacity="0.5" d="M161.929 84.3906H126.04C124.24 84.3906 122.768 85.864 122.768 87.6666V113.216C122.768 115.019 124.24 116.492 126.04 116.492H158.241C158.363 116.492 158.466 116.492 158.588 116.509C160.475 116.613 162.206 117.567 163.4 119.04L164.457 120.34H165.253L165.218 87.6666C165.201 85.8466 163.729 84.3906 161.929 84.3906Z" fill="white"/>
<path d="M161.167 84.3906H125.278C123.478 84.3906 122.006 85.864 122.006 87.6666V113.216C122.006 115.019 123.478 116.492 125.278 116.492H157.48C159.107 116.492 160.7 117.081 161.929 118.156L164.439 120.34V113.216V87.6666C164.439 85.8466 162.968 84.3906 161.167 84.3906Z" fill="#F037A5"/>
<path opacity="0.7" d="M161.167 84.3906H125.278C123.478 84.3906 122.006 85.864 122.006 87.6666V113.216C122.006 115.019 123.478 116.492 125.278 116.492H157.48C159.107 116.492 160.7 117.081 161.929 118.156L164.439 120.34V113.216V87.6666C164.439 85.8466 162.968 84.3906 161.167 84.3906Z" fill="white"/>
<path d="M159.211 94.2707H128.775C127.893 94.2707 127.165 93.6121 127.165 92.7801V88.5334C127.165 87.7187 127.893 87.0427 128.775 87.0427H159.211C160.094 87.0427 160.821 87.7014 160.821 88.5334V92.7974C160.838 93.6121 160.094 94.2707 159.211 94.2707Z" fill="#F037A5"/>
<path d="M159.211 94.2707H128.775C127.893 94.2707 127.165 93.6121 127.165 92.7801V88.5334C127.165 87.7187 127.893 87.0427 128.775 87.0427H159.211C160.094 87.0427 160.821 87.7014 160.821 88.5334V92.7974C160.838 93.6121 160.094 94.2707 159.211 94.2707Z" fill="#F037A5"/>
<path d="M160.769 113.268H127.044C126.767 113.268 126.559 112.713 126.559 112.055V97.2174C126.559 96.5414 126.785 96.004 127.044 96.004H160.786C161.063 96.004 161.271 96.5587 161.271 97.2174V112.055C161.271 112.731 161.046 113.268 160.769 113.268Z" fill="#F037A5"/>
<path opacity="0.5" d="M160.769 113.268H127.044C126.767 113.268 126.559 112.713 126.559 112.055V97.2174C126.559 96.5414 126.785 96.004 127.044 96.004H160.786C161.063 96.004 161.271 96.5587 161.271 97.2174V112.055C161.271 112.731 161.046 113.268 160.769 113.268Z" fill="white"/>
<path d="M125.902 112.315V96.9747C125.902 96.4374 126.334 96.004 126.871 96.004H159.678C160.215 96.004 160.648 96.4374 160.648 96.9747V112.315C160.648 112.852 160.215 113.285 159.678 113.285H126.871C126.334 113.268 125.902 112.835 125.902 112.315Z" fill="white"/>
<path d="M134.125 104.272H131.286C130.888 104.272 130.559 103.943 130.559 103.544V100.701C130.559 100.303 130.888 99.9734 131.286 99.9734H134.125C134.523 99.9734 134.852 100.303 134.852 100.701V103.544C134.852 103.96 134.523 104.272 134.125 104.272Z" fill="#F037A5"/>
<path opacity="0.4" d="M134.125 104.272H131.286C130.888 104.272 130.559 103.943 130.559 103.544V100.701C130.559 100.303 130.888 99.9734 131.286 99.9734H134.125C134.523 99.9734 134.852 100.303 134.852 100.701V103.544C134.852 103.96 134.523 104.272 134.125 104.272Z" fill="white"/>
<path d="M133.052 103.284L131.684 101.914C131.615 101.845 131.615 101.724 131.684 101.654L132.048 101.29C132.117 101.221 132.238 101.221 132.307 101.29L133.19 102.174L135.302 100.06C135.371 99.9905 135.493 99.9905 135.562 100.06L135.926 100.424C135.995 100.493 135.995 100.614 135.926 100.684L133.329 103.284C133.242 103.353 133.121 103.353 133.052 103.284Z" fill="#F037A5"/>
<path d="M156.389 101.377H137.622C137.414 101.377 137.259 101.221 137.259 101.013V100.875C137.259 100.667 137.414 100.511 137.622 100.511H156.389C156.597 100.511 156.752 100.667 156.752 100.875V101.013C156.752 101.221 156.597 101.377 156.389 101.377Z" fill="#ACB0B5"/>
<path opacity="0.5" d="M143.578 103.752H137.622C137.414 103.752 137.259 103.596 137.259 103.388C137.259 103.18 137.414 103.024 137.622 103.024H143.578C143.785 103.024 143.941 103.18 143.941 103.388C143.941 103.596 143.768 103.752 143.578 103.752Z" fill="#ACB0B5"/>
<path d="M134.125 111.015H131.286C130.888 111.015 130.559 110.685 130.559 110.287V107.444C130.559 107.045 130.888 106.716 131.286 106.716H134.125C134.523 106.716 134.852 107.045 134.852 107.444V110.287C134.852 110.703 134.523 111.015 134.125 111.015Z" fill="#F037A5"/>
<path opacity="0.4" d="M134.125 111.015H131.286C130.888 111.015 130.559 110.685 130.559 110.287V107.444C130.559 107.045 130.888 106.716 131.286 106.716H134.125C134.523 106.716 134.852 107.045 134.852 107.444V110.287C134.852 110.703 134.523 111.015 134.125 111.015Z" fill="white"/>
<path d="M133.052 110.027L131.684 108.657C131.615 108.588 131.615 108.467 131.684 108.397L132.048 108.033C132.117 107.964 132.238 107.964 132.307 108.033L133.19 108.917L135.302 106.803C135.371 106.733 135.493 106.733 135.562 106.803L135.926 107.167C135.995 107.236 135.995 107.357 135.926 107.427L133.329 110.027C133.242 110.096 133.121 110.096 133.052 110.027Z" fill="#F037A5"/>
<path d="M156.389 108.12H137.622C137.414 108.12 137.259 107.964 137.259 107.756V107.617C137.259 107.409 137.414 107.253 137.622 107.253H156.389C156.597 107.253 156.752 107.409 156.752 107.617V107.756C156.752 107.964 156.597 108.12 156.389 108.12Z" fill="#ACB0B5"/>
<path opacity="0.5" d="M143.578 110.495H137.622C137.414 110.495 137.259 110.339 137.259 110.131C137.259 109.923 137.414 109.767 137.622 109.767H143.578C143.785 109.767 143.941 109.923 143.941 110.131C143.941 110.339 143.768 110.495 143.578 110.495Z" fill="#ACB0B5"/>
<path d="M158.484 94.2881H128.048C127.165 94.2881 126.438 93.6294 126.438 92.7974V88.5334C126.438 87.7187 127.165 87.0427 128.048 87.0427H158.484C159.367 87.0427 160.094 87.7014 160.094 88.5334V92.7974C160.111 93.6121 159.367 94.2881 158.484 94.2881Z" fill="#F037A5"/>
<path opacity="0.4" d="M158.484 94.2707H128.048C127.165 94.2707 126.438 93.6121 126.438 92.7801V88.5334C126.438 87.7187 127.165 87.0427 128.048 87.0427H158.484C159.367 87.0427 160.094 87.7014 160.094 88.5334V92.7974C160.111 93.6121 159.367 94.2707 158.484 94.2707Z" fill="white"/>
<path d="M131.909 90.0415L131.528 88.8455C131.511 88.7589 131.39 88.7589 131.355 88.8455L130.957 90.0415C130.939 90.0762 130.905 90.1109 130.87 90.1109L129.624 90.0935C129.537 90.0935 129.503 90.1975 129.572 90.2495L130.576 90.9948C130.611 91.0122 130.628 91.0642 130.611 91.0988L130.212 92.2948C130.178 92.3815 130.282 92.4508 130.351 92.3988L131.372 91.6708C131.407 91.6535 131.442 91.6535 131.476 91.6708L132.48 92.4162C132.55 92.4682 132.636 92.3988 132.619 92.3122L132.238 91.1162C132.221 91.0815 132.238 91.0468 132.273 91.0122L133.294 90.2842C133.363 90.2322 133.329 90.1282 133.242 90.1282L131.996 90.1109C131.961 90.0935 131.926 90.0762 131.909 90.0415Z" fill="#ECECEC"/>
<path d="M137.916 90.0415L137.536 88.8455C137.518 88.7589 137.397 88.7589 137.362 88.8455L136.964 90.0415C136.947 90.0762 136.912 90.1109 136.878 90.1109L135.631 90.0935C135.545 90.0935 135.51 90.1975 135.579 90.2495L136.583 90.9948C136.618 91.0122 136.635 91.0642 136.618 91.0988L136.22 92.2948C136.185 92.3815 136.289 92.4508 136.358 92.3988L137.38 91.6708C137.414 91.6535 137.449 91.6535 137.484 91.6708L138.488 92.4162C138.557 92.4682 138.644 92.3988 138.626 92.3122L138.245 91.1162C138.228 91.0815 138.245 91.0468 138.28 91.0122L139.301 90.2842C139.371 90.2322 139.336 90.1282 139.25 90.1282L138.003 90.1109C137.951 90.0935 137.916 90.0762 137.916 90.0415Z" fill="#ECECEC"/>
<path d="M143.907 90.0415L143.526 88.8455C143.508 88.7589 143.387 88.7589 143.353 88.8455L142.954 90.0415C142.937 90.0762 142.903 90.1109 142.868 90.1109L141.621 90.0935C141.535 90.0935 141.5 90.1975 141.569 90.2495L142.574 90.9948C142.608 91.0122 142.626 91.0642 142.608 91.0988L142.21 92.2948C142.175 92.3815 142.279 92.4508 142.348 92.3988L143.37 91.6708C143.405 91.6535 143.439 91.6535 143.474 91.6708L144.478 92.4162C144.547 92.4682 144.634 92.3988 144.616 92.3122L144.236 91.1162C144.218 91.0815 144.236 91.0468 144.27 91.0122L145.292 90.2842C145.361 90.2322 145.326 90.1282 145.24 90.1282L143.993 90.1109C143.959 90.0935 143.924 90.0762 143.907 90.0415Z" fill="#ECECEC"/>
<path d="M149.897 90.0415L149.516 88.8455C149.499 88.7589 149.377 88.7589 149.343 88.8455L148.945 90.0415C148.927 90.0762 148.893 90.1109 148.858 90.1109L147.611 90.0935C147.525 90.0935 147.49 90.1975 147.56 90.2495L148.564 90.9948C148.598 91.0122 148.616 91.0642 148.598 91.0988L148.2 92.2948C148.165 92.3815 148.269 92.4508 148.339 92.3988L149.36 91.6708C149.395 91.6535 149.429 91.6535 149.464 91.6708L150.468 92.4162C150.537 92.4682 150.624 92.3988 150.607 92.3122L150.226 91.1162C150.208 91.0815 150.226 91.0468 150.26 91.0122L151.282 90.2842C151.351 90.2322 151.316 90.1282 151.23 90.1282L149.983 90.1109C149.949 90.0935 149.914 90.0762 149.897 90.0415Z" fill="#F037A5"/>
<path d="M155.904 90.0415L155.523 88.8455C155.506 88.7589 155.385 88.7589 155.35 88.8455L154.952 90.0415C154.935 90.0762 154.9 90.1109 154.865 90.1109L153.619 90.0935C153.532 90.0935 153.498 90.1975 153.567 90.2495L154.571 90.9948C154.606 91.0122 154.623 91.0642 154.606 91.0988L154.207 92.2948C154.173 92.3815 154.277 92.4508 154.346 92.3988L155.367 91.6708C155.402 91.6535 155.437 91.6535 155.471 91.6708L156.475 92.4162C156.545 92.4682 156.631 92.3988 156.614 92.3122L156.233 91.1162C156.216 91.0815 156.233 91.0468 156.268 91.0122L157.289 90.2842C157.358 90.2322 157.324 90.1282 157.237 90.1282L155.991 90.1109C155.939 90.0935 155.904 90.0762 155.904 90.0415Z" fill="#F037A5"/>
<path d="M131.909 90.0415L131.528 88.8455C131.511 88.7589 131.39 88.7589 131.355 88.8455L130.957 90.0415C130.939 90.0762 130.905 90.1109 130.87 90.1109L129.624 90.0935C129.537 90.0935 129.503 90.1975 129.572 90.2495L130.576 90.9948C130.611 91.0122 130.628 91.0642 130.611 91.0988L130.212 92.2948C130.178 92.3815 130.282 92.4508 130.351 92.3988L131.372 91.6708C131.407 91.6535 131.442 91.6535 131.476 91.6708L132.48 92.4162C132.55 92.4682 132.636 92.3988 132.619 92.3122L132.238 91.1162C132.221 91.0815 132.238 91.0468 132.273 91.0122L133.294 90.2842C133.363 90.2322 133.329 90.1282 133.242 90.1282L131.996 90.1109C131.961 90.0935 131.926 90.0762 131.909 90.0415Z" fill="#F037A5"/>
<path d="M137.916 90.0415L137.536 88.8455C137.518 88.7589 137.397 88.7589 137.362 88.8455L136.964 90.0415C136.947 90.0762 136.912 90.1109 136.878 90.1109L135.631 90.0935C135.545 90.0935 135.51 90.1975 135.579 90.2495L136.583 90.9948C136.618 91.0122 136.635 91.0642 136.618 91.0988L136.22 92.2948C136.185 92.3815 136.289 92.4508 136.358 92.3988L137.38 91.6708C137.414 91.6535 137.449 91.6535 137.484 91.6708L138.488 92.4162C138.557 92.4682 138.644 92.3988 138.626 92.3122L138.245 91.1162C138.228 91.0815 138.245 91.0468 138.28 91.0122L139.301 90.2842C139.371 90.2322 139.336 90.1282 139.25 90.1282L138.003 90.1109C137.951 90.0935 137.916 90.0762 137.916 90.0415Z" fill="#F037A5"/>
<path d="M143.907 90.0415L143.526 88.8455C143.508 88.7589 143.387 88.7589 143.353 88.8455L142.954 90.0415C142.937 90.0762 142.903 90.1109 142.868 90.1109L141.621 90.0935C141.535 90.0935 141.5 90.1975 141.569 90.2495L142.574 90.9948C142.608 91.0122 142.626 91.0642 142.608 91.0988L142.21 92.2948C142.175 92.3815 142.279 92.4508 142.348 92.3988L143.37 91.6708C143.405 91.6535 143.439 91.6535 143.474 91.6708L144.478 92.4162C144.547 92.4682 144.634 92.3988 144.616 92.3122L144.236 91.1162C144.218 91.0815 144.236 91.0468 144.27 91.0122L145.292 90.2842C145.361 90.2322 145.326 90.1282 145.24 90.1282L143.993 90.1109C143.959 90.0935 143.924 90.0762 143.907 90.0415Z" fill="#F037A5"/>
<path d="M63.4207 92.1212H94.3409C96.3664 92.1212 97.9938 93.7506 97.9938 95.7786V112.28C97.9938 114.308 96.3664 115.937 94.3409 115.937H67.5411C67.4026 115.937 67.2814 115.937 67.1429 115.955C65.0308 116.059 63.0745 117.151 61.7587 118.832L60.6507 120.236H58.9541L59.7678 112.297V95.7959C59.7678 93.7679 61.4125 92.1212 63.4207 92.1212Z" fill="#F037A5"/>
<path opacity="0.5" d="M63.438 92.1212H94.3582C96.3837 92.1212 98.0111 93.7506 98.0111 95.7786V112.28C98.0111 114.308 96.3837 115.937 94.3582 115.937H67.5584C67.4199 115.937 67.2987 115.937 67.1602 115.955C65.0481 116.059 63.1264 117.133 61.7934 118.78L60.6507 120.236H58.9541L59.7851 112.297V95.7959C59.7851 93.7679 61.4125 92.1212 63.438 92.1212Z" fill="white"/>
<path d="M62.607 92.1212H93.5272C95.5527 92.1212 97.1801 93.7506 97.1801 95.7786V112.28C97.1801 114.308 95.5527 115.937 93.5272 115.937H66.7274C64.9096 115.937 63.1437 116.596 61.7587 117.792L58.9541 120.219V112.28V95.7786C58.9541 93.7679 60.5815 92.1212 62.607 92.1212Z" fill="#F037A5"/>
<path opacity="0.7" d="M62.607 92.1212H93.5272C95.5527 92.1212 97.1801 93.7506 97.1801 95.7786V112.28C97.1801 114.308 95.5527 115.937 93.5272 115.937H66.7274C64.9096 115.937 63.1437 116.596 61.7587 117.792L58.9541 120.219V112.28V95.7786C58.9541 93.7679 60.5815 92.1212 62.607 92.1212Z" fill="white"/>
<path d="M93.198 112.765H64.5112C64.1823 112.765 63.9053 112.488 63.9053 112.176V96.2293C63.9053 95.9 64.1823 95.64 64.5112 95.64H93.1807C93.5097 95.64 93.7867 95.9173 93.7867 96.2293V112.176C93.7867 112.505 93.527 112.765 93.198 112.765Z" fill="#F037A5"/>
<path opacity="0.5" d="M93.198 112.765H64.5112C64.1823 112.765 63.9053 112.488 63.9053 112.176V96.2293C63.9053 95.9 64.1823 95.64 64.5112 95.64H93.1807C93.5097 95.64 93.7867 95.9173 93.7867 96.2293V112.176C93.7867 112.505 93.527 112.765 93.198 112.765Z" fill="white"/>
<path d="M63.1262 112.297V96.108C63.1262 95.848 63.6456 95.64 64.3035 95.64H91.8477C92.4882 95.64 93.0249 95.848 93.0249 96.108V112.297C93.0249 112.557 92.5055 112.765 91.8477 112.765H64.3035C63.6456 112.765 63.1262 112.557 63.1262 112.297Z" fill="white"/>
<path d="M81.3565 110.442C81.8585 111.014 82.274 111.777 82.3779 112.765H65.0481C65.0481 112.765 65.2905 109.108 68.0432 108.934L71.5749 108.709L76.1281 108.605L78.1363 108.813C79.3828 108.934 80.5428 109.506 81.3565 110.442Z" fill="#21252B"/>
<path d="M71.0209 108.744H70.6573C70.8651 109.645 72.1116 110.633 73.5139 110.633C74.9162 110.633 75.8857 109.853 76.1281 108.917C76.1454 108.831 76.1627 108.692 76.1627 108.588" fill="#F037A5"/>
<path d="M71.073 104.289L70.9865 108.623C70.9865 108.727 71.0038 108.831 71.073 108.917L71.1076 108.987C72.1118 110.581 74.3278 110.772 75.5743 109.351C75.7128 109.195 75.9032 108.796 75.8686 108.605L75.3146 104.047L71.073 104.289Z" fill="#F99A9A"/>
<path d="M75.8167 102.278C75.8167 102.278 76.5092 107.998 73.3757 108.137C70.3113 108.276 70.3806 102.521 70.3806 102.521L70.3459 100.874L74.3105 100.285L75.2973 100.822L75.8167 102.278Z" fill="#F99A9A"/>
<path opacity="0.15" d="M75.7301 107.721L75.5397 106.144C75.2281 107.149 74.6221 107.964 73.5834 108.103H73.6007C73.5314 108.103 73.4449 108.12 73.3756 108.12C72.5619 108.155 71.8867 107.756 71.3847 106.941C71.3674 106.907 71.3154 106.889 71.2981 106.924C71.2808 106.959 71.2462 106.993 71.2808 107.011C71.8002 107.895 72.51 108.311 73.3929 108.276C73.5834 108.276 73.7565 108.241 73.9296 108.189C74.4836 108.276 75.1242 108.155 75.7301 107.721Z" fill="black"/>
<path d="M75.1069 100.979C75.1069 100.979 76.1284 100.337 76.5612 101.499C76.9247 102.469 76.2322 103.492 76.2322 103.492L75.6609 103.405C75.4186 103.388 75.2627 103.267 75.2454 103.041L75.1069 100.979Z" fill="#21252B"/>
<path d="M75.8339 100.303C75.8858 101.395 74.9509 101.637 74.57 101.672L71.4711 101.845C71.2114 101.863 71.021 102.071 71.021 102.331L71.0383 103.319C71.0383 103.457 70.9517 103.561 70.8132 103.579L70.6228 103.596L70.3977 103.856C69.1859 103.527 68.7877 100.06 71.0383 99.436C71.2633 99.3666 71.4884 99.1933 71.6096 98.9853C71.9559 98.3266 73.2889 98.188 73.9468 98.9506C74.0853 99.124 74.2584 99.1933 74.4835 99.1933C75.2972 99.1933 75.8165 99.7133 75.8339 100.303Z" fill="#21252B"/>
<path d="M70.6403 103.942C70.6056 103.544 70.1382 103.318 69.8266 103.578L69.8093 103.596C69.2553 104.046 69.5669 105.502 70.7441 105.416L70.6403 103.942Z" fill="#F99A9A"/>
<path d="M76.5092 103.336C76.1629 103.11 75.7128 103.37 75.7128 103.769L75.7301 105.156C76.942 105.138 77.0805 103.734 76.5092 103.336Z" fill="#F99A9A"/>
<path d="M70.7959 104.116C70.7959 104.185 70.744 104.255 70.6574 104.255C70.5881 104.255 70.5189 104.203 70.5016 104.151L70.3977 103.214L70.7786 103.232L70.7959 104.116Z" fill="#21252B"/>
<path d="M75.955 103.891C75.955 103.96 75.903 104.029 75.8165 104.029C75.7472 104.029 75.678 103.977 75.6606 103.925L75.5568 102.989L75.9377 103.007L75.955 103.891Z" fill="#21252B"/>
<path d="M74.6047 101.811C74.5181 101.811 74.4662 101.811 74.4489 101.811C74.4143 101.811 74.3796 101.776 74.3796 101.741C74.3796 101.707 74.4143 101.672 74.4489 101.672C74.4662 101.672 75.0721 101.724 75.3491 101.325C75.3664 101.291 75.4184 101.291 75.4357 101.308C75.453 101.325 75.4703 101.377 75.453 101.395C75.2279 101.741 74.8298 101.811 74.6047 101.811Z" fill="#F99A9A"/>
<path d="M72.4673 104.522C72.4716 104.369 72.3511 104.242 72.1982 104.237C72.0452 104.233 71.9178 104.354 71.9134 104.507C71.9091 104.66 72.0296 104.787 72.1827 104.792C72.3355 104.796 72.463 104.675 72.4673 104.522Z" fill="#21252B"/>
<path d="M72.1317 104.476C72.1328 104.438 72.1029 104.407 72.0651 104.406C72.0272 104.405 71.9956 104.434 71.9945 104.472C71.9933 104.51 72.0232 104.542 72.0612 104.543C72.0991 104.544 72.1307 104.514 72.1317 104.476Z" fill="white"/>
<path d="M74.5785 104.432C74.5828 104.279 74.4623 104.151 74.3094 104.147C74.1565 104.143 74.0289 104.264 74.0248 104.417C74.0204 104.57 74.141 104.697 74.2938 104.702C74.4467 104.706 74.5741 104.585 74.5785 104.432Z" fill="#21252B"/>
<path d="M74.2354 104.397C74.2364 104.359 74.2065 104.328 74.1686 104.327C74.1307 104.326 74.0991 104.356 74.098 104.393C74.097 104.431 74.1269 104.463 74.1648 104.464C74.2026 104.465 74.2342 104.435 74.2354 104.397Z" fill="white"/>
<g opacity="0.3">
<path opacity="0.3" d="M73.341 105.849L73.566 105.832C73.6007 105.832 73.6353 105.797 73.6353 105.745C73.6353 105.711 73.6007 105.676 73.5487 105.676L73.3237 105.693C73.2371 105.693 73.1505 105.624 73.1505 105.537C73.1505 105.451 73.2198 105.364 73.3063 105.364C73.341 105.364 73.3756 105.329 73.3756 105.277C73.3756 105.243 73.341 105.208 73.289 105.208C73.1159 105.208 72.9774 105.364 72.9774 105.555C73.012 105.711 73.1678 105.849 73.341 105.849Z" fill="black"/>
</g>
<path d="M75.0723 103.717L73.8777 103.752H73.7219L72.6832 103.787H72.6658L71.3328 103.821C71.1077 103.821 70.9519 104.012 70.9519 104.237L70.9692 104.549C70.9865 105.139 71.4713 105.607 72.0599 105.589C72.6485 105.572 73.116 105.087 73.0987 104.497L73.0813 104.185C73.0813 104.099 73.0467 104.012 72.9948 103.96L73.4103 103.943C73.3583 104.012 73.341 104.081 73.341 104.185L73.3583 104.497C73.3757 105.087 73.8604 105.555 74.449 105.537C75.0377 105.52 75.5051 105.035 75.4878 104.445L75.4705 104.133C75.4705 103.873 75.2974 103.717 75.0723 103.717ZM72.9428 104.168L72.9602 104.48C72.9775 104.983 72.5793 105.399 72.0772 105.416C71.5752 105.433 71.1597 105.035 71.1423 104.532L71.125 104.22C71.125 104.099 71.2289 103.977 71.3501 103.977L72.6832 103.943H72.7005C72.839 103.943 72.9428 104.029 72.9428 104.168ZM75.332 104.411C75.3493 104.913 74.9511 105.329 74.449 105.347C73.947 105.364 73.5315 104.965 73.5142 104.463L73.4969 104.151C73.4969 104.029 73.6007 103.908 73.7219 103.908H73.8777L75.0723 103.873C75.1935 103.873 75.3147 103.977 75.3147 104.099L75.332 104.411Z" fill="#21252B"/>
<g opacity="0.3">
<path opacity="0.3" d="M70.3284 104.688C70.2938 104.688 70.2591 104.653 70.2418 104.619L70.2245 104.445C70.2072 104.272 70.1553 104.133 70.086 104.081C70.0168 104.029 69.9648 104.029 69.9648 104.029C69.9302 104.047 69.8783 104.012 69.8783 103.96C69.861 103.925 69.8956 103.873 69.9475 103.873C69.9648 103.873 70.0687 103.856 70.1899 103.943C70.3111 104.029 70.363 104.203 70.3803 104.428L70.3976 104.601C70.415 104.636 70.3803 104.671 70.3284 104.688Z" fill="black"/>
</g>
<g opacity="0.3">
<path opacity="0.3" d="M76.111 104.41C76.1456 104.41 76.1802 104.376 76.1802 104.324V104.15C76.1802 103.977 76.2149 103.838 76.2841 103.769C76.3361 103.7 76.4053 103.717 76.4053 103.717C76.4399 103.717 76.4746 103.682 76.4919 103.648C76.4919 103.613 76.4572 103.578 76.4226 103.561C76.4053 103.561 76.2841 103.561 76.1976 103.665C76.0937 103.769 76.0417 103.942 76.0417 104.168V104.341C76.0244 104.376 76.0591 104.41 76.111 104.41Z" fill="black"/>
</g>
<g opacity="0.3">
<path opacity="0.3" d="M73.8255 106.733C73.8428 106.733 73.8255 106.733 73.8255 106.733C73.5831 106.82 73.4793 106.872 73.4793 106.872C73.4273 106.889 73.3927 106.872 73.3754 106.82C73.3581 106.768 73.3754 106.733 73.4273 106.716C73.4273 106.716 73.5312 106.664 73.7736 106.577C73.8255 106.56 73.8601 106.577 73.8775 106.612C73.8948 106.664 73.8775 106.716 73.8255 106.733Z" fill="black"/>
</g>
<g opacity="0.3">
<path opacity="0.3" d="M73.8602 106.335C73.237 106.629 72.8388 106.352 72.683 106.213C72.6483 106.179 72.6483 106.144 72.683 106.092C72.7176 106.057 72.7522 106.057 72.8041 106.092C72.9426 106.231 73.3928 106.508 74.0853 106.023C74.1199 106.005 74.1718 106.005 74.1891 106.04C74.2064 106.075 74.2065 106.127 74.1718 106.144C74.068 106.248 73.9641 106.3 73.8602 106.335Z" fill="black"/>
</g>
<path d="M87.6807 106.447H85.4491V106.224C85.4491 105.844 85.4924 105.535 85.579 105.298C85.6655 105.061 85.7937 104.844 85.9633 104.648C86.133 104.452 86.5156 104.107 87.1111 103.613C87.428 103.355 87.5872 103.117 87.5872 102.903C87.5872 102.688 87.5232 102.519 87.3968 102.4C87.2687 102.28 87.0765 102.221 86.8186 102.221C86.5398 102.221 86.3113 102.313 86.1278 102.497C85.946 102.681 85.83 103.003 85.7781 103.461L83.4998 103.178C83.5777 102.339 83.8824 101.665 84.4121 101.154C84.9419 100.642 85.7556 100.386 86.8515 100.386C87.705 100.386 88.394 100.564 88.9186 100.921C89.6301 101.403 89.9867 102.046 89.9867 102.849C89.9867 103.182 89.895 103.504 89.7115 103.813C89.528 104.121 89.1523 104.501 88.5844 104.948C88.1897 105.262 87.9387 105.513 87.8365 105.704C87.7344 105.894 87.6807 106.142 87.6807 106.447ZM85.373 107.042H87.7621V109.153H85.373V107.042Z" fill="#F037A5"/>
<g opacity="0.15">
<path opacity="0.15" d="M56.1323 130.963C55.4519 130.82 55.0502 130.445 55.0294 130.426C54.9775 130.376 54.9758 130.294 55.0242 130.242C55.0744 130.19 55.1558 130.189 55.2078 130.237C55.2129 130.242 55.5852 130.587 56.2102 130.714C56.2102 130.714 56.1894 130.79 56.1721 130.842C56.1565 130.894 56.1323 130.963 56.1323 130.963Z" fill="black"/>
</g>
<path d="M98.0319 155.799H90.4126C90.2655 155.799 90.146 155.679 90.146 155.532C90.146 155.385 90.2655 155.265 90.4126 155.265H98.0319C98.179 155.265 98.2985 155.385 98.2985 155.532C98.2985 155.679 98.179 155.799 98.0319 155.799Z" fill="#F037A5"/>
<path d="M93.5982 157.839H90.1669C90.0197 157.839 89.9003 157.719 89.9003 157.572C89.9003 157.425 90.0197 157.305 90.1669 157.305H93.5982C93.7454 157.305 93.8648 157.425 93.8648 157.572C93.8648 157.719 93.7454 157.839 93.5982 157.839Z" fill="#F037A5"/>
<path d="M98.0319 155.799H90.4126C90.2655 155.799 90.146 155.679 90.146 155.532C90.146 155.385 90.2655 155.265 90.4126 155.265H98.0319C98.179 155.265 98.2985 155.385 98.2985 155.532C98.2985 155.679 98.179 155.799 98.0319 155.799Z" fill="white"/>
<path d="M93.5982 157.839H90.1669C90.0197 157.839 89.9003 157.719 89.9003 157.572C89.9003 157.425 90.0197 157.305 90.1669 157.305H93.5982C93.7454 157.305 93.8648 157.425 93.8648 157.572C93.8648 157.719 93.7454 157.839 93.5982 157.839Z" fill="white"/>
<path d="M100.264 155.799H99.3477C99.2005 155.799 99.0811 155.679 99.0811 155.532C99.0811 155.385 99.2005 155.265 99.3477 155.265H100.264C100.411 155.265 100.53 155.385 100.53 155.532C100.53 155.679 100.411 155.799 100.264 155.799Z" fill="#F037A5"/>
<path d="M88.7368 156.081H88.046C87.9196 156.081 87.8262 155.967 87.8504 155.842L87.9889 155.143C88.0079 155.05 88.0893 154.982 88.1845 154.982H88.8753C89.0017 154.982 89.0952 155.097 89.0709 155.221L88.9324 155.92C88.9134 156.014 88.832 156.081 88.7368 156.081Z" fill="#F037A5"/>
<path d="M88.7368 156.081H88.046C87.9196 156.081 87.8262 155.967 87.8504 155.842L87.9889 155.143C88.0079 155.05 88.0893 154.982 88.1845 154.982H88.8753C89.0017 154.982 89.0952 155.097 89.0709 155.221L88.9324 155.92C88.9134 156.014 88.832 156.081 88.7368 156.081Z" fill="white"/>
<path d="M88.3733 158.057H87.6825C87.5561 158.057 87.4626 157.943 87.4869 157.818L87.6254 157.12C87.6444 157.026 87.7258 156.958 87.821 156.958H88.5118C88.6382 156.958 88.7316 157.073 88.7074 157.198L88.5689 157.896C88.5499 157.99 88.4685 158.057 88.3733 158.057Z" fill="#F037A5"/>
<path d="M99.486 153.617H90.6082C90.5354 153.617 90.4749 153.471 90.4749 153.303L92.0312 145.248C92.0312 145.066 92.0918 144.934 92.1646 144.934H101.042C101.115 144.934 101.176 145.08 101.176 145.248L99.6193 153.303C99.6176 153.483 99.557 153.617 99.486 153.617Z" fill="#F037A5"/>
<path opacity="0.5" d="M99.4774 153.617H90.5995C90.5268 153.617 90.4662 153.471 90.4662 153.303L92.0226 145.248C92.0226 145.066 92.0832 144.934 92.1559 144.934H101.034C101.106 144.934 101.167 145.08 101.167 145.248L99.6107 153.303C99.6107 153.483 99.5501 153.617 99.4774 153.617Z" fill="white"/>
<path d="M90.2983 153.363L91.8547 145.175C91.8547 145.03 91.9638 144.922 92.1075 144.922H100.745C100.89 144.922 100.997 145.031 100.997 145.175L99.4411 153.363C99.4411 153.509 99.332 153.617 99.1883 153.617H90.5511C90.4057 153.617 90.2983 153.507 90.2983 153.363Z" fill="white"/>
<path d="M95.4368 152.457C97.2096 152.457 98.6569 151.02 98.6569 149.233C98.6569 147.458 97.2217 146.009 95.4368 146.009C93.664 146.009 92.2167 147.446 92.2167 149.233C92.2167 151.008 93.664 152.457 95.4368 152.457Z" fill="#F037A5"/>
<path d="M95.4368 152.457C96.3665 152.457 97.1975 152.058 97.7896 151.431C97.7774 151.431 97.7532 151.431 97.7411 151.431L96.1847 151.334L94.1816 151.285L93.3004 151.37C93.2277 151.382 93.1429 151.394 93.0719 151.406C93.6519 152.046 94.495 152.457 95.4368 152.457Z" fill="#21252B"/>
<path d="M96.4372 151.346H96.5947C96.5099 151.744 95.9559 152.179 95.3396 152.179C94.7233 152.179 94.2905 151.841 94.1935 151.419C94.1814 151.382 94.1814 151.321 94.1814 151.273" fill="#F037A5"/>
<path d="M96.4131 149.377L96.4494 151.285C96.4494 151.334 96.4373 151.382 96.4131 151.419L96.3888 151.455C95.9421 152.156 94.9657 152.241 94.4221 151.613C94.3615 151.552 94.2766 151.372 94.2888 151.287L94.5294 149.282L96.4131 149.377Z" fill="#F99A9A"/>
<path d="M94.327 148.496C94.327 148.496 94.0258 151.008 95.4004 151.069C96.7508 151.129 96.7145 148.605 96.7145 148.605L96.7266 147.881L94.978 147.628L94.5435 147.869L94.327 148.496Z" fill="#F99A9A"/>
<path opacity="0.15" d="M94.3513 150.899L94.4361 150.211C94.5695 150.646 94.8465 151.008 95.2931 151.081C95.3295 151.081 95.3537 151.093 95.3901 151.093C95.7519 151.117 96.041 150.935 96.2592 150.573C96.2713 150.561 96.2834 150.549 96.2955 150.561C96.3076 150.573 96.3198 150.585 96.3076 150.597C96.0791 150.984 95.764 151.164 95.378 151.154C95.2931 151.154 95.2204 151.129 95.1373 151.117C94.9053 151.141 94.6283 151.081 94.3513 150.899Z" fill="black"/>
<path d="M94.6282 147.928C94.6282 147.928 94.1816 147.65 93.9894 148.156C93.8319 148.579 94.1331 149.027 94.1331 149.027L94.3859 148.99C94.4949 148.978 94.5676 148.93 94.5676 148.832L94.6282 147.928Z" fill="#21252B"/>
<path d="M94.3149 147.638C94.2906 148.11 94.7009 148.229 94.8706 148.241L96.2331 148.314C96.3422 148.314 96.4253 148.411 96.4253 148.531L96.4131 148.966C96.4131 149.027 96.4495 149.075 96.5101 149.087L96.5949 149.099L96.6919 149.209C97.2234 149.063 97.4034 147.541 96.4149 147.264C96.3058 147.239 96.2106 147.155 96.1621 147.059C96.0167 146.77 95.4263 146.709 95.1372 147.047C95.0766 147.12 95.0039 147.156 94.9087 147.156C94.5434 147.142 94.327 147.373 94.3149 147.638Z" fill="#21252B"/>
<path d="M96.5947 149.233C96.6069 149.051 96.8112 148.955 96.9566 149.075C97.1973 149.267 97.0657 149.909 96.5463 149.872L96.5947 149.233Z" fill="#F99A9A"/>
<path d="M94.0137 148.966C94.1712 148.869 94.3634 148.978 94.3634 149.159L94.3513 149.762C93.8319 149.764 93.7592 149.136 94.0137 148.966Z" fill="#F99A9A"/>
<path d="M96.5344 149.306C96.5344 149.342 96.5587 149.367 96.595 149.367C96.6314 149.367 96.6556 149.342 96.6677 149.318L96.7162 148.907L96.5465 148.919L96.5344 149.306Z" fill="#21252B"/>
<path d="M94.2542 149.209C94.2542 149.245 94.2784 149.269 94.3147 149.269C94.3511 149.269 94.3753 149.245 94.3875 149.221L94.4359 148.81L94.2663 148.822L94.2542 149.209Z" fill="#21252B"/>
<path d="M94.8568 148.29C94.8931 148.29 94.9174 148.29 94.9295 148.29C94.9416 148.29 94.9537 148.278 94.9537 148.254C94.9537 148.241 94.9416 148.229 94.9174 148.229C94.9174 148.229 94.6404 148.254 94.5192 148.072C94.5071 148.059 94.495 148.059 94.4828 148.059C94.4707 148.072 94.4586 148.084 94.4707 148.108C94.5798 148.266 94.7616 148.29 94.8568 148.29Z" fill="#F99A9A"/>
<path d="M95.9198 149.607C95.9804 149.607 96.041 149.547 96.041 149.486C96.041 149.425 95.9804 149.365 95.9198 149.365C95.8592 149.365 95.7986 149.425 95.7986 149.486C95.7986 149.559 95.8471 149.607 95.9198 149.607Z" fill="#21252B"/>
<path d="M95.9664 149.498C95.9785 149.498 95.9906 149.486 95.9906 149.474C95.9906 149.462 95.9785 149.449 95.9664 149.449C95.9543 149.449 95.9421 149.462 95.9421 149.474C95.9439 149.486 95.9543 149.498 95.9664 149.498Z" fill="white"/>
<path d="M94.9901 149.559C95.0507 149.559 95.1113 149.498 95.1113 149.437C95.1113 149.377 95.0507 149.316 94.9901 149.316C94.9295 149.316 94.8689 149.377 94.8689 149.437C94.8689 149.51 94.9295 149.559 94.9901 149.559Z" fill="#21252B"/>
<path d="M95.0385 149.462C95.0506 149.462 95.0627 149.449 95.0627 149.437C95.0627 149.425 95.0506 149.413 95.0385 149.413C95.0264 149.413 95.0143 149.425 95.0143 149.437C95.0143 149.449 95.0264 149.462 95.0385 149.462Z" fill="white"/>
<g opacity="0.3">
<path opacity="0.3" d="M95.4125 150.067L95.3155 150.055C95.2913 150.055 95.2792 150.042 95.2792 150.018C95.2792 150.006 95.3034 149.982 95.3155 149.982H95.4125C95.461 149.982 95.4852 149.957 95.4852 149.909C95.4852 149.873 95.461 149.836 95.4125 149.836C95.3883 149.836 95.3761 149.824 95.3761 149.8C95.3761 149.788 95.4004 149.763 95.4125 149.763C95.4973 149.763 95.5579 149.836 95.5458 149.909C95.5579 150.018 95.4852 150.067 95.4125 150.067Z" fill="black"/>
</g>
<path d="M94.4706 149.306V149.439C94.4706 149.692 94.6628 149.911 94.9294 149.923C95.1821 149.935 95.4003 149.731 95.4124 149.464V149.33C95.4124 149.282 95.4003 149.257 95.3881 149.221H95.5699C95.5457 149.245 95.5336 149.282 95.5336 149.33V149.464C95.5336 149.717 95.7257 149.935 95.9923 149.947C96.2451 149.947 96.4632 149.755 96.4754 149.488L96.4875 149.354C96.4875 149.257 96.4148 149.172 96.3178 149.172L95.7275 149.16L95.2687 149.148H95.196L94.6766 149.136C94.5554 149.124 94.4706 149.197 94.4706 149.306ZM95.6894 149.233L96.2797 149.245C96.3403 149.245 96.3767 149.294 96.3767 149.354V149.488C96.3767 149.705 96.1845 149.887 95.9664 149.874C95.75 149.874 95.5682 149.692 95.5803 149.464V149.33C95.5803 149.27 95.6288 149.233 95.6894 149.233ZM94.5312 149.306C94.5312 149.245 94.5797 149.197 94.6402 149.209L95.1596 149.221H95.2323C95.2929 149.221 95.3293 149.27 95.3293 149.33V149.464C95.3293 149.68 95.1371 149.862 94.919 149.85C94.7026 149.85 94.5208 149.668 94.5329 149.439L94.5312 149.306Z" fill="#21252B"/>
<g opacity="0.3">
<path opacity="0.3" d="M96.7385 149.559C96.7627 149.559 96.7748 149.547 96.7748 149.522L96.7869 149.449C96.7991 149.377 96.8112 149.316 96.8475 149.292C96.8718 149.267 96.9081 149.267 96.9081 149.267C96.9324 149.267 96.9445 149.255 96.9445 149.243C96.9445 149.231 96.9324 149.207 96.9202 149.207C96.9202 149.207 96.8597 149.195 96.8112 149.243C96.7627 149.28 96.7263 149.352 96.7263 149.448L96.7142 149.521C96.7021 149.534 96.7142 149.559 96.7385 149.559Z" fill="black"/>
</g>
<g opacity="0.3">
<path opacity="0.3" d="M94.1937 149.437C94.1816 149.437 94.1574 149.425 94.1574 149.401V149.328C94.1574 149.243 94.1452 149.195 94.1089 149.158C94.0847 149.134 94.0604 149.134 94.0483 149.134C94.0241 149.134 94.012 149.122 94.012 149.098C94.012 149.073 94.0241 149.061 94.0483 149.061C94.0483 149.061 94.1089 149.061 94.1574 149.11C94.2058 149.158 94.2301 149.231 94.2179 149.326V149.399C94.2301 149.425 94.2179 149.437 94.1937 149.437Z" fill="black"/>
</g>
<g opacity="0.3">
<path opacity="0.3" d="M95.1959 150.451C95.1959 150.463 95.1959 150.463 95.1959 150.451C95.3041 150.487 95.3521 150.511 95.3521 150.511C95.3762 150.511 95.3882 150.511 95.4002 150.487C95.4002 150.463 95.4002 150.451 95.3762 150.439C95.3762 150.439 95.3281 150.415 95.22 150.379C95.1959 150.379 95.1839 150.379 95.1719 150.403C95.1719 150.429 95.1719 150.451 95.1959 150.451Z" fill="black"/>
</g>
<g opacity="0.3">
<path opacity="0.3" d="M95.184 150.283C95.461 150.417 95.6307 150.296 95.7034 150.235C95.7155 150.223 95.7155 150.198 95.7034 150.186C95.6913 150.174 95.667 150.174 95.6549 150.186C95.5943 150.247 95.4022 150.368 95.0888 150.162C95.0767 150.15 95.0524 150.162 95.0403 150.174C95.0282 150.186 95.0403 150.211 95.0524 150.223C95.087 150.235 95.1355 150.271 95.184 150.283Z" fill="black"/>
</g>
</g>
<defs>
<clipPath id="clip0_307_1259">
<rect width="200" height="200" fill="white"/>
</clipPath>
</defs>
</svg>
