<svg width="200" height="200" viewBox="0 0 200 200" fill="none" xmlns="http://www.w3.org/2000/svg">
<g clip-path="url(#clip0_308_1917)">
<rect width="200" height="200" fill="white"/>
<path d="M201.347 199.261H-8.73376" stroke="#B1B5BA" stroke-miterlimit="10"/>
<path d="M178.342 145.15H191.797C191.887 145.15 191.977 145.133 192.061 145.099C192.144 145.065 192.218 145.015 192.282 144.951C192.344 144.888 192.395 144.813 192.429 144.73C192.464 144.647 192.481 144.558 192.48 144.469C192.481 144.379 192.464 144.29 192.429 144.207C192.395 144.124 192.344 144.049 192.282 143.986C192.218 143.922 192.144 143.872 192.061 143.838C191.977 143.804 191.887 143.787 191.797 143.788H178.342V145.15Z" fill="#B0B4B9"/>
<path d="M190.051 144.491H176.476V186.223H190.051V144.491Z" fill="#B0B4B9"/>
<path d="M176.897 144.491H135.374V186.223H176.897V144.491Z" fill="#D8DBDD"/>
<path d="M174.793 183.04H137.319V150.294L174.791 150.334V183.04H174.793ZM137.62 182.739H174.495V150.631H137.62V182.739Z" fill="#B0B4B9"/>
<path d="M133.831 145.15H178.361C178.451 145.15 178.541 145.133 178.624 145.099C178.708 145.065 178.782 145.015 178.846 144.951C178.91 144.888 178.96 144.813 178.993 144.73C179.028 144.647 179.045 144.558 179.043 144.469C179.045 144.379 179.028 144.29 178.993 144.207C178.96 144.124 178.91 144.049 178.846 143.986C178.782 143.922 178.708 143.872 178.624 143.838C178.541 143.804 178.451 143.787 178.361 143.788H133.832C133.743 143.787 133.654 143.804 133.571 143.838C133.488 143.872 133.412 143.922 133.349 143.986C133.285 144.049 133.235 144.124 133.201 144.207C133.167 144.29 133.15 144.379 133.15 144.469C133.153 144.648 133.225 144.819 133.352 144.946C133.479 145.073 133.651 145.146 133.831 145.15Z" fill="#D8DBDD"/>
<path d="M174.791 166.466H137.319V166.767H174.791V166.466Z" fill="#B0B4B9"/>
<path d="M154.442 155.559C155.019 155.559 155.484 155.093 155.484 154.518C155.484 153.944 155.019 153.478 154.442 153.478C153.867 153.478 153.4 153.944 153.4 154.518C153.4 155.093 153.867 155.559 154.442 155.559Z" fill="#B0B4B9"/>
<path opacity="0.15" d="M154.823 154.518C154.825 154.303 154.757 154.093 154.634 153.917C154.51 153.741 154.333 153.608 154.131 153.537C154.241 153.495 154.359 153.474 154.477 153.476C154.752 153.476 155.017 153.585 155.211 153.78C155.407 153.974 155.516 154.238 155.516 154.513C155.516 154.788 155.407 155.052 155.211 155.246C155.017 155.441 154.752 155.55 154.477 155.55C154.359 155.551 154.241 155.531 154.131 155.491C154.332 155.419 154.506 155.287 154.629 155.113C154.754 154.939 154.821 154.732 154.823 154.518Z" fill="black"/>
<path d="M154.442 171.671C155.019 171.671 155.484 171.206 155.484 170.631C155.484 170.056 155.019 169.591 154.442 169.591C153.867 169.591 153.4 170.056 153.4 170.631C153.4 171.206 153.867 171.671 154.442 171.671Z" fill="#B0B4B9"/>
<path opacity="0.15" d="M154.823 170.631C154.825 170.416 154.757 170.206 154.634 170.03C154.51 169.854 154.333 169.721 154.131 169.649C154.241 169.608 154.359 169.588 154.477 169.591C154.752 169.591 155.017 169.7 155.211 169.894C155.407 170.089 155.516 170.353 155.516 170.628C155.516 170.903 155.407 171.166 155.211 171.361C155.017 171.555 154.752 171.664 154.477 171.664C154.359 171.665 154.241 171.645 154.131 171.606C154.332 171.533 154.506 171.401 154.631 171.227C154.754 171.053 154.821 170.845 154.823 170.631Z" fill="black"/>
<path d="M179.043 146.549L176.897 145.149H135.374V145.792L179.043 146.549Z" fill="#B0B4B9"/>
<path d="M187.383 186.221L188.422 197.77C188.441 197.868 188.439 197.97 188.415 198.067C188.389 198.164 188.344 198.255 188.281 198.333C188.217 198.411 188.139 198.475 188.049 198.52C187.958 198.565 187.859 198.589 187.758 198.591C187.618 198.589 187.48 198.544 187.365 198.461C187.251 198.378 187.166 198.262 187.12 198.129L184.092 186.22L187.383 186.221Z" fill="#D8DBDD"/>
<path d="M187.004 192.948L185.74 192.647L184.119 186.242H187.409L188.448 197.79C188.477 197.944 188.453 198.102 188.38 198.24C188.307 198.378 188.19 198.487 188.048 198.551L187.004 192.948Z" fill="#B0B4B9"/>
<path d="M175.576 186.221L176.614 197.77C176.633 197.868 176.63 197.97 176.606 198.067C176.581 198.164 176.536 198.255 176.474 198.333C176.41 198.411 176.332 198.475 176.242 198.52C176.152 198.563 176.053 198.587 175.953 198.591C175.811 198.589 175.674 198.542 175.56 198.459C175.446 198.378 175.359 198.262 175.312 198.129L172.286 186.22L175.576 186.221Z" fill="#D8DBDD"/>
<path d="M174.471 187.504L172.586 187.143L172.266 186.223H175.555L176.594 197.771C176.621 197.925 176.597 198.082 176.524 198.221C176.452 198.359 176.334 198.468 176.192 198.532L174.471 187.504Z" fill="#B0B4B9"/>
<path d="M149.55 186.221L148.511 197.77C148.492 197.868 148.495 197.97 148.52 198.067C148.544 198.164 148.589 198.255 148.653 198.333C148.715 198.411 148.795 198.475 148.885 198.52C148.975 198.565 149.074 198.589 149.174 198.591C149.316 198.589 149.453 198.544 149.567 198.461C149.681 198.378 149.768 198.262 149.813 198.129L152.841 186.22L149.55 186.221Z" fill="#D8DBDD"/>
<path d="M150.132 192.365L149.01 192.085L149.552 186.22H152.841L149.815 198.129C149.768 198.262 149.681 198.378 149.567 198.459C149.453 198.542 149.316 198.589 149.174 198.591H149.134L150.132 192.365Z" fill="#B0B4B9"/>
<path d="M137.421 186.221L136.382 197.77C136.363 197.868 136.366 197.97 136.391 198.067C136.415 198.164 136.46 198.255 136.522 198.333C136.584 198.411 136.664 198.475 136.754 198.52C136.844 198.563 136.943 198.587 137.043 198.591C137.183 198.589 137.322 198.542 137.436 198.459C137.55 198.378 137.637 198.262 137.684 198.129L140.71 186.22L137.421 186.221Z" fill="#D8DBDD"/>
<path d="M138.702 187.222L137.26 186.963L137.421 186.221H140.71L137.684 198.131C137.637 198.264 137.55 198.38 137.436 198.461C137.322 198.544 137.185 198.589 137.043 198.592H137.003L138.702 187.222Z" fill="#B0B4B9"/>
<path d="M164.175 120.861C163.112 120.195 161.911 119.782 160.663 119.651C160.088 119.592 159.451 119.608 159.001 119.957C158.904 120.031 158.807 120.138 158.828 120.257C158.854 120.345 158.911 120.42 158.989 120.468C159.735 120.998 160.612 121.315 161.525 121.384C162.439 121.452 163.353 121.271 164.172 120.859" fill="#D1D3D4"/>
<path d="M164.085 120.76C163.273 120.163 162.515 119.497 161.817 118.769C161.12 118.033 160.63 117.126 160.396 116.141C160.349 115.994 160.335 115.84 160.356 115.688C160.375 115.536 160.429 115.39 160.51 115.261C162.318 116.673 163.748 118.495 164.073 120.757" fill="#D1D3D4"/>
<path d="M164.156 120.848C163.988 119.863 164.004 118.855 164.2 117.874C164.4 116.885 164.967 116.008 165.785 115.417C166.109 116.148 165.959 116.988 165.744 117.75C165.401 118.93 164.87 120.047 164.17 121.058" fill="#D1D3D4"/>
<path d="M165.929 124.027C164.864 124.197 163.879 124.694 163.111 125.449C162.299 126.183 161.734 127.149 161.49 128.214C162.546 128.149 163.434 127.406 164.087 126.571C164.74 125.736 165.188 124.825 165.901 124.046" fill="#858990"/>
<path d="M166.313 124.535C165.891 123.46 165.742 122.296 165.882 121.15C166.023 120.003 166.447 118.909 167.117 117.967C167.439 119.059 167.534 120.205 167.396 121.334C167.257 122.463 166.89 123.552 166.313 124.535Z" fill="#D1D3D4"/>
<path d="M168.659 127.312C167.676 127.252 166.694 127.482 165.841 127.974C164.986 128.466 164.295 129.197 163.852 130.078C163.815 130.132 163.793 130.195 163.786 130.261C163.781 130.327 163.793 130.393 163.82 130.453C163.862 130.495 163.914 130.525 163.971 130.542C164.026 130.559 164.087 130.561 164.144 130.548C165.089 130.485 165.929 129.917 166.622 129.27C167.314 128.624 167.917 127.874 168.682 127.314" fill="#D1D3D4"/>
<path d="M168.585 127.16C168.079 125.539 168.048 123.808 168.493 122.17C168.666 121.524 168.966 120.852 169.563 120.554C169.587 120.538 169.613 120.527 169.641 120.522C169.669 120.517 169.698 120.518 169.724 120.525C169.774 120.55 169.811 120.592 169.828 120.644C170.029 121.093 170.114 121.584 170.077 122.074C170.044 122.563 169.97 123.048 169.854 123.525C169.667 124.412 169.567 125.362 169.08 126.118C168.961 126.302 168.853 126.493 168.756 126.69C168.663 126.883 168.663 126.951 168.583 127.106" fill="#B2B6BB"/>
<path d="M174.786 128.081C174.578 127.17 174.573 126.225 174.767 125.312C174.963 124.398 175.356 123.538 175.917 122.791C175.951 122.733 175.998 122.683 176.055 122.647C176.111 122.611 176.176 122.589 176.242 122.583C176.443 122.604 176.497 122.876 176.488 123.076C176.405 124.873 175.816 126.61 174.79 128.088" fill="#D1D3D4"/>
<path d="M175.344 128.463C176.431 128.717 177.558 128.733 178.65 128.509C179.744 128.286 180.775 127.829 181.673 127.169C180.614 126.64 179.403 126.491 178.247 126.749C177.104 126.953 176.071 127.557 175.332 128.453" fill="#D1D3D4"/>
<path d="M175.809 127.3C176.438 126.335 177.284 125.531 178.283 124.955C179.282 124.379 180.402 124.047 181.554 123.985C181.398 124.44 181.15 124.858 180.827 125.215C180.503 125.571 180.112 125.858 179.674 126.059C178.796 126.452 177.868 126.723 176.917 126.864C176.552 126.935 176.052 127.013 175.809 127.3Z" fill="#B2B6BB"/>
<path d="M174.904 121.662C175.264 120.574 175.51 119.452 175.636 118.313C175.763 117.159 175.527 115.994 174.961 114.979C174.397 116.019 174.092 117.18 174.075 118.362C174.057 119.545 174.329 120.714 174.864 121.77" fill="#D1D3D4"/>
<path d="M178.645 119.779C179.94 117.421 182.596 115.536 185.278 115.273C184.239 117.845 181.42 119.832 178.645 119.779Z" fill="#858990"/>
<path d="M177.828 120.24C179.772 120.534 181.417 121.769 183.228 122.504C183.609 122.687 184.029 122.768 184.448 122.739C184.64 122.728 184.824 122.661 184.978 122.547C185.13 122.432 185.246 122.274 185.31 122.094C185.374 121.914 185.383 121.719 185.336 121.533C185.29 121.348 185.187 121.181 185.046 121.052C184.791 120.816 184.49 120.633 184.161 120.515C182.187 119.694 180.073 119.675 178.006 120.169" fill="#D1D3D4"/>
<path d="M176.708 121.597C177.144 121.723 177.295 121.942 177.644 122.243C178.827 123.25 180.227 123.97 181.737 124.345C181.893 124.384 182.097 124.4 182.175 124.258C182.253 124.117 182.175 123.987 182.068 123.876C181.41 123.105 180.556 122.527 179.597 122.202C178.65 121.856 177.835 121.426 176.708 121.51" fill="#D1D3D4"/>
<path d="M175.441 113.401C176.235 114.132 177.174 114.69 178.197 115.038C179.22 115.385 180.305 115.515 181.382 115.42C181.481 115.42 181.574 115.385 181.651 115.321C181.803 115.161 181.621 114.908 181.446 114.772C179.701 113.415 177.586 112.852 175.441 113.401Z" fill="#D1D3D4"/>
<path d="M176.942 112.855C177.994 112.081 179.215 111.567 180.503 111.354C181.793 111.142 183.113 111.237 184.358 111.633C183.389 112.533 182.144 113.08 180.825 113.189C179.521 113.308 178.205 113.199 176.938 112.865" fill="#B2B6BB"/>
<path d="M176.344 109.088C176.171 107.349 176.284 105.977 176.171 104.238C176.171 104.1 176.131 103.931 175.998 103.879C175.865 103.827 175.674 104.034 175.607 104.224C175.351 105.036 175.285 105.894 175.413 106.735C175.541 107.576 175.861 108.376 176.348 109.074" fill="#D1D3D4"/>
<path d="M176.218 109.283C177.357 108.547 178.339 107.595 179.107 106.479C179.679 105.7 180.157 104.765 180.028 103.811C179.627 103.823 179.234 103.921 178.875 104.101C178.515 104.28 178.2 104.535 177.951 104.848C177.452 105.478 177.091 106.205 176.888 106.982C176.658 107.745 176.497 108.538 176.24 109.288" fill="#D1D3D4"/>
<path d="M179.055 108.507C181.654 107.54 184.059 106.116 186.154 104.302C185.305 103.979 184.334 104.167 183.484 104.509C181.557 105.237 179.966 106.645 179.012 108.467" fill="#858990"/>
<path d="M177.021 110.233C178.328 110.419 179.656 110.425 180.965 110.252C182.236 109.988 183.472 109.578 184.647 109.031C184.753 109.001 184.843 108.932 184.9 108.839C184.921 108.782 184.924 108.721 184.907 108.663C184.892 108.605 184.857 108.553 184.81 108.516C184.715 108.441 184.604 108.392 184.486 108.37C183.165 108.05 181.779 108.132 180.505 108.607C179.286 109.022 178.114 109.563 177.009 110.223" fill="#D1D3D4"/>
<path d="M169.527 113.46C169.103 112.56 168.877 111.579 168.867 110.584C168.857 109.59 169.059 108.604 169.463 107.695C170.006 108.523 170.074 109.577 169.982 110.564C169.89 111.551 169.58 112.562 169.561 113.55" fill="#D1D3D4"/>
<path d="M165.952 111.663C164.832 111.647 163.72 111.865 162.688 112.303C161.656 112.741 160.728 113.39 159.962 114.207C161.092 114.341 162.235 114.129 163.241 113.598C164.239 113.071 165.181 112.443 166.052 111.723" fill="#D1D3D4"/>
<path d="M163.547 110.857C162.453 110.769 161.4 110.634 160.351 110.958C159.82 111.105 159.328 111.366 158.907 111.722C158.486 112.077 158.149 112.519 157.915 113.018C158.95 113.103 159.987 112.908 160.921 112.454C161.845 112.002 162.726 111.467 163.556 110.857" fill="#D1D3D4"/>
<path d="M167.108 110.895C166.135 110.249 165.112 109.602 163.969 109.331C162.827 109.06 161.494 109.26 160.697 110.123C161.623 110.665 162.747 110.731 163.824 110.728C164.901 110.724 166.217 110.728 167.228 111.073" fill="#D1D3D4"/>
<path d="M167.11 110.947C165.429 109.298 164.792 106.336 165.469 104.086C166.797 106.114 167.376 108.539 167.11 110.947Z" fill="#858990"/>
<path d="M171.725 106.279C172.051 105.541 172.264 104.769 172.549 104.015C172.811 103.257 173.209 102.554 173.725 101.941C174.251 101.325 174.996 100.939 175.802 100.865C175.544 102 175.051 103.069 174.355 104.003C173.659 104.937 172.776 105.716 171.76 106.29" fill="#858990"/>
<path d="M170.898 107.252C170.378 106.532 169.767 105.552 169.058 105.005C168.713 104.723 168.31 104.518 167.877 104.407C167.442 104.295 166.99 104.279 166.551 104.359C166.999 105.149 167.624 105.823 168.379 106.328C169.134 106.834 169.998 107.156 170.898 107.27" fill="#B2B6BB"/>
<path d="M171.078 106.336C170.697 105.477 170.415 104.578 170.236 103.656C170.063 102.726 170.212 101.765 170.657 100.93C171.58 102.671 171.869 104.539 171.114 106.355" fill="#D1D3D4"/>
<path d="M171.743 100.93C172.262 99.202 173.851 97.93 175.562 97.3476C175.773 97.261 176.002 97.2266 176.228 97.2473C176.341 97.2591 176.45 97.3045 176.537 97.378C176.625 97.4513 176.689 97.5489 176.72 97.6587C176.786 97.9525 176.547 98.2152 176.313 98.4122C174.975 99.5504 173.42 100.407 171.743 100.93Z" fill="#D1D3D4"/>
<path d="M171.762 99.5181C171.779 98.4011 171.947 97.2914 172.26 96.2189C172.624 95.1646 173.323 94.1761 174.338 93.7129C174.511 94.838 174.014 95.9596 173.415 96.924C172.816 97.8884 172.094 98.8061 171.734 99.8828" fill="#B2B6BB"/>
<path d="M171.725 100.284C171.293 99.0256 171.249 97.4253 170.496 96.3295C169.977 95.5622 169.122 95.0351 168.664 94.2314C168.393 95.0097 168.431 95.8624 168.772 96.613C169.116 97.3556 169.589 98.0314 170.169 98.6091C170.728 99.2071 171.208 99.6461 171.727 100.284" fill="#858990"/>
<path d="M171.743 137.338C171.71 137.338 171.68 128.931 171.677 118.584C171.673 108.237 171.701 99.8311 171.736 99.8311C171.77 99.8311 171.798 108.237 171.802 118.584C171.805 128.931 171.777 137.338 171.743 137.338Z" fill="#D1D3D4"/>
<path d="M179.099 112.195C178.995 112.244 178.886 112.283 178.775 112.313L177.909 112.606C177.175 112.855 176.168 113.218 175.074 113.664C173.979 114.11 172.97 114.504 172.388 115.009C172.155 115.2 171.969 115.444 171.85 115.721C171.765 115.918 171.75 116.044 171.739 116.044C171.729 116.044 171.739 116.011 171.739 115.956C171.751 115.872 171.772 115.79 171.802 115.71C171.909 115.418 172.087 115.157 172.321 114.95C172.671 114.654 173.064 114.41 173.484 114.226C173.95 114.01 174.456 113.783 175.015 113.56C176.114 113.111 177.127 112.762 177.87 112.523C178.242 112.408 178.543 112.323 178.753 112.264C178.865 112.229 178.981 112.206 179.099 112.195Z" fill="#D1D3D4"/>
<path d="M181.502 106.288C181.474 106.322 181.445 106.353 181.41 106.381L181.142 106.637L180.148 107.536L176.794 110.517C175.499 111.678 174.357 112.781 173.557 113.628C173.161 114.044 172.854 114.392 172.643 114.634L172.401 114.912C172.342 114.972 172.312 115.005 172.309 115.002C172.328 114.963 172.352 114.927 172.38 114.895C172.432 114.827 172.503 114.722 172.607 114.601C172.807 114.352 173.105 113.996 173.491 113.564C174.504 112.461 175.574 111.412 176.697 110.422C177.994 109.26 179.204 108.22 180.073 107.467L181.112 106.583L181.396 106.348C181.429 106.324 181.464 106.303 181.502 106.288Z" fill="#D1D3D4"/>
<path d="M175.37 111.711C175.335 111.711 175.607 111.063 175.889 110.268C176.171 109.473 176.291 108.801 176.325 108.808C176.298 109.322 176.188 109.828 176.002 110.308C175.887 110.652 175.752 110.988 175.595 111.315C175.541 111.458 175.465 111.591 175.37 111.711Z" fill="#D1D3D4"/>
<path d="M171.751 116.794C171.679 116.72 171.611 116.641 171.549 116.557L171.029 115.911C170.595 115.351 169.991 114.578 169.322 113.732C168.654 112.885 168.027 112.116 167.591 111.578L167.072 110.932C167.006 110.855 166.947 110.772 166.899 110.683C166.977 110.749 167.049 110.823 167.115 110.902C167.252 111.048 167.439 111.262 167.676 111.53C168.138 112.064 168.77 112.822 169.444 113.664C170.117 114.506 170.704 115.28 171.121 115.866C171.332 116.153 171.497 116.384 171.608 116.557C171.663 116.631 171.712 116.71 171.751 116.794Z" fill="#D1D3D4"/>
<path d="M170.139 114.727C169.814 114.369 169.582 113.936 169.466 113.467C169.338 113.056 169.286 112.625 169.314 112.195H169.366C169.343 112.292 169.322 112.344 169.314 112.344C169.305 112.344 169.314 112.287 169.314 112.186H169.366C169.392 112.604 169.464 113.018 169.582 113.42C169.734 113.869 169.92 114.306 170.139 114.727Z" fill="#D1D3D4"/>
<path d="M168.06 112.115C167.915 112.006 167.756 111.915 167.589 111.842C167.167 111.719 166.724 111.686 166.288 111.746C165.843 111.779 165.403 111.849 164.97 111.955C164.792 112.01 164.612 112.055 164.428 112.088C164.589 111.989 164.764 111.917 164.948 111.873C165.38 111.74 165.827 111.656 166.279 111.621C166.734 111.562 167.198 111.613 167.631 111.768C167.809 111.832 167.96 111.954 168.06 112.115Z" fill="#D1D3D4"/>
<path d="M167.567 111.485C167.567 111.5 167.292 111.374 166.845 111.219C166.262 111.023 165.657 110.899 165.044 110.85C164.432 110.805 163.814 110.837 163.208 110.944C162.742 111.028 162.46 111.117 162.453 111.092C162.513 111.057 162.577 111.031 162.645 111.013C162.823 110.95 163.007 110.899 163.192 110.861C163.803 110.726 164.43 110.683 165.053 110.731C165.678 110.776 166.291 110.914 166.874 111.141C167.053 111.208 167.226 111.286 167.394 111.374C167.515 111.436 167.57 111.474 167.567 111.485Z" fill="#D1D3D4"/>
<path d="M171.725 108.808C171.514 108.21 171.341 107.6 171.206 106.981C171.029 106.372 170.893 105.752 170.797 105.125C171.009 105.722 171.182 106.332 171.317 106.952C171.492 107.561 171.628 108.181 171.725 108.808Z" fill="#D1D3D4"/>
<path d="M171.769 108.807C171.601 108.429 171.407 108.063 171.185 107.713C170.936 107.383 170.645 107.085 170.32 106.829C170.441 106.858 170.552 106.918 170.643 107.001C170.887 107.18 171.1 107.399 171.272 107.648C171.537 107.984 171.706 108.384 171.769 108.807Z" fill="#D1D3D4"/>
<path d="M171.743 132.863C171.743 132.863 171.706 132.663 171.609 132.303C171.471 131.802 171.282 131.316 171.048 130.852C170.24 129.329 169.239 127.916 168.069 126.649C167.402 125.89 166.758 125.174 166.206 124.488C165.718 123.884 165.273 123.245 164.878 122.575C164.615 122.122 164.39 121.648 164.208 121.156C164.148 120.983 164.101 120.831 164.075 120.748C164.061 120.701 164.049 120.652 164.04 120.603L164.25 121.135C164.452 121.617 164.686 122.084 164.953 122.533C165.354 123.193 165.803 123.822 166.294 124.417C166.845 125.097 167.492 125.8 168.161 126.571C169.341 127.844 170.342 129.273 171.135 130.817C171.365 131.29 171.544 131.787 171.666 132.298C171.699 132.437 171.725 132.577 171.741 132.718C171.75 132.766 171.75 132.815 171.743 132.863Z" fill="#D1D3D4"/>
<path d="M178.382 125.378C178.271 125.449 178.155 125.513 178.036 125.572C177.721 125.748 177.419 125.947 177.132 126.166C176.706 126.5 176.308 126.866 175.937 127.26C175.522 127.699 175.091 128.207 174.641 128.753C173.775 129.849 172.951 130.827 172.461 131.593C172.212 131.977 172.03 132.302 171.911 132.526C171.857 132.646 171.793 132.762 171.72 132.872C171.727 132.838 171.737 132.805 171.751 132.773C171.777 132.709 171.814 132.616 171.869 132.499C172.023 132.166 172.198 131.842 172.388 131.529C173.055 130.533 173.775 129.576 174.549 128.662C174.987 128.112 175.415 127.604 175.844 127.163C176.218 126.775 176.623 126.417 177.056 126.094C177.35 125.878 177.664 125.688 177.989 125.525C178.105 125.466 178.198 125.432 178.261 125.406C178.299 125.388 178.34 125.378 178.382 125.378Z" fill="#D1D3D4"/>
<path d="M178.527 127.806C178.285 127.859 178.041 127.895 177.793 127.913C177.203 127.974 176.62 128.09 176.05 128.259C175.489 128.443 174.963 128.719 174.492 129.076C174.13 129.355 173.962 129.585 173.945 129.572C173.928 129.56 173.974 129.503 174.052 129.4C174.17 129.259 174.3 129.128 174.438 129.009C174.904 128.623 175.439 128.329 176.015 128.145C176.594 127.97 177.187 127.862 177.79 127.822C178.036 127.793 178.282 127.787 178.527 127.806Z" fill="#D1D3D4"/>
<path d="M174.139 129.3C174.101 129.277 174.435 128.773 174.689 128.09C174.944 127.407 174.987 126.797 175.036 126.797C175.06 126.927 175.06 127.061 175.036 127.191C175.003 127.508 174.93 127.82 174.821 128.119C174.714 128.418 174.57 128.703 174.397 128.97C174.333 129.094 174.244 129.206 174.139 129.3Z" fill="#D1D3D4"/>
<path d="M180.532 118.852C180.498 118.878 180.458 118.899 180.416 118.915L180.07 119.074C179.918 119.137 179.746 119.219 179.528 119.328C179.31 119.436 179.078 119.545 178.825 119.697L178.425 119.924C178.285 120.005 178.147 120.097 177.999 120.192C177.705 120.365 177.407 120.589 177.094 120.816C175.742 121.822 174.559 123.039 173.595 124.421C173.379 124.744 173.168 125.048 173 125.349C172.911 125.497 172.826 125.637 172.747 125.779L172.532 126.187C172.39 126.445 172.286 126.692 172.186 126.901C172.085 127.11 172.013 127.298 171.95 127.45L171.803 127.796C171.791 127.839 171.772 127.879 171.746 127.915C171.753 127.872 171.765 127.83 171.781 127.789C171.814 127.696 171.855 127.577 171.904 127.431C171.968 127.241 172.042 127.054 172.125 126.871C172.222 126.659 172.316 126.407 172.449 126.144C172.517 126.014 172.584 125.876 172.659 125.731C172.733 125.586 172.821 125.446 172.906 125.294C173.079 124.989 173.282 124.68 173.495 124.353C174.456 122.95 175.648 121.72 177.021 120.715C177.345 120.492 177.643 120.273 177.944 120.098C178.089 120.007 178.231 119.913 178.372 119.832L178.778 119.613C179.035 119.464 179.281 119.357 179.495 119.257C179.71 119.156 179.893 119.084 180.046 119.018L180.402 118.882C180.446 118.868 180.489 118.858 180.532 118.852Z" fill="#D1D3D4"/>
<path d="M175.29 122.371C175.34 122.201 175.441 122.051 175.579 121.941C175.903 121.661 176.315 121.503 176.743 121.495C177.163 121.493 177.58 121.574 177.97 121.733C178.134 121.785 178.29 121.861 178.432 121.96C178.264 121.925 178.1 121.877 177.941 121.814C177.556 121.684 177.153 121.618 176.748 121.617C176.344 121.624 175.955 121.761 175.634 122.006C175.512 122.12 175.396 122.242 175.29 122.371Z" fill="#D1D3D4"/>
<path d="M174.492 123.18C174.838 122.503 174.926 121.724 174.741 120.987C174.807 121.085 174.854 121.195 174.881 121.31C174.951 121.579 174.97 121.858 174.939 122.134C174.906 122.409 174.823 122.676 174.693 122.92C174.597 123.092 174.506 123.188 174.492 123.18Z" fill="#D1D3D4"/>
<path d="M165.941 134.066C166.114 137.274 167.093 140.533 168.581 143.834H175.06C176.478 140.568 177.381 137.312 177.541 134.066H165.941Z" fill="#858990"/>
<path d="M176.485 139.256C176.485 139.291 174.353 139.317 171.724 139.317C169.094 139.317 166.959 139.291 166.959 139.256C166.959 139.221 169.09 139.197 171.724 139.197C174.357 139.197 176.485 139.225 176.485 139.256Z" fill="white"/>
<path d="M176.339 140.419C176.339 140.452 174.34 140.482 171.876 140.482C169.412 140.482 167.409 140.452 167.409 140.419C167.409 140.387 169.407 140.359 171.876 140.359C174.345 140.359 176.339 140.385 176.339 140.419Z" fill="white"/>
<path d="M168.678 136.171C168.76 137.163 168.76 138.16 168.678 139.152C168.6 138.16 168.6 137.163 168.678 136.171Z" fill="white"/>
<path d="M172.151 136.171C172.233 137.198 172.233 138.229 172.151 139.256C172.068 138.229 172.068 137.198 172.151 136.171Z" fill="white"/>
<path d="M175.409 136.145C175.487 137.192 175.487 138.244 175.409 139.291C175.326 138.244 175.326 137.192 175.409 136.145Z" fill="white"/>
<path d="M177.329 136.171C177.329 136.207 174.826 136.233 171.743 136.233C168.659 136.233 166.156 136.207 166.156 136.171C166.156 136.135 168.656 136.112 171.743 136.112C174.829 136.112 177.329 136.138 177.329 136.171Z" fill="white"/>
<path d="M157.1 69.7056H36.2315C34.5887 69.7056 33.2572 71.0349 33.2572 72.6747V162.472C33.2572 164.111 34.5887 165.441 36.2315 165.441H157.1C158.743 165.441 160.074 164.111 160.074 162.472V72.6747C160.074 71.0349 158.743 69.7056 157.1 69.7056Z" fill="#F037A5"/>
<path opacity="0.6" d="M157.1 69.7056H36.2315C34.5887 69.7056 33.2572 71.0349 33.2572 72.6747V162.472C33.2572 164.111 34.5887 165.441 36.2315 165.441H157.1C158.743 165.441 160.074 164.111 160.074 162.472V72.6747C160.074 71.0349 158.743 69.7056 157.1 69.7056Z" fill="white"/>
<path d="M155.668 69.7056H34.799C33.1564 69.7056 31.8247 71.0349 31.8247 72.6747V162.472C31.8247 164.111 33.1564 165.441 34.799 165.441H155.668C157.311 165.441 158.642 164.111 158.642 162.472V72.6747C158.642 71.0349 157.311 69.7056 155.668 69.7056Z" fill="white"/>
<path d="M34.799 69.7056H41.6998V165.443H34.799C34.0102 165.443 33.2537 165.13 32.6959 164.573C32.1381 164.016 31.8247 163.261 31.8247 162.473V72.6747C31.8247 71.8873 32.1381 71.1321 32.6959 70.5752C33.2537 70.0184 34.0102 69.7056 34.799 69.7056Z" fill="#F037A5"/>
<path d="M38.8079 73.6047H34.7152C34.3941 73.6047 34.1335 73.8643 34.1335 74.1846C34.1335 74.5046 34.3941 74.7644 34.7152 74.7644H38.8079C39.1292 74.7644 39.3896 74.5046 39.3896 74.1846C39.3896 73.8643 39.1292 73.6047 38.8079 73.6047Z" fill="white"/>
<path d="M37.8361 81.864H35.6877C35.4076 81.864 35.1804 82.0906 35.1804 82.3704V84.5152C35.1804 84.7948 35.4076 85.0216 35.6877 85.0216H37.8361C38.1163 85.0216 38.3434 84.7948 38.3434 84.5152V82.3704C38.3434 82.0906 38.1163 81.864 37.8361 81.864Z" fill="#F037A5"/>
<path opacity="0.4" d="M37.8361 81.864H35.6877C35.4076 81.864 35.1804 82.0906 35.1804 82.3704V84.5152C35.1804 84.7948 35.4076 85.0216 35.6877 85.0216H37.8361C38.1163 85.0216 38.3434 84.7948 38.3434 84.5152V82.3704C38.3434 82.0906 38.1163 81.864 37.8361 81.864Z" fill="white"/>
<path d="M37.8361 92.116H35.6877C35.4076 92.116 35.1804 92.3427 35.1804 92.6223V94.7671C35.1804 95.0467 35.4076 95.2735 35.6877 95.2735H37.8361C38.1163 95.2735 38.3434 95.0467 38.3434 94.7671V92.6223C38.3434 92.3427 38.1163 92.116 37.8361 92.116Z" fill="#F037A5"/>
<path opacity="0.4" d="M37.8361 92.116H35.6877C35.4076 92.116 35.1804 92.3427 35.1804 92.6223V94.7671C35.1804 95.0467 35.4076 95.2735 35.6877 95.2735H37.8361C38.1163 95.2735 38.3434 95.0467 38.3434 94.7671V92.6223C38.3434 92.3427 38.1163 92.116 37.8361 92.116Z" fill="white"/>
<path d="M37.8361 102.37H35.6877C35.4076 102.37 35.1804 102.597 35.1804 102.876V105.021C35.1804 105.301 35.4076 105.527 35.6877 105.527H37.8361C38.1163 105.527 38.3434 105.301 38.3434 105.021V102.876C38.3434 102.597 38.1163 102.37 37.8361 102.37Z" fill="#F037A5"/>
<path opacity="0.4" d="M37.8361 102.37H35.6877C35.4076 102.37 35.1804 102.597 35.1804 102.876V105.021C35.1804 105.301 35.4076 105.527 35.6877 105.527H37.8361C38.1163 105.527 38.3434 105.301 38.3434 105.021V102.876C38.3434 102.597 38.1163 102.37 37.8361 102.37Z" fill="white"/>
<path d="M37.8361 112.622H35.6877C35.4076 112.622 35.1804 112.848 35.1804 113.128V115.273C35.1804 115.552 35.4076 115.779 35.6877 115.779H37.8361C38.1163 115.779 38.3434 115.552 38.3434 115.273V113.128C38.3434 112.848 38.1163 112.622 37.8361 112.622Z" fill="#F037A5"/>
<path opacity="0.4" d="M37.8361 112.622H35.6877C35.4076 112.622 35.1804 112.848 35.1804 113.128V115.273C35.1804 115.552 35.4076 115.779 35.6877 115.779H37.8361C38.1163 115.779 38.3434 115.552 38.3434 115.273V113.128C38.3434 112.848 38.1163 112.622 37.8361 112.622Z" fill="white"/>
<path d="M36.7161 159.041H35.686C35.5059 159.041 35.3333 158.969 35.2061 158.841C35.0788 158.714 35.0073 158.542 35.0073 158.362V156.217C35.0073 156.037 35.0788 155.865 35.2061 155.737C35.3333 155.61 35.5059 155.538 35.686 155.538H36.7161C36.7619 155.538 36.8061 155.556 36.8385 155.588C36.871 155.621 36.8892 155.665 36.8892 155.711C36.8892 155.756 36.871 155.8 36.8385 155.833C36.8061 155.865 36.7619 155.883 36.7161 155.883H35.686C35.5977 155.884 35.5132 155.919 35.4509 155.982C35.3885 156.044 35.3536 156.129 35.3536 156.217V158.362C35.3536 158.45 35.3885 158.534 35.4509 158.597C35.5132 158.659 35.5977 158.695 35.686 158.695H36.7161C36.7619 158.695 36.8061 158.714 36.8385 158.746C36.871 158.778 36.8892 158.822 36.8892 158.868C36.8892 158.914 36.871 158.958 36.8385 158.99C36.8061 159.023 36.7619 159.041 36.7161 159.041Z" fill="white"/>
<path d="M37.6989 157.311C37.6989 157.311 37.6989 157.301 37.6989 157.294C37.6989 157.294 37.6989 157.283 37.6989 157.278C37.7007 157.269 37.7007 157.26 37.6989 157.25C37.6989 157.25 37.6989 157.238 37.6989 157.231L37.6885 157.212C37.6885 157.212 37.6885 157.202 37.6885 157.199L37.3423 156.67C37.3172 156.631 37.2779 156.605 37.2332 156.596C37.1884 156.586 37.1418 156.595 37.1034 156.62C37.0842 156.632 37.0677 156.648 37.0547 156.667C37.0419 156.686 37.0327 156.707 37.0281 156.729C37.0234 156.752 37.0232 156.775 37.0275 156.797C37.0319 156.82 37.0405 156.841 37.0532 156.86L37.2263 157.121H35.9677C35.9218 157.121 35.8777 157.139 35.8453 157.171C35.8127 157.204 35.7946 157.248 35.7946 157.294C35.7946 157.339 35.8127 157.383 35.8453 157.416C35.8777 157.448 35.9218 157.466 35.9677 157.466H37.2678L37.0947 157.812C37.0847 157.832 37.0788 157.855 37.0774 157.877C37.0758 157.9 37.079 157.923 37.0864 157.944C37.0937 157.966 37.1053 157.986 37.1205 158.003C37.1356 158.02 37.1539 158.034 37.1744 158.044C37.1982 158.055 37.2242 158.06 37.2505 158.061C37.2829 158.061 37.3148 158.052 37.3423 158.035C37.3698 158.018 37.3921 157.993 37.4063 157.964L37.6989 157.37C37.6989 157.37 37.6989 157.356 37.6989 157.349C37.7007 157.336 37.7007 157.323 37.6989 157.311Z" fill="white"/>
<path d="M152.921 81.8293H127.763C127.319 81.8293 126.958 82.1892 126.958 82.633V91.715C126.958 92.159 127.319 92.5186 127.763 92.5186H152.921C153.365 92.5186 153.726 92.159 153.726 91.715V82.633C153.726 82.1892 153.365 81.8293 152.921 81.8293Z" fill="#F037A5"/>
<path opacity="0.85" d="M152.921 81.8293H127.763C127.319 81.8293 126.958 82.1892 126.958 82.633V91.715C126.958 92.159 127.319 92.5186 127.763 92.5186H152.921C153.365 92.5186 153.726 92.159 153.726 91.715V82.633C153.726 82.1892 153.365 81.8293 152.921 81.8293Z" fill="white"/>
<path d="M146.027 90.628C147.87 90.628 149.365 89.1362 149.365 87.296C149.365 85.4557 147.87 83.9639 146.027 83.9639C144.183 83.9639 142.689 85.4557 142.689 87.296C142.689 89.1362 144.183 90.628 146.027 90.628Z" fill="white"/>
<path d="M146.032 87.2959C145.784 87.2957 145.545 87.2036 145.364 87.0374C145.18 86.8713 145.066 86.643 145.043 86.3972L144.978 85.6852C144.964 85.5479 144.981 85.4095 145.024 85.2789C145.068 85.1482 145.139 85.0281 145.232 84.9263C145.326 84.8243 145.438 84.7431 145.564 84.6874C145.691 84.6318 145.828 84.6033 145.966 84.6033H146.099C146.236 84.6031 146.373 84.6318 146.499 84.6874C146.626 84.7431 146.74 84.8245 146.832 84.9263C146.925 85.0283 146.996 85.1484 147.039 85.279C147.083 85.4097 147.098 85.5481 147.086 85.6852L147.02 86.3972C146.996 86.643 146.882 86.8713 146.7 87.0374C146.517 87.2036 146.279 87.2957 146.032 87.2959Z" fill="#F037A5"/>
<path opacity="0.3" d="M146.032 87.2959C145.784 87.2957 145.545 87.2036 145.364 87.0374C145.18 86.8713 145.066 86.643 145.043 86.3972L144.978 85.6852C144.964 85.5479 144.981 85.4095 145.024 85.2789C145.068 85.1482 145.139 85.0281 145.232 84.9263C145.326 84.8243 145.438 84.7431 145.564 84.6874C145.691 84.6318 145.828 84.6033 145.966 84.6033H146.099C146.236 84.6031 146.373 84.6318 146.499 84.6874C146.626 84.7431 146.74 84.8245 146.832 84.9263C146.925 85.0283 146.996 85.1484 147.039 85.279C147.083 85.4097 147.098 85.5481 147.086 85.6852L147.02 86.3972C146.996 86.643 146.882 86.8713 146.7 87.0374C146.517 87.2036 146.279 87.2957 146.032 87.2959Z" fill="white"/>
<path d="M148.939 89.0225C148.802 89.2411 148.639 89.4429 148.456 89.6239C148.09 89.9889 147.647 90.2668 147.161 90.4374C146.672 90.6078 146.153 90.6664 145.639 90.6085C145.126 90.5508 144.631 90.3781 144.195 90.1035C143.757 89.8289 143.388 89.4594 143.113 89.0225C143.198 88.6436 143.409 88.3049 143.712 88.0621C144.015 87.8193 144.392 87.6867 144.78 87.6865H147.27C147.659 87.686 148.037 87.8182 148.34 88.0612C148.643 88.304 148.856 88.6433 148.939 89.0225Z" fill="#F037A5"/>
<path opacity="0.3" d="M148.939 89.0225C148.802 89.2411 148.639 89.4429 148.456 89.6239C148.09 89.9889 147.647 90.2668 147.161 90.4374C146.672 90.6078 146.153 90.6664 145.639 90.6085C145.126 90.5508 144.631 90.3781 144.195 90.1035C143.757 89.8289 143.388 89.4594 143.113 89.0225C143.198 88.6436 143.409 88.3049 143.712 88.0621C144.015 87.8193 144.392 87.6867 144.78 87.6865H147.27C147.659 87.686 148.037 87.8182 148.34 88.0612C148.643 88.304 148.856 88.6433 148.939 89.0225Z" fill="white"/>
<path d="M135.885 87.2612H129.845C129.721 87.2612 129.622 87.3611 129.622 87.4842V87.8333C129.622 87.9565 129.721 88.0562 129.845 88.0562H135.885C136.008 88.0562 136.108 87.9565 136.108 87.8333V87.4842C136.108 87.3611 136.008 87.2612 135.885 87.2612Z" fill="#858990"/>
<path d="M137.351 85.0684H130.288C129.92 85.0684 129.622 85.3661 129.622 85.7337C129.622 86.1012 129.92 86.3991 130.288 86.3991H137.351C137.72 86.3991 138.018 86.1012 138.018 85.7337C138.018 85.3661 137.72 85.0684 137.351 85.0684Z" fill="#61656D"/>
<path d="M136.823 75.2412H123.588C122.478 75.2412 121.578 76.1396 121.578 77.2477V77.2494C121.578 78.3576 122.478 79.2559 123.588 79.2559H136.823C137.933 79.2559 138.833 78.3576 138.833 77.2494V77.2477C138.833 76.1396 137.933 75.2412 136.823 75.2412Z" fill="#D8DBDD"/>
<path d="M136.771 77.8492L136.437 77.5174C136.524 77.3962 136.567 77.2495 136.56 77.1009C136.552 76.9522 136.496 76.8103 136.397 76.6978C136.3 76.5853 136.167 76.5087 136.022 76.4804C135.875 76.4521 135.724 76.4737 135.591 76.5418C135.459 76.6099 135.353 76.7205 135.291 76.8556C135.229 76.9909 135.213 77.1432 135.25 77.2879C135.284 77.4323 135.367 77.5611 135.483 77.6532C135.601 77.7453 135.745 77.7954 135.895 77.7956C136.034 77.7953 136.171 77.7517 136.285 77.6712L136.617 78.003C136.626 78.0129 136.638 78.0208 136.652 78.0262C136.664 78.0315 136.678 78.0341 136.693 78.0341C136.721 78.0339 136.749 78.0229 136.771 78.003C136.79 77.9824 136.803 77.9548 136.803 77.9261C136.803 77.8974 136.79 77.8698 136.771 77.8492ZM135.579 77.4465C135.516 77.3836 135.473 77.3039 135.456 77.217C135.438 77.1302 135.447 77.0404 135.482 76.9586C135.514 76.8769 135.573 76.8069 135.646 76.7574C135.719 76.7082 135.805 76.6814 135.895 76.6809C135.968 76.6804 136.043 76.6982 136.108 76.7329C136.174 76.7675 136.23 76.8178 136.271 76.8791C136.313 76.9406 136.339 77.0113 136.345 77.0851C136.352 77.1589 136.342 77.2332 136.314 77.3019C136.285 77.3703 136.24 77.4306 136.183 77.4776C136.126 77.5246 136.058 77.5568 135.984 77.5711C135.911 77.5855 135.837 77.5815 135.766 77.5597C135.695 77.5381 135.63 77.499 135.579 77.4465Z" fill="#858990"/>
<path d="M145.855 75.2412H142.755C142.5 75.2412 142.294 75.447 142.294 75.7009V78.7962C142.294 79.0501 142.5 79.2559 142.755 79.2559H145.855C146.11 79.2559 146.316 79.0501 146.316 78.7962V75.7009C146.316 75.447 146.11 75.2412 145.855 75.2412Z" fill="#D8DBDD"/>
<path d="M153.341 75.2412H150.241C149.986 75.2412 149.78 75.447 149.78 75.7009V78.7962C149.78 79.0501 149.986 79.2559 150.241 79.2559H153.341C153.596 79.2559 153.802 79.0501 153.802 78.7962V75.7009C153.802 75.447 153.596 75.2412 153.341 75.2412Z" fill="#D8DBDD"/>
<path d="M58.9495 76.2437H47.0491C46.4925 76.2437 46.0415 76.694 46.0415 77.2495C46.0415 77.805 46.4925 78.2553 47.0491 78.2553H58.9495C59.5061 78.2553 59.9573 77.805 59.9573 77.2495C59.9573 76.694 59.5061 76.2437 58.9495 76.2437Z" fill="#868A91"/>
<path d="M78.0765 97.6431H46.8586C46.414 97.6431 46.0536 98.0029 46.0536 98.4467V114.526C46.0536 114.97 46.414 115.33 46.8586 115.33H78.0765C78.5211 115.33 78.8816 114.97 78.8816 114.526V98.4467C78.8816 98.0029 78.5211 97.6431 78.0765 97.6431Z" fill="#F037A5"/>
<path d="M78.0765 97.6431H46.8586C46.414 97.6431 46.0536 98.0029 46.0536 98.4467V114.526C46.0536 114.97 46.414 115.33 46.8586 115.33H78.0765C78.5211 115.33 78.8816 114.97 78.8816 114.526V98.4467C78.8816 98.0029 78.5211 97.6431 78.0765 97.6431Z" fill="#F037A5"/>
<path d="M73.9716 102.954C75.0377 102.954 75.9019 102.091 75.9019 101.027C75.9019 99.9626 75.0377 99.0999 73.9716 99.0999C72.9055 99.0999 72.0413 99.9626 72.0413 101.027C72.0413 102.091 72.9055 102.954 73.9716 102.954Z" fill="white"/>
<path d="M71.4803 102.954C72.5464 102.954 73.4106 102.091 73.4106 101.027C73.4106 99.9626 72.5464 99.0999 71.4803 99.0999C70.4142 99.0999 69.5499 99.9626 69.5499 101.027C69.5499 102.091 70.4142 102.954 71.4803 102.954Z" fill="#F037A5"/>
<path opacity="0.3" d="M71.4803 102.954C72.5464 102.954 73.4106 102.091 73.4106 101.027C73.4106 99.9626 72.5464 99.0999 71.4803 99.0999C70.4142 99.0999 69.5499 99.9626 69.5499 101.027C69.5499 102.091 70.4142 102.954 71.4803 102.954Z" fill="white"/>
<path d="M53.9118 104.337H50.2173C49.5977 104.337 49.0955 104.838 49.0955 105.457V107.556C49.0955 108.175 49.5977 108.676 50.2173 108.676H53.9118C54.5314 108.676 55.0336 108.175 55.0336 107.556V105.457C55.0336 104.838 54.5314 104.337 53.9118 104.337Z" fill="white"/>
<path d="M57.5474 100.553H49.5698C49.3079 100.553 49.0955 100.766 49.0955 101.027C49.0955 101.289 49.3079 101.501 49.5698 101.501H57.5474C57.8093 101.501 58.0218 101.289 58.0218 101.027C58.0218 100.766 57.8093 100.553 57.5474 100.553Z" fill="#F037A5"/>
<path d="M53.0531 110.828H50.1169C49.5529 110.828 49.0955 111.284 49.0955 111.847C49.0955 112.409 49.5529 112.865 50.1169 112.865H53.0531C53.6173 112.865 54.0745 112.409 54.0745 111.847C54.0745 111.284 53.6173 110.828 53.0531 110.828Z" fill="#F037A5"/>
<path d="M59.4047 110.828H56.4685C55.9042 110.828 55.447 111.284 55.447 111.847C55.447 112.409 55.9042 112.865 56.4685 112.865H59.4047C59.9687 112.865 60.4261 112.409 60.4261 111.847C60.4261 111.284 59.9687 110.828 59.4047 110.828Z" fill="#F037A5"/>
<path d="M65.7574 110.828H62.8212C62.257 110.828 61.7998 111.284 61.7998 111.847C61.7998 112.409 62.257 112.865 62.8212 112.865H65.7574C66.3215 112.865 66.7789 112.409 66.7789 111.847C66.7789 111.284 66.3215 110.828 65.7574 110.828Z" fill="#F037A5"/>
<path d="M72.1089 110.828H69.1727C68.6086 110.828 68.1512 111.284 68.1512 111.847C68.1512 112.409 68.6086 112.865 69.1727 112.865H72.1089C72.6731 112.865 73.1303 112.409 73.1303 111.847C73.1303 111.284 72.6731 110.828 72.1089 110.828Z" fill="#F037A5"/>
<path opacity="0.3" d="M57.5474 100.553H49.5698C49.3079 100.553 49.0955 100.766 49.0955 101.027C49.0955 101.289 49.3079 101.501 49.5698 101.501H57.5474C57.8093 101.501 58.0218 101.289 58.0218 101.027C58.0218 100.766 57.8093 100.553 57.5474 100.553Z" fill="white"/>
<path opacity="0.3" d="M53.0531 110.828H50.1169C49.5529 110.828 49.0955 111.284 49.0955 111.847C49.0955 112.409 49.5529 112.865 50.1169 112.865H53.0531C53.6173 112.865 54.0745 112.409 54.0745 111.847C54.0745 111.284 53.6173 110.828 53.0531 110.828Z" fill="white"/>
<path opacity="0.3" d="M59.4047 110.828H56.4685C55.9042 110.828 55.447 111.284 55.447 111.847C55.447 112.409 55.9042 112.865 56.4685 112.865H59.4047C59.9687 112.865 60.4261 112.409 60.4261 111.847C60.4261 111.284 59.9687 110.828 59.4047 110.828Z" fill="white"/>
<path opacity="0.3" d="M65.7574 110.828H62.8212C62.257 110.828 61.7998 111.284 61.7998 111.847C61.7998 112.409 62.257 112.865 62.8212 112.865H65.7574C66.3215 112.865 66.7789 112.409 66.7789 111.847C66.7789 111.284 66.3215 110.828 65.7574 110.828Z" fill="white"/>
<path opacity="0.3" d="M72.1089 110.828H69.1727C68.6086 110.828 68.1512 111.284 68.1512 111.847C68.1512 112.409 68.6086 112.865 69.1727 112.865H72.1089C72.6731 112.865 73.1303 112.409 73.1303 111.847C73.1303 111.284 72.6731 110.828 72.1089 110.828Z" fill="white"/>
<path d="M78.0765 119.512H46.8586C46.414 119.512 46.0536 119.872 46.0536 120.316V136.396C46.0536 136.84 46.414 137.2 46.8586 137.2H78.0765C78.5211 137.2 78.8816 136.84 78.8816 136.396V120.316C78.8816 119.872 78.5211 119.512 78.0765 119.512Z" fill="#D8DBDD"/>
<path d="M75.1348 121.609H71.0958C70.6827 121.609 70.3479 121.943 70.3479 122.355V123.437C70.3479 123.85 70.6827 124.184 71.0958 124.184H75.1348C75.5479 124.184 75.8827 123.85 75.8827 123.437V122.355C75.8827 121.943 75.5479 121.609 75.1348 121.609Z" fill="#B1B5BA"/>
<path d="M53.9118 126.206H50.2173C49.5977 126.206 49.0955 126.707 49.0955 127.326V129.426C49.0955 130.044 49.5977 130.546 50.2173 130.546H53.9118C54.5314 130.546 55.0336 130.044 55.0336 129.426V127.326C55.0336 126.707 54.5314 126.206 53.9118 126.206Z" fill="white"/>
<path d="M57.5474 122.423H49.5698C49.3079 122.423 49.0955 122.635 49.0955 122.896C49.0955 123.158 49.3079 123.37 49.5698 123.37H57.5474C57.8093 123.37 58.0218 123.158 58.0218 122.896C58.0218 122.635 57.8093 122.423 57.5474 122.423Z" fill="#B1B5BA"/>
<path d="M53.0531 132.699H50.1169C49.5529 132.699 49.0955 133.155 49.0955 133.718C49.0955 134.281 49.5529 134.737 50.1169 134.737H53.0531C53.6173 134.737 54.0745 134.281 54.0745 133.718C54.0745 133.155 53.6173 132.699 53.0531 132.699Z" fill="#B1B5BA"/>
<path d="M59.4047 132.699H56.4685C55.9042 132.699 55.447 133.155 55.447 133.718C55.447 134.281 55.9042 134.737 56.4685 134.737H59.4047C59.9687 134.737 60.4261 134.281 60.4261 133.718C60.4261 133.155 59.9687 132.699 59.4047 132.699Z" fill="#B1B5BA"/>
<path d="M65.7574 132.699H62.8212C62.257 132.699 61.7998 133.155 61.7998 133.718C61.7998 134.281 62.257 134.737 62.8212 134.737H65.7574C66.3215 134.737 66.7789 134.281 66.7789 133.718C66.7789 133.155 66.3215 132.699 65.7574 132.699Z" fill="#B1B5BA"/>
<path d="M72.1089 132.699H69.1727C68.6086 132.699 68.1512 133.155 68.1512 133.718C68.1512 134.281 68.6086 134.737 69.1727 134.737H72.1089C72.6731 134.737 73.1303 134.281 73.1303 133.718C73.1303 133.155 72.6731 132.699 72.1089 132.699Z" fill="#B1B5BA"/>
<path d="M78.0765 141.181H46.8586C46.414 141.181 46.0536 141.541 46.0536 141.985V158.065C46.0536 158.509 46.414 158.868 46.8586 158.868H78.0765C78.5211 158.868 78.8816 158.509 78.8816 158.065V141.985C78.8816 141.541 78.5211 141.181 78.0765 141.181Z" fill="#B2B6BB"/>
<path d="M75.1348 143.278H71.0958C70.6827 143.278 70.3479 143.612 70.3479 144.024V145.106C70.3479 145.519 70.6827 145.853 71.0958 145.853H75.1348C75.5479 145.853 75.8827 145.519 75.8827 145.106V144.024C75.8827 143.612 75.5479 143.278 75.1348 143.278Z" fill="#868A91"/>
<path d="M53.9118 147.875H50.2173C49.5977 147.875 49.0955 148.376 49.0955 148.995V151.095C49.0955 151.713 49.5977 152.215 50.2173 152.215H53.9118C54.5314 152.215 55.0336 151.713 55.0336 151.095V148.995C55.0336 148.376 54.5314 147.875 53.9118 147.875Z" fill="white"/>
<path d="M57.5474 144.092H49.5698C49.3079 144.092 49.0955 144.304 49.0955 144.565C49.0955 144.827 49.3079 145.039 49.5698 145.039H57.5474C57.8093 145.039 58.0218 144.827 58.0218 144.565C58.0218 144.304 57.8093 144.092 57.5474 144.092Z" fill="#868A91"/>
<path d="M53.0531 154.368H50.1169C49.5529 154.368 49.0955 154.824 49.0955 155.387C49.0955 155.949 49.5529 156.406 50.1169 156.406H53.0531C53.6173 156.406 54.0745 155.949 54.0745 155.387C54.0745 154.824 53.6173 154.368 53.0531 154.368Z" fill="#868A91"/>
<path d="M59.4047 154.368H56.4685C55.9042 154.368 55.447 154.824 55.447 155.387C55.447 155.949 55.9042 156.406 56.4685 156.406H59.4047C59.9687 156.406 60.4261 155.949 60.4261 155.387C60.4261 154.824 59.9687 154.368 59.4047 154.368Z" fill="#868A91"/>
<path d="M65.7574 154.368H62.8212C62.257 154.368 61.7998 154.824 61.7998 155.387C61.7998 155.949 62.257 156.406 62.8212 156.406H65.7574C66.3215 156.406 66.7789 155.949 66.7789 155.387C66.7789 154.824 66.3215 154.368 65.7574 154.368Z" fill="#868A91"/>
<path d="M72.1089 154.368H69.1727C68.6086 154.368 68.1512 154.824 68.1512 155.387C68.1512 155.949 68.6086 156.406 69.1727 156.406H72.1089C72.6731 156.406 73.1303 155.949 73.1303 155.387C73.1303 154.824 72.6731 154.368 72.1089 154.368Z" fill="#868A91"/>
<path d="M153.064 97.6931H127.763C127.319 97.6931 126.958 98.0529 126.958 98.4968V122.293C126.958 122.737 127.319 123.097 127.763 123.097H153.064C153.509 123.097 153.869 122.737 153.869 122.293V98.4968C153.869 98.0529 153.509 97.6931 153.064 97.6931Z" fill="#F037A5"/>
<path opacity="0.85" d="M153.064 97.6931H127.763C127.319 97.6931 126.958 98.0529 126.958 98.4968V122.293C126.958 122.737 127.319 123.097 127.763 123.097H153.064C153.509 123.097 153.869 122.737 153.869 122.293V98.4968C153.869 98.0529 153.509 97.6931 153.064 97.6931Z" fill="white"/>
<g opacity="0.2">
<path opacity="0.2" d="M152.624 110.182H128.357V110.268H152.624V110.182Z" fill="#F037A5"/>
</g>
<g opacity="0.2">
<path opacity="0.2" d="M152.663 113.804H128.391V113.89H152.663V113.804Z" fill="#F037A5"/>
</g>
<g opacity="0.2">
<path opacity="0.2" d="M152.702 117.426H128.357V117.513H152.702V117.426Z" fill="#F037A5"/>
</g>
<path d="M151.977 100.035H146.87C146.676 100.035 146.52 100.191 146.52 100.384V100.944C146.52 101.137 146.676 101.293 146.87 101.293H151.977C152.171 101.293 152.327 101.137 152.327 100.944V100.384C152.327 100.191 152.171 100.035 151.977 100.035Z" fill="#858990"/>
<path d="M132.059 120.42H129.823C129.749 120.42 129.689 120.479 129.689 120.553V120.738C129.689 120.811 129.749 120.871 129.823 120.871H132.059C132.133 120.871 132.193 120.811 132.193 120.738V120.553C132.193 120.479 132.133 120.42 132.059 120.42Z" fill="#858990"/>
<path d="M135.153 120.42H133.103C132.977 120.42 132.876 120.521 132.876 120.645C132.876 120.77 132.977 120.871 133.103 120.871H135.153C135.277 120.871 135.379 120.77 135.379 120.645C135.379 120.521 135.277 120.42 135.153 120.42Z" fill="#F037A5"/>
<path d="M143.506 120.42H141.269C141.195 120.42 141.136 120.479 141.136 120.553V120.738C141.136 120.811 141.195 120.871 141.269 120.871H143.506C143.579 120.871 143.639 120.811 143.639 120.738V120.553C143.639 120.479 143.579 120.42 143.506 120.42Z" fill="#858990"/>
<path d="M146.6 120.42H144.548C144.424 120.42 144.321 120.521 144.321 120.645C144.321 120.77 144.424 120.871 144.548 120.871H146.6C146.724 120.871 146.825 120.77 146.825 120.645C146.825 120.521 146.724 120.42 146.6 120.42Z" fill="#F037A5"/>
<path opacity="0.37" d="M152.702 117.513H128.357L128.397 112.966C128.646 112.325 129.013 111.642 129.529 111.642C130.14 111.642 130.434 113.358 131.79 113.353C133.906 113.353 134.56 110.097 135.547 110.011C137.038 109.879 137.691 112.672 139.116 112.696C140.404 112.717 140.878 111.454 141.529 110.702C141.773 110.422 142.098 110.226 142.46 110.14C142.935 110.028 143.033 110.183 143.695 109.957C145.727 109.266 145.253 106.614 147.078 106.846C148.482 107.028 148.478 110.496 149.927 110.743C150.689 110.873 152.005 110.107 152.621 110.092L152.702 117.513Z" fill="#F037A5"/>
<path d="M131.787 113.512C130.922 113.512 130.482 112.871 130.122 112.356C129.909 112.048 129.725 111.784 129.53 111.784C129.163 111.784 128.813 112.212 128.491 113.059L128.318 112.992C128.678 112.05 129.078 111.592 129.53 111.592C129.824 111.592 130.035 111.896 130.279 112.247C130.613 112.726 131.027 113.322 131.787 113.322C132.999 113.322 133.738 112.148 134.327 111.21C134.739 110.553 135.094 109.985 135.539 109.947C136.361 109.872 136.924 110.622 137.481 111.345C137.992 112.014 138.473 112.646 139.117 112.656C140.052 112.679 140.533 111.965 141.003 111.289C141.155 111.07 141.299 110.863 141.456 110.678C141.712 110.381 142.055 110.171 142.438 110.08C142.595 110.042 142.758 110.025 142.921 110.028C143.175 110.033 143.426 109.989 143.664 109.896C144.605 109.573 144.995 108.792 145.339 108.104C145.719 107.344 146.079 106.625 147.09 106.758C147.846 106.856 148.215 107.819 148.572 108.751C148.918 109.648 149.264 110.576 149.943 110.691C150.363 110.764 150.995 110.534 151.553 110.33C151.892 110.184 152.251 110.084 152.618 110.033V110.223C152.271 110.275 151.934 110.372 151.613 110.51C151.033 110.721 150.377 110.959 149.905 110.88C149.124 110.745 148.75 109.765 148.386 108.818C148.04 107.899 147.694 107.031 147.06 106.946C146.183 106.831 145.883 107.43 145.502 108.189C145.142 108.911 144.733 109.729 143.717 110.078C143.461 110.176 143.187 110.225 142.912 110.22C142.765 110.216 142.618 110.231 142.474 110.265C142.131 110.347 141.823 110.535 141.593 110.802C141.435 110.993 141.288 111.192 141.152 111.398C140.677 112.09 140.13 112.866 139.105 112.848C138.369 112.836 137.836 112.136 137.32 111.466C136.777 110.752 136.262 110.083 135.547 110.142C135.201 110.173 134.869 110.704 134.483 111.317C133.87 112.295 133.098 113.514 131.784 113.517L131.787 113.512Z" fill="#F037A5"/>
<path d="M140.501 112.518C140.729 112.518 140.913 112.334 140.913 112.107C140.913 111.88 140.729 111.696 140.501 111.696C140.274 111.696 140.089 111.88 140.089 112.107C140.089 112.334 140.274 112.518 140.501 112.518Z" fill="white" stroke="#61656D" stroke-miterlimit="10"/>
<path d="M142.893 107.853H137.999C137.918 107.853 137.84 107.886 137.781 107.944C137.724 108.001 137.691 108.08 137.691 108.161V110.536C137.691 110.617 137.724 110.696 137.781 110.753C137.84 110.811 137.918 110.843 137.999 110.843H140.196L140.369 111.13C140.378 111.146 140.39 111.16 140.405 111.169C140.421 111.178 140.438 111.183 140.456 111.183C140.473 111.183 140.492 111.178 140.506 111.169C140.521 111.16 140.533 111.146 140.542 111.13L140.715 110.843H142.912C142.994 110.843 143.071 110.81 143.129 110.753C143.186 110.695 143.219 110.617 143.219 110.536V108.161C143.219 108.119 143.21 108.078 143.194 108.039C143.177 108.001 143.153 107.966 143.122 107.937C143.092 107.908 143.056 107.886 143.016 107.872C142.976 107.857 142.935 107.851 142.893 107.853Z" fill="#61656D"/>
<path d="M142.045 108.429H138.847C138.792 108.429 138.749 108.473 138.749 108.528V109.039C138.749 109.094 138.792 109.138 138.847 109.138H142.045C142.098 109.138 142.144 109.094 142.144 109.039V108.528C142.144 108.473 142.098 108.429 142.045 108.429Z" fill="#F037A5"/>
<path d="M141.202 109.719H139.689C139.633 109.719 139.59 109.763 139.59 109.817V110.033C139.59 110.087 139.633 110.131 139.689 110.131H141.202C141.255 110.131 141.3 110.087 141.3 110.033V109.817C141.3 109.763 141.255 109.719 141.202 109.719Z" fill="#F037A5"/>
<path opacity="0.5" d="M142.045 108.429H138.847C138.792 108.429 138.749 108.473 138.749 108.528V109.039C138.749 109.094 138.792 109.138 138.847 109.138H142.045C142.098 109.138 142.144 109.094 142.144 109.039V108.528C142.144 108.473 142.098 108.429 142.045 108.429Z" fill="white"/>
<path opacity="0.5" d="M141.202 109.719H139.689C139.633 109.719 139.59 109.763 139.59 109.817V110.033C139.59 110.087 139.633 110.131 139.689 110.131H141.202C141.255 110.131 141.3 110.087 141.3 110.033V109.817C141.3 109.763 141.255 109.719 141.202 109.719Z" fill="white"/>
<g opacity="0.2">
<path opacity="0.2" d="M152.643 106.559H128.357V106.645H152.643V106.559Z" fill="#F037A5"/>
</g>
<path d="M153.23 127.073H127.781C127.336 127.073 126.976 127.433 126.976 127.877V157.907C126.976 158.351 127.336 158.711 127.781 158.711H153.23C153.675 158.711 154.035 158.351 154.035 157.907V127.877C154.035 127.433 153.675 127.073 153.23 127.073Z" fill="#F037A5"/>
<path opacity="0.85" d="M153.23 127.073H127.781C127.336 127.073 126.976 127.433 126.976 127.877V157.907C126.976 158.351 127.336 158.711 127.781 158.711H153.23C153.675 158.711 154.035 158.351 154.035 157.907V127.877C154.035 127.433 153.675 127.073 153.23 127.073Z" fill="white"/>
<path d="M139.993 129.154H129.173C128.98 129.154 128.824 129.311 128.824 129.503V130.71C128.824 130.903 128.98 131.059 129.173 131.059H139.993C140.187 131.059 140.343 130.903 140.343 130.71V129.503C140.343 129.311 140.187 129.154 139.993 129.154Z" fill="#858990"/>
<path d="M133.799 134.534H129.061C128.93 134.534 128.824 134.641 128.824 134.771V135.108C128.824 135.239 128.93 135.345 129.061 135.345H133.799C133.93 135.345 134.036 135.239 134.036 135.108V134.771C134.036 134.641 133.93 134.534 133.799 134.534Z" fill="#F037A5"/>
<path d="M150.13 136.192H129.177C128.982 136.192 128.824 136.349 128.824 136.544C128.824 136.738 128.982 136.895 129.177 136.895H150.13C150.325 136.895 150.483 136.738 150.483 136.544C150.483 136.349 150.325 136.192 150.13 136.192Z" fill="#F037A5"/>
<path opacity="0.5" d="M150.13 136.192H129.177C128.982 136.192 128.824 136.349 128.824 136.544C128.824 136.738 128.982 136.895 129.177 136.895H150.13C150.325 136.895 150.483 136.738 150.483 136.544C150.483 136.349 150.325 136.192 150.13 136.192Z" fill="white"/>
<path d="M135.977 136.192H129.177C128.982 136.192 128.824 136.349 128.824 136.544C128.824 136.738 128.982 136.895 129.177 136.895H135.977C136.172 136.895 136.33 136.738 136.33 136.544C136.33 136.349 136.172 136.192 135.977 136.192Z" fill="#61656D"/>
<path d="M133.799 141.779H129.061C128.93 141.779 128.824 141.885 128.824 142.016V142.353C128.824 142.484 128.93 142.59 129.061 142.59H133.799C133.93 142.59 134.036 142.484 134.036 142.353V142.016C134.036 141.885 133.93 141.779 133.799 141.779Z" fill="#F037A5"/>
<path d="M150.13 143.435H129.177C128.982 143.435 128.824 143.593 128.824 143.787C128.824 143.981 128.982 144.138 129.177 144.138H150.13C150.325 144.138 150.483 143.981 150.483 143.787C150.483 143.593 150.325 143.435 150.13 143.435Z" fill="#F037A5"/>
<path opacity="0.5" d="M150.13 143.435H129.177C128.982 143.435 128.824 143.593 128.824 143.787C128.824 143.981 128.982 144.138 129.177 144.138H150.13C150.325 144.138 150.483 143.981 150.483 143.787C150.483 143.593 150.325 143.435 150.13 143.435Z" fill="white"/>
<path d="M143.071 143.435H129.177C128.982 143.435 128.824 143.593 128.824 143.787C128.824 143.981 128.982 144.138 129.177 144.138H143.071C143.267 144.138 143.425 143.981 143.425 143.787C143.425 143.593 143.267 143.435 143.071 143.435Z" fill="#61656D"/>
<path d="M133.799 149.022H129.061C128.93 149.022 128.824 149.129 128.824 149.259V149.596C128.824 149.727 128.93 149.833 129.061 149.833H133.799C133.93 149.833 134.036 149.727 134.036 149.596V149.259C134.036 149.129 133.93 149.022 133.799 149.022Z" fill="#F037A5"/>
<path d="M150.13 150.678H129.177C128.982 150.678 128.824 150.836 128.824 151.03C128.824 151.224 128.982 151.382 129.177 151.382H150.13C150.325 151.382 150.483 151.224 150.483 151.03C150.483 150.836 150.325 150.678 150.13 150.678Z" fill="#F037A5"/>
<path opacity="0.5" d="M150.13 150.678H129.177C128.982 150.678 128.824 150.836 128.824 151.03C128.824 151.224 128.982 151.382 129.177 151.382H150.13C150.325 151.382 150.483 151.224 150.483 151.03C150.483 150.836 150.325 150.678 150.13 150.678Z" fill="white"/>
<path d="M139.069 150.678H129.177C128.982 150.678 128.824 150.836 128.824 151.03C128.824 151.224 128.982 151.382 129.177 151.382H139.069C139.264 151.382 139.422 151.224 139.422 151.03C139.422 150.836 139.264 150.678 139.069 150.678Z" fill="#61656D"/>
<path d="M122.052 81.8484H47.4597C46.7062 81.8484 46.0955 82.4581 46.0955 83.2103V91.1568C46.0955 91.9089 46.7062 92.5187 47.4597 92.5187H122.052C122.806 92.5187 123.417 91.9089 123.417 91.1568V83.2103C123.417 82.4581 122.806 81.8484 122.052 81.8484Z" fill="#F037A5"/>
<path opacity="0.85" d="M122.052 81.8484H47.4597C46.7062 81.8484 46.0955 82.4581 46.0955 83.2103V91.1568C46.0955 91.9089 46.7062 92.5187 47.4597 92.5187H122.052C122.806 92.5187 123.417 91.9089 123.417 91.1568V83.2103C123.417 82.4581 122.806 81.8484 122.052 81.8484Z" fill="white"/>
<path d="M50.9555 87.9302C52.0521 87.9302 52.9412 87.0426 52.9412 85.9479C52.9412 84.853 52.0521 83.9656 50.9555 83.9656C49.8587 83.9656 48.9697 84.853 48.9697 85.9479C48.9697 87.0426 49.8587 87.9302 50.9555 87.9302Z" fill="#858990"/>
<path d="M52.2571 89.4648H49.6516C49.4116 89.4648 49.217 89.6591 49.217 89.8986C49.217 90.1382 49.4116 90.3324 49.6516 90.3324H52.2571C52.4972 90.3324 52.6916 90.1382 52.6916 89.8986C52.6916 89.6591 52.4972 89.4648 52.2571 89.4648Z" fill="#F037A5"/>
<path d="M62.1963 87.9302C63.2931 87.9302 64.1821 87.0426 64.1821 85.9479C64.1821 84.853 63.2931 83.9656 62.1963 83.9656C61.0997 83.9656 60.2106 84.853 60.2106 85.9479C60.2106 87.0426 61.0997 87.9302 62.1963 87.9302Z" fill="#858990"/>
<path d="M63.4996 89.4648H60.894C60.6541 89.4648 60.4595 89.6591 60.4595 89.8986C60.4595 90.1382 60.6541 90.3324 60.894 90.3324H63.4996C63.7395 90.3324 63.9341 90.1382 63.9341 89.8986C63.9341 89.6591 63.7395 89.4648 63.4996 89.4648Z" fill="#F037A5"/>
<path d="M73.4386 87.9302C74.5352 87.9302 75.4244 87.0426 75.4244 85.9479C75.4244 84.853 74.5352 83.9656 73.4386 83.9656C72.3419 83.9656 71.4529 84.853 71.4529 85.9479C71.4529 87.0426 72.3419 87.9302 73.4386 87.9302Z" fill="#858990"/>
<path d="M74.7404 89.4648H72.1349C71.8949 89.4648 71.7003 89.6591 71.7003 89.8986C71.7003 90.1382 71.8949 90.3324 72.1349 90.3324H74.7404C74.9805 90.3324 75.1749 90.1382 75.1749 89.8986C75.1749 89.6591 74.9805 89.4648 74.7404 89.4648Z" fill="#F037A5"/>
<path d="M84.6795 87.9302C85.7762 87.9302 86.6652 87.0426 86.6652 85.9479C86.6652 84.853 85.7762 83.9656 84.6795 83.9656C83.5829 83.9656 82.6937 84.853 82.6937 85.9479C82.6937 87.0426 83.5829 87.9302 84.6795 87.9302Z" fill="#858990"/>
<path d="M85.9842 89.4648H83.3786C83.1385 89.4648 82.9441 89.6591 82.9441 89.8986C82.9441 90.1382 83.1385 90.3324 83.3786 90.3324H85.9842C86.2241 90.3324 86.4187 90.1382 86.4187 89.8986C86.4187 89.6591 86.2241 89.4648 85.9842 89.4648Z" fill="#F037A5"/>
<path d="M95.9205 87.9302C97.0172 87.9302 97.9062 87.0426 97.9062 85.9479C97.9062 84.853 97.0172 83.9656 95.9205 83.9656C94.8237 83.9656 93.9348 84.853 93.9348 85.9479C93.9348 87.0426 94.8237 87.9302 95.9205 87.9302Z" fill="#858990"/>
<path d="M97.225 89.4648H94.6195C94.3795 89.4648 94.1849 89.6591 94.1849 89.8986C94.1849 90.1382 94.3795 90.3324 94.6195 90.3324H97.225C97.4651 90.3324 97.6596 90.1382 97.6596 89.8986C97.6596 89.6591 97.4651 89.4648 97.225 89.4648Z" fill="#F037A5"/>
<path d="M107.164 87.9302C108.261 87.9302 109.15 87.0426 109.15 85.9479C109.15 84.853 108.261 83.9656 107.164 83.9656C106.068 83.9656 105.178 84.853 105.178 85.9479C105.178 87.0426 106.068 87.9302 107.164 87.9302Z" fill="#858990"/>
<path d="M108.467 89.4648H105.862C105.622 89.4648 105.427 89.6591 105.427 89.8986C105.427 90.1382 105.622 90.3324 105.862 90.3324H108.467C108.707 90.3324 108.902 90.1382 108.902 89.8986C108.902 89.6591 108.707 89.4648 108.467 89.4648Z" fill="#F037A5"/>
<path d="M118.405 87.9302C119.502 87.9302 120.391 87.0426 120.391 85.9479C120.391 84.853 119.502 83.9656 118.405 83.9656C117.308 83.9656 116.419 84.853 116.419 85.9479C116.419 87.0426 117.308 87.9302 118.405 87.9302Z" fill="#858990"/>
<path d="M119.708 89.4648H117.103C116.863 89.4648 116.668 89.6591 116.668 89.8986C116.668 90.1382 116.863 90.3324 117.103 90.3324H119.708C119.948 90.3324 120.143 90.1382 120.143 89.8986C120.143 89.6591 119.948 89.4648 119.708 89.4648Z" fill="#F037A5"/>
<path d="M122.554 97.6292L82.5671 97.6988C82.1223 97.6997 81.7626 98.06 81.7634 98.5038L81.8673 157.961C81.8682 158.405 82.2291 158.764 82.6737 158.763L122.66 158.694C123.105 158.693 123.465 158.333 123.464 157.889L123.36 98.4314C123.359 97.9876 122.998 97.6285 122.554 97.6292Z" fill="#F037A5"/>
<path opacity="0.85" d="M122.554 97.6292L82.5671 97.6988C82.1223 97.6997 81.7626 98.06 81.7634 98.5038L81.8673 157.961C81.8682 158.405 82.2291 158.764 82.6737 158.763L122.66 158.694C123.105 158.693 123.465 158.333 123.464 157.889L123.36 98.4314C123.359 97.9876 122.998 97.6285 122.554 97.6292Z" fill="white"/>
<path d="M124.87 104.252H80.3264C79.9793 104.252 79.698 104.533 79.698 104.879V111.423C79.698 111.769 79.9793 112.05 80.3264 112.05H124.87C125.217 112.05 125.498 111.769 125.498 111.423V104.879C125.498 104.533 125.217 104.252 124.87 104.252Z" fill="#F037A5"/>
<path opacity="0.5" d="M124.87 104.252H80.3264C79.9793 104.252 79.698 104.533 79.698 104.879V111.423C79.698 111.769 79.9793 112.05 80.3264 112.05H124.87C125.217 112.05 125.498 111.769 125.498 111.423V104.879C125.498 104.533 125.217 104.252 124.87 104.252Z" fill="white" stroke="white" stroke-width="2" stroke-miterlimit="10"/>
<path d="M118.415 106.827H112.74C112.448 106.827 112.21 107.064 112.21 107.356V107.463C112.21 107.755 112.448 107.992 112.74 107.992H118.415C118.708 107.992 118.945 107.755 118.945 107.463V107.356C118.945 107.064 118.708 106.827 118.415 106.827Z" fill="#858990"/>
<path d="M116.929 114.103H111.866C111.574 114.103 111.337 114.34 111.337 114.632V114.634C111.337 114.926 111.574 115.162 111.866 115.162H116.929C117.221 115.162 117.458 114.926 117.458 114.634V114.632C117.458 114.34 117.221 114.103 116.929 114.103Z" fill="#858990"/>
<path d="M116.929 121.343H111.866C111.574 121.343 111.337 121.58 111.337 121.872V121.873C111.337 122.165 111.574 122.402 111.866 122.402H116.929C117.221 122.402 117.458 122.165 117.458 121.873V121.872C117.458 121.58 117.221 121.343 116.929 121.343Z" fill="#858990"/>
<path d="M116.929 128.584H111.866C111.574 128.584 111.337 128.821 111.337 129.113V129.115C111.337 129.407 111.574 129.644 111.866 129.644H116.929C117.221 129.644 117.458 129.407 117.458 129.115V129.113C117.458 128.821 117.221 128.584 116.929 128.584Z" fill="#858990"/>
<path d="M116.929 135.651H111.866C111.574 135.651 111.337 135.888 111.337 136.18V136.181C111.337 136.474 111.574 136.71 111.866 136.71H116.929C117.221 136.71 117.458 136.474 117.458 136.181V136.18C117.458 135.888 117.221 135.651 116.929 135.651Z" fill="#858990"/>
<path d="M116.929 142.893H111.866C111.574 142.893 111.337 143.129 111.337 143.421V143.423C111.337 143.715 111.574 143.952 111.866 143.952H116.929C117.221 143.952 117.458 143.715 117.458 143.423V143.421C117.458 143.129 117.221 142.893 116.929 142.893Z" fill="#858990"/>
<path d="M116.929 150.134H111.866C111.574 150.134 111.337 150.371 111.337 150.663V150.664C111.337 150.956 111.574 151.193 111.866 151.193H116.929C117.221 151.193 117.458 150.956 117.458 150.664V150.663C117.458 150.371 117.221 150.134 116.929 150.134Z" fill="#858990"/>
<path d="M101.417 106.827H90.7557C90.5626 106.827 90.4059 106.983 90.4059 107.176V107.458C90.4059 107.651 90.5626 107.807 90.7557 107.807H101.417C101.61 107.807 101.766 107.651 101.766 107.458V107.176C101.766 106.983 101.61 106.827 101.417 106.827Z" fill="#F037A5"/>
<path opacity="0.2" d="M101.417 106.827H90.7557C90.5626 106.827 90.4059 106.983 90.4059 107.176V107.458C90.4059 107.651 90.5626 107.807 90.7557 107.807H101.417C101.61 107.807 101.766 107.651 101.766 107.458V107.176C101.766 106.983 101.61 106.827 101.417 106.827Z" fill="white"/>
<path d="M101.602 114.188H91.9731C91.7799 114.188 91.6234 114.344 91.6234 114.537V114.729C91.6234 114.922 91.7799 115.078 91.9731 115.078H101.602C101.795 115.078 101.952 114.922 101.952 114.729V114.537C101.952 114.344 101.795 114.188 101.602 114.188Z" fill="#F037A5"/>
<path opacity="0.3" d="M101.602 114.188H91.9731C91.7799 114.188 91.6234 114.344 91.6234 114.537V114.729C91.6234 114.922 91.7799 115.078 91.9731 115.078H101.602C101.795 115.078 101.952 114.922 101.952 114.729V114.537C101.952 114.344 101.795 114.188 101.602 114.188Z" fill="white"/>
<path d="M97.082 116.405H91.9731C91.7799 116.405 91.6234 116.561 91.6234 116.754V116.946C91.6234 117.139 91.7799 117.295 91.9731 117.295H97.082C97.275 117.295 97.4317 117.139 97.4317 116.946V116.754C97.4317 116.561 97.275 116.405 97.082 116.405Z" fill="#F037A5"/>
<path opacity="0.3" d="M97.082 116.405H91.9731C91.7799 116.405 91.6234 116.561 91.6234 116.754V116.946C91.6234 117.139 91.7799 117.295 91.9731 117.295H97.082C97.275 117.295 97.4317 117.139 97.4317 116.946V116.754C97.4317 116.561 97.275 116.405 97.082 116.405Z" fill="white"/>
<path d="M96.4463 109.266H90.7557C90.5626 109.266 90.4059 109.422 90.4059 109.615V109.896C90.4059 110.089 90.5626 110.246 90.7557 110.246H96.4463C96.6395 110.246 96.796 110.089 96.796 109.896V109.615C96.796 109.422 96.6395 109.266 96.4463 109.266Z" fill="#F037A5"/>
<path d="M103.397 121.427H92.0813C91.8881 121.427 91.7316 121.584 91.7316 121.776V121.968C91.7316 122.161 91.8881 122.317 92.0813 122.317H103.397C103.59 122.317 103.746 122.161 103.746 121.968V121.776C103.746 121.584 103.59 121.427 103.397 121.427Z" fill="#F037A5"/>
<path opacity="0.3" d="M103.397 121.427H92.0813C91.8881 121.427 91.7316 121.584 91.7316 121.776V121.968C91.7316 122.161 91.8881 122.317 92.0813 122.317H103.397C103.59 122.317 103.746 122.161 103.746 121.968V121.776C103.746 121.584 103.59 121.427 103.397 121.427Z" fill="white"/>
<path d="M97.1902 123.645H92.0813C91.8881 123.645 91.7316 123.801 91.7316 123.994V124.186C91.7316 124.378 91.8881 124.535 92.0813 124.535H97.1902C97.3832 124.535 97.5399 124.378 97.5399 124.186V123.994C97.5399 123.801 97.3832 123.645 97.1902 123.645Z" fill="#F037A5"/>
<path opacity="0.3" d="M97.1902 123.645H92.0813C91.8881 123.645 91.7316 123.801 91.7316 123.994V124.186C91.7316 124.378 91.8881 124.535 92.0813 124.535H97.1902C97.3832 124.535 97.5399 124.378 97.5399 124.186V123.994C97.5399 123.801 97.3832 123.645 97.1902 123.645Z" fill="white"/>
<path d="M97.5469 128.625H92.0813C91.8881 128.625 91.7316 128.782 91.7316 128.975V129.166C91.7316 129.359 91.8881 129.516 92.0813 129.516H97.5469C97.7399 129.516 97.8966 129.359 97.8966 129.166V128.975C97.8966 128.782 97.7399 128.625 97.5469 128.625Z" fill="#F037A5"/>
<path opacity="0.3" d="M97.5469 128.625H92.0813C91.8881 128.625 91.7316 128.782 91.7316 128.975V129.166C91.7316 129.359 91.8881 129.516 92.0813 129.516H97.5469C97.7399 129.516 97.8966 129.359 97.8966 129.166V128.975C97.8966 128.782 97.7399 128.625 97.5469 128.625Z" fill="white"/>
<path d="M100.746 135.825H92.0813C91.8881 135.825 91.7316 135.982 91.7316 136.175V136.366C91.7316 136.559 91.8881 136.715 92.0813 136.715H100.746C100.939 136.715 101.096 136.559 101.096 136.366V136.175C101.096 135.982 100.939 135.825 100.746 135.825Z" fill="#F037A5"/>
<path opacity="0.3" d="M100.746 135.825H92.0813C91.8881 135.825 91.7316 135.982 91.7316 136.175V136.366C91.7316 136.559 91.8881 136.715 92.0813 136.715H100.746C100.939 136.715 101.096 136.559 101.096 136.366V136.175C101.096 135.982 100.939 135.825 100.746 135.825Z" fill="white"/>
<path d="M97.5469 143.024H92.0813C91.8881 143.024 91.7316 143.18 91.7316 143.373V143.565C91.7316 143.758 91.8881 143.914 92.0813 143.914H97.5469C97.7399 143.914 97.8966 143.758 97.8966 143.565V143.373C97.8966 143.18 97.7399 143.024 97.5469 143.024Z" fill="#F037A5"/>
<path opacity="0.3" d="M97.5469 143.024H92.0813C91.8881 143.024 91.7316 143.18 91.7316 143.373V143.565C91.7316 143.758 91.8881 143.914 92.0813 143.914H97.5469C97.7399 143.914 97.8966 143.758 97.8966 143.565V143.373C97.8966 143.18 97.7399 143.024 97.5469 143.024Z" fill="white"/>
<path d="M100.746 150.222H92.0813C91.8881 150.222 91.7316 150.378 91.7316 150.571V150.763C91.7316 150.956 91.8881 151.112 92.0813 151.112H100.746C100.939 151.112 101.096 150.956 101.096 150.763V150.571C101.096 150.378 100.939 150.222 100.746 150.222Z" fill="#F037A5"/>
<path opacity="0.3" d="M100.746 150.222H92.0813C91.8881 150.222 91.7316 150.378 91.7316 150.571V150.763C91.7316 150.956 91.8881 151.112 92.0813 151.112H100.746C100.939 151.112 101.096 150.956 101.096 150.763V150.571C101.096 150.378 100.939 150.222 100.746 150.222Z" fill="white"/>
<path d="M96.4463 109.266H90.7557C90.5626 109.266 90.4059 109.422 90.4059 109.615V109.896C90.4059 110.089 90.5626 110.246 90.7557 110.246H96.4463C96.6395 110.246 96.796 110.089 96.796 109.896V109.615C96.796 109.422 96.6395 109.266 96.4463 109.266Z" fill="#F037A5"/>
<path opacity="0.3" d="M96.4463 109.266H90.7557C90.5626 109.266 90.4059 109.422 90.4059 109.615V109.896C90.4059 110.089 90.5626 110.246 90.7557 110.246H96.4463C96.6395 110.246 96.796 110.089 96.796 109.896V109.615C96.796 109.422 96.6395 109.266 96.4463 109.266Z" fill="white"/>
<path d="M97.1902 130.843H92.0813C91.8881 130.843 91.7316 130.999 91.7316 131.192V131.384C91.7316 131.577 91.8881 131.733 92.0813 131.733H97.1902C97.3832 131.733 97.5399 131.577 97.5399 131.384V131.192C97.5399 130.999 97.3832 130.843 97.1902 130.843Z" fill="#F037A5"/>
<path opacity="0.3" d="M97.1902 130.843H92.0813C91.8881 130.843 91.7316 130.999 91.7316 131.192V131.384C91.7316 131.577 91.8881 131.733 92.0813 131.733H97.1902C97.3832 131.733 97.5399 131.577 97.5399 131.384V131.192C97.5399 130.999 97.3832 130.843 97.1902 130.843Z" fill="white"/>
<path d="M97.1902 138.043H92.0813C91.8881 138.043 91.7316 138.199 91.7316 138.392V138.584C91.7316 138.777 91.8881 138.933 92.0813 138.933H97.1902C97.3832 138.933 97.5399 138.777 97.5399 138.584V138.392C97.5399 138.199 97.3832 138.043 97.1902 138.043Z" fill="#F037A5"/>
<path opacity="0.3" d="M97.1902 138.043H92.0813C91.8881 138.043 91.7316 138.199 91.7316 138.392V138.584C91.7316 138.777 91.8881 138.933 92.0813 138.933H97.1902C97.3832 138.933 97.5399 138.777 97.5399 138.584V138.392C97.5399 138.199 97.3832 138.043 97.1902 138.043Z" fill="white"/>
<path d="M97.1902 145.241H92.0813C91.8881 145.241 91.7316 145.397 91.7316 145.59V145.782C91.7316 145.975 91.8881 146.131 92.0813 146.131H97.1902C97.3832 146.131 97.5399 145.975 97.5399 145.782V145.59C97.5399 145.397 97.3832 145.241 97.1902 145.241Z" fill="#F037A5"/>
<path opacity="0.3" d="M97.1902 145.241H92.0813C91.8881 145.241 91.7316 145.397 91.7316 145.59V145.782C91.7316 145.975 91.8881 146.131 92.0813 146.131H97.1902C97.3832 146.131 97.5399 145.975 97.5399 145.782V145.59C97.5399 145.397 97.3832 145.241 97.1902 145.241Z" fill="white"/>
<path d="M97.1902 152.439H92.0813C91.8881 152.439 91.7316 152.595 91.7316 152.788V152.98C91.7316 153.173 91.8881 153.329 92.0813 153.329H97.1902C97.3832 153.329 97.5399 153.173 97.5399 152.98V152.788C97.5399 152.595 97.3832 152.439 97.1902 152.439Z" fill="#F037A5"/>
<path opacity="0.3" d="M97.1902 152.439H92.0813C91.8881 152.439 91.7316 152.595 91.7316 152.788V152.98C91.7316 153.173 91.8881 153.329 92.0813 153.329H97.1902C97.3832 153.329 97.5399 153.173 97.5399 152.98V152.788C97.5399 152.595 97.3832 152.439 97.1902 152.439Z" fill="white"/>
<path d="M86.1038 110.556C87.2071 110.556 88.1017 109.663 88.1017 108.562C88.1017 107.461 87.2071 106.568 86.1038 106.568C85.0003 106.568 84.106 107.461 84.106 108.562C84.106 109.663 85.0003 110.556 86.1038 110.556Z" fill="white"/>
<path d="M87.6032 117.549C88.6061 117.549 89.4193 116.737 89.4193 115.736C89.4193 114.735 88.6061 113.923 87.6032 113.923C86.6001 113.923 85.7871 114.735 85.7871 115.736C85.7871 116.737 86.6001 117.549 87.6032 117.549Z" fill="white"/>
<path d="M87.6032 124.763C88.6061 124.763 89.4193 123.951 89.4193 122.95C89.4193 121.949 88.6061 121.137 87.6032 121.137C86.6001 121.137 85.7871 121.949 85.7871 122.95C85.7871 123.951 86.6001 124.763 87.6032 124.763Z" fill="white"/>
<path d="M87.6032 131.977C88.6061 131.977 89.4193 131.165 89.4193 130.164C89.4193 129.163 88.6061 128.351 87.6032 128.351C86.6001 128.351 85.7871 129.163 85.7871 130.164C85.7871 131.165 86.6001 131.977 87.6032 131.977Z" fill="white"/>
<path d="M87.6032 139.189C88.6061 139.189 89.4193 138.377 89.4193 137.376C89.4193 136.375 88.6061 135.563 87.6032 135.563C86.6001 135.563 85.7871 136.375 85.7871 137.376C85.7871 138.377 86.6001 139.189 87.6032 139.189Z" fill="white"/>
<path d="M87.6032 146.402C88.6061 146.402 89.4193 145.591 89.4193 144.59C89.4193 143.588 88.6061 142.777 87.6032 142.777C86.6001 142.777 85.7871 143.588 85.7871 144.59C85.7871 145.591 86.6001 146.402 87.6032 146.402Z" fill="white"/>
<path d="M87.6032 153.614C88.6061 153.614 89.4193 152.803 89.4193 151.801C89.4193 150.8 88.6061 149.989 87.6032 149.989C86.6001 149.989 85.7871 150.8 85.7871 151.801C85.7871 152.803 86.6001 153.614 87.6032 153.614Z" fill="white"/>
<path d="M100.548 100.796H85.9704C85.7772 100.796 85.6207 100.952 85.6207 101.145V102.023C85.6207 102.215 85.7772 102.372 85.9704 102.372H100.548C100.741 102.372 100.897 102.215 100.897 102.023V101.145C100.897 100.952 100.741 100.796 100.548 100.796Z" fill="#858990"/>
<path d="M1.56897 116.524H22.6019V89.7864H1.56897V116.524Z" fill="white"/>
<path d="M4.37439 113.835H19.7981V92.4756H4.37439V113.835Z" fill="#DDDDDD"/>
<path d="M23.2131 89.7881H22.6019V116.526H23.2131V89.7881Z" fill="#DADDDF"/>
<path d="M9.53004 106.089C11.3754 106.089 12.8714 104.596 12.8714 102.754C12.8714 100.911 11.3754 99.418 9.53004 99.418C7.68469 99.418 6.18872 100.911 6.18872 102.754C6.18872 104.596 7.68469 106.089 9.53004 106.089Z" fill="#F037A5"/>
<path d="M17.8795 111.524L14.3997 106.089L10.9199 111.466L17.8795 111.524Z" fill="#868A91"/>
<path opacity="0.2" d="M10.2954 102.014H17.5216V94.8H10.2954V102.014Z" fill="black"/>
<path d="M60.0702 93.4692C59.9906 93.4813 59.9629 93.566 59.9733 93.6421C59.9837 93.7181 60.0702 93.7492 60.1464 93.7389L60.7783 93.6075C60.8531 93.5888 60.9234 93.5558 60.9854 93.51C61.0473 93.4642 61.0998 93.4067 61.1394 93.3408C61.1791 93.2748 61.2054 93.2017 61.2168 93.1257C61.2282 93.0494 61.2244 92.9719 61.2059 92.8972C61.1801 92.8018 61.1315 92.714 61.0643 92.6414C60.997 92.5688 60.9132 92.5137 60.8199 92.4807C60.7011 92.4364 60.5981 92.3581 60.5236 92.2558C60.449 92.1535 60.4064 92.0315 60.4009 91.9052C60.3985 91.8283 60.3921 91.7515 60.3818 91.6753C60.0443 90.3653 60.0702 93.4692 60.0702 93.4692Z" fill="#C46F69"/>
<g opacity="0.15">
<path opacity="0.15" d="M61.2094 92.9076C61.167 92.7552 61.0679 92.6247 60.9324 92.543C60.9324 92.5603 60.9445 92.5775 60.9497 92.5965C60.9682 92.6709 60.972 92.7483 60.9608 92.8242C60.9495 92.9002 60.9232 92.9731 60.8837 93.0388C60.8443 93.1047 60.792 93.162 60.7304 93.2077C60.6685 93.2535 60.5983 93.2865 60.5238 93.3051L60.0702 93.4002V93.4762C59.9906 93.4883 59.9629 93.573 59.9733 93.6491C59.9837 93.7251 60.0702 93.7562 60.1464 93.7458L60.7783 93.6145C60.9293 93.5775 61.0593 93.4825 61.1401 93.3499C61.221 93.2175 61.2459 93.0583 61.2094 92.9076Z" fill="black"/>
</g>
<path d="M46.1725 197.047H50.5681L51.3801 189.625L46.2365 189.64L46.1725 197.047Z" fill="#C46F69"/>
<path d="M46.6258 194.232L46.7591 194.116C47.7546 193.252 49.4702 193.264 50.438 194.156L50.5124 194.23C50.6288 194.332 50.7226 194.457 50.7882 194.597C50.8539 194.737 50.8895 194.889 50.8933 195.043V195.527C50.8916 195.808 50.9408 196.087 51.0387 196.351L51.4923 197.659C51.6076 197.972 51.6663 198.304 51.6655 198.637V198.81C51.6655 199.066 51.4023 199.268 51.0941 199.268H45.8363C45.5126 199.268 45.265 199.063 45.265 198.81V198.748C45.2654 198.361 45.3401 197.975 45.4849 197.616L46.0043 196.335C46.1267 196.045 46.1912 195.736 46.1947 195.421L46.2103 195.053C46.2221 194.896 46.2648 194.742 46.3361 194.602C46.4075 194.46 46.5058 194.334 46.6258 194.232Z" fill="#25282F"/>
<path opacity="0.2" d="M46.2009 191.968V192.571H49.6513C49.7661 192.571 49.8795 192.595 49.9842 192.642C50.089 192.689 50.1828 192.758 50.2593 192.843C50.3358 192.927 50.3937 193.027 50.4288 193.136C50.464 193.245 50.4757 193.361 50.4633 193.475L50.1741 196.112H50.7126L51.1662 191.965L46.2009 191.968Z" fill="black"/>
<path d="M62.3678 191.522L62.6725 196.031L71.6265 196.448L68.6453 193.449C68.0792 193.041 67.7295 192.148 67.6152 191.469L62.3678 191.522Z" fill="#C46F69"/>
<path opacity="0.2" d="M65.685 192.628C66.0986 192.628 66.5048 192.74 66.859 192.953C67.2134 193.166 67.5025 193.471 67.695 193.838C67.8427 194.133 68.0558 194.391 68.3181 194.593L70.4718 196.741L71.8031 196.802L68.9361 193.762C68.3025 193.257 67.8583 192.552 67.676 191.764H62.3799L62.4439 192.651L65.685 192.628Z" fill="black"/>
<path d="M62.4906 194.125C62.4906 194.125 64.5196 195.388 66.7979 194.298C66.7522 194.063 66.7704 193.819 66.8509 193.594C66.9313 193.368 67.0708 193.169 67.255 193.015C67.6341 192.72 68.4028 192.621 68.6088 192.896C68.8148 193.171 69.1421 193.622 69.6857 194.279C70.4422 195.189 71.4654 196.239 72.2566 196.404C73.7074 196.707 76.6366 195.229 76.8392 198.323C76.8392 198.323 73.9774 199.398 71.313 199.128C69.5768 198.928 67.8705 198.522 66.2301 197.918V199.161H62.0838C62.0838 199.161 61.1437 195.673 62.4906 194.125Z" fill="#25282F"/>
<path d="M61.781 197.187C61.8212 197.856 61.9231 198.518 62.0857 199.168H66.2321V197.925C67.8722 198.529 69.5786 198.935 71.315 199.135C73.9794 199.405 76.8394 198.331 76.8394 198.331C76.8261 198.093 76.7889 197.854 76.7286 197.623C74.6458 198.679 72.2369 198.897 69.9975 198.235C68.4758 197.792 67.25 197.488 66.1749 197.18C66.1749 197.177 62.6103 197.101 61.781 197.187Z" fill="black"/>
<path d="M71.8866 196.541C71.8866 196.541 69.7744 197.165 68.1938 195.957C67.0235 195.063 66.4279 194.541 66.9006 193.471C66.9883 193.262 67.1341 193.084 67.3207 192.956C67.5072 192.827 67.7267 192.756 67.9532 192.747C67.9532 192.747 69.4264 196.192 71.8866 196.541Z" fill="black"/>
<path d="M67.8356 132.944V191.776H62.3805L57.6299 143.81C57.6181 143.659 57.5492 143.517 57.437 143.414C57.3249 143.312 57.1779 143.255 57.0257 143.257C56.8758 143.258 56.7317 143.316 56.6223 143.418C56.5131 143.521 56.4462 143.661 56.4353 143.81L51.1498 191.937H46.1725L47.8154 133.281L67.8356 132.948V132.944Z" fill="#F037A5"/>
<path d="M68.0151 191.768H62.1999L62.0839 190.575H68.0013L68.0151 191.768Z" fill="#F037A5"/>
<path opacity="0.2" d="M68.0151 191.776L62.1999 191.767L62.0839 190.575H68.0013L68.0151 191.776Z" fill="white"/>
<path opacity="0.2" d="M68.0147 191.776H65.5044V190.568L68.0008 190.575L68.0147 191.776Z" fill="black"/>
<path opacity="0.2" d="M48.6829 191.878L53.5113 145.753C53.596 145.06 53.932 144.422 54.4557 143.96C54.9796 143.497 55.6549 143.242 56.354 143.243H57.0309C56.8822 143.244 56.7389 143.3 56.6294 143.4C56.5202 143.501 56.4527 143.639 56.4406 143.788L51.1499 191.937L48.6829 191.878Z" fill="black"/>
<path opacity="0.2" d="M67.8424 133.366V190.571H65.5121L64.8525 133.366H67.8424Z" fill="black"/>
<path d="M60.0905 88.1169L60.7414 95.8042C60.7792 96.2619 60.6573 96.7183 60.3964 97.0963C60.1353 97.4742 59.7515 97.7506 59.3097 97.8781L58.8976 97.9957L59.2439 101.008L56.3215 100.614L52.9595 100.878L53.33 92.9077L57.0625 89.3388L60.0905 88.1169Z" fill="#C46F69"/>
<path d="M94.3529 112.902C94.3529 112.902 94.7978 113.56 93.5236 114.328C92.2494 115.095 88.6882 115.182 88.6882 115.182L90.7657 111.338L94.3529 112.902Z" fill="#C46F69"/>
<path d="M87.4445 111.326L88.4313 110.239C88.8655 109.761 89.3835 109.366 89.96 109.074L91.6462 108.22C91.7071 108.178 91.7821 108.161 91.8553 108.173C91.9284 108.186 91.9938 108.226 92.0375 108.286C92.1583 108.451 92.2187 108.653 92.2087 108.857C92.1985 109.062 92.1187 109.256 91.9821 109.409L90.8048 110.273C90.7759 110.294 90.756 110.325 90.7492 110.36C90.7425 110.395 90.7494 110.431 90.7685 110.462C90.7858 110.49 90.8128 110.512 90.8445 110.522C90.8763 110.533 90.9108 110.531 90.9416 110.519L96.3379 108.445C96.391 108.425 96.4475 108.415 96.5041 108.418C96.5609 108.42 96.6165 108.433 96.6677 108.458C96.7189 108.482 96.7648 108.516 96.8024 108.558C96.8401 108.601 96.8689 108.65 96.8867 108.704C96.9215 108.801 96.9192 108.908 96.8803 109.003C96.8413 109.099 96.7685 109.177 96.6755 109.223L94.2829 110.401C94.2829 110.401 95.2749 110.693 94.5322 111.611C94.5322 111.611 95.1052 112.546 93.8397 113.313C92.5742 114.081 88.6927 115.197 88.6927 115.197L84.9186 117.764L82.8601 113.927L87.4445 111.326Z" fill="#C46F69"/>
<path opacity="0.3" d="M94.5362 111.595L92.7703 112.271" stroke="black" stroke-width="1.03569" stroke-linecap="round" stroke-linejoin="round"/>
<path opacity="0.3" d="M94.3302 112.879L92.566 113.555" stroke="black" stroke-width="1.03569" stroke-linecap="round" stroke-linejoin="round"/>
<path opacity="0.3" d="M94.3184 110.422L92.5525 111.098" stroke="black" stroke-width="1.03569" stroke-linecap="round" stroke-linejoin="round"/>
<path opacity="0.2" d="M93.5232 114.328C92.249 115.095 88.6878 115.181 88.6878 115.181L86.477 116.692L86.2225 115.975L88.4022 114.483C88.537 114.391 88.6977 114.345 88.8609 114.35L90.3065 114.4C91.6102 114.466 93.1873 114.317 94.2884 113.624C94.2988 113.624 94.2261 113.859 93.5232 114.328Z" fill="black"/>
<path d="M52.2632 96.6372C53.3227 97.4305 53.5564 97.5014 54.5502 97.2439C54.8914 97.1569 55.2117 97.0024 55.492 96.7893C56.4667 96.0306 57.4448 94.4423 57.5106 92.6847L58.1373 92.3529C58.3104 92.0902 58.2966 90.0387 57.9798 89.1711C58.6723 88.6406 59.4565 88.3727 59.9032 88.4159C60.033 88.6285 60.0209 88.8289 60.1923 89.3025C61.1843 87.3392 58.8714 86.3057 58.3901 86.043C57.431 85.5245 55.3777 85.4484 54.2126 85.6576C51.5603 86.138 50.0437 87.7557 50.0991 90.6315C50.1459 93.0805 50.8747 95.3099 52.2632 96.6372Z" fill="black"/>
<path d="M57.5096 92.6847C57.9321 94.5339 58.3164 97.4028 58.8947 98.1028C59.3811 98.4484 60.4718 97.9956 60.6467 96.8619C60.8198 95.7558 60.9081 94.7206 60.5844 93.9238C60.5549 94.5287 59.5058 95.22 59.1214 94.5616L58.1381 92.3477L57.5096 92.6847Z" fill="black"/>
<path opacity="0.15" d="M56.0718 93.3464L56.4717 93.7094C56.756 93.7932 57.0449 93.8596 57.3373 93.9081L56.3228 94.4024L56.0718 93.3464Z" fill="black"/>
<path d="M57.5657 92.9403C57.7389 93.5227 57.9241 93.9496 57.1468 93.9531C55.67 93.9531 55.374 92.0122 56.1963 91.5646C56.2825 91.5072 56.3805 91.4694 56.483 91.4542C56.5857 91.4389 56.6902 91.4466 56.7896 91.4765C56.8888 91.5064 56.9804 91.5579 57.0574 91.6272C57.1343 91.6965 57.1951 91.782 57.2351 91.8774L57.5657 92.9403Z" fill="#C46F69"/>
<path opacity="0.3" d="M57.138 92.7123C57.1163 92.5232 57.0498 92.3419 56.9441 92.1835C56.8582 92.0692 56.7363 91.987 56.5978 91.9501C56.5247 91.9432 56.451 91.9514 56.3812 91.9743C56.3114 91.9972 56.2472 92.0343 56.1927 92.0834C56.1754 92.105 56.1646 92.1311 56.1619 92.1587C56.1591 92.1864 56.1643 92.2142 56.1771 92.2389C56.2065 92.2891 56.2585 92.2856 56.3087 92.2562C56.344 92.2192 56.3874 92.1912 56.4354 92.1741C56.4835 92.157 56.5349 92.1513 56.5857 92.1575C56.6636 92.1575 56.7207 92.2267 56.8055 92.3304C56.8957 92.4569 56.9513 92.6046 56.9666 92.7591L57.0046 92.932C57.0046 92.9838 57.0618 93.0046 57.1137 93.0011C57.1657 92.9976 57.1882 92.9439 57.183 92.892L57.1449 92.7192" fill="black"/>
<path d="M61.0359 92.6296C61.0008 92.6296 60.9667 92.6175 60.9393 92.5955C60.9118 92.5736 60.8928 92.5428 60.8853 92.5086L60.3763 90.2618C60.372 90.242 60.3717 90.2214 60.3753 90.2013C60.3791 90.1815 60.3867 90.1623 60.3978 90.1454C60.4089 90.1282 60.4232 90.1136 60.44 90.1021C60.4568 90.0907 60.4759 90.0826 60.4958 90.0786C60.5157 90.074 60.5363 90.0735 60.5564 90.0771C60.5765 90.0807 60.5957 90.0883 60.6128 90.0994C60.63 90.1104 60.6447 90.125 60.6561 90.1419C60.6675 90.1588 60.6753 90.1778 60.6793 90.1979L61.1883 92.4446C61.1964 92.4844 61.1885 92.5259 61.1661 92.5599C61.1438 92.594 61.1087 92.6176 61.0688 92.6261C61.0581 92.6289 61.047 92.6299 61.0359 92.6296Z" fill="#21252B"/>
<path d="M60.7199 91.0728L57.2418 91.8439L57.309 92.1458L60.7871 91.3749L60.7199 91.0728Z" fill="#21252B"/>
<path opacity="0.15" d="M51.549 191.933H48.599L48.7773 190.741H51.665L51.549 191.933Z" fill="black"/>
<path d="M51.5492 191.933H45.7478L45.8344 190.741H51.6652L51.5492 191.933Z" fill="#F037A5"/>
<path opacity="0.2" d="M51.5263 191.933H45.7249L45.8097 190.741H51.6405L51.5263 191.933Z" fill="white"/>
<path opacity="0.2" d="M51.5238 191.933H48.6829L48.804 190.741H51.6415L51.5238 191.933Z" fill="black"/>
<path d="M59.9373 101.877H53.7048" stroke="#21252B" stroke-width="1.33952" stroke-miterlimit="10"/>
<path opacity="0.15" d="M58.8989 98.0025L57.616 97.9765C57.5275 97.974 57.4399 97.9933 57.3607 98.0325C57.2814 98.0718 57.2132 98.13 57.1617 98.2019C57.1103 98.274 57.0776 98.3573 57.0662 98.4449C57.0549 98.5325 57.0653 98.6215 57.0966 98.7041L57.5641 99.9364H59.1222L58.8989 98.0025Z" fill="black"/>
<path d="M51.6138 100.365L52.1557 99.1551C52.2775 98.8845 52.4707 98.6521 52.7147 98.4825C52.9586 98.313 53.2441 98.2127 53.5407 98.1925C55.7341 98.0473 57.6472 98.3878 59.3005 99.5959C59.417 99.6824 59.5091 99.7977 59.5677 99.9303C59.6262 100.063 59.6494 100.209 59.6347 100.353L59.5135 101.639L51.6138 100.365Z" fill="#F2F8FC"/>
<path d="M47.678 103.3L49.688 101.134C50.4809 100.27 51.7239 99.7671 53.0552 99.7515L57.0769 99.6893C58.6541 99.6651 60.1101 100.381 60.8112 101.507L61.9227 103.305L47.678 103.3Z" fill="#3F4249"/>
<path d="M45.376 138.978L46.6034 141.382L48.352 136.128L45.376 138.978Z" fill="#C46F69"/>
<path d="M49.5392 136.594L45.0189 126.456L38.9717 122.806L38.4367 125.096C38.3452 125.493 38.3815 125.908 38.5406 126.282L44.9618 138.145L49.5392 136.594Z" fill="#3F4249"/>
<path d="M41.9928 105.681L38.6619 124.163L45.0192 126.457L48.1199 101.777L43.5701 103.708C43.1636 103.88 42.8065 104.151 42.5312 104.495C42.2558 104.84 42.0709 105.247 41.9928 105.681Z" fill="#3F4249"/>
<path opacity="0.15" d="M45.0186 126.457L48.1193 101.777L47.3887 102.086L43.9625 126.457L48.1193 135.889L49.1926 135.717L45.0186 126.457Z" fill="black"/>
<path d="M44.8024 137.858L45.3754 138.978L49.4646 135.062L48.8898 133.803L44.8024 137.858Z" fill="#F4F4F4"/>
<path d="M50.1338 100.785C50.1338 100.785 46.1519 102.824 43.5291 103.768C43.1236 103.915 42.7784 104.193 42.548 104.557C42.3174 104.921 42.2142 105.351 42.2549 105.78C42.6358 109.905 45.2569 116.875 45.2569 116.875C45.2569 116.875 47.0193 124.58 47.0193 125.817C47.0193 127.055 46.5951 141.684 46.5951 141.684H66.7815L69.7246 140.552C69.7246 140.552 67.938 127.055 67.5744 123.27C67.2109 119.485 67.7475 114.984 67.7475 114.984L67.4342 108.097L68.7292 104.314L59.9379 100.562L50.1338 100.785Z" fill="#3F4249"/>
<path d="M76.7999 116.77L78.6662 123.164L77.2535 124.118C76.6569 124.52 75.9291 124.68 75.2186 124.565C74.5081 124.45 73.8682 124.069 73.4292 123.5L66.222 114.144L64.4319 102.586C64.4319 102.576 64.4319 102.567 64.4475 102.57C64.5583 102.619 66.0385 103.059 67.2884 103.434C68.4169 103.769 69.3798 104.512 69.9892 105.517C72.0459 108.917 76.748 116.688 76.7999 116.77Z" fill="#3F4249"/>
<path opacity="0.15" d="M67.8427 125.971C67.403 122.86 67.4116 119.091 67.4687 119.013L67.7509 115.038C67.8531 113.828 65.9054 113.742 65.9712 114.832C65.9712 114.832 65.6527 122.841 66.018 126.052C66.3832 129.263 68.2305 141.126 68.2305 141.126L69.7263 140.552C69.7263 140.552 68.2998 129.172 67.8427 125.971Z" fill="black"/>
<path d="M84.6574 112.573L75.5267 117.371L78.3798 123.37L87.204 116.676L84.6574 112.573Z" fill="#3F4249"/>
<path d="M84.664 112.56L83.5283 113.166L86.2135 117.404L87.3042 116.711L84.664 112.56Z" fill="#F4F4F4"/>
<path opacity="0.15" d="M47.5789 141.663C47.7174 140.697 48.0464 126.876 48.0464 125.705C48.0464 124.495 45.4685 116.702 45.4685 116.702C45.4685 116.702 43.0534 109.822 42.6812 105.774C42.6016 104.91 43.8048 104.096 44.6237 103.801C47.1981 102.874 50.0667 100.873 50.0667 100.873C50.0667 100.873 46.1593 102.874 43.5849 103.796C43.1845 103.938 42.8434 104.21 42.616 104.569C42.3885 104.928 42.2877 105.352 42.3298 105.774C42.702 109.822 45.2504 116.906 45.2504 116.906C45.2504 116.906 47.0128 124.602 47.0128 125.817C47.0128 127.032 46.5887 141.684 46.5887 141.684L47.5789 141.663Z" fill="black"/>
<path opacity="0.15" d="M54.4756 141.631L55.2322 135.409C55.2343 135.398 55.2402 135.388 55.249 135.381C55.2576 135.374 55.2685 135.37 55.2798 135.37C55.291 135.37 55.302 135.374 55.3106 135.381C55.3194 135.388 55.3253 135.398 55.3274 135.409L56.7488 141.631C56.7503 141.638 56.7503 141.645 56.7486 141.652C56.747 141.659 56.7439 141.666 56.7394 141.671C56.7349 141.677 56.7292 141.681 56.7228 141.685C56.7162 141.688 56.7093 141.689 56.702 141.69H54.5224C54.5151 141.689 54.508 141.688 54.5016 141.685C54.4952 141.681 54.4895 141.677 54.485 141.671C54.4805 141.666 54.4774 141.659 54.4758 141.652C54.4741 141.645 54.4741 141.638 54.4756 141.631Z" fill="black"/>
</g>
<defs>
<clipPath id="clip0_308_1917">
<rect width="200" height="200" fill="white"/>
</clipPath>
</defs>
</svg>
