<svg width="200" height="200" viewBox="0 0 200 200" fill="none" xmlns="http://www.w3.org/2000/svg">
<g clip-path="url(#clip0_308_1665)">
<rect width="200" height="200" fill="white"/>
<path d="M142.441 149.901H45.7088C44.5264 149.901 43.5673 148.941 43.5673 147.759V78.0831C43.5673 76.9006 44.5264 75.9415 45.7088 75.9415H142.441C143.623 75.9415 144.582 76.9006 144.582 78.0831V147.759C144.582 148.941 143.623 149.901 142.441 149.901Z" fill="#F037A5"/>
<path opacity="0.15" d="M142.441 149.901H45.7088C44.5264 149.901 43.5673 148.941 43.5673 147.759V78.0831C43.5673 76.9006 44.5264 75.9415 45.7088 75.9415H142.441C143.623 75.9415 144.582 76.9006 144.582 78.0831V147.759C144.582 148.941 143.623 149.901 142.441 149.901Z" fill="white"/>
<path d="M91.2961 200.315L97.9976 150.416L91.2961 145.905L95.4562 87.1669L91.2961 82.1948L93.8548 56.1256L96.2543 56.3645L94.1198 81.4278L97.6585 88.526L94.1423 143.18L100.799 149.592L92.9441 200.315H91.2961Z" fill="white"/>
<path d="M140.836 149.901H44.0728C42.899 149.901 41.9468 148.948 41.9468 147.775V78.0675C41.9468 76.8937 42.899 75.9415 44.0728 75.9415H140.836C142.01 75.9415 142.962 76.8937 142.962 78.0675V147.775C142.962 148.948 142.01 149.901 140.836 149.901Z" fill="#F037A5"/>
<path opacity="0.3" d="M140.82 149.901H44.0883C42.9059 149.901 41.9468 148.941 41.9468 147.759V78.0831C41.9468 76.9006 42.9059 75.9415 44.0883 75.9415H140.82C142.003 75.9415 142.962 76.9006 142.962 78.0831V147.759C142.962 148.941 142.003 149.901 140.82 149.901Z" fill="white"/>
<path opacity="0.6" d="M139.089 148.162H45.7781C44.7237 148.162 43.8702 147.307 43.8702 146.255V79.3036C43.8702 78.2493 44.7255 77.3958 45.7781 77.3958H139.089C140.143 77.3958 140.997 78.251 140.997 79.3036V146.255C140.997 147.307 140.142 148.162 139.089 148.162Z" fill="white"/>
<path d="M131.631 138.824H108.593C108.408 138.824 108.257 138.673 108.257 138.488V96.3908C108.257 96.2056 108.408 96.0549 108.593 96.0549H131.631C131.816 96.0549 131.967 96.2056 131.967 96.3908V138.488C131.967 138.673 131.816 138.824 131.631 138.824Z" fill="white"/>
<path opacity="0.8" d="M132.941 136.89H111.988C111.818 136.89 111.682 136.753 111.682 136.584V98.2952C111.682 98.1255 111.818 97.9888 111.988 97.9888H132.941C133.111 97.9888 133.248 98.1255 133.248 98.2952V136.584C133.248 136.753 133.111 136.89 132.941 136.89Z" fill="white"/>
<path opacity="0.6" d="M134.079 99.2112H133.248V135.668H134.079C134.238 135.668 134.366 135.54 134.366 135.38V99.4986C134.366 99.3393 134.238 99.2112 134.079 99.2112Z" fill="white"/>
<path d="M129.082 113.11H111.141C110.895 113.11 110.696 112.911 110.696 112.665V107.087C110.696 106.841 110.895 106.642 111.141 106.642H129.081C129.327 106.642 129.526 106.841 129.526 107.087V112.665C129.526 112.911 129.327 113.11 129.082 113.11Z" fill="#F037A5"/>
<path opacity="0.5" d="M129.082 113.11H111.141C110.895 113.11 110.696 112.911 110.696 112.665V107.087C110.696 106.841 110.895 106.642 111.141 106.642H129.081C129.327 106.642 129.526 106.841 129.526 107.087V112.665C129.526 112.911 129.327 113.11 129.082 113.11Z" fill="white"/>
<path d="M129.082 104.938H111.141C110.895 104.938 110.696 104.739 110.696 104.493V98.9151C110.696 98.6693 110.895 98.4702 111.141 98.4702H129.081C129.327 98.4702 129.526 98.6693 129.526 98.9151V104.493C129.526 104.739 129.327 104.938 129.082 104.938Z" fill="#F037A5"/>
<path d="M128.39 121.747C128.341 121.747 128.303 121.709 128.303 121.66C128.303 121.612 128.341 121.574 128.39 121.574H129.082C129.131 121.574 129.172 121.612 129.172 121.66C129.172 121.709 129.136 121.747 129.089 121.747V121.66L129.088 121.747H128.39ZM127.699 121.747H127.006C126.958 121.747 126.92 121.709 126.92 121.66C126.92 121.612 126.958 121.574 127.006 121.574H127.699C127.747 121.574 127.785 121.612 127.785 121.66C127.785 121.709 127.746 121.747 127.699 121.747ZM126.314 121.747H125.621C125.573 121.747 125.535 121.709 125.535 121.66C125.535 121.612 125.573 121.574 125.621 121.574H126.314C126.362 121.574 126.4 121.612 126.4 121.66C126.4 121.709 126.362 121.747 126.314 121.747ZM124.931 121.747H124.238C124.19 121.747 124.152 121.709 124.152 121.66C124.152 121.612 124.19 121.574 124.238 121.574H124.931C124.979 121.574 125.017 121.612 125.017 121.66C125.017 121.709 124.977 121.747 124.931 121.747ZM123.546 121.747H122.853C122.805 121.747 122.767 121.709 122.767 121.66C122.767 121.612 122.805 121.574 122.853 121.574H123.546C123.594 121.574 123.632 121.612 123.632 121.66C123.632 121.709 123.594 121.747 123.546 121.747ZM122.162 121.747H121.47C121.421 121.747 121.383 121.709 121.383 121.66C121.383 121.612 121.421 121.574 121.47 121.574H122.162C122.211 121.574 122.249 121.612 122.249 121.66C122.249 121.709 122.209 121.747 122.162 121.747ZM120.777 121.747H120.085C120.036 121.747 119.998 121.709 119.998 121.66C119.998 121.612 120.036 121.574 120.085 121.574H120.777C120.826 121.574 120.864 121.612 120.864 121.66C120.864 121.709 120.826 121.747 120.777 121.747ZM119.394 121.747H118.702C118.653 121.747 118.615 121.709 118.615 121.66C118.615 121.612 118.653 121.574 118.702 121.574H119.394C119.443 121.574 119.481 121.612 119.481 121.66C119.481 121.709 119.441 121.747 119.394 121.747ZM118.009 121.747H117.317C117.268 121.747 117.23 121.709 117.23 121.66C117.23 121.612 117.268 121.574 117.317 121.574H118.009C118.058 121.574 118.096 121.612 118.096 121.66C118.096 121.709 118.058 121.747 118.009 121.747ZM116.626 121.747H115.933C115.885 121.747 115.847 121.709 115.847 121.66C115.847 121.612 115.885 121.574 115.933 121.574H116.626C116.674 121.574 116.712 121.612 116.712 121.66C116.712 121.709 116.674 121.747 116.626 121.747ZM115.241 121.747H114.548C114.5 121.747 114.462 121.709 114.462 121.66C114.462 121.612 114.5 121.574 114.548 121.574H115.241C115.289 121.574 115.327 121.612 115.327 121.66C115.327 121.709 115.289 121.747 115.241 121.747ZM113.858 121.747H113.165C113.117 121.747 113.079 121.709 113.079 121.66C113.079 121.612 113.117 121.574 113.165 121.574H113.858C113.906 121.574 113.944 121.612 113.944 121.66C113.944 121.709 113.906 121.747 113.858 121.747ZM112.473 121.747H111.78C111.732 121.747 111.694 121.709 111.694 121.66C111.694 121.612 111.732 121.574 111.78 121.574H112.473C112.521 121.574 112.559 121.612 112.559 121.66C112.559 121.709 112.521 121.747 112.473 121.747ZM111.089 121.743C111.086 121.743 111.082 121.743 111.079 121.743C110.811 121.712 110.61 121.485 110.61 121.215V121.17C110.61 121.122 110.648 121.084 110.696 121.084C110.745 121.084 110.783 121.122 110.783 121.17V121.215C110.783 121.397 110.92 121.551 111.1 121.572C111.146 121.577 111.181 121.62 111.176 121.667C111.171 121.712 111.133 121.743 111.089 121.743ZM129.526 121.302C129.477 121.302 129.439 121.264 129.439 121.215V120.523C129.439 120.474 129.477 120.436 129.526 120.436C129.574 120.436 129.612 120.474 129.612 120.523V121.215C129.612 121.264 129.574 121.302 129.526 121.302ZM110.696 120.564C110.648 120.564 110.61 120.526 110.61 120.478V119.785C110.61 119.737 110.648 119.699 110.696 119.699C110.745 119.699 110.783 119.737 110.783 119.785V120.478C110.783 120.526 110.745 120.564 110.696 120.564ZM129.526 119.918C129.477 119.918 129.439 119.88 129.439 119.832V119.139C129.439 119.091 129.477 119.053 129.526 119.053C129.574 119.053 129.612 119.091 129.612 119.139V119.832C129.612 119.879 129.574 119.918 129.526 119.918ZM110.696 119.181C110.648 119.181 110.61 119.143 110.61 119.094V118.402C110.61 118.353 110.648 118.315 110.696 118.315C110.745 118.315 110.783 118.353 110.783 118.402V119.094C110.783 119.143 110.745 119.181 110.696 119.181ZM129.526 118.533C129.477 118.533 129.439 118.495 129.439 118.447V117.754C129.439 117.706 129.477 117.668 129.526 117.668C129.574 117.668 129.612 117.706 129.612 117.754V118.447C129.612 118.495 129.574 118.533 129.526 118.533ZM110.696 117.798C110.648 117.798 110.61 117.76 110.61 117.711V117.019C110.61 116.97 110.648 116.932 110.696 116.932C110.745 116.932 110.783 116.97 110.783 117.019V117.711C110.783 117.758 110.745 117.798 110.696 117.798ZM129.526 117.15C129.477 117.15 129.439 117.112 129.439 117.064V116.371C129.439 116.323 129.477 116.285 129.526 116.285C129.574 116.285 129.612 116.323 129.612 116.371V117.064C129.612 117.11 129.574 117.15 129.526 117.15ZM110.696 116.413C110.648 116.413 110.61 116.375 110.61 116.326V115.637C110.61 115.589 110.648 115.549 110.696 115.549C110.745 115.549 110.783 115.587 110.783 115.634V116.326C110.783 116.375 110.745 116.413 110.696 116.413ZM129.526 115.765C129.477 115.765 129.439 115.727 129.439 115.679V115.637C129.439 115.454 129.302 115.301 129.12 115.28C129.074 115.275 129.039 115.232 129.044 115.185C129.049 115.138 129.093 115.102 129.139 115.109C129.41 115.138 129.612 115.365 129.612 115.637V115.679C129.612 115.727 129.574 115.765 129.526 115.765ZM128.438 115.279H127.746C127.697 115.279 127.659 115.241 127.659 115.192C127.659 115.144 127.697 115.106 127.746 115.106H128.438C128.487 115.106 128.525 115.144 128.525 115.192C128.525 115.241 128.485 115.279 128.438 115.279ZM127.053 115.279H126.361C126.312 115.279 126.274 115.241 126.274 115.192C126.274 115.144 126.312 115.106 126.361 115.106H127.053C127.102 115.106 127.14 115.144 127.14 115.192C127.14 115.241 127.102 115.279 127.053 115.279ZM125.67 115.279H124.977C124.929 115.279 124.891 115.241 124.891 115.192C124.891 115.144 124.929 115.106 124.977 115.106H125.67C125.718 115.106 125.756 115.144 125.756 115.192C125.756 115.241 125.717 115.279 125.67 115.279ZM124.285 115.279H123.592C123.544 115.279 123.506 115.241 123.506 115.192C123.506 115.144 123.544 115.106 123.592 115.106H124.285C124.333 115.106 124.371 115.144 124.371 115.192C124.371 115.241 124.333 115.279 124.285 115.279ZM122.902 115.279H122.209C122.161 115.279 122.123 115.241 122.123 115.192C122.123 115.144 122.161 115.106 122.209 115.106H122.902C122.95 115.106 122.988 115.144 122.988 115.192C122.988 115.241 122.95 115.279 122.902 115.279ZM121.517 115.279H120.824C120.776 115.279 120.738 115.241 120.738 115.192C120.738 115.144 120.776 115.106 120.824 115.106H121.517C121.565 115.106 121.603 115.144 121.603 115.192C121.603 115.241 121.565 115.279 121.517 115.279ZM120.133 115.279H119.441C119.392 115.279 119.354 115.241 119.354 115.192C119.354 115.144 119.392 115.106 119.441 115.106H120.133C120.182 115.106 120.22 115.144 120.22 115.192C120.22 115.241 120.182 115.279 120.133 115.279ZM118.75 115.279H118.058C118.009 115.279 117.971 115.241 117.971 115.192C117.971 115.144 118.009 115.106 118.058 115.106H118.75C118.799 115.106 118.837 115.144 118.837 115.192C118.837 115.241 118.797 115.279 118.75 115.279ZM117.365 115.279H116.673C116.624 115.279 116.586 115.241 116.586 115.192C116.586 115.144 116.624 115.106 116.673 115.106H117.365C117.414 115.106 117.452 115.144 117.452 115.192C117.452 115.241 117.414 115.279 117.365 115.279ZM115.982 115.279H115.289C115.241 115.279 115.203 115.241 115.203 115.192C115.203 115.144 115.241 115.106 115.289 115.106H115.982C116.03 115.106 116.068 115.144 116.068 115.192C116.068 115.241 116.029 115.279 115.982 115.279ZM114.597 115.279H113.904C113.856 115.279 113.818 115.241 113.818 115.192C113.818 115.144 113.856 115.106 113.904 115.106H114.597C114.645 115.106 114.683 115.144 114.683 115.192C114.683 115.241 114.645 115.279 114.597 115.279ZM113.214 115.279H112.521C112.473 115.279 112.434 115.241 112.434 115.192C112.434 115.144 112.473 115.106 112.521 115.106H113.214C113.262 115.106 113.3 115.144 113.3 115.192C113.3 115.241 113.26 115.279 113.214 115.279ZM111.829 115.279H111.141C111.093 115.279 111.053 115.241 111.053 115.192C111.053 115.144 111.089 115.106 111.138 115.106H111.83C111.879 115.106 111.917 115.144 111.917 115.192C111.917 115.241 111.877 115.279 111.829 115.279Z" fill="#61656D"/>
<path d="M126.07 103.846H112.475C112.313 103.846 112.184 103.716 112.184 103.555V102.648C112.184 102.487 112.313 102.357 112.475 102.357H126.072C126.233 102.357 126.363 102.487 126.363 102.648V103.555C126.363 103.716 126.231 103.846 126.07 103.846Z" fill="white"/>
<path opacity="0.5" d="M115.373 111.773H112.499C112.185 111.773 111.931 111.519 111.931 111.205V108.544C111.931 108.231 112.185 107.977 112.499 107.977H115.373C115.686 107.977 115.94 108.231 115.94 108.544V111.205C115.94 111.519 115.686 111.773 115.373 111.773Z" fill="white"/>
<path d="M127.67 100.906H115.423C115.283 100.906 115.168 100.792 115.168 100.651C115.168 100.511 115.283 100.397 115.423 100.397H127.67C127.81 100.397 127.924 100.511 127.924 100.651C127.924 100.792 127.81 100.906 127.67 100.906Z" fill="#F037A5"/>
<path opacity="0.3" d="M127.67 100.906H115.423C115.283 100.906 115.168 100.792 115.168 100.651C115.168 100.511 115.283 100.397 115.423 100.397H127.67C127.81 100.397 127.924 100.511 127.924 100.651C127.924 100.792 127.81 100.906 127.67 100.906Z" fill="white"/>
<path d="M127.748 111.183H117.182C117.021 111.183 116.891 111.053 116.891 110.892V109.985C116.891 109.824 117.021 109.694 117.182 109.694H127.748C127.909 109.694 128.038 109.824 128.038 109.985V110.892C128.038 111.053 127.909 111.183 127.748 111.183Z" fill="white"/>
<path opacity="0.3" d="M126.361 108.835H117.145C117.005 108.835 116.891 108.721 116.891 108.581C116.891 108.44 117.005 108.326 117.145 108.326H126.361C126.501 108.326 126.615 108.44 126.615 108.581C126.615 108.721 126.501 108.835 126.361 108.835Z" fill="white"/>
<path d="M113.222 101.692C113.797 101.692 114.263 101.226 114.263 100.651C114.263 100.077 113.797 99.611 113.222 99.611C112.648 99.611 112.182 100.077 112.182 100.651C112.182 101.226 112.648 101.692 113.222 101.692Z" fill="#F037A5"/>
<path opacity="0.3" d="M113.222 101.692C113.797 101.692 114.263 101.226 114.263 100.651C114.263 100.077 113.797 99.611 113.222 99.611C112.648 99.611 112.182 100.077 112.182 100.651C112.182 101.226 112.648 101.692 113.222 101.692Z" fill="white"/>
<path d="M140.993 83.1556H43.8702V79.2188C43.8702 78.2112 44.6874 77.3958 45.6932 77.3958H139.17C140.178 77.3958 140.993 78.2129 140.993 79.2188V83.1556Z" fill="#F037A5"/>
<path d="M84.9009 199.032H59.9778C59.7752 199.032 59.5969 199.21 59.5969 199.413V200.045C59.5969 200.247 59.7752 200.425 59.9778 200.425H84.9026C85.1052 200.425 85.2835 200.247 85.2835 200.045V199.413C85.2817 199.207 85.1277 199.032 84.9009 199.032Z" fill="#21252B"/>
<path opacity="0.6" d="M84.9009 199.032H59.9778C59.7752 199.032 59.5969 199.21 59.5969 199.413V200.045C59.5969 200.247 59.7752 200.425 59.9778 200.425H84.9026C85.1052 200.425 85.2835 200.247 85.2835 200.045V199.413C85.2817 199.207 85.1277 199.032 84.9009 199.032Z" fill="black"/>
<path d="M67.4101 199.032H23.9574C23.7549 199.032 23.5765 199.21 23.5765 199.413V200.045C23.5765 200.247 23.7549 200.425 23.9574 200.425H67.4101C67.6126 200.425 67.7909 200.247 67.7909 200.045V199.413C67.7632 199.207 67.6126 199.032 67.4101 199.032Z" fill="#21252B"/>
<g opacity="0.6">
<path opacity="0.6" d="M23.9245 199.283H68.1579C68.2341 199.283 68.2843 199.234 68.2843 199.156C68.2843 199.078 68.2358 199.03 68.1579 199.03H23.9245C23.8483 199.03 23.7981 199.078 23.7981 199.156C23.7981 199.234 23.8725 199.283 23.9245 199.283Z" fill="black"/>
</g>
<path d="M67.3824 199.032H60.8366C60.331 199.032 59.9017 198.679 59.7995 198.173L56.9257 169.332C56.7993 168.676 57.3065 168.093 57.9627 168.093H64.5085C65.0141 168.093 65.4434 168.446 65.5456 168.951L68.4194 197.792C68.5198 198.448 68.0386 199.032 67.3824 199.032Z" fill="#21252B"/>
<path opacity="0.6" d="M67.3824 199.032H60.8366C60.331 199.032 59.9017 198.679 59.7995 198.173L56.9257 169.332C56.7993 168.676 57.3065 168.093 57.9627 168.093H64.5085C65.0141 168.093 65.4434 168.446 65.5456 168.951L68.4194 197.792C68.5198 198.448 68.0386 199.032 67.3824 199.032Z" fill="black"/>
<path opacity="0.6" d="M66.8024 199.032H60.2565C59.751 199.032 59.3216 198.679 59.2195 198.173L56.3456 169.332C56.2192 168.676 56.7265 168.093 57.3826 168.093H63.9285C64.434 168.093 64.8633 168.446 64.9655 168.951L67.8394 197.792C67.9398 198.448 67.4585 199.032 66.8024 199.032Z" fill="black"/>
<path d="M66.8405 199.032H24.8057C24.3002 199.032 23.8708 198.679 23.7687 198.173L20.8948 169.332C20.7684 168.676 21.2757 168.093 21.9318 168.093H63.9389C64.4444 168.093 64.8737 168.446 64.9759 168.951L67.8498 197.792C67.9744 198.448 67.4966 199.032 66.8405 199.032Z" fill="#21252B"/>
<path d="M65.8797 198.298H25.4463C24.9651 198.298 24.5565 197.96 24.4578 197.479L21.8436 169.999C21.7242 169.374 22.2054 168.818 22.8321 168.818H63.2412C63.7225 168.818 64.1311 169.155 64.2298 169.637L66.8457 197.115C66.9634 197.745 66.5064 198.298 65.8797 198.298Z" fill="white"/>
<path d="M65.9056 198.298H25.422C24.8923 198.298 24.4491 197.894 24.3988 197.366L21.8245 169.864C21.7673 169.261 22.2434 168.74 22.8494 168.742L63.12 168.818C63.6463 168.82 64.086 169.218 64.1397 169.741L66.9287 197.167C66.9893 197.771 66.5132 198.298 65.9056 198.298Z" fill="#F037A5"/>
<path opacity="0.7" d="M65.9056 198.298H25.422C24.8923 198.298 24.4491 197.894 24.3988 197.366L21.8245 169.864C21.7673 169.261 22.2434 168.74 22.8494 168.742L63.12 168.818C63.6463 168.82 64.086 169.218 64.1397 169.741L66.9287 197.167C66.9893 197.771 66.5132 198.298 65.9056 198.298Z" fill="white"/>
<path d="M36.2874 187.611H31.1421L30.4323 185.654C29.2984 186.399 28.3202 185.819 28.3202 185.819L27.5688 179.14H35.3335L36.2874 187.611Z" fill="white"/>
<path d="M56.5811 176.553H28.8361C27.8372 176.553 26.9941 175.807 26.8746 174.815C26.7327 173.639 27.6502 172.604 28.8361 172.604H56.5811C57.5801 172.604 58.4232 173.35 58.5427 174.342C58.6829 175.518 57.7653 176.553 56.5811 176.553Z" fill="white"/>
<path d="M33.3737 195.005H29.0854L28.5608 190.327H32.8474L33.3737 195.005Z" fill="white"/>
<path d="M39.2703 195.005H34.982L34.4574 190.327H38.744L39.2703 195.005Z" fill="white"/>
<path d="M53.6103 142.792C54.8533 143.742 56.1535 147.69 56.7387 151.053C57.3619 154.637 56.0704 155.349 59.2144 157.303C60.9335 158.371 59.9086 159.426 60.215 160.733C60.5197 162.038 60.473 163.51 59.6939 164.599C59.1538 165.355 57.7913 166.41 56.9274 166.749C55.9492 167.135 54.8655 167.343 53.8423 167.109C52.5542 166.817 51.4999 165.85 50.8126 164.723C49.1973 162.078 49.4051 158.764 49.341 155.664C49.2424 150.986 48.4044 146.36 47.5682 141.758" fill="#263238"/>
<path d="M57.9784 162.892C59.5981 162.892 60.9111 161.579 60.9111 159.959C60.9111 158.339 59.5981 157.026 57.9784 157.026C56.3586 157.026 55.0457 158.339 55.0457 159.959C55.0457 161.579 56.3586 162.892 57.9784 162.892Z" fill="#263238"/>
<path d="M69.6538 178.471C69.6538 178.471 64.3458 164.867 64.1467 164.536L64.1242 164.471C63.4611 163.321 62.4432 162.457 61.027 162.016L56.4046 160.733L55.21 160.401L44.9246 160.312L43.1103 160.688L38.1329 161.772C35.8771 162.258 34.461 164.471 34.9474 166.727C35.6555 169.89 36.2528 172.853 36.2528 172.853L37.7798 182.365C38.1329 184.134 38.3113 185.949 38.178 187.74C37.8248 192.761 36.3446 198.298 36.3446 198.298H63.7883C63.7883 198.298 60.5197 187.895 62.0017 182.786L62.8864 180.043L65.343 184.207C66.0736 185.666 67.488 186.304 68.9925 185.618L69.6538 178.471Z" fill="#F037A5"/>
<path d="M62.8413 179.998L66.1359 185.531C66.7643 186.587 67.9035 187.235 69.1344 187.235C71.1617 187.235 72.7631 185.512 72.6142 183.49L72.2403 178.391L71.3539 164.287L66.9946 164.209L65.8191 175.189" fill="#F037A5"/>
<path opacity="0.6" d="M66.8838 165.239L71.4197 165.34L71.3522 164.287L66.9894 164.242L66.8838 165.239Z" fill="black"/>
<path d="M68.2376 166.567C68.4315 166.641 68.5267 166.86 68.4523 167.054C68.3778 167.247 68.1597 167.343 67.9658 167.268C67.7719 167.194 67.6767 166.976 67.7511 166.782C67.8273 166.588 68.0454 166.493 68.2376 166.567Z" fill="white"/>
<path opacity="0.6" d="M70.3411 170.443C70.4449 170.483 70.4951 170.597 70.4622 170.68L70.1125 171.827C70.0727 171.93 69.9584 171.981 69.8753 171.948C69.7715 171.908 69.7213 171.794 69.7541 171.711L70.1039 170.564C70.1229 170.454 70.2372 170.403 70.3411 170.443Z" fill="black"/>
<path opacity="0.6" d="M49.3704 165.686C49.5037 165.709 49.6353 165.709 49.7686 165.709C52.0695 165.709 54.192 164.514 55.4973 162.634L56.7144 160.819L56.382 160.731L55.7847 160.555L47.6894 160.998L43.8183 160.534L43.1102 160.688L42.7778 160.754L42.9319 160.975L44.1265 162.679C45.3228 164.426 47.2462 165.554 49.3704 165.686Z" fill="black"/>
<path d="M38.576 159.185C38.576 159.185 45.2085 158.084 41.1989 150.498L45.92 145.255C45.92 145.255 44.8847 145.737 45.5028 148.42C46.0464 150.783 47.5665 153.808 48.0564 156.827C48.1932 157.668 48.0252 159.874 47.2029 161.112C46.8463 161.65 46.0135 161.981 46.0135 161.981L43.0773 163.333L38.576 159.185Z" fill="#263238"/>
<path d="M40.2554 143.052C39.1681 141.833 37.4698 141.22 35.761 141.602C33.2507 142.163 31.6701 144.651 32.2293 147.165C32.7902 149.675 35.278 151.256 37.7918 150.697C38.5414 150.529 39.208 150.189 39.7585 149.729C39.246 149.156 38.8704 148.45 38.6903 147.648C38.2956 145.886 38.9569 144.134 40.2554 143.052Z" fill="#263238"/>
<path d="M41.3218 145.134C41.1418 144.333 40.7661 143.626 40.2554 143.053C38.9587 144.135 38.2956 145.886 38.6886 147.648C38.8687 148.45 39.2444 149.156 39.7568 149.729C41.0518 148.645 41.7131 146.895 41.3218 145.134Z" fill="#F037A5"/>
<path d="M47.3847 139.504C46.5451 139.58 45.8405 139.989 45.3644 140.574C45.2363 140.733 45.0597 140.842 44.8606 140.882C44.5265 140.948 43.9603 141.102 43.2297 141.507C40.5965 142.965 39.402 145.451 40.5463 148.915C41.3271 151.285 42.6342 152.951 44.8727 153.604C45.3661 153.745 44.2858 149.03 45.6396 146.277C45.8578 145.835 46.1157 145.439 46.3945 145.079C46.9623 145.345 47.6167 145.437 48.2763 145.288C49.9643 144.913 50.9857 143.147 50.4058 141.464C49.9712 140.205 48.7074 139.385 47.3847 139.504Z" fill="#263238"/>
<path d="M52.7325 149.937L53.7505 159.095C53.8163 159.67 54.237 160.156 54.791 160.312L55.7864 160.577L54.791 162.014C53.6414 163.673 51.782 164.713 49.7703 164.691C49.6595 164.668 49.5262 164.668 49.4172 164.668C47.5595 164.557 45.8785 163.562 44.8155 162.037L43.775 160.532L44.6597 160.288C45.257 160.134 45.6777 159.58 45.7002 158.96L45.9218 151.241L52.7325 149.937Z" fill="#FB9C9C"/>
<path d="M55.9717 149.918L53.6172 144.182C53.193 143.136 51.976 142.634 50.9303 143.06L45.1739 145.422C44.3567 145.765 43.9603 146.684 44.3031 147.501L46.8446 153.687C47.8435 156.124 50.6152 157.288 53.0528 156.289L53.3783 156.149C55.8141 155.148 56.9689 152.355 55.9717 149.918Z" fill="#FB9C9C"/>
<path d="M50.6412 150.077C50.9223 150.077 51.1502 149.849 51.1502 149.568C51.1502 149.287 50.9223 149.059 50.6412 149.059C50.36 149.059 50.1322 149.287 50.1322 149.568C50.1322 149.849 50.36 150.077 50.6412 150.077Z" fill="#21252B"/>
<path d="M50.9129 149.764C50.9742 149.764 51.0237 149.714 51.0237 149.653C51.0237 149.592 50.9742 149.542 50.9129 149.542C50.8518 149.542 50.8021 149.592 50.8021 149.653C50.8021 149.714 50.8518 149.764 50.9129 149.764Z" fill="white"/>
<path d="M54.3841 148.723C54.6653 148.723 54.8931 148.495 54.8931 148.214C54.8931 147.933 54.6653 147.705 54.3841 147.705C54.103 147.705 53.8751 147.933 53.8751 148.214C53.8751 148.495 54.103 148.723 54.3841 148.723Z" fill="#21252B"/>
<path d="M54.6906 148.373C54.7519 148.373 54.8014 148.324 54.8014 148.263C54.8014 148.201 54.7519 148.152 54.6906 148.152C54.6295 148.152 54.5798 148.201 54.5798 148.263C54.5798 148.324 54.6295 148.373 54.6906 148.373Z" fill="white"/>
<g opacity="0.3">
<path opacity="0.3" d="M53.7886 150.776C53.6484 150.451 53.2744 150.328 52.9697 150.461C52.9074 150.484 52.8676 150.569 52.897 150.652C52.9195 150.714 53.0044 150.754 53.0875 150.724C53.2467 150.643 53.4164 150.723 53.4978 150.882C53.5791 151.041 53.4995 151.211 53.3402 151.292L52.71 151.568C52.6477 151.59 52.6079 151.675 52.6373 151.758C52.6598 151.82 52.7447 151.86 52.8278 151.831L53.458 151.556C53.7627 151.42 53.915 151.06 53.7886 150.776Z" fill="black"/>
</g>
<path d="M55.4973 146.396C55.3432 147.205 55.0766 147.771 55.0766 147.771L53.9374 145.008C53.8405 144.738 53.5219 144.641 53.2882 144.772C52.246 145.337 49.6093 146.502 47.3604 145.292C47.3604 145.292 47.2998 147.079 45.7608 147.892L46.0724 148.626C46.4065 149.423 46.6039 150.292 46.6402 151.173C46.6524 151.403 46.3771 151.55 46.1849 151.408C45.8716 151.192 45.4024 150.868 45.3678 150.905C45.1029 151.213 44.9678 153.119 44.6805 152.776C44.0174 151.981 43.0479 150.991 42.2273 149.829L41.2249 149.791C41.7893 149.14 41.4067 148.408 41.4067 148.408C40.6016 146.699 40.3818 144.662 41.791 142.248C43.3335 139.116 50.1616 137.138 52.9212 141.613C53.0026 141.772 53.167 141.9 53.335 141.911C53.818 141.947 54.5243 142.484 55.0455 143.99C55.1978 144.473 55.4973 146.396 55.4973 146.396Z" fill="#263238"/>
<path d="M46.8999 154.405L46.4204 151.966C45.8716 149.726 43.1206 150.356 43.7594 152.554C44.3965 154.774 46.6575 154.424 46.6575 154.424L46.8999 154.405Z" fill="#FB9C9C"/>
<path opacity="0.3" d="M44.3239 151.523C44.3672 151.59 44.4554 151.59 44.523 151.547C44.6788 151.415 44.8346 151.351 44.9679 151.376C45.1012 151.377 45.2103 151.49 45.3401 151.646C45.515 151.869 45.5981 152.29 45.5981 152.357C45.5981 152.357 45.5981 152.357 45.6396 152.624C45.6587 152.845 45.9703 152.761 45.9495 152.584L45.9305 152.34C45.8906 152.03 45.7833 151.741 45.6084 151.495C45.4561 151.249 45.2587 151.114 45.0389 151.09C44.819 151.066 44.5957 151.15 44.3723 151.325C44.3031 151.367 44.3031 151.455 44.3239 151.523Z" fill="black"/>
<path d="M53.8527 146.661C53.2641 146.921 52.8365 147.428 52.698 148.02C52.0816 148.008 51.6696 148.297 51.4913 148.457C50.8992 147.989 50.0699 147.842 49.3428 148.174C48.3127 148.642 47.8383 149.871 48.3058 150.901C48.7732 151.931 50.0024 152.406 51.0325 151.938C52.0626 151.471 52.5369 150.241 52.0695 149.211C51.9743 149.011 51.8289 148.805 51.6782 148.647C51.8219 148.524 52.1665 148.306 52.627 148.28C52.5664 148.631 52.6304 149.007 52.788 149.374C53.2554 150.404 54.4846 150.879 55.5147 150.411C56.5448 149.944 57.0192 148.715 56.5517 147.684C56.0774 146.634 54.8551 146.18 53.8527 146.661ZM50.9078 151.723C49.9937 152.123 48.9134 151.739 48.5135 150.825C48.1136 149.911 48.4979 148.831 49.412 148.431C50.3261 148.031 51.4064 148.415 51.8064 149.329C52.2201 150.214 51.815 151.301 50.9078 151.723ZM55.4108 150.19C54.4967 150.589 53.4164 150.205 53.0165 149.291C52.6166 148.377 53.0009 147.297 53.915 146.897C54.8291 146.497 55.9094 146.881 56.3093 147.795C56.7231 148.682 56.3163 149.769 55.4108 150.19Z" fill="white"/>
<path d="M46.0031 154.109C46.2479 154.109 46.4463 153.911 46.4463 153.666C46.4463 153.421 46.2479 153.223 46.0031 153.223C45.7583 153.223 45.5599 153.421 45.5599 153.666C45.5599 153.911 45.7583 154.109 46.0031 154.109Z" fill="#F037A5"/>
<path opacity="0.15" d="M46.2854 154.022C46.2179 154.088 46.1296 154.132 46.0413 154.13C45.7972 154.149 45.5791 153.948 45.56 153.704C45.5392 153.548 45.6068 153.417 45.7193 153.33C45.6743 153.418 45.65 153.507 45.65 153.595C45.6691 153.86 45.9097 154.062 46.1763 154.043C46.2196 154.043 46.2421 154.045 46.2854 154.022Z" fill="black"/>
<path opacity="0.15" d="M45.8005 155.954L46.5571 154.398L45.8284 154.407L45.8005 155.954Z" fill="black"/>
<path opacity="0.15" d="M53.5081 156.921C53.1047 156.898 52.7481 156.82 52.4728 156.739C51.4998 156.973 50.7 156.908 50.172 156.817C50.094 156.798 50.0438 156.721 50.0629 156.645C50.0819 156.567 50.1581 156.517 50.2343 156.536C50.6636 156.616 51.273 156.678 52.0261 156.547C52.0677 156.531 52.1162 156.538 52.1577 156.522C52.2685 156.505 52.3741 156.469 52.4849 156.451C52.5057 156.444 52.5057 156.444 52.5265 156.436C52.5957 156.434 52.6788 156.405 52.7429 156.382C52.9299 156.315 53.0961 156.254 53.283 156.187C53.3298 156.167 53.3765 156.15 53.4233 156.131L53.5081 156.921Z" fill="black"/>
<path d="M51.7803 153.031C51.6972 153.06 51.699 153.131 51.7422 153.185C52.1647 153.572 52.736 153.72 53.2761 153.524C53.8163 153.328 54.1625 152.851 54.2387 152.283C54.237 152.213 54.1729 152.165 54.1106 152.187L51.7803 153.031Z" fill="white"/>
<path opacity="0.15" d="M61.8908 170.973V173.03L62.4223 173.96C63.3519 175.641 63.5718 177.609 63.0195 179.423L62.843 179.998L66.1375 185.531C66.8698 186.85 68.9127 187.647 70.4172 186.96L70.9487 186.715C69.6883 187.136 67.964 186.38 67.455 185.384L64.2366 179.797C64.6573 177.718 64.2816 175.551 63.1961 173.736L62.5763 172.696L62.0899 170.949C62.0449 170.84 61.8683 170.862 61.8908 170.973Z" fill="black"/>
<path d="M71.3796 184.444L71.6672 184.311L71.3796 184.444Z" fill="black"/>
<path d="M58.728 163.629C58.9354 163.629 59.1035 163.461 59.1035 163.254C59.1035 163.046 58.9354 162.878 58.728 162.878C58.5205 162.878 58.3522 163.046 58.3522 163.254C58.3522 163.461 58.5205 163.629 58.728 163.629Z" fill="white"/>
<path d="M65.6737 171.991C65.8811 171.991 66.0493 171.823 66.0493 171.615C66.0493 171.408 65.8811 171.24 65.6737 171.24C65.4661 171.24 65.298 171.408 65.298 171.615C65.298 171.823 65.4661 171.991 65.6737 171.991Z" fill="white"/>
<path d="M68.0402 184.399C68.2478 184.399 68.4159 184.231 68.4159 184.023C68.4159 183.816 68.2478 183.648 68.0402 183.648C67.8328 183.648 67.6647 183.816 67.6647 184.023C67.6647 184.231 67.8328 184.399 68.0402 184.399Z" fill="white"/>
<path d="M38.6419 167.213C38.8493 167.213 39.0176 167.045 39.0176 166.837C39.0176 166.63 38.8493 166.461 38.6419 166.461C38.4345 166.461 38.2662 166.63 38.2662 166.837C38.2662 167.045 38.4345 167.213 38.6419 167.213Z" fill="white"/>
<path d="M39.1734 177.609C39.1734 177.817 39.0054 177.985 38.7977 177.985C38.5899 177.985 38.422 177.817 38.422 177.609C38.422 177.401 38.5899 177.233 38.7977 177.233C39.0037 177.233 39.1734 177.401 39.1734 177.609Z" fill="white"/>
<path d="M46.9813 177.72C46.9813 177.927 46.8134 178.095 46.6057 178.095C46.3979 178.095 46.23 177.927 46.23 177.72C46.23 177.512 46.3979 177.344 46.6057 177.344C46.8134 177.344 46.9813 177.512 46.9813 177.72Z" fill="white"/>
<path d="M52.3569 170.885C52.5643 170.885 52.7326 170.717 52.7326 170.509C52.7326 170.302 52.5643 170.134 52.3569 170.134C52.1493 170.134 51.9812 170.302 51.9812 170.509C51.9812 170.717 52.1493 170.885 52.3569 170.885Z" fill="white"/>
<path d="M45.9409 187.231C46.1484 187.231 46.3166 187.063 46.3166 186.856C46.3166 186.648 46.1484 186.48 45.9409 186.48C45.7335 186.48 45.5652 186.648 45.5652 186.856C45.5652 187.063 45.7335 187.231 45.9409 187.231Z" fill="white"/>
<path d="M55.4974 182.652C55.705 182.652 55.8731 182.484 55.8731 182.277C55.8731 182.069 55.705 181.901 55.4974 181.901C55.29 181.901 55.1217 182.069 55.1217 182.277C55.1217 182.484 55.29 182.652 55.4974 182.652Z" fill="white"/>
<path d="M60.4972 174.58C60.4972 174.787 60.3293 174.955 60.1215 174.955C59.9138 174.955 59.7458 174.787 59.7458 174.58C59.7458 174.372 59.9138 174.204 60.1215 174.204C60.3275 174.202 60.4972 174.372 60.4972 174.58Z" fill="white"/>
<path d="M40.7869 195.239C40.9947 195.239 41.1626 195.406 41.1626 195.614C41.1626 195.822 40.9947 195.99 40.7869 195.99C40.5792 195.99 40.4113 195.822 40.4113 195.614C40.4113 195.406 40.5792 195.239 40.7869 195.239Z" fill="white"/>
<path d="M57.6215 194.752C57.8289 194.752 57.9972 194.584 57.9972 194.376C57.9972 194.168 57.8289 194 57.6215 194C57.4139 194 57.2458 194.168 57.2458 194.376C57.2458 194.584 57.4139 194.752 57.6215 194.752Z" fill="white"/>
<path opacity="0.6" d="M48.9272 193.336C49.0155 193.381 49.038 193.49 48.993 193.58L48.3957 194.62C48.3507 194.709 48.2416 194.731 48.1516 194.686C48.0633 194.641 48.0408 194.532 48.0858 194.442L48.6831 193.402C48.7281 193.315 48.8389 193.27 48.9272 193.336Z" fill="black"/>
<path opacity="0.6" d="M61.2935 164.36C61.3818 164.405 61.4043 164.514 61.3593 164.604L60.762 165.645C60.717 165.733 60.6079 165.755 60.5179 165.71C60.4296 165.665 60.4071 165.556 60.4521 165.466L61.0494 164.426C61.0944 164.337 61.2052 164.315 61.2935 164.36Z" fill="black"/>
<path opacity="0.6" d="M54.4585 177.233C54.4585 177.322 54.3702 177.41 54.282 177.41H53.0649C52.9766 177.41 52.8883 177.322 52.8883 177.233C52.8883 177.145 52.9766 177.057 53.0649 177.057H54.282C54.391 177.057 54.4793 177.145 54.4585 177.233Z" fill="black"/>
<path opacity="0.6" d="M44.2391 172.301C44.1733 172.346 44.0625 172.346 43.995 172.256L43.2869 171.283C43.2419 171.217 43.2419 171.106 43.3319 171.039C43.3977 170.994 43.5085 170.994 43.576 171.084L44.2841 172.057C44.3498 172.123 44.3274 172.233 44.2391 172.301Z" fill="black"/>
<path opacity="0.6" d="M41.9381 162.258C41.9606 162.369 41.8723 162.457 41.784 162.457L40.5895 162.568C40.4787 162.59 40.3904 162.502 40.3904 162.414C40.3679 162.303 40.4562 162.215 40.5445 162.215L41.739 162.104C41.8273 162.081 41.9156 162.147 41.9381 162.258Z" fill="black"/>
<path opacity="0.6" d="M58.0631 189.444C57.9973 189.489 57.8865 189.489 57.819 189.399L57.1109 188.426C57.0659 188.36 57.0659 188.249 57.1559 188.182C57.2217 188.137 57.3325 188.137 57.4 188.227L58.1081 189.2C58.1739 189.267 58.1513 189.399 58.0631 189.444Z" fill="black"/>
<path opacity="0.6" d="M66.3367 176.016C66.3817 176.105 66.3592 176.215 66.2709 176.26L65.2304 176.858C65.1421 176.903 65.0313 176.88 64.9863 176.792C64.9413 176.704 64.9638 176.593 65.0521 176.548L66.0926 175.951C66.1809 175.883 66.2917 175.928 66.3367 176.016Z" fill="black"/>
<path opacity="0.6" d="M40.4337 187.231C40.4337 187.32 40.3679 187.408 40.2796 187.43L39.0851 187.652C38.9968 187.652 38.9085 187.586 38.886 187.498C38.886 187.41 38.9518 187.321 39.0401 187.299L40.2346 187.077C40.3229 187.055 40.4112 187.12 40.4337 187.231Z" fill="black"/>
<path d="M70.2544 188.542C70.2683 188.568 70.2561 188.601 70.2302 188.615L70.0657 188.698L70.0172 188.603L70.1817 188.52C70.2077 188.506 70.2406 188.516 70.2544 188.542Z" fill="#3F4249"/>
<path d="M70.2544 188.542C70.2683 188.568 70.2561 188.601 70.2302 188.615L70.0657 188.698L70.0172 188.603L70.1817 188.52C70.2077 188.506 70.2406 188.516 70.2544 188.542Z" fill="black"/>
<path d="M68.2895 189.032L68.3934 189.238L58.991 193.957L58.9113 193.798C58.8992 193.772 58.9096 193.741 58.9338 193.727L68.2895 189.032Z" fill="#3F4249"/>
<path d="M68.4384 189.332L68.6843 189.821L59.3286 194.517C59.3026 194.529 59.2715 194.518 59.2576 194.494L59.0343 194.051L68.4384 189.332Z" fill="#3F4249"/>
<path d="M68.2895 189.032L68.3934 189.238L58.991 193.957L58.9113 193.798C58.8992 193.772 58.9096 193.741 58.9338 193.727L68.2895 189.032Z" fill="black"/>
<path d="M68.4384 189.332L68.6843 189.821L59.3286 194.517C59.3026 194.529 59.2715 194.518 59.2576 194.494L59.0343 194.051L68.4384 189.332Z" fill="black"/>
<path d="M58.4024 194.259L58.5859 194.624C58.6066 194.666 58.6569 194.683 58.7001 194.662L59.2143 194.404L58.9546 193.888L58.4404 194.146C58.3989 194.167 58.3816 194.217 58.4024 194.259Z" fill="#3F4249"/>
<path d="M68.2896 189.032L68.686 189.821L69.2106 189.558C69.4287 189.449 70.1991 188.841 70.0901 188.623C69.981 188.405 69.0323 188.66 68.8141 188.769L68.2896 189.032Z" fill="#3F4249"/>
<path d="M60.6182 193.869L59.673 194.343L60.182 194.506L60.3655 194.414L61.129 194.032L63.461 192.862L63.8626 192.661L63.8262 192.586C63.7708 192.475 63.6358 192.43 63.525 192.486C63.4419 192.527 63.3952 192.614 63.4021 192.702L60.8987 193.959L60.6182 193.869Z" fill="#3F4249"/>
<path d="M68.3943 189.249L58.9908 193.968L59.0374 194.061L68.4409 189.342L68.3943 189.249Z" fill="white"/>
<path d="M43.2003 170.758L43.1293 184.81L53.7765 187.457L53.5756 192.219L39.6148 190.905C37.9269 190.751 36.6146 189.396 36.4882 187.727L34.8522 166.155L43.2003 170.758Z" fill="#F037A5"/>
<path opacity="0.15" d="M43.1223 184.212C43.131 184.572 43.3872 184.884 43.7352 184.955L44.5783 185.133L52.852 187.235L44.5316 184.576L43.6434 173.799C43.6296 173.632 43.4651 173.522 43.3058 173.572C43.1985 173.606 43.124 173.707 43.124 173.819L43.1223 184.212Z" fill="black"/>
<path opacity="0.6" d="M53.5913 192.235L52.5975 192.129L52.852 187.236L53.8077 187.454L53.5913 192.235Z" fill="black"/>
<path opacity="0.6" d="M39.6894 186.355C39.6791 186.435 39.6063 186.518 39.4955 186.509L38.2975 186.4C38.2179 186.39 38.1348 186.317 38.1434 186.206C38.1538 186.127 38.2265 186.044 38.3373 186.052L39.5354 186.161C39.6288 186.155 39.6981 186.245 39.6894 186.355Z" fill="black"/>
<path opacity="0.6" d="M36.767 170.92C36.8622 170.944 36.9314 171.034 36.9055 171.129L36.67 172.305C36.6458 172.4 36.5557 172.469 36.4605 172.443C36.3653 172.419 36.2961 172.329 36.322 172.234L36.5575 171.058C36.5817 170.963 36.6717 170.895 36.767 170.92Z" fill="black"/>
<path opacity="0.6" d="M50.2966 187.704C50.3919 187.728 50.4611 187.818 50.4351 187.914L50.1997 189.089C50.1754 189.184 50.0854 189.254 49.9902 189.228C49.895 189.203 49.8257 189.113 49.8517 189.018L50.0871 187.843C50.0958 187.734 50.2014 187.678 50.2966 187.704Z" fill="black"/>
<g opacity="0.15">
<path opacity="0.15" d="M39.8071 190.955L53.593 192.235L53.6294 191.12L40.0477 189.608C38.3268 189.425 36.8968 188.203 36.4138 186.573L36.5073 187.744C36.6423 189.331 37.7382 190.732 39.8071 190.955Z" fill="black"/>
</g>
<path d="M53.7765 187.457L62.7236 189.396L64.2939 189.235C64.4237 189.209 64.5657 189.205 64.6938 189.267L66.3973 189.989L65.8918 190.358C65.7031 190.495 65.7291 190.784 65.9178 190.895L67.2941 191.65L67.2093 191.88C67.1245 192.11 66.9254 192.209 66.6813 192.192L66.4753 192.164C66.3696 192.159 66.264 192.242 66.2121 192.32L66.129 192.462C65.9974 192.664 65.7204 192.711 65.4798 192.676L65.2599 192.63C65.1422 192.604 65.0383 192.671 64.9794 192.782C64.8704 193.042 64.7094 193.132 64.4341 193.09L64.003 193.033L63.8714 193.154C63.6273 193.384 63.385 193.438 63.0751 193.319L61.349 192.642L53.574 192.221L53.7765 187.457Z" fill="#FA9B9B"/>
<path opacity="0.15" d="M65.2617 192.629C65.144 192.603 65.0401 192.671 64.9813 192.782C64.8722 193.041 64.7112 193.131 64.4359 193.09L64.0048 193.033L63.8733 193.154C63.6292 193.384 63.3868 193.438 63.0769 193.318L61.3508 192.642L53.5758 192.221L53.6277 191.206L61.4028 191.627L63.1288 192.304C63.1288 192.304 64.1953 192.756 64.3996 192.756C64.6039 192.756 64.7683 192.648 64.886 192.532C65.002 192.415 65.2617 192.629 65.2617 192.629Z" fill="black"/>
<path d="M71.3418 154.611C71.3418 154.611 71.3435 158.181 70.9471 158.461L71.3522 164.287L66.9929 164.209C66.9929 164.209 68.0645 159.588 67.1106 156.929C66.7817 156.012 66.47 155.136 66.612 154.438L71.0717 154.351C71.2206 154.35 71.3401 154.466 71.3418 154.611Z" fill="#FB9C9C"/>
<path d="M66.6049 154.485L66.6724 149.914C66.6758 149.729 66.8317 149.582 67.0169 149.592C67.1779 149.601 67.3077 149.726 67.3233 149.887L67.8219 154.438L66.6049 154.485Z" fill="#FB9C9C"/>
<path d="M66.9929 164.209L67.0829 158.551C65.8779 157.79 65.9957 154.379 65.9905 154.32C65.9004 153.834 65.6944 152.631 65.6944 152.631C65.6754 152.56 65.7187 152.492 65.7914 152.473C66.077 152.393 66.4146 152.553 66.5687 152.899L66.9063 153.678L67.2924 154.831C67.2924 154.831 68.0801 154.985 68.3104 155.634C68.7449 156.862 68.1978 157.559 68.1978 157.559L66.9929 164.209Z" fill="#FB9C9C"/>
<path opacity="0.15" d="M67.6836 154.187L67.7459 157.106C67.7494 157.307 67.8931 157.478 68.0887 157.518C68.3328 157.568 68.57 157.4 68.6011 157.151L69.0322 154.331L67.6836 154.187Z" fill="black"/>
<path opacity="0.15" d="M69.0305 154.332L68.6167 157.459C68.5925 157.674 68.7483 157.88 68.9751 157.928C69.2054 157.978 69.4287 157.85 69.4806 157.639L70.1627 154.374L69.0305 154.332Z" fill="black"/>
<path opacity="0.15" d="M70.3221 154.31L69.7109 156.95C69.6642 157.154 69.8408 157.393 70.0451 157.435C70.2286 157.473 70.4104 157.369 70.471 157.191L71.3435 154.706C71.3435 154.706 71.3989 154.455 71.1513 154.351L70.3221 154.31Z" fill="black"/>
<path d="M67.7857 154.249L67.8377 156.933C67.8411 157.134 67.9848 157.305 68.1805 157.345C68.4246 157.395 68.6617 157.227 68.6929 156.978L69.0305 154.332C69.0651 154.066 68.8747 153.823 68.6063 153.794L68.319 153.761C68.0316 153.73 67.7805 153.959 67.7857 154.249Z" fill="#FB9C9C"/>
<path d="M69.0184 154.409L68.6392 157.262C68.6115 157.476 68.7518 157.676 68.9647 157.719C69.1794 157.762 69.3906 157.631 69.446 157.419L70.1697 154.641C70.2424 154.364 70.071 154.081 69.7922 154.016L69.6434 153.981C69.349 153.908 69.0582 154.109 69.0184 154.409Z" fill="#FB9C9C"/>
<path d="M70.1385 154.45L69.7056 156.753C69.6676 156.959 69.8061 157.154 70.0121 157.187C70.1973 157.217 70.3739 157.106 70.4276 156.926L71.0976 154.672C71.1582 154.468 71.0318 154.256 70.8223 154.213L70.5661 154.161C70.3705 154.121 70.1766 154.251 70.1385 154.45Z" fill="#FB9C9C"/>
<path opacity="0.15" d="M66.3662 170.078L65.8849 174.579L65.2218 167.132L66.3662 170.078Z" fill="black"/>
<path d="M23.4676 126.929C22.853 123.882 24.8232 120.912 27.8702 120.298C30.9172 119.682 33.8863 121.653 34.5009 124.7C34.7467 125.916 34.5805 127.117 34.0992 128.163C33.5522 129.508 31.7759 131.262 31.9386 132.065L32.1239 132.983C32.1602 133.166 32.0425 133.345 31.859 133.381L30.9726 133.559L30.1572 133.724L29.2708 133.902C29.0873 133.938 28.9089 133.821 28.8726 133.637L28.6874 132.72C28.5246 131.916 26.2082 130.99 25.1816 129.963C24.3333 129.186 23.7135 128.144 23.4676 126.929Z" fill="#F037A5"/>
<path d="M31.1734 133.422C31.1388 133.286 30.5934 131.09 30.3788 129.113C30.1658 129.183 29.9373 129.243 29.688 129.293C29.4387 129.344 29.2032 129.377 28.9816 129.396C29.5512 131.3 29.8992 133.535 29.9217 133.675L29.823 133.691C29.8178 133.656 29.4577 131.345 28.876 129.404C27.1933 129.506 26.274 128.729 25.9658 127.881C25.7858 127.386 25.8567 126.84 26.1372 126.587C26.3069 126.433 26.5337 126.362 26.7968 126.385C27.2088 126.418 27.6468 126.679 27.9689 127.083C28.3411 127.55 28.6718 128.381 28.9522 129.3C29.1773 129.283 29.4162 129.25 29.6689 129.198C29.9217 129.148 30.1537 129.086 30.3684 129.015C30.2697 128.059 30.2524 127.162 30.4134 126.587C30.5536 126.091 30.8549 125.68 31.2219 125.49C31.4556 125.369 31.6928 125.344 31.9092 125.421C32.2641 125.547 32.5428 126.02 32.5688 126.546C32.6138 127.448 32.0685 128.523 30.4792 129.08C30.6973 131.094 31.2617 133.365 31.2704 133.398L31.1734 133.422ZM31.5075 125.49C31.4279 125.505 31.3483 125.535 31.2686 125.576C30.9258 125.755 30.6419 126.143 30.5086 126.613C30.3528 127.166 30.3701 128.04 30.4671 128.978C31.9888 128.436 32.5117 127.41 32.4684 126.551C32.4441 126.07 32.1896 125.625 31.8746 125.514C31.7586 125.473 31.6339 125.464 31.5075 125.49ZM26.5354 126.494C26.4073 126.52 26.2965 126.575 26.2047 126.658C25.9589 126.884 25.8966 127.392 26.061 127.844C26.3553 128.653 27.2348 129.396 28.8483 129.304C28.5731 128.4 28.2493 127.588 27.8927 127.14C27.588 126.757 27.1759 126.51 26.7899 126.478C26.6999 126.473 26.6133 126.478 26.5354 126.494Z" fill="white" stroke="white" stroke-width="2" stroke-miterlimit="10"/>
<path d="M32.1482 132.429L28.6372 133.139L28.9748 134.813C29.0302 135.086 29.1618 135.337 29.3557 135.54C29.721 135.921 30.2542 136.087 30.7718 135.983L31.286 135.879C31.8019 135.775 32.2295 135.413 32.4182 134.922C32.5186 134.662 32.5412 134.378 32.4858 134.105L32.1482 132.429Z" fill="#28364C"/>
<path d="M28.8656 134.267C28.876 134.266 28.8863 134.264 28.895 134.26L32.3333 133.187C32.451 133.151 32.5133 133.026 32.4718 132.908C32.4302 132.791 32.3021 132.726 32.1844 132.763L28.7461 133.836C28.6284 133.873 28.5661 133.997 28.6076 134.115C28.6457 134.221 28.7565 134.285 28.8656 134.267Z" fill="#475577"/>
<path d="M29.0197 135.032C29.0301 135.031 29.0405 135.029 29.0492 135.026L32.4874 133.952C32.6052 133.916 32.6675 133.791 32.6259 133.673C32.5844 133.556 32.4563 133.492 32.3386 133.528L28.9003 134.601C28.7826 134.638 28.7202 134.762 28.7618 134.88C28.7999 134.987 28.9107 135.05 29.0197 135.032Z" fill="#475577"/>
<path d="M29.3122 135.763C29.3226 135.761 29.333 135.76 29.3417 135.756L32.5999 134.738C32.7176 134.702 32.7799 134.577 32.7384 134.459C32.6968 134.342 32.5687 134.278 32.451 134.314L29.1928 135.332C29.075 135.368 29.0127 135.493 29.0543 135.611C29.0941 135.716 29.2049 135.78 29.3122 135.763Z" fill="#475577"/>
<path d="M27.5411 115.755C27.5065 115.587 27.3437 115.478 27.1758 115.513C27.0079 115.547 26.8988 115.71 26.9334 115.878L27.432 118.348C27.4597 118.489 27.5809 118.589 27.7177 118.598C27.7437 118.599 27.7714 118.598 27.7991 118.593C27.967 118.56 28.0761 118.395 28.0414 118.227L27.5411 115.755Z" fill="#32353A"/>
<path d="M31.9593 115.597C31.878 115.578 31.7949 115.594 31.7256 115.639C31.6546 115.684 31.6079 115.753 31.5888 115.835L31.047 118.296C31.0106 118.464 31.1162 118.629 31.2841 118.667C31.2997 118.67 31.3153 118.672 31.3309 118.674C31.3568 118.676 31.3845 118.674 31.4105 118.669C31.5317 118.644 31.6269 118.551 31.6529 118.432L32.1948 115.97C32.2121 115.888 32.1982 115.805 32.1532 115.736C32.1082 115.663 32.039 115.615 31.9593 115.597Z" fill="#32353A"/>
<path d="M36.5057 117.827C36.4936 117.746 36.4486 117.673 36.3828 117.625C36.2443 117.524 36.0504 117.554 35.9483 117.692L34.4594 119.727C34.359 119.865 34.3884 120.059 34.5269 120.159C34.5754 120.196 34.6325 120.215 34.6914 120.218C34.7174 120.22 34.7451 120.218 34.771 120.213C34.8472 120.197 34.9147 120.154 34.9597 120.092L36.4486 118.059C36.4988 117.992 36.5196 117.91 36.5057 117.827Z" fill="#32353A"/>
<path d="M23.2339 117.521C23.1854 117.453 23.1145 117.408 23.0331 117.395C22.9517 117.381 22.8686 117.4 22.8011 117.446C22.7336 117.495 22.6886 117.566 22.6747 117.647C22.6609 117.729 22.6799 117.812 22.7266 117.879L24.1809 119.938C24.2363 120.016 24.3229 120.062 24.4146 120.069C24.4406 120.071 24.4683 120.069 24.496 120.064C24.5393 120.055 24.5774 120.038 24.6137 120.014C24.6812 119.965 24.7262 119.894 24.7401 119.813C24.7539 119.732 24.7349 119.649 24.6882 119.581L23.2339 117.521Z" fill="#32353A"/>
<path d="M22.0981 122.223L19.9357 120.928C19.7886 120.84 19.5981 120.888 19.5099 121.035C19.4666 121.106 19.4545 121.189 19.4752 121.271C19.496 121.35 19.5462 121.42 19.6172 121.461L21.7795 122.756C21.8228 122.782 21.8713 122.798 21.9197 122.8C21.9457 122.801 21.9734 122.8 21.9994 122.794C22.0842 122.777 22.1587 122.723 22.2037 122.651C22.2937 122.502 22.2452 122.311 22.0981 122.223Z" fill="#32353A"/>
<path d="M98.4342 199.032H123.359C123.562 199.032 123.74 199.21 123.74 199.413V200.045C123.74 200.247 123.562 200.425 123.359 200.425H98.4342C98.2317 200.425 98.0533 200.247 98.0533 200.045V199.413C98.0533 199.207 98.2074 199.032 98.4342 199.032Z" fill="#21252B"/>
<path opacity="0.6" d="M98.4342 199.032H123.359C123.562 199.032 123.74 199.21 123.74 199.413V200.045C123.74 200.247 123.562 200.425 123.359 200.425H98.4342C98.2317 200.425 98.0533 200.247 98.0533 200.045V199.413C98.0533 199.207 98.2074 199.032 98.4342 199.032Z" fill="black"/>
<path d="M115.925 199.032H159.378C159.58 199.032 159.758 199.21 159.758 199.413V200.045C159.758 200.247 159.58 200.425 159.378 200.425H115.925C115.723 200.425 115.544 200.247 115.544 200.045V199.413C115.574 199.207 115.723 199.032 115.925 199.032Z" fill="#21252B"/>
<g opacity="0.6">
<path opacity="0.6" d="M159.412 199.283H115.179C115.103 199.283 115.052 199.234 115.052 199.156C115.052 199.078 115.101 199.03 115.179 199.03H159.412C159.488 199.03 159.539 199.078 159.539 199.156C159.539 199.234 159.464 199.283 159.412 199.283Z" fill="black"/>
</g>
<path d="M152.245 199.032H158.791C159.296 199.032 159.725 198.679 159.828 198.173L162.702 169.332C162.828 168.676 162.321 168.093 161.664 168.093H155.119C154.613 168.093 154.184 168.446 154.082 168.951L151.208 197.792C151.107 198.448 151.589 199.032 152.245 199.032Z" fill="#21252B"/>
<path opacity="0.6" d="M152.245 199.032H158.791C159.296 199.032 159.725 198.679 159.828 198.173L162.702 169.332C162.828 168.676 162.321 168.093 161.664 168.093H155.119C154.613 168.093 154.184 168.446 154.082 168.951L151.208 197.792C151.107 198.448 151.589 199.032 152.245 199.032Z" fill="black"/>
<path d="M116.076 199.032H158.11C158.616 199.032 159.045 198.679 159.147 198.173L162.021 169.332C162.148 168.676 161.64 168.093 160.984 168.093H118.977C118.472 168.093 118.042 168.446 117.94 168.951L115.066 197.792C114.942 198.448 115.42 199.032 116.076 199.032Z" fill="#21252B"/>
<path d="M117.037 198.298H157.47C157.951 198.298 158.36 197.96 158.458 197.479L161.074 170C161.194 169.375 160.712 168.82 160.086 168.82H119.677C119.195 168.82 118.787 169.157 118.688 169.638L116.072 197.117C115.953 197.745 116.41 198.298 117.037 198.298Z" fill="#F037A5"/>
<g opacity="0.7">
<path opacity="0.7" d="M117.037 198.298H157.47C157.951 198.298 158.36 197.96 158.458 197.479L161.074 170C161.194 169.375 160.712 168.82 160.086 168.82H119.677C119.195 168.82 118.787 169.157 118.688 169.638L116.072 197.117C115.953 197.745 116.41 198.298 117.037 198.298Z" fill="white"/>
</g>
<path d="M154.544 175.625H136.087C135.239 175.625 134.579 174.888 134.673 174.045C134.752 173.324 135.362 172.779 136.087 172.779H154.544C155.392 172.779 156.052 173.517 155.958 174.36C155.879 175.08 155.269 175.625 154.544 175.625Z" fill="white"/>
<path d="M127.576 194.818H119.227L120.018 186.442H128.367L127.576 194.818Z" fill="white"/>
<path d="M154.684 183.132H149.632L150.112 178.066H155.162L154.684 183.132Z" fill="white"/>
<path d="M153.722 194.373H148.67L149.646 184.913H154.698L153.722 194.373Z" fill="white"/>
<path d="M133.123 124.494H114.109C113.849 124.494 113.638 124.283 113.638 124.024V118.111C113.638 117.852 113.849 117.64 114.109 117.64H133.123C133.383 117.64 133.594 117.852 133.594 118.111V124.024C133.596 124.283 133.385 124.494 133.123 124.494Z" fill="#F037A5"/>
<path opacity="0.2" d="M133.123 124.494H114.109C113.849 124.494 113.638 124.283 113.638 124.024V118.111C113.638 117.852 113.849 117.64 114.109 117.64H133.123C133.383 117.64 133.594 117.852 133.594 118.111V124.024C133.596 124.283 133.385 124.494 133.123 124.494Z" fill="white"/>
<path d="M129.801 119.567H115.883C115.658 119.567 115.473 119.384 115.473 119.157C115.473 118.932 115.657 118.747 115.883 118.747H129.801C130.026 118.747 130.211 118.93 130.211 119.157C130.209 119.382 130.028 119.567 129.801 119.567Z" fill="#F037A5"/>
<path opacity="0.15" d="M121.209 123.385H116.055C115.734 123.385 115.475 123.125 115.475 122.805V121.849C115.475 121.529 115.734 121.269 116.055 121.269H121.209C121.529 121.269 121.789 121.529 121.789 121.849V122.805C121.789 123.125 121.529 123.385 121.209 123.385Z" fill="white"/>
<path opacity="0.5" d="M129.801 119.567H115.883C115.658 119.567 115.473 119.384 115.473 119.157C115.473 118.932 115.657 118.747 115.883 118.747H129.801C130.026 118.747 130.211 118.93 130.211 119.157C130.209 119.382 130.028 119.567 129.801 119.567Z" fill="white"/>
<path d="M121.209 123.385H116.055C115.735 123.385 115.475 123.125 115.475 122.805V121.849C115.475 121.529 115.735 121.269 116.055 121.269H121.209C121.529 121.269 121.789 121.529 121.789 121.849V122.805C121.789 123.125 121.529 123.385 121.209 123.385Z" fill="#F037A5"/>
<path opacity="0.15" d="M121.209 123.385H116.055C115.735 123.385 115.475 123.125 115.475 122.805V121.849C115.475 121.529 115.735 121.269 116.055 121.269H121.209C121.529 121.269 121.789 121.529 121.789 121.849V122.805C121.789 123.125 121.529 123.385 121.209 123.385Z" fill="white"/>
<path d="M121.209 123.385H116.055C115.735 123.385 115.475 123.125 115.475 122.805V121.849C115.475 121.529 115.735 121.269 116.055 121.269H121.209C121.529 121.269 121.789 121.529 121.789 121.849V122.805C121.789 123.125 121.529 123.385 121.209 123.385Z" fill="white"/>
<path d="M101.505 166.138L99.769 164.334L98.7113 161.444C98.6316 161.197 98.7684 160.968 99.0194 160.963C99.196 160.961 99.3553 161.072 99.4315 161.245L100.681 163.84L102.189 164.921L100.681 163.84L99.7829 161.444C99.7102 161.244 99.8279 161.055 100.008 161.024C100.172 161.005 100.332 161.117 100.396 161.273L101.488 163.551L103.652 165.142L101.488 163.551L101.021 161.706C100.996 161.571 101.088 161.451 101.22 161.457C101.322 161.458 101.428 161.533 101.469 161.656L102.29 163.6L104.204 165.196L101.505 166.138Z" fill="#FB9C9C"/>
<path opacity="0.15" d="M101.505 166.138L99.769 164.334L98.7113 161.444C98.6316 161.197 98.7684 160.968 99.0194 160.963C99.196 160.961 99.3553 161.072 99.4315 161.245L100.681 163.84L102.189 164.921L100.681 163.84L99.7829 161.444C99.7102 161.244 99.8279 161.055 100.008 161.024C100.172 161.005 100.332 161.117 100.396 161.273L101.488 163.551L103.652 165.142L101.488 163.551L101.021 161.706C100.996 161.571 101.088 161.451 101.22 161.457C101.322 161.458 101.428 161.533 101.469 161.656L102.29 163.6L104.204 165.196L101.505 166.138Z" fill="black"/>
<path d="M100.764 166.481L104.63 168.167C104.852 168.259 105.046 168.422 105.208 168.607L109.791 174.275L112.893 170.946L108.513 166.936C108.359 166.796 108.236 166.63 108.16 166.457L108.015 166.155C107.525 164.937 106.668 164.014 105.522 163.532L105.51 163.515C105.359 163.448 105.212 163.352 105.085 163.216C104.66 162.74 103.614 161.599 103.614 161.599C103.553 161.516 103.451 161.516 103.384 161.564C103.07 161.796 102.984 162.267 103.214 162.682L103.744 163.643C104.019 164.154 103.784 164.736 103.275 164.805L101.093 165.061C100.958 165.085 100.818 165.033 100.7 164.943L97.603 162.435C97.4732 162.328 97.2845 162.314 97.1927 162.431C97.056 162.558 97.0785 162.795 97.217 162.949C97.9008 163.669 100.023 165.825 100.536 166.313C100.6 166.398 100.666 166.451 100.764 166.481Z" fill="#FB9C9C"/>
<path opacity="0.15" d="M109.847 174.211L110.927 172.218C111.31 171.527 111.178 170.656 110.617 170.102L108.025 167.552C107.805 167.358 107.639 167.097 107.548 166.834C107.309 166.093 106.682 164.516 105.427 163.505C105.456 163.51 105.468 163.525 105.48 163.543L105.493 163.56C106.637 164.041 107.496 164.964 107.986 166.183L108.131 166.484C108.219 166.673 108.34 166.839 108.484 166.964L112.864 170.973L109.847 174.211Z" fill="black"/>
<path d="M126.815 125.473C125.939 125.244 125.102 124.598 124.91 123.717C124.872 123.511 124.784 123.212 124.87 123.007C123.851 123.503 123.57 124.493 123.57 124.493H121.044C121.242 126.402 122.718 127.441 122.718 127.441L122.762 128.265C123.182 128.324 123.79 128.419 124.185 128.314C125.511 127.988 126.505 126.794 126.815 125.473Z" fill="#F79898"/>
<path d="M127.819 134.248L127.003 127.524C127.003 127.524 128.051 124.176 128.295 123.454C128.466 122.947 128.908 121.399 128.956 120.501C128.965 120.348 128.875 120.208 128.734 120.151C128.627 120.108 128.506 120.118 128.409 120.18C128.198 120.317 127.8 120.61 127.344 121.106C126.872 121.622 126.503 122.348 126.326 122.531C126.295 122.562 126.257 122.585 126.214 122.594C125.835 122.671 125.421 122.71 124.869 123.007C124.782 123.213 124.872 123.513 124.909 123.717C125.102 124.598 125.937 125.244 126.813 125.473C126.503 126.792 125.511 127.988 124.181 128.312C123.788 128.418 123.179 128.321 122.758 128.263L122.982 134.884L127.819 134.248Z" fill="#F79898"/>
<g opacity="0.15">
<path opacity="0.15" d="M128.038 120.443C127.585 120.822 127.178 121.252 126.837 121.735C126.679 121.958 126.539 122.192 126.406 122.429C126.311 122.599 126.203 122.595 126.023 122.623C125.897 122.644 125.772 122.67 125.648 122.701C124.595 122.966 123.655 123.752 123.473 124.854C123.414 124.867 123.342 125.938 123.489 126.395C123.556 126.608 123.883 126.489 123.814 126.276C123.695 125.904 123.792 125.074 123.802 124.998C123.951 123.857 124.979 123.139 126.054 122.969C126.309 122.929 126.522 122.905 126.667 122.668C126.813 122.431 126.939 122.187 127.1 121.96C127.424 121.501 127.805 121.087 128.236 120.727C128.405 120.587 128.21 120.301 128.038 120.443Z" fill="black"/>
</g>
<path d="M132.654 167.584L125.257 154.295C124.382 152.726 123.877 150.977 123.778 149.186L122.985 134.884L127.82 134.248L131.014 149.227L139.271 157.776L132.654 167.584Z" fill="#3F4249"/>
<path opacity="0.15" d="M127.819 134.248L126.718 134.392L131.574 158.919L128.958 160.943L129.669 162.224L133.372 159.874L127.819 134.248Z" fill="black"/>
<path d="M129.351 155.46L129.648 155.596C131.816 156.55 134.328 155.572 135.273 153.425L137.692 147.948C138.016 147.227 137.682 146.395 136.961 146.071L131.842 143.793C130.907 143.384 129.813 143.803 129.404 144.736L127.159 149.826C126.231 151.983 127.202 154.513 129.351 155.46Z" fill="#F49595"/>
<path d="M127.777 148.477C127.777 148.477 127.014 148.99 126.647 149.392C126.278 149.793 127.126 150.143 127.126 150.143L127.777 148.477Z" fill="#F49595"/>
<path d="M130.661 155.236L132.747 160.3L130.325 161.834L133.4 162.561L139.002 156.619L137.185 152.257L138.227 144.909L131.283 143.637L130.661 155.236Z" fill="#F49595"/>
<g opacity="0.15">
<g opacity="0.15">
<path opacity="0.15" d="M137.185 152.4C136.982 152.122 136.793 151.718 136.631 151.185L134.499 151.878C134.401 151.848 134.307 151.81 134.224 151.758L135.175 153.098L137.185 152.4Z" fill="black"/>
</g>
</g>
<path d="M128.442 146.333L128.307 146.68L135.192 149.383L135.329 149.036L128.442 146.333Z" fill="white"/>
<path d="M127.64 148.374C127.71 148.374 127.777 148.334 127.808 148.266L129.257 145.174C129.301 145.081 129.261 144.97 129.167 144.927C129.074 144.883 128.963 144.923 128.92 145.017L127.473 148.109C127.429 148.202 127.469 148.313 127.563 148.356C127.587 148.368 127.614 148.374 127.64 148.374Z" fill="white"/>
<g opacity="0.3">
<g opacity="0.3">
<g opacity="0.3">
<path opacity="0.3" d="M127.841 151.743C127.282 151.881 126.839 151.769 126.809 151.762L126.832 151.388C126.839 151.389 127.533 151.557 128.115 151.241C128.196 151.195 128.3 151.221 128.354 151.298C128.418 151.389 128.388 151.518 128.289 151.571C128.142 151.651 127.99 151.706 127.841 151.743Z" fill="black"/>
</g>
</g>
</g>
<path d="M149.632 163.202C149.499 161.431 145.799 160.759 144.736 159.433C143.672 158.112 142.212 157.103 140.509 156.592C140.509 156.592 136.369 160.697 134.266 161.687C133.322 162.132 130.325 161.832 130.325 161.832L128.515 162.909C126.948 163.841 125.769 165.303 125.191 167.033L124.839 168.089L132.244 176.292L127.486 187.787L126.853 198.296H149.229L149.632 163.202Z" fill="#3F4249"/>
<path opacity="0.15" d="M129.06 162.587C129.06 162.587 132.628 163.738 135.377 162.561C138.71 161.135 141.272 156.981 141.272 156.981L140.509 156.594C140.509 156.594 135.32 161.382 134.266 161.689C132.664 162.154 130.325 161.834 130.325 161.834L129.06 162.587Z" fill="black"/>
<path d="M132.244 176.295L127.486 187.791C126.628 189.255 125.116 190.014 123.598 190.014C122.327 190.014 121.048 189.48 120.139 188.386L107.632 171.617L110.847 169.074L121.269 178.797L124.839 168.093L132.244 176.295Z" fill="#3F4249"/>
<path d="M133.421 144.87C135.55 144.524 137.081 143.041 136.84 141.558C136.598 140.074 134.678 139.152 132.548 139.497C130.419 139.843 128.889 141.326 129.129 142.81C129.37 144.293 131.291 145.216 133.421 144.87Z" fill="#21252B"/>
<path d="M130.325 161.834C135.419 157.438 136.106 155.434 134.813 151.959C134.581 151.336 134.411 150.586 134.593 149.847L134.505 149.726C134.465 149.672 134.453 149.603 134.47 149.539C135.611 145.503 140.479 147.57 140.479 147.57L144.416 149.572L149.168 153.849L148.374 165.348L146.476 170.798L137.559 168.414C137.557 168.414 129.275 163.738 130.325 161.834Z" fill="#21252B"/>
<path d="M142.162 168.465C143.287 164.827 141.25 160.965 137.612 159.839C133.975 158.713 130.112 160.75 128.987 164.388C127.861 168.026 129.898 171.888 133.535 173.014C137.174 174.139 141.035 172.103 142.162 168.465Z" fill="#21252B"/>
<path d="M147.276 171.255C150.328 171.255 152.804 168.781 152.804 165.728C152.804 162.675 150.328 160.2 147.276 160.2C144.224 160.2 141.748 162.675 141.748 165.728C141.748 168.781 144.224 171.255 147.276 171.255Z" fill="#21252B"/>
<path d="M146.357 163.241C149.319 163.241 151.72 160.84 151.72 157.878C151.72 154.916 149.319 152.515 146.357 152.515C143.395 152.515 140.993 154.916 140.993 157.878C140.993 160.84 143.395 163.241 146.357 163.241Z" fill="#21252B"/>
<path d="M143.421 144.939C143.833 142.004 141.786 139.293 138.854 138.883C135.919 138.471 129.73 140.29 130.151 143.223C130.774 147.541 135.41 148.805 138.345 149.215C141.277 149.625 143.009 147.873 143.421 144.939Z" fill="#21252B"/>
<path d="M149.168 153.309C149.168 153.309 146.802 152.007 145.604 150.416C143.119 147.117 144.833 142.716 141.187 139.8C139.937 138.779 139.494 151.881 139.494 151.881L149.168 153.309Z" fill="#21252B"/>
<path d="M149.315 170.89C149.315 170.89 144.939 175.234 134.932 173.264L138.684 167.584L149.315 170.89Z" fill="#21252B"/>
<path d="M135.429 148.659C135.429 148.659 136.267 147.738 137.183 148.702C138.23 149.807 136.753 152.624 134.501 151.878C133.32 151.486 133.829 150.927 134.392 150.127L135.429 148.659Z" fill="#F49595"/>
<g opacity="0.3">
<g opacity="0.3">
<g opacity="0.3">
<path opacity="0.3" d="M136.93 149.49C136.771 149.248 136.582 149.104 136.369 149.066C136.156 149.028 135.933 149.092 135.704 149.26C135.474 149.428 135.284 149.674 135.156 149.966L135.027 150.212C134.995 150.285 135.029 150.372 135.102 150.403C135.175 150.436 135.261 150.401 135.292 150.328L135.42 150.082C135.445 150.011 135.649 149.655 135.876 149.494C136.04 149.376 136.187 149.327 136.317 149.35C136.449 149.374 136.573 149.475 136.688 149.648C136.731 149.715 136.821 149.734 136.889 149.689C136.954 149.648 136.973 149.558 136.93 149.49Z" fill="black"/>
</g>
</g>
</g>
<path opacity="0.15" d="M130.952 155.941L131.951 156.045C132.207 156.071 132.285 156.406 132.067 156.543L131.378 156.981L130.952 155.941Z" fill="black"/>
<path opacity="0.15" d="M127.486 187.791L132.574 175.499C132.689 175.222 133.106 175.36 133.031 175.651L127.232 191.972L127.486 187.791Z" fill="black"/>
<path d="M62.6301 191.653L62.1471 190.76L61.5498 191.059L62.6301 191.653Z" fill="#FA9B9B"/>
<path opacity="0.15" d="M61.5498 191.059L62.6301 191.653L62.1471 190.76" fill="black"/>
<path d="M40.3039 170.395C43.4715 170.395 46.0395 167.827 46.0395 164.659C46.0395 161.492 43.4715 158.924 40.3039 158.924C37.136 158.924 34.5682 161.492 34.5682 164.659C34.5682 167.827 37.136 170.395 40.3039 170.395Z" fill="#263238"/>
<path d="M45.8317 154.407C45.8317 154.407 47.0454 163.46 45.3435 166.669C43.6417 169.879 42.4471 159.22 42.4471 159.22L45.8317 154.407Z" fill="#263238"/>
<path d="M63.9476 149.925C64.0791 150.003 64.2038 150.087 64.3336 150.169C64.46 150.252 64.5847 150.338 64.7076 150.427C64.8305 150.515 64.9742 150.579 65.0711 150.697C65.1698 150.813 65.2581 150.939 65.3083 151.111C65.3118 151.121 65.3049 151.133 65.2945 151.137C65.291 151.138 65.2875 151.138 65.2858 151.137C65.1092 151.109 64.9724 151.038 64.8426 150.957C64.7128 150.877 64.6297 150.744 64.5258 150.635C64.4219 150.525 64.3198 150.413 64.2194 150.299C64.1207 150.183 64.0203 150.07 63.925 149.949C63.9181 149.942 63.9199 149.93 63.9285 149.925C63.9337 149.921 63.9406 149.921 63.9476 149.925Z" fill="#F037A5"/>
<path d="M65.6719 150.396C65.6442 150.153 65.6252 149.911 65.6026 149.669L65.5507 148.941C65.5351 148.699 65.4901 148.457 65.5161 148.214C65.5386 147.972 65.5767 147.73 65.6719 147.487C65.6754 147.477 65.6858 147.473 65.6961 147.477C65.7013 147.478 65.7048 147.482 65.7065 147.487C65.8018 147.73 65.8398 147.972 65.8623 148.214C65.8883 148.457 65.8433 148.699 65.8277 148.941L65.7758 149.669C65.7533 149.911 65.7342 150.153 65.7065 150.396C65.7048 150.406 65.6961 150.413 65.6875 150.411C65.6806 150.41 65.6736 150.403 65.6719 150.396Z" fill="#F037A5"/>
<path d="M173.328 192.526C173.328 190.031 173.418 188.108 172.336 184.652C171.254 181.196 171.103 177.98 171.103 177.44C171.103 176.899 171.103 176.808 171.254 176.569C171.404 176.33 171.254 175.968 171.254 175.968L171.081 175.507H171.166V175.056C171.166 175.056 171.237 174.583 170.754 174.583H168.641C168.157 174.583 168.229 175.056 168.229 175.056V175.507H168.314L168.141 175.968C168.141 175.968 167.99 176.328 168.141 176.569C168.292 176.809 168.292 176.899 168.292 177.44C168.292 177.981 168.141 181.196 167.059 184.652C165.977 188.108 166.067 190.031 166.067 192.526C166.067 195.02 166.067 198.962 166.067 198.962C166.067 198.962 166.038 200.315 167.329 200.315H172.049C173.342 200.315 173.328 198.962 173.328 198.962C173.328 198.962 173.328 195.02 173.328 192.526Z" fill="#3F4249"/>
<path d="M172.338 184.65C171.256 181.194 171.105 177.978 171.105 177.436C171.105 176.894 171.105 176.804 171.256 176.565C171.406 176.324 171.256 175.964 171.256 175.964L171.083 175.504H171.167V175.052C171.167 175.052 171.238 174.579 170.755 174.579H169.807C170.291 174.579 170.219 175.052 170.219 175.052V175.504H170.134L170.307 175.964C170.307 175.964 170.458 176.324 170.307 176.565C170.156 176.806 170.156 176.896 170.156 177.436C170.156 177.976 170.307 181.193 171.389 184.65C172.471 188.106 172.381 190.029 172.381 192.524C172.381 195.018 172.381 198.961 172.381 198.961C172.381 198.961 172.393 200.313 171.102 200.313H172.05C173.344 200.313 173.33 198.961 173.33 198.961C173.33 198.961 173.33 195.018 173.33 192.524C173.328 190.031 173.418 188.107 172.338 184.65Z" fill="black"/>
<path d="M31.0867 187.611L28.2665 185.817C28.2665 185.817 29.0507 186.451 30.3786 185.653L31.0867 187.611Z" fill="#83878E"/>
<path d="M24.0925 170.222C24.2331 170.222 24.347 170.108 24.347 169.967C24.347 169.827 24.2331 169.713 24.0925 169.713C23.9519 169.713 23.838 169.827 23.838 169.967C23.838 170.108 23.9519 170.222 24.0925 170.222Z" fill="#F037A5"/>
<path d="M25.0792 170.222C25.2198 170.222 25.3337 170.108 25.3337 169.967C25.3337 169.827 25.2198 169.713 25.0792 169.713C24.9386 169.713 24.8247 169.827 24.8247 169.967C24.8247 170.108 24.9386 170.222 25.0792 170.222Z" fill="#21252B"/>
<path d="M26.0643 170.222C26.2049 170.222 26.3188 170.108 26.3188 169.967C26.3188 169.827 26.2049 169.713 26.0643 169.713C25.9237 169.713 25.8098 169.827 25.8098 169.967C25.8098 170.108 25.9237 170.222 26.0643 170.222Z" fill="#21252B"/>
<path d="M120.759 170.295C120.899 170.295 121.013 170.181 121.013 170.04C121.013 169.9 120.899 169.786 120.759 169.786C120.618 169.786 120.504 169.9 120.504 170.04C120.504 170.181 120.618 170.295 120.759 170.295Z" fill="#F037A5"/>
<path d="M121.744 170.295C121.884 170.295 121.998 170.181 121.998 170.04C121.998 169.9 121.884 169.786 121.744 169.786C121.603 169.786 121.489 169.9 121.489 170.04C121.489 170.181 121.603 170.295 121.744 170.295Z" fill="#21252B"/>
<path d="M122.73 170.295C122.871 170.295 122.985 170.181 122.985 170.04C122.985 169.9 122.871 169.786 122.73 169.786C122.59 169.786 122.476 169.9 122.476 170.04C122.476 170.181 122.59 170.295 122.73 170.295Z" fill="#21252B"/>
<path d="M168.745 144.909H151.566C150.655 144.909 149.918 144.172 149.918 143.261V139.054C149.918 138.144 150.655 137.406 151.566 137.406H168.745C169.656 137.406 170.393 138.144 170.393 139.054V143.261C170.393 144.17 169.656 144.909 168.745 144.909Z" fill="#F037A5"/>
<path d="M156.088 142.281C156.708 142.281 157.212 141.778 157.212 141.158C157.212 140.537 156.708 140.034 156.088 140.034C155.468 140.034 154.965 140.537 154.965 141.158C154.965 141.778 155.468 142.281 156.088 142.281Z" fill="white"/>
<path d="M160.473 142.281C161.093 142.281 161.597 141.778 161.597 141.158C161.597 140.537 161.093 140.034 160.473 140.034C159.854 140.034 159.35 140.537 159.35 141.158C159.35 141.778 159.854 142.281 160.473 142.281Z" fill="white"/>
<path d="M164.857 142.281C165.477 142.281 165.981 141.778 165.981 141.158C165.981 140.537 165.477 140.034 164.857 140.034C164.237 140.034 163.733 140.537 163.733 141.158C163.733 141.778 164.237 142.281 164.857 142.281Z" fill="white"/>
<path opacity="0.6" d="M53.4925 96.1781H47.2998V136.487H53.4925V96.1781Z" fill="white"/>
<path d="M51.8721 99.3739H48.9203V102.326H51.8721V99.3739Z" fill="#F037A5"/>
<path d="M50.2758 105.605H49.0985V107.08H50.2758V105.605Z" fill="#61656D"/>
<path d="M51.6936 107.009H50.5164V108.484H51.6936V107.009Z" fill="#61656D"/>
<path d="M50.2758 107.307H49.0985V108.484H50.2758V107.307Z" fill="#61656D"/>
<path d="M51.6936 105.605H50.5164V106.782H51.6936V105.605Z" fill="#61656D"/>
<path d="M51.8721 130.339H48.9203V133.291H51.8721V130.339Z" fill="#61656D"/>
<path d="M50.4592 132.798H50.3346C50.293 132.798 50.2601 132.765 50.2601 132.723V130.909C50.2601 130.867 50.293 130.834 50.3346 130.834H50.4592C50.5008 130.834 50.5337 130.867 50.5337 130.909V132.723C50.5337 132.763 50.499 132.798 50.4592 132.798Z" fill="white"/>
<path d="M51.3769 131.754V131.878C51.3769 131.92 51.3441 131.953 51.3025 131.953H49.4881C49.4466 131.953 49.4137 131.92 49.4137 131.878V131.754C49.4137 131.712 49.4466 131.679 49.4881 131.679H51.3025C51.3441 131.679 51.3769 131.712 51.3769 131.754Z" fill="white"/>
<path d="M49.5297 114.211L49.4223 114.103C49.3877 114.069 49.3877 114.012 49.4223 113.975L50.977 112.421C51.0116 112.386 51.0687 112.386 51.1051 112.421L51.2124 112.528C51.247 112.563 51.247 112.62 51.2124 112.656L49.6578 114.211C49.6214 114.245 49.5643 114.245 49.5297 114.211Z" fill="#61656D"/>
<path d="M51.3959 113.125L50.5078 112.237H51.3959V113.125Z" fill="#61656D"/>
<path d="M49 119.19L50.3971 118.186L51.7925 119.19L50.3971 120.13L49 119.19Z" fill="#61656D"/>
<path d="M51.7925 119.432L50.3971 120.374L49 119.432V119.696L50.3971 120.674L51.7925 119.702V119.432Z" fill="#61656D"/>
<path d="M50.8781 125.036C50.8937 125.023 50.9006 125.004 50.9006 124.983V124.645C50.9006 124.623 50.8937 124.604 50.8781 124.59C50.8626 124.574 50.8435 124.567 50.8227 124.567H49.1833C49.1607 124.567 49.1417 124.574 49.1279 124.59C49.1123 124.605 49.1053 124.624 49.1053 124.645V124.983C49.1053 125.005 49.1123 125.023 49.1279 125.036C49.1434 125.05 49.1607 125.057 49.1833 125.057H49.7147V126.603C49.7147 126.626 49.7217 126.643 49.7373 126.657C49.7528 126.671 49.7701 126.678 49.7927 126.678H50.2133C50.2358 126.678 50.2549 126.671 50.2687 126.657C50.2843 126.643 50.2913 126.624 50.2913 126.603V125.057H50.8227C50.8435 125.057 50.8626 125.05 50.8781 125.036Z" fill="#61656D"/>
<path d="M51.6572 125.338C51.6364 125.317 51.6087 125.306 51.5793 125.306H50.641C50.6115 125.306 50.5838 125.317 50.563 125.339C50.5423 125.36 50.5302 125.388 50.5302 125.417V125.611C50.5302 125.642 50.5423 125.67 50.563 125.691C50.5838 125.71 50.6098 125.72 50.6392 125.72H50.8781V126.539C50.8781 126.57 50.8902 126.598 50.9128 126.619C50.9335 126.638 50.9595 126.648 50.9889 126.648H51.2296C51.259 126.648 51.285 126.638 51.3058 126.619C51.3283 126.598 51.3404 126.57 51.3404 126.539V125.72H51.5793C51.6087 125.72 51.6347 125.71 51.6555 125.691C51.678 125.67 51.6884 125.642 51.6884 125.611V125.417C51.6884 125.386 51.678 125.36 51.6572 125.338Z" fill="#61656D"/>
<path opacity="0.6" d="M115.253 85.936H69.6122V92.5165H115.253V85.936Z" fill="white"/>
<path d="M93.4411 87.2413H72.1433V91.2094H93.4411V87.2413Z" fill="white"/>
<path d="M74.101 89.694C74.0148 89.694 73.9402 89.6805 73.8768 89.6535C73.8145 89.6267 73.7669 89.5914 73.7336 89.5477C73.7004 89.5031 73.6827 89.4554 73.6807 89.4045C73.6807 89.3962 73.6838 89.389 73.69 89.3827C73.6973 89.3755 73.7056 89.3718 73.7149 89.3718H73.7942C73.814 89.3718 73.8275 89.3822 73.8347 89.403C73.8441 89.4466 73.8706 89.484 73.9142 89.515C73.9589 89.5462 74.021 89.5617 74.101 89.5617C74.187 89.5617 74.252 89.5467 74.2954 89.5166C74.339 89.4856 74.3609 89.4425 74.3609 89.3874C74.3609 89.3521 74.35 89.3235 74.3281 89.3019C74.3074 89.2801 74.2764 89.2609 74.2348 89.2442C74.1933 89.2276 74.131 89.2068 74.048 89.1819C73.967 89.1591 73.9028 89.1348 73.855 89.1088C73.8072 89.0829 73.7715 89.0507 73.7477 89.0122C73.7238 88.974 73.7118 88.9257 73.7118 88.8675C73.7118 88.8116 73.7269 88.7612 73.757 88.7165C73.7882 88.6719 73.8321 88.6372 73.8893 88.6123C73.9464 88.5863 74.0143 88.5734 74.0932 88.5734C74.1741 88.5734 74.2437 88.5879 74.3017 88.617C74.3598 88.645 74.404 88.6807 74.4341 88.7243C74.464 88.768 74.4801 88.8116 74.4822 88.855C74.4822 88.8633 74.4791 88.8706 74.4729 88.8769C74.4677 88.8831 74.4599 88.8862 74.4497 88.8862H74.3671C74.3453 88.8862 74.3318 88.8763 74.3266 88.8566C74.3203 88.8131 74.2959 88.7773 74.2535 88.7493C74.2109 88.7202 74.1574 88.7056 74.0932 88.7056C74.0226 88.7056 73.967 88.7191 73.9267 88.7461C73.8862 88.7732 73.8659 88.8131 73.8659 88.8659C73.8659 88.9013 73.8753 88.9304 73.894 88.9532C73.9137 88.9761 73.9433 88.9961 73.9826 89.0138C74.0221 89.0304 74.0797 89.0496 74.1554 89.0714C74.2437 89.0953 74.3131 89.1203 74.364 89.1462C74.4149 89.171 74.4528 89.2027 74.4775 89.2411C74.5025 89.2785 74.5149 89.3261 74.5149 89.3843C74.5149 89.4809 74.4775 89.5566 74.4029 89.6116C74.3281 89.6665 74.2276 89.694 74.101 89.694Z" fill="#61656D"/>
<path d="M80.1276 87.2292H76.1354V91.2215H80.1276V87.2292Z" fill="#F037A5"/>
<path d="M77.5692 89.5628C77.5561 89.5628 77.545 89.559 77.5358 89.5511C77.528 89.5419 77.524 89.5308 77.524 89.5178V88.2358C77.524 88.2214 77.528 88.2104 77.5358 88.2026C77.545 88.1934 77.5561 88.1887 77.5692 88.1887H77.6674C77.6883 88.1887 77.7053 88.1993 77.7183 88.2202L78.1326 89.0131L78.5507 88.2202C78.5533 88.2123 78.5585 88.2052 78.5664 88.1986C78.5756 88.192 78.5867 88.1887 78.5999 88.1887H78.6959C78.7103 88.1887 78.7216 88.1934 78.7293 88.2026C78.7385 88.2104 78.743 88.2214 78.743 88.2358V89.5178C78.743 89.5308 78.7385 89.5419 78.7293 89.5511C78.7202 89.559 78.7091 89.5628 78.6959 89.5628H78.5999C78.5867 89.5628 78.5756 89.559 78.5664 89.5511C78.5585 89.5419 78.5547 89.5308 78.5547 89.5178V88.5519L78.2268 89.1918C78.2138 89.2193 78.1928 89.233 78.1639 89.233H78.1032C78.0744 89.233 78.0535 89.2193 78.0403 89.1918L77.7105 88.5519V89.5178C77.7105 89.5308 77.706 89.5419 77.6968 89.5511C77.6889 89.559 77.6785 89.5628 77.6653 89.5628H77.5692Z" fill="white"/>
<path d="M81.8691 89.6785C81.8587 89.6785 81.8499 89.6753 81.8426 89.6691C81.8364 89.6618 81.8333 89.653 81.8333 89.6428V88.6248C81.8333 88.6144 81.8364 88.6061 81.8426 88.5999C81.8499 88.5926 81.8587 88.589 81.8691 88.589H81.9517C81.9621 88.589 81.9702 88.5926 81.9764 88.5999C81.9837 88.6061 81.9873 88.6144 81.9873 88.6248V89.5431H82.5041C82.5155 89.5431 82.5244 89.5467 82.5306 89.554C82.5379 89.5602 82.5415 89.569 82.5415 89.5805V89.6428C82.5415 89.653 82.5379 89.6618 82.5306 89.6691C82.5233 89.6753 82.5145 89.6785 82.5041 89.6785H81.8691Z" fill="#61656D"/>
<path d="M85.2117 89.6785C85.2034 89.6785 85.1956 89.6753 85.1883 89.6691C85.1821 89.6629 85.179 89.6556 85.179 89.6475C85.179 89.6402 85.181 89.6334 85.1852 89.6272L85.5417 89.1245L85.2023 88.6404C85.1992 88.6352 85.1977 88.6285 85.1977 88.6202C85.1977 88.6118 85.2008 88.6046 85.207 88.5983C85.2132 88.5921 85.2205 88.589 85.2288 88.589H85.3223C85.3379 88.589 85.3517 88.5978 85.3642 88.6155L85.6383 89.0045L85.9106 88.6155C85.921 88.5978 85.9345 88.589 85.9511 88.589H86.0397C86.0481 88.589 86.0553 88.5921 86.0616 88.5983C86.0678 88.6046 86.0709 88.6118 86.0709 88.6202C86.0709 88.6295 86.0688 88.6363 86.0647 88.6404L85.73 89.126L86.0849 89.6272C86.0891 89.6334 86.0912 89.6402 86.0912 89.6475C86.0912 89.6556 86.088 89.6629 86.0818 89.6691C86.0756 89.6753 86.0678 89.6785 86.0584 89.6785H85.9636C85.948 89.6785 85.934 89.6696 85.9215 89.6521L85.632 89.2489L85.3439 89.6521C85.3337 89.6696 85.3202 89.6785 85.3036 89.6785H85.2117ZM86.2979 89.6785C86.2875 89.6785 86.2786 89.6753 86.2714 89.6691C86.2651 89.6618 86.262 89.653 86.262 89.6428V88.6248C86.262 88.6144 86.2651 88.6061 86.2714 88.5999C86.2786 88.5926 86.2875 88.589 86.2979 88.589H86.3804C86.3907 88.589 86.399 88.5926 86.4052 88.5999C86.4125 88.6061 86.4161 88.6144 86.4161 88.6248V89.5431H86.9329C86.9443 89.5431 86.9531 89.5467 86.9594 89.554C86.9666 89.5602 86.9703 89.569 86.9703 89.5805V89.6428C86.9703 89.653 86.9666 89.6618 86.9594 89.6691C86.9521 89.6753 86.9433 89.6785 86.9329 89.6785H86.2979Z" fill="#61656D"/>
<path d="M89.4147 89.6785C89.4064 89.6785 89.3986 89.6753 89.3914 89.6691C89.3851 89.6629 89.382 89.6556 89.382 89.6475C89.382 89.6402 89.3841 89.6334 89.3883 89.6272L89.7447 89.1245L89.4054 88.6404C89.4023 88.6352 89.4007 88.6285 89.4007 88.6202C89.4007 88.6118 89.4038 88.6046 89.4101 88.5983C89.4163 88.5921 89.4236 88.589 89.4319 88.589H89.5252C89.5408 88.589 89.5548 88.5978 89.5673 88.6155L89.8412 89.0045L90.1135 88.6155C90.1239 88.5978 90.1374 88.589 90.154 88.589H90.2428C90.2511 88.589 90.2584 88.5921 90.2644 88.5983C90.2707 88.6046 90.2738 88.6118 90.2738 88.6202C90.2738 88.6295 90.2717 88.6363 90.2676 88.6404L89.9329 89.126L90.2878 89.6272C90.292 89.6334 90.294 89.6402 90.294 89.6475C90.294 89.6556 90.2909 89.6629 90.2847 89.6691C90.2785 89.6753 90.2707 89.6785 90.2615 89.6785H90.1665C90.1509 89.6785 90.1369 89.6696 90.1244 89.6521L89.8349 89.2489L89.547 89.6521C89.5366 89.6696 89.5231 89.6785 89.5065 89.6785H89.4147ZM90.3997 89.6785C90.3913 89.6785 90.3835 89.6753 90.3763 89.6691C90.37 89.6629 90.3669 89.6556 90.3669 89.6475C90.3669 89.6402 90.369 89.6334 90.3732 89.6272L90.7296 89.1245L90.3903 88.6404C90.3872 88.6352 90.3856 88.6285 90.3856 88.6202C90.3856 88.6118 90.3887 88.6046 90.395 88.5983C90.4012 88.5921 90.4085 88.589 90.4168 88.589H90.5101C90.5257 88.589 90.5397 88.5978 90.5522 88.6155L90.8261 89.0045L91.0986 88.6155C91.109 88.5978 91.1224 88.589 91.1391 88.589H91.2277C91.236 88.589 91.2433 88.5921 91.2495 88.5983C91.2558 88.6046 91.2589 88.6118 91.2589 88.6202C91.2589 88.6295 91.2568 88.6363 91.2526 88.6404L90.918 89.126L91.2729 89.6272C91.2771 89.6334 91.2791 89.6402 91.2791 89.6475C91.2791 89.6556 91.276 89.6629 91.2698 89.6691C91.2635 89.6753 91.2558 89.6785 91.2464 89.6785H91.1514C91.136 89.6785 91.1219 89.6696 91.1095 89.6521L90.8198 89.2489L90.5319 89.6521C90.5215 89.6696 90.508 89.6785 90.4914 89.6785H90.3997ZM91.4858 89.6785C91.4755 89.6785 91.4666 89.6753 91.4594 89.6691C91.4531 89.6618 91.45 89.653 91.45 89.6428V88.6248C91.45 88.6144 91.4531 88.6061 91.4594 88.5999C91.4666 88.5926 91.4755 88.589 91.4858 88.589H91.5682C91.5786 88.589 91.587 88.5926 91.5932 88.5999C91.6005 88.6061 91.6041 88.6144 91.6041 88.6248V89.5431H92.1209C92.1323 89.5431 92.1411 89.5467 92.1474 89.554C92.1546 89.5602 92.1583 89.569 92.1583 89.5805V89.6428C92.1583 89.653 92.1546 89.6618 92.1474 89.6691C92.1401 89.6753 92.1313 89.6785 92.1209 89.6785H91.4858Z" fill="#61656D"/>
<path d="M84.2064 88.126H84.0333V90.3264H84.2064V88.126Z" fill="#B2B6BB"/>
<path d="M88.1989 88.126H88.0258V90.3264H88.1989V88.126Z" fill="#B2B6BB"/>
<path d="M96.8014 90.219C97.3502 90.219 97.7951 89.7741 97.7951 89.2253C97.7951 88.6765 97.3502 88.2316 96.8014 88.2316C96.2526 88.2316 95.8076 88.6765 95.8076 89.2253C95.8076 89.7741 96.2526 90.219 96.8014 90.219Z" fill="#F037A5"/>
<path opacity="0.2" d="M96.8014 90.219C97.3502 90.219 97.7951 89.7741 97.7951 89.2253C97.7951 88.6765 97.3502 88.2316 96.8014 88.2316C96.2526 88.2316 95.8076 88.6765 95.8076 89.2253C95.8076 89.7741 96.2526 90.219 96.8014 90.219Z" fill="white"/>
<path d="M100.435 87.4681H100.262V90.9843H100.435V87.4681Z" fill="#B2B6BB"/>
<path d="M99.3688 88.9882L98.8944 89.4642L98.4183 88.9882H99.3688Z" fill="#61656D"/>
<path d="M102.594 90.1429C102.663 90.1342 102.715 90.1169 102.748 90.0927C102.781 90.0667 102.809 90.0148 102.831 89.9351L103.19 88.628C103.2 88.5917 103.209 88.5605 103.214 88.5346C103.219 88.5086 103.221 88.4878 103.221 88.4688C103.221 88.4186 103.207 88.3891 103.179 88.3753C103.152 88.3614 103.094 88.3528 103.008 88.3441V88.2679H103.875V88.3441C103.804 88.3528 103.752 88.3701 103.721 88.3961C103.69 88.4203 103.662 88.474 103.642 88.5536L103.281 89.8607L103.259 89.9611C103.257 89.9698 103.255 89.9801 103.254 89.9905C103.252 90.0009 103.252 90.0096 103.252 90.0182C103.252 90.0667 103.266 90.0979 103.292 90.1117C103.318 90.1256 103.375 90.136 103.463 90.1429V90.2191H102.596V90.1429H102.594Z" fill="#61656D"/>
<path d="M105.994 88.4169H107.864" stroke="#61656D" stroke-width="1.5" stroke-miterlimit="10"/>
<path d="M105.994 90.1637H107.864" stroke="#61656D" stroke-width="1.5" stroke-miterlimit="10"/>
<path d="M105.994 89.2894H107.864" stroke="#61656D" stroke-width="1.5" stroke-miterlimit="10"/>
<path d="M106.349 89.7275H107.509" stroke="#61656D" stroke-width="1.5" stroke-miterlimit="10"/>
<path d="M106.313 88.8203H107.547" stroke="#61656D" stroke-width="1.5" stroke-miterlimit="10"/>
<path d="M111.164 89.8936H110.51C110.175 89.8936 109.905 89.6235 109.905 89.2894C109.905 88.9553 110.175 88.6852 110.51 88.6852H111.164" stroke="#61656D" stroke-width="1.5" stroke-miterlimit="10"/>
<path d="M111.43 89.8936H112.085C112.419 89.8936 112.689 89.6235 112.689 89.2894C112.689 88.9553 112.419 88.6852 112.085 88.6852H111.43" stroke="#61656D" stroke-width="1.5" stroke-miterlimit="10"/>
<path d="M110.736 89.2894H111.858" stroke="#61656D" stroke-width="1.5" stroke-miterlimit="10"/>
<path d="M134.196 80.1242C134.191 80.0861 134.148 80.0567 134.108 80.0567C133.944 80.0601 133.805 79.9285 133.802 79.7641C133.8 79.6758 133.836 79.5927 133.902 79.5338C133.932 79.5078 133.935 79.4611 133.911 79.4299C133.847 79.3503 133.774 79.2759 133.694 79.2118C133.663 79.1876 133.618 79.191 133.591 79.2205C133.504 79.3122 133.369 79.3416 133.251 79.2966C133.133 79.2464 133.061 79.1287 133.068 79.0006C133.069 78.9608 133.04 78.9261 133 78.921C132.898 78.9088 132.796 78.9088 132.694 78.921C132.654 78.9261 132.625 78.959 132.626 78.9989C132.631 79.1252 132.557 79.2412 132.439 79.2897C132.322 79.333 132.19 79.3036 132.102 79.2135C132.076 79.1841 132.031 79.1806 132 79.2049C131.918 79.2689 131.844 79.3416 131.78 79.423C131.755 79.4542 131.759 79.4992 131.788 79.5269C131.884 79.6117 131.915 79.7485 131.864 79.8679C131.811 79.9822 131.695 80.0549 131.568 80.0515C131.529 80.0497 131.494 80.0792 131.491 80.119C131.478 80.2211 131.478 80.325 131.491 80.4289C131.494 80.4687 131.541 80.4964 131.579 80.4964C131.702 80.4947 131.813 80.5691 131.859 80.6834C131.906 80.8011 131.877 80.9344 131.783 81.0192C131.754 81.0452 131.75 81.0902 131.774 81.1214C131.839 81.2027 131.909 81.2754 131.989 81.3395C132.02 81.3655 132.065 81.362 132.093 81.3308C132.18 81.2391 132.315 81.2079 132.432 81.2547C132.55 81.3049 132.623 81.4226 132.616 81.5507C132.614 81.5905 132.644 81.6252 132.683 81.6304C132.735 81.6356 132.787 81.639 132.841 81.639C132.891 81.639 132.941 81.6356 132.99 81.6304C133.03 81.6252 133.059 81.5923 133.057 81.5524C133.052 81.4261 133.127 81.3101 133.243 81.2616C133.36 81.2183 133.492 81.2477 133.578 81.3395C133.604 81.3689 133.649 81.3724 133.681 81.3482C133.762 81.2841 133.836 81.2114 133.9 81.13C133.926 81.0989 133.923 81.0538 133.892 81.0261C133.767 80.9171 133.755 80.7284 133.866 80.6037C133.923 80.5379 134.008 80.5016 134.094 80.5016H134.112C134.151 80.5033 134.186 80.4739 134.191 80.4341C134.207 80.3302 134.207 80.2263 134.196 80.1242ZM132.846 80.7318C132.595 80.7318 132.393 80.5293 132.393 80.2783C132.393 80.0272 132.595 79.8247 132.846 79.8247C133.097 79.8247 133.3 80.0272 133.3 80.2783C133.3 80.5276 133.097 80.7318 132.846 80.7318Z" fill="white"/>
<path d="M136.416 81.3101C136.535 81.3101 136.631 81.214 136.631 81.0954C136.631 80.9768 136.535 80.8807 136.416 80.8807C136.298 80.8807 136.201 80.9768 136.201 81.0954C136.201 81.214 136.298 81.3101 136.416 81.3101Z" fill="white"/>
<path d="M136.416 80.4927C136.535 80.4927 136.631 80.3966 136.631 80.278C136.631 80.1594 136.535 80.0634 136.416 80.0634C136.298 80.0634 136.201 80.1594 136.201 80.278C136.201 80.3966 136.298 80.4927 136.416 80.4927Z" fill="white"/>
<path d="M136.416 79.6758C136.535 79.6758 136.631 79.5796 136.631 79.4611C136.631 79.3425 136.535 79.2465 136.416 79.2465C136.298 79.2465 136.201 79.3425 136.201 79.4611C136.201 79.5796 136.298 79.6758 136.416 79.6758Z" fill="white"/>
<path d="M96.9884 114.522H78.2875C78.0312 114.522 77.8235 114.315 77.8235 114.059V108.245C77.8235 107.989 78.0312 107.781 78.2875 107.781H96.9884C97.2446 107.781 97.4524 107.989 97.4524 108.245V114.059C97.4524 114.315 97.2446 114.522 96.9884 114.522Z" fill="#F037A5"/>
<path opacity="0.2" d="M96.9884 114.522H78.2875C78.0312 114.522 77.8235 114.315 77.8235 114.059V108.245C77.8235 107.989 78.0312 107.781 78.2875 107.781H96.9884C97.2446 107.781 97.4524 107.989 97.4524 108.245V114.059C97.4524 114.315 97.2446 114.522 96.9884 114.522Z" fill="white"/>
<path d="M93.7217 109.677H80.0327C79.8111 109.677 79.6293 109.497 79.6293 109.273C79.6293 109.052 79.8093 108.87 80.0327 108.87H93.7217C93.9433 108.87 94.125 109.05 94.125 109.273C94.1216 109.497 93.9433 109.677 93.7217 109.677Z" fill="#F037A5"/>
<path opacity="0.15" d="M85.2697 113.432H80.2006C79.8855 113.432 79.631 113.177 79.631 112.862V111.922C79.631 111.607 79.8855 111.353 80.2006 111.353H85.2697C85.5847 111.353 85.8392 111.607 85.8392 111.922V112.862C85.8392 113.177 85.5847 113.432 85.2697 113.432Z" fill="white"/>
<path opacity="0.5" d="M93.7217 109.677H80.0327C79.8111 109.677 79.6293 109.497 79.6293 109.273C79.6293 109.052 79.8093 108.87 80.0327 108.87H93.7217C93.9433 108.87 94.125 109.05 94.125 109.273C94.1216 109.497 93.9433 109.677 93.7217 109.677Z" fill="white"/>
<path d="M85.2698 113.432H80.2007C79.8856 113.432 79.6311 113.177 79.6311 112.862V111.922C79.6311 111.607 79.8856 111.353 80.2007 111.353H85.2698C85.5849 111.353 85.8394 111.607 85.8394 111.922V112.862C85.8394 113.177 85.5849 113.432 85.2698 113.432Z" fill="#F037A5"/>
<path opacity="0.15" d="M85.2698 113.432H80.2007C79.8856 113.432 79.6311 113.177 79.6311 112.862V111.922C79.6311 111.607 79.8856 111.353 80.2007 111.353H85.2698C85.5849 111.353 85.8394 111.607 85.8394 111.922V112.862C85.8394 113.177 85.5849 113.432 85.2698 113.432Z" fill="white"/>
<path d="M85.2698 113.432H80.2007C79.8856 113.432 79.6311 113.177 79.6311 112.862V111.922C79.6311 111.607 79.8856 111.353 80.2007 111.353H85.2698C85.5849 111.353 85.8394 111.607 85.8394 111.922V112.862C85.8394 113.177 85.5849 113.432 85.2698 113.432Z" fill="white"/>
<path d="M81.5284 105.307H62.8275C62.5713 105.307 62.3635 105.099 62.3635 104.843V99.0294C62.3635 98.7732 62.5713 98.5654 62.8275 98.5654H81.5284C81.7847 98.5654 81.9924 98.7732 81.9924 99.0294V104.843C81.9924 105.099 81.7847 105.307 81.5284 105.307Z" fill="#F037A5"/>
<path opacity="0.5" d="M81.5284 105.307H62.8275C62.5713 105.307 62.3635 105.099 62.3635 104.843V99.0294C62.3635 98.7732 62.5713 98.5654 62.8275 98.5654H81.5284C81.7847 98.5654 81.9924 98.7732 81.9924 99.0294V104.843C81.9924 105.099 81.7847 105.307 81.5284 105.307Z" fill="white"/>
<path d="M81.5284 132.95H62.8275C62.5713 132.95 62.3635 132.742 62.3635 132.486V126.671C62.3635 126.415 62.5713 126.207 62.8275 126.207H81.5284C81.7847 126.207 81.9924 126.415 81.9924 126.671V132.484C81.9924 132.742 81.7847 132.95 81.5284 132.95Z" fill="#F037A5"/>
<path opacity="0.5" d="M81.5284 132.95H62.8275C62.5713 132.95 62.3635 132.742 62.3635 132.486V126.671C62.3635 126.415 62.5713 126.207 62.8275 126.207H81.5284C81.7847 126.207 81.9924 126.415 81.9924 126.671V132.484C81.9924 132.742 81.7847 132.95 81.5284 132.95Z" fill="white"/>
<path d="M78.2598 128.104H64.5709C64.3493 128.104 64.1675 127.924 64.1675 127.701C64.1675 127.479 64.3475 127.297 64.5709 127.297H78.2598C78.4814 127.297 78.6632 127.477 78.6632 127.701C78.6615 127.922 78.4832 128.104 78.2598 128.104Z" fill="#F037A5"/>
<path d="M81.5284 123.79H62.8275C62.5713 123.79 62.3635 123.582 62.3635 123.326V117.512C62.3635 117.256 62.5713 117.048 62.8275 117.048H81.5284C81.7847 117.048 81.9924 117.256 81.9924 117.512V123.326C81.9924 123.582 81.7847 123.79 81.5284 123.79Z" fill="#F037A5"/>
<path opacity="0.5" d="M81.5284 123.79H62.8275C62.5713 123.79 62.3635 123.582 62.3635 123.326V117.512C62.3635 117.256 62.5713 117.048 62.8275 117.048H81.5284C81.7847 117.048 81.9924 117.256 81.9924 117.512V123.326C81.9924 123.582 81.7847 123.79 81.5284 123.79Z" fill="white"/>
<path d="M64.6626 119.867H63.9978C63.8264 119.867 63.6862 119.728 63.6862 119.555V118.89C63.6862 118.719 63.8247 118.579 63.9978 118.579H64.6626C64.834 118.579 64.9742 118.717 64.9742 118.89V119.555C64.9742 119.727 64.834 119.867 64.6626 119.867Z" fill="#F037A5"/>
<path opacity="0.7" d="M64.6626 119.867H63.9978C63.8264 119.867 63.6862 119.728 63.6862 119.555V118.89C63.6862 118.719 63.8247 118.579 63.9978 118.579H64.6626C64.834 118.579 64.9742 118.717 64.9742 118.89V119.555C64.9742 119.727 64.834 119.867 64.6626 119.867Z" fill="white"/>
<path d="M64.6626 122.259H63.9978C63.8264 122.259 63.6862 122.121 63.6862 121.948V121.283C63.6862 121.112 63.8247 120.971 63.9978 120.971H64.6626C64.834 120.971 64.9742 121.11 64.9742 121.283V121.948C64.9742 122.121 64.834 122.259 64.6626 122.259Z" fill="#F037A5"/>
<path d="M75.1539 119.534H66.2051C66.032 119.534 65.8917 119.394 65.8917 119.221C65.8917 119.048 66.032 118.908 66.2051 118.908H75.1539C75.327 118.908 75.4673 119.048 75.4673 119.221C75.4673 119.394 75.327 119.534 75.1539 119.534Z" fill="#F037A5"/>
<path d="M75.1539 121.929H66.2051C66.032 121.929 65.8917 121.788 65.8917 121.615C65.8917 121.442 66.032 121.302 66.2051 121.302H75.1539C75.327 121.302 75.4673 121.442 75.4673 121.615C75.4673 121.788 75.327 121.929 75.1539 121.929Z" fill="#F037A5"/>
<path opacity="0.7" d="M75.1539 119.534H66.2051C66.032 119.534 65.8917 119.394 65.8917 119.221C65.8917 119.048 66.032 118.908 66.2051 118.908H75.1539C75.327 118.908 75.4673 119.048 75.4673 119.221C75.4673 119.394 75.327 119.534 75.1539 119.534Z" fill="white"/>
<path opacity="0.7" d="M75.1539 121.929H66.2051C66.032 121.929 65.8917 121.788 65.8917 121.615C65.8917 121.442 66.032 121.302 66.2051 121.302H75.1539C75.327 121.302 75.4673 121.442 75.4673 121.615C75.4673 121.788 75.327 121.929 75.1539 121.929Z" fill="white"/>
<path d="M80.3581 119.534H77.8945C77.7214 119.534 77.5812 119.394 77.5812 119.221C77.5812 119.048 77.7214 118.908 77.8945 118.908H80.3581C80.5312 118.908 80.6715 119.048 80.6715 119.221C80.6715 119.394 80.5312 119.534 80.3581 119.534Z" fill="#F037A5"/>
<path d="M80.3581 121.929H77.8945C77.7214 121.929 77.5812 121.788 77.5812 121.615C77.5812 121.442 77.7214 121.302 77.8945 121.302H80.3581C80.5312 121.302 80.6715 121.442 80.6715 121.615C80.6715 121.788 80.5312 121.929 80.3581 121.929Z" fill="#F037A5"/>
<path d="M65.4607 131.859C64.7474 131.859 64.1692 131.281 64.1692 130.568C64.1692 129.854 64.7474 129.276 65.4607 129.276C66.174 129.276 66.7522 129.854 66.7522 130.568C66.7522 131.281 66.174 131.859 65.4607 131.859Z" fill="#F037A5"/>
<path d="M65.6182 103.59C64.7058 103.59 63.9648 102.849 63.9648 101.936C63.9648 101.024 64.7058 100.283 65.6182 100.283C66.5306 100.283 67.2715 101.024 67.2715 101.936C67.2715 102.85 66.5323 103.59 65.6182 103.59Z" fill="#F037A5"/>
<path d="M79.9547 131.556H75.7893C75.4742 131.556 75.2197 131.302 75.2197 130.987V130.047C75.2197 129.731 75.4742 129.477 75.7893 129.477H79.9564C80.2715 129.477 80.526 129.731 80.526 130.047V130.987C80.526 131.302 80.2698 131.556 79.9547 131.556Z" fill="#F037A5"/>
<path opacity="0.7" d="M79.9547 131.556H75.7893C75.4742 131.556 75.2197 131.302 75.2197 130.987V130.047C75.2197 129.731 75.4742 129.477 75.7893 129.477H79.9564C80.2715 129.477 80.526 129.731 80.526 130.047V130.987C80.526 131.302 80.2698 131.556 79.9547 131.556Z" fill="white"/>
<path d="M73.665 131.556H68.596C68.2809 131.556 68.0264 131.302 68.0264 130.987V130.047C68.0264 129.731 68.2809 129.477 68.596 129.477H73.665C73.9801 129.477 74.2346 129.731 74.2346 130.047V130.987C74.2346 131.302 73.9801 131.556 73.665 131.556Z" fill="#F037A5"/>
<path opacity="0.7" d="M73.665 131.556H68.596C68.2809 131.556 68.0264 131.302 68.0264 130.987V130.047C68.0264 129.731 68.2809 129.477 68.596 129.477H73.665C73.9801 129.477 74.2346 129.731 74.2346 130.047V130.987C74.2346 131.302 73.9801 131.556 73.665 131.556Z" fill="white"/>
<path d="M79.5567 102.977H69.827C69.5119 102.977 69.2574 102.722 69.2574 102.407V101.467C69.2574 101.152 69.5119 100.897 69.827 100.897H79.5567C79.8717 100.897 80.1262 101.152 80.1262 101.467V102.407C80.128 102.722 79.8717 102.977 79.5567 102.977Z" fill="#F037A5"/>
<path opacity="0.7" d="M79.5567 102.977H69.827C69.5119 102.977 69.2574 102.722 69.2574 102.407V101.467C69.2574 101.152 69.5119 100.897 69.827 100.897H79.5567C79.8717 100.897 80.1262 101.152 80.1262 101.467V102.407C80.128 102.722 79.8717 102.977 79.5567 102.977Z" fill="white"/>
<path d="M109.133 118.362H87.6483C87.5999 118.362 87.5618 118.324 87.5618 118.276V114.947C87.5618 114.898 87.5999 114.86 87.6483 114.86C87.6968 114.86 87.7349 114.898 87.7349 114.947V118.189H109.133C109.182 118.189 109.22 118.227 109.22 118.276C109.22 118.324 109.182 118.362 109.133 118.362Z" fill="#61656D"/>
<path d="M97.4526 115.816C98.7692 115.816 99.8366 114.748 99.8366 113.432C99.8366 112.115 98.7692 111.048 97.4526 111.048C96.136 111.048 95.0687 112.115 95.0687 113.432C95.0687 114.748 96.136 115.816 97.4526 115.816Z" fill="#3F4249"/>
<path d="M98.5379 113.183C98.5379 113.825 97.5304 114.438 97.4853 114.462C97.475 114.469 97.4611 114.472 97.4507 114.472C97.4403 114.472 97.4265 114.469 97.4161 114.462C97.3728 114.438 96.3635 113.823 96.3635 113.183C96.3635 112.847 96.6387 112.571 96.9746 112.571C97.1616 112.571 97.3347 112.656 97.449 112.798C97.565 112.656 97.7381 112.571 97.9233 112.571C98.2627 112.571 98.5379 112.847 98.5379 113.183Z" fill="white"/>
<path d="M108.86 119.299L109.883 118.276L108.86 117.253V119.299Z" fill="#61656D" stroke="#61656D" stroke-miterlimit="10" stroke-linecap="round" stroke-linejoin="round"/>
<path d="M135.124 151.711C135.27 151.711 135.388 151.593 135.388 151.448C135.388 151.303 135.27 151.185 135.124 151.185C134.979 151.185 134.861 151.303 134.861 151.448C134.861 151.593 134.979 151.711 135.124 151.711Z" fill="#3F4249"/>
<path d="M135.124 151.185C135.109 151.185 135.095 151.187 135.081 151.19C135.206 151.211 135.301 151.318 135.301 151.448C135.301 151.578 135.206 151.685 135.081 151.706C135.095 151.708 135.109 151.711 135.124 151.711C135.27 151.711 135.388 151.594 135.388 151.448C135.388 151.303 135.27 151.185 135.124 151.185Z" fill="black"/>
<path d="M49.225 85.4945C47.9335 85.4945 46.8861 84.4471 46.8861 83.1556C46.8861 81.8641 47.9335 80.8167 49.225 80.8167C50.5165 80.8167 51.5639 81.8641 51.5639 83.1556C51.5622 84.4471 50.5165 85.4945 49.225 85.4945Z" fill="white"/>
<path d="M49.225 83.2231C48.8753 83.2231 48.5844 82.9565 48.5533 82.6102L48.5083 82.1237C48.4719 81.729 48.7835 81.3862 49.18 81.3862H49.27C49.6682 81.3862 49.9781 81.7273 49.9417 82.1237L49.8967 82.6102C49.8638 82.9582 49.573 83.2231 49.225 83.2231Z" fill="#F037A5"/>
<path d="M51.2056 84.3987C51.1121 84.5475 51.0013 84.686 50.8784 84.809C50.4542 85.2314 49.8708 85.4945 49.2251 85.4945C48.3906 85.4945 47.6583 85.0583 47.2445 84.3987C47.3588 83.8793 47.8245 83.4897 48.3785 83.4897H50.0716C50.6274 83.4897 51.0896 83.8793 51.2056 84.3987Z" fill="#F037A5"/>
<path d="M55.0888 85.4945C53.7973 85.4945 52.7499 84.4471 52.7499 83.1556C52.7499 81.8641 53.7973 80.8167 55.0888 80.8167C56.3803 80.8167 57.4277 81.8641 57.4277 83.1556C57.426 84.4471 56.3786 85.4945 55.0888 85.4945Z" fill="white"/>
<path d="M55.0886 83.2231C54.7389 83.2231 54.4481 82.9565 54.4169 82.6102L54.3719 82.1237C54.3356 81.729 54.6472 81.3862 55.0436 81.3862H55.1336C55.5318 81.3862 55.8417 81.7273 55.8054 82.1237L55.7604 82.6102C55.7275 82.9582 55.4349 83.2231 55.0886 83.2231Z" fill="#3F4249"/>
<path d="M57.0675 84.3987C56.9741 84.5475 56.8633 84.686 56.7403 84.809C56.3162 85.2314 55.7327 85.4945 55.087 85.4945C54.2525 85.4945 53.5202 85.0583 53.1064 84.3987C53.2207 83.8793 53.6864 83.4897 54.2404 83.4897H55.9336C56.4893 83.4897 56.9533 83.8793 57.0675 84.3987Z" fill="#3F4249"/>
</g>
<defs>
<clipPath id="clip0_308_1665">
<rect width="200" height="200" fill="white"/>
</clipPath>
</defs>
</svg>
